<svg viewBox="0 0 800 800" xmlns="http://www.w3.org/2000/svg"><path d="M170.58501377563013,286.07435537294054 L169.9646593854548,271.93392442041613 M359.95701414127365,320.01362235862337 L379.5332122683473,314.40073173818416 M379.5332122683473,314.40073173818416 L393.96308214648667,308.14248646590545 M393.96308214648667,308.14248646590545 L402.83078841960986,301.5210559551107 M402.83078841960986,301.5210559551107 L405.9928084825279,294.81468355040744 M405.9928084825279,294.81468355040744 L403.54947479311613,288.28439201143476 M403.54947479311613,288.28439201143476 L395.80629557908014,282.16474243946254 M395.80629557908014,282.16474243946254 L383.2321107325604,276.65841053139184 M383.2321107325604,276.65841053139184 L366.41933913296833,271.93392442041625 M366.41933913296833,271.93392442041625 L346.0495166323752,268.1256679369473 M346.0495166323752,268.1256679369473 L322.8658366477927,265.33522546458414 M322.8658366477927,265.33522546458414 L297.65264758274094,263.63327941400655 M297.65264758274094,263.63327941400655 L271.22105711474626,263.06139450948353 M271.22105711474626,263.06139450948353 L244.39899127915047,263.63327837009945 M244.39899127915047,263.63327837009945 L218.02371986071643,265.33522651612617 M218.02371986071643,265.33522651612617 L192.93474276514928,268.12566607473684 M192.93474276514928,268.12566607473684 L169.9646593854548,271.93392442041613 M360.1413876633805,335.4567485702921 L359.95701414127365,320.01362235862337 M170.58501377563013,286.07435537294054 L193.4958131338323,282.1618946622416 M193.4958131338323,282.1618946622416 L218.52249498884422,279.2950074819678 M218.52249498884422,279.2950074819678 L244.83418066785435,277.5463928529407 M244.83418066785435,277.5463928529407 L271.5929684208564,276.9588215396414 M271.5929684208564,276.9588215396414 L297.96310669520557,277.5463939254804 M297.96310669520557,277.5463939254804 L323.11815717413566,279.2950064016021 M323.11815717413566,279.2950064016021 L346.2485156250516,282.16189657544294 M346.2485156250516,282.16189657544294 L366.57138677761884,286.07435537294054 M366.57138677761884,286.07435537294054 L383.34519230323065,290.9279058288246 M383.34519230323065,290.9279058288246 L395.890054304838,296.5843699873413 M395.890054304838,296.5843699873413 L403.6151957257076,302.8705070491187 M403.6151957257076,302.8705070491187 L406.0532969713202,309.5780315567372 M406.0532969713202,309.5780315567372 L402.90009669775895,316.4659578413086 M402.90009669775895,316.4659578413086 L394.05604590095476,323.26618748405673 M394.05604590095476,323.26618748405673 L379.66478010959685,329.69300902364716 M379.66478010959685,329.69300902364716 L360.1413876633805,335.4567485702921 M360.1413876633805,335.4567485702921 L658.0533384934031,262.77683172230684 M359.95701414127365,320.01362235862337 L658.5717685558138,249.25904360562407 M658.0533384934031,262.77683172230684 L658.5717685558138,249.25904360562407 M468.177482969475,212.86301367853352 L453.25103558660845,216.48004122553698 M453.25103558660845,216.48004122553698 L442.03152778439863,220.68436041765978 M442.03152778439863,220.68436041765978 L435.0327698739031,225.34278603531783 M435.0327698739031,225.34278603531783 L432.653670597918,230.2974062158155 M432.653670597918,230.2974062158155 L435.14590748915674,235.36809095436544 M435.14590748915674,235.36809095436544 L442.58123423257985,240.3572135895635 M442.58123423257985,240.3572135895635 L454.8225859777081,245.05692855866607 M454.8225859777081,245.05692855866607 L471.50400183377883,249.259043605624 M471.50400183377883,249.259043605624 L492.025016883056,252.7670232016093 M492.025016883056,252.7670232016093 L515.5638812666541,255.40916529085348 M515.5638812666541,255.40916529085348 L541.1120999673763,257.05149465896704 M541.1120999673763,257.05149465896704 L567.5293166934964,257.6087059255914 M567.5293166934964,257.6087059255914 L593.6140091897607,257.05149567360985 M593.6140091897607,257.05149567360985 L618.1821273152957,255.40916428344812 M618.1821273152957,255.40916428344812 L640.1442271717665,252.7670249442882 M640.1442271717665,252.7670249442882 L658.5717685558138,249.25904360562407 M468.0982049801107,225.37028235353534 L468.177482969475,212.86301367853352 M658.0533384934031,262.77683172230684 L639.6639389351919,266.3814878312855 M639.6639389351919,266.3814878312855 L617.7495930782804,269.096356736231 M617.7495930782804,269.096356736231 L593.2366604345084,270.78385988547876 M593.2366604345084,270.78385988547876 L567.211819323657,271.3563896871765 M567.211819323657,271.3563896871765 L540.8559888803511,270.78385884293715 M540.8559888803511,270.78385884293715 L515.3674688922213,269.09635777135327 M515.3674688922213,269.09635777135327 L491.88358550596126,266.38148604061263 M491.88358550596126,266.38148604061263 L471.4102432054708,262.77683172230684 M471.4102432054708,262.77683172230684 L454.767215183654,258.45874535410667 M454.767215183654,258.45874535410667 L442.55368687593096,253.6291101547648 M442.55368687593096,253.6291101547648 L435.1350312613058,248.5018172476992 M435.1350312613058,248.5018172476992 L432.6483408653808,243.2904400446108 M432.6483408653808,243.2904400446108 L435.0223853369332,238.19809126029173 M435.0223853369332,238.19809126029173 L442.0063703915793,233.4099393981469 M442.0063703915793,233.4099393981469 L453.20250128268816,229.0883473212964 M453.20250128268816,229.0883473212964 L468.0982049801107,225.37028235353534 M468.0982049801107,225.37028235353534 L170.58501377563013,286.07435537294054 M468.177482969475,212.86301367853352 L169.9646593854548,271.93392442041613" stroke="black"  stroke-width="4"  fill="red"/>
<path d="M639.7397153649422,225.37028235353534 L620.0063495572053,222.36645706029174 M620.0063495572053,222.36645706029174 L598.2939144862341,220.16157722478118 M598.2939144862341,220.16157722478118 L575.3393645549238,218.81516291384244 M575.3393645549238,218.81516291384244 L551.8932603390451,218.36247037029005 M551.8932603390451,218.36247037029005 L528.7088853509646,218.81516126141997 M528.7088853509646,218.81516126141997 L506.5327185559509,220.16157473028466 M506.5327185559509,220.16157473028466 L486.0949787090096,222.36645474975728 M486.0949787090096,222.36645474975728 L468.0982049801107,225.37028235353534 M468.0982049801107,225.37028235353534 L453.20250128268816,229.0883473212964 M453.20250128268816,229.0883473212964 L442.0063703915793,233.4099393981469 M442.0063703915793,233.4099393981469 L435.0223853369332,238.19809126029173 M435.0223853369332,238.19809126029173 L432.6483408653808,243.2904400446108 M432.6483408653808,243.2904400446108 L435.1350312613058,248.5018172476992 M435.1350312613058,248.5018172476992 L442.55368687593096,253.6291101547648 M442.55368687593096,253.6291101547648 L454.767215183654,258.45874535410667 M454.767215183654,258.45874535410667 L471.4102432054705,262.7768317223068 M471.4102432054705,262.7768317223068 L491.88358550596126,266.38148604061263 M491.88358550596126,266.38148604061263 L515.3674688922213,269.09635777135327 M515.3674688922213,269.09635777135327 L540.8559888803511,270.78385884293715 M540.8559888803511,270.78385884293715 L567.211819323657,271.3563896871765 M567.211819323657,271.3563896871765 L593.2366604345084,270.78385988547876 M593.2366604345084,270.78385988547876 L617.7495930782804,269.096356736231 M617.7495930782804,269.096356736231 L639.6639389351919,266.3814878312855 M639.6639389351919,266.3814878312855 L658.0533384934031,262.77683172230684 M658.0533384934031,262.77683172230684 L672.1999809790602,258.4587456013474 M672.1999809790602,258.4587456013474 L681.6213722905084,253.62910918641157 M681.6213722905084,253.62910918641157 L686.0758206019141,248.5018163009883 M686.0758206019141,248.5018163009883 L685.5496667447867,243.290440969575 M685.5496667447867,243.290440969575 L680.2316120323383,238.19809126029173 M680.2316120323383,238.19809126029173 L670.4794738129381,233.40994205142945 M670.4794738129381,233.40994205142945 L656.7849141469237,229.08834840502504 M656.7849141469237,229.08834840502504 L639.7397153649422,225.37028235353534 M639.7397153649422,225.37028235353534 L640.1780760120155,212.86301367853352 M640.1780760120155,212.86301367853352 L657.7617211944225,216.60714392706285 M657.7617211944225,216.60714392706285 L671.7475585229804,220.97276771248485 M671.7475585229804,220.97276771248485 L681.4878188992261,225.81203980488692 M681.4878188992261,225.81203980488692 L686.4508244090325,230.94919931634558 M686.4508244090325,230.94919931634558 L686.2609695063702,236.18367108308007 M686.2609695063702,236.18367108308007 L680.7400880545536,241.29595008118372 M680.7400880545536,241.29595008118372 L669.9456162580113,246.0565819893614 M669.9456162580113,246.0565819893614 L654.1986255965198,250.2382132683391 M654.1986255965198,250.2382132683391 L634.0947338889005,253.63005061506198 M634.0947338889005,253.63005061506198 L610.4918788500372,256.0533679356274 M610.4918788500372,256.0533679356274 L584.47180374298,257.3761761507618 M584.47180374298,257.3761761507618 L557.2763849754388,257.524895534426 M557.2763849754388,257.524895534426 L530.2246185348368,256.4911875526927 M530.2246185348368,256.4911875526927 L504.6204088015908,254.3327365655063 M504.6204088015908,254.3327365655063 L481.6630207864614,251.16786484810348 M481.6630207864614,251.16786484810348 L462.3714564078013,247.1649077496399 M462.3714564078013,247.1649077496399 L447.5309330819632,242.5280970172607 M447.5309330819632,242.5280970172607 L437.6650023303173,237.48206984226348 M437.6650023303173,237.48206984226348 L433.032293135049,232.2570003315418 M433.032293135049,232.2570003315418 L433.6433186692509,227.07584923869115 M433.6433186692509,227.07584923869115 L439.2908699782361,222.14458452190823 M439.2908699782361,222.14458452190823 L449.58725146602177,217.64556846580615 M449.58725146602177,217.64556846580615 L464.00271149318183,213.7337869739331 M464.00271149318183,213.7337869739331 L481.9007909592712,210.53534669644085 M481.9007909592712,210.53534669644085 L502.5684349583052,208.14748713909273 M502.5684349583052,208.14748713909273 L525.2399500496674,206.63941079382272 M525.2399500496674,206.63941079382272 L549.1153168258436,206.0533430540201 M549.1153168258436,206.0533430540201 L573.3740869863184,206.4053831858275 M573.3740869863184,206.4053831858275 L597.1867464764355,207.68588724426272 M597.1867464764355,207.68588724426272 L619.7257578544218,209.85921518448762 M619.7257578544218,209.85921518448762 L640.1780760120155,212.86301367853352 M658.5068358169763,250.9521302321235 L658.0533384934031,262.77683172230684 M468.1675550853167,214.42928340280173 L468.0982049801107,225.37028235353534" stroke="black"  stroke-width="4"  fill="red"/>
<path d="M366.57138677761895,286.07435537294054 L345.54208343769454,282.05262384582227 M345.54208343769454,282.05262384582227 L321.547792749056,279.147838046742 M321.547792749056,279.147838046742 L295.45116051541083,277.4383491506021 M295.45116051541083,277.4383491506021 L268.14445599032746,276.968623243367 M268.14445599032746,276.968623243367 L240.5381705680421,277.75066551979427 M240.5381705680421,277.75066551979427 L213.55237754473015,279.7644401971785 M213.55237754473015,279.7644401971785 L188.10807749338488,282.95717572934234 M188.10807749338488,282.95717572934234 L165.11580105875376,287.24173300124755 M165.11580105875376,287.24173300124755 L145.45876584885838,292.4943962745515 M145.45876584885838,292.4943962745515 L129.96849125333006,298.55269383365595 M129.96849125333006,298.55269383365595 L119.3911007722802,305.2141624575504 M119.3911007722802,305.2141624575504 L114.34442372765989,312.2371109537954 M114.34442372765989,312.2371109537954 L115.26777237346073,319.3445308564454 M115.26777237346073,319.3445308564454 L122.36827188917562,326.2323054943213 M122.36827188917562,326.2323054943213 L135.57100023103953,332.5823153243072 M135.57100023103953,332.5823153243072 L154.48191210274507,338.08038045245314 M154.48191210274507,338.08038045245314 L178.37319620411256,342.4379400803504 M178.37319620411256,342.4379400803504 L206.19945320051903,345.41519899113354 M206.19945320051903,345.41519899113354 L236.6487822678124,346.842593466073 M236.6487822678124,346.842593466073 L268.22652115956157,346.63716974555246 M268.22652115956157,346.63716974555246 L299.3627326910126,344.8109406582003 M299.3627326910126,344.8109406582003 L328.52917047788884,341.4696363401502 M328.52917047788884,341.4696363401502 L354.3489048921035,336.80216797229934 M354.3489048921035,336.80216797229934 L375.68441854924345,331.0626712048367 M375.68441854924345,331.0626712048367 L391.6946195467929,324.54826473104373 M391.6946195467929,324.54826473104373 L401.8579074356633,317.5760293730464 M401.8579074356633,317.5760293730464 L405.96492004944264,310.46209064489653 M405.96492004944264,310.46209064489653 L404.0884416301079,303.5048196256346 M404.0884416301079,303.5048196256346 L396.5396137573161,296.97297680496575 M396.5396137573161,296.97297680496575 L383.8193159103166,291.0986766416303 M383.8193159103166,291.0986766416303 L366.57138677761895,286.07435537294054 M366.57138677761895,286.07435537294054 L366.41933913296816,271.93392442041613 M366.41933913296816,271.93392442041613 L383.70733970572206,276.8246443351905 M383.70733970572206,276.8246443351905 L396.45737648245165,282.543046148341 M396.45737648245165,282.543046148341 L404.0238092713374,288.90192580223555 M404.0238092713374,288.90192580223555 L405.90410515435053,295.67541509130973 M405.90410515435053,295.67541509130973 L401.7857993311811,302.60191018549983 M401.7857993311811,302.60191018549983 L391.595340595701,309.39090326824027 M391.595340595701,309.39090326824027 L375.5421224209404,315.7345183778499 M375.5421224209404,315.7345183778499 L354.14878754985693,321.3238749206801 M354.14878754985693,321.3238749206801 L328.2586089849109,325.8694777461217 M328.2586089849109,325.8694777461217 L299.01241351857936,329.12366954399636 M299.01241351857936,329.12366954399636 L267.79138566984886,330.9023312145159 M267.79138566984886,330.9023312145159 L236.1286211534085,331.1024062933426 M236.1286211534085,331.1024062933426 L205.5990301926703,329.712185365935 M205.5990301926703,329.712185365935 L177.701864160614,326.81252549573355 M177.701864160614,326.81252549573355 L153.75278217147422,322.5686932016059 M153.75278217147422,322.5686932016059 L134.79980480434017,317.2143793921003 M134.79980480434017,317.2143793921003 L121.57210328978931,311.0307539764714 M121.57210328978931,311.0307539764714 L114.46387499185926,304.3238886018229 M114.46387499185926,304.3238886018229 L113.54917559096737,297.40362065221586 M113.54917559096737,297.40362065221586 L118.61925967111165,290.5660723054964 M118.61925967111165,290.5660723054964 L129.23272101372208,284.0808950375657 M129.23272101372208,284.0808950375657 L144.7694125619522,278.18329314037635 M144.7694125619522,278.18329314037635 L164.48086133161314,273.07023896693295 M164.48086133161314,273.07023896693295 L187.5332928979274,268.89975425718785 M187.5332928979274,268.89975425718785 L213.04139308880627,265.7921361122198 M213.04139308880627,265.7921361122198 L240.09270560255575,263.8320979703336 M240.09270560255575,263.8320979703336 L267.76445078977736,263.0709344924704 M267.76445078977736,263.0709344924704 L295.1348754829149,263.5281190590889 M295.1348754829149,263.5281190590889 L321.2918504040024,265.19198357139123 M321.2918504040024,265.19198357139123 L345.34145532147005,268.0193076096908 M345.34145532147005,268.0193076096908 L366.41933913296816,271.93392442041613" stroke="black"  stroke-width="4"  fill="red"/>
<path d="M323.17629135783346,326.5447610651991 L331.06061336805107,328.60154072003843 M275.89286683188544,337.70217707682707 L283.7564155833584,339.84678128177427 M323.17629135783346,326.5447610651991 L275.89286683188544,337.70217707682707 M331.06061336805107,328.60154072003843 L283.7564155833584,339.84678128177427 M324.2700315455539,386.6065871822878 L332.0776790242862,388.87332354708104 M275.89286683188544,337.70217707682707 L277.4608512191594,351.13944712315913 M277.4608512191594,351.13944712315913 L281.3436563113154,363.23684722616326 M281.3436563113154,363.23684722616326 L287.3128460979154,373.37703402271893 M287.3128460979154,373.37703402271893 L295.0331113296916,381.06253424586083 M295.0331113296916,381.06253424586083 L304.0865667896259,385.93800192143624 M304.0865667896259,385.93800192143624 L313.99954338358697,387.80164466207344 M313.99954338358697,387.80164466207344 L324.2700315455539,386.6065871822878 M283.7564155833584,339.84678128177427 L285.30797685212144,353.3310606325977 M285.30797685212144,353.3310606325977 L289.1764485193558,365.4678790618022 M289.1764485193558,365.4678790618022 L295.133987959152,375.63787517697455 M295.133987959152,375.63787517697455 L302.8457113732493,383.3422071057241 M302.8457113732493,383.3422071057241 L311.8940031340768,388.22484719019997 M311.8940031340768,388.22484719019997 L321.80532556638155,390.0839854519243 M321.80532556638155,390.0839854519243 L332.0776790242862,388.87332354708104 M324.2700315455539,386.6065871822878 L323.17629135783346,326.5447610651991 M332.0776790242862,388.87332354708104 L331.06061336805107,328.60154072003843" stroke="black"  stroke-width="4"  fill="red"/>
<path d="M639.2584053260391,303.8023413835529 L647.0061147589868,305.47584662106965 M674.6243028003241,243.6139727511807 L682.4201825884261,245.0757002114497 M639.2584053260391,303.8023413835529 L646.8067826153906,300.5355916497707 M646.8067826153906,300.5355916497707 L654.0233292006687,294.87093105851613 M654.0233292006687,294.87093105851613 L660.5655815565401,287.1009947402855 M660.5655815565401,287.1009947402855 L666.1270310523271,277.60916315047666 M666.1270310523271,277.60916315047666 L670.4484516958441,266.85168926278794 M670.4484516958441,266.85168926278794 L673.3270823281441,255.33867064017954 M673.3270823281441,255.33867064017954 L674.6243028003241,243.6139727511807 M647.0061147589868,305.47584662106965 L654.5507768258894,302.1921709256969 M654.5507768258894,302.1921709256969 L661.7673703153705,296.5038599468372 M661.7673703153705,296.5038599468372 L668.3134591936698,288.70476923857956 M668.3134591936698,288.70476923857956 L673.8823976850251,279.1796813237705 M673.8823976850251,279.1796813237705 L678.2146546124159,268.38637525021954 M678.2146546124159,268.38637525021954 L681.106998221388,256.83654932814875 M681.106998221388,256.83654932814875 L682.4201825884261,245.0757002114497 M641.1108409541566,251.52210630022847 L648.9336076002551,253.0361901672152 M674.6243028003241,243.6139727511807 L641.1108409541566,251.52210630022847 M682.4201825884261,245.0757002114497 L648.9336076002551,253.0361901672152 M641.1108409541566,251.52210630022847 L639.2584053260391,303.8023413835529 M648.9336076002551,253.0361901672152 L647.0061147589868,305.47584662106965" stroke="black"  stroke-width="4"  fill="red"/>
<path d="M641.1108409541566,251.52210630022847 L648.9336076002551,253.0361901672152 M331.06061336805107,328.60154072003843 L648.9336076002551,253.0361901672152 M323.17629135783346,326.5447610651991 L331.06061336805107,328.60154072003843 M641.1108409541566,251.52210630022847 L323.17629135783346,326.5447610651991 M639.2584053260391,303.8023413835529 L647.0061147589868,305.47584662106965 M639.2584053260391,303.8023413835529 L641.1108409541566,251.52210630022847 M647.0061147589868,305.47584662106965 L648.9336076002551,253.0361901672152 M381.10138730384995,375.8911564381173 L609.2932853504437,315.46273400097925 M610.1015138235148,288.88861453901785 L609.2932853504437,315.46273400097925 M616.6983306299744,287.23060555370853 L610.1015138235148,288.88861453901785 M616.6983306299744,287.23060555370853 L615.8632783713181,313.72290749060346 M615.8632783713181,313.72290749060346 L647.0061147589868,305.47584662106965 M331.06061336805107,328.60154072003843 L332.0776790242862,388.87332354708104 M332.0776790242862,388.87332354708104 L372.85073334868565,378.07604558998145 M372.56046295137236,348.5909237406627 L372.85073334868565,378.07604558998145 M380.8538145035771,346.5065167008278 L372.56046295137236,348.5909237406627 M380.8538145035771,346.5065167008278 L381.10138730384995,375.8911564381173 M324.2700315455539,386.6065871822878 L332.0776790242862,388.87332354708104 M323.17629135783346,326.5447610651991 L324.2700315455539,386.6065871822878 M608.0944682195886,311.9947272714752 L639.2584053260391,303.8023413835529 M324.2700315455539,386.6065871822878 L365.0316624487271,375.8911564381173 M364.7030658257202,346.5065167008278 L365.0316624487271,375.8911564381173 M372.99477502135915,344.437814695186 L364.7030658257202,346.5065167008278 M372.99477502135915,344.437814695186 L373.2806986415033,373.7226471299441 M373.2806986415033,373.7226471299441 L601.5204493202928,313.72290749060346 M602.2909911035035,287.23060555370853 L601.5204493202928,313.72290749060346 M608.891888355691,285.5837449291441 L602.2909911035035,287.23060555370853 M608.891888355691,285.5837449291441 L608.0944682195886,311.9947272714752 M608.0944682195886,311.9947272714752 L615.8632783713181,313.72290749060346 M601.5204493202928,313.72290749060346 L609.2932853504437,315.46273400097925 M373.2806986415033,373.7226471299441 L381.10138730384995,375.8911564381173 M372.99477502135915,344.437814695186 L380.8538145035771,346.5065167008278 M372.56046295137236,348.5909237406627 L364.7030658257202,346.5065167008278 M365.0316624487271,375.8911564381173 L372.85073334868565,378.07604558998145 M610.1015138235148,288.88861453901785 L602.2909911035035,287.23060555370853 M608.891888355691,285.5837449291441 L616.6983306299744,287.23060555370853" stroke="black"  stroke-width="4"  fill="red"/>
<path d="M191.39977509715317,292.168278562413 L198.29124017446247,293.96605206084143 M144.65408646172258,301.90978243041906 L151.5085318296541,303.7791766216731 M191.39977509715317,292.168278562413 L144.65408646172258,301.90978243041906 M198.29124017446247,293.96605206084143 L151.5085318296541,303.7791766216731 M193.68315566590175,348.6942683785178 L200.51670601436376,350.6782023506519 M144.65408646172258,301.90978243041906 L146.4698029175718,314.55512765370014 M146.4698029175718,314.55512765370014 L150.5574159296089,325.9847079883089 M150.5574159296089,325.9847079883089 L156.68047246294566,335.6154064200024 M156.68047246294566,335.6154064200024 L164.4987089957097,342.97332801231585 M164.4987089957097,342.97332801231585 L173.59201877651861,347.71536051170744 M173.59201877651861,347.71536051170744 L183.48682848479842,349.6408958950567 M183.48682848479842,349.6408958950567 L193.68315566590175,348.6942683785178 M151.5085318296541,303.7791766216731 L153.31254093281038,316.46622705202645 M153.31254093281038,316.46622705202645 L157.39106512403492,327.9311516703847 M157.39106512403492,327.9311516703847 L163.50798243132343,337.5890204768068 M163.50798243132343,337.5890204768068 L171.32318814946086,344.9646727404181 M171.32318814946086,344.9646727404181 L180.41658524257937,349.7143172557309 M180.41658524257937,349.7143172557309 L190.31448826865906,351.63724245700365 M190.31448826865906,351.63724245700365 L200.51670601436376,350.6782023506519 M193.68315566590175,348.6942683785178 L191.39977509715317,292.168278562413 M200.51670601436376,350.6782023506519 L198.29124017446247,293.96605206084143" stroke="black"  stroke-width="4"  fill="red"/>
<path d="M508.4209210059396,275.54144477041143 L515.3267613212607,277.0331062785208 M542.9055667032592,218.91670973298102 L549.8611222622392,220.2208764002898 M508.4209210059396,275.54144477041143 L516.0036235807479,272.5544495424185 M516.0036235807479,272.5544495424185 L523.1959301585155,267.28432141690854 M523.1959301585155,267.28432141690854 L529.655962456526,260.00331476559563 M529.655962456526,260.00331476559563 L535.0803053502879,251.07124766393127 M535.0803053502879,251.07124766393127 L539.2153710511227,240.9186081784413 M539.2153710511227,240.9186081784413 L541.8665225808738,230.0283750719532 M541.8665225808738,230.0283750719532 L542.9055667032592,218.91670973298102 M515.3267613212607,277.0331062785208 L522.9089936146931,274.0316320634652 M522.9089936146931,274.0316320634652 L530.1036870313808,268.74090920926744 M530.1036870313808,268.74090920926744 L536.5688825704764,261.43425695476583 M536.5688825704764,261.43425695476583 L542.0009648684318,252.4727315729703 M542.0009648684318,252.4727315729703 L546.1460254983697,242.28818071964088 M546.1460254983697,242.28818071964088 L548.8089902546935,231.36501861839065 M548.8089902546935,231.36501861839065 L549.8611222622392,220.2208764002898 M509.0750054240074,225.9667832943931 L516.0408341795398,227.3150082148187 M542.9055667032592,218.91670973298102 L509.0750054240074,225.9667832943931 M549.8611222622392,220.2208764002898 L516.0408341795398,227.3150082148187 M509.0750054240074,225.9667832943931 L508.4209210059396,275.54144477041143 M516.0408341795398,227.3150082148187 L515.3267613212607,277.0331062785208" stroke="black"  stroke-width="4"  fill="red"/>
<path d="M509.0750054240074,225.9667832943931 L477.4235619798911,232.56274257405033 M478.5825220435229,232.79381249327906 L477.4235619798911,232.56274257405033 M478.5825220435229,232.79381249327906 L471.91207524275615,234.18540154164924 M471.91207524275615,234.18540154164924 L470.7529643466943,233.95285264714164 M470.7529643466943,233.95285264714164 L240.5036948718447,281.9353343405396 M241.6541412175606,282.22182681573736 L240.5036948718447,281.9353343405396 M241.6541412175606,282.22182681573736 L233.38027506983474,283.9479213132653 M233.38027506983474,283.9479213132653 L232.2306418421704,283.65938591494955 M232.2306418421704,283.65938591494955 L191.39977509715317,292.168278562413 M191.39977509715317,292.168278562413 L198.29124017446247,293.96605206084143 M516.0408341795398,227.3150082148187 L198.29124017446247,293.96605206084143 M509.0750054240074,225.9667832943931 L516.0408341795398,227.3150082148187 M477.0259876375862,282.83840203387217 L508.4209210059396,275.54144477041143 M477.4235619798911,232.56274257405033 L477.0259876375862,282.83840203387217 M508.4209210059396,275.54144477041143 L509.0750054240074,225.9667832943931 M478.5825220435229,232.79381249327906 L478.37788674139216,258.050284402446 M478.37788674139216,258.050284402446 L484.1660006606349,259.27135497072476 M484.1660006606349,259.27135497072476 L483.93810972430043,284.3760110665501 M477.0259876375862,282.83840203387217 L483.93810972430043,284.3760110665501 M478.37788674139216,258.050284402446 L471.7350932800677,259.51634628629864 M471.7350932800677,259.51634628629864 L471.91207524275615,234.18540154164924 M477.52401275659275,260.7452116070177 L471.7350932800677,259.51634628629864 M477.52401275659275,260.7452116070177 L477.32353676693924,285.9233913128579 M470.41047224061003,284.3760110665501 L477.32353676693924,285.9233913128579 M470.7529643466943,233.95285264714164 L470.41047224061003,284.3760110665501 M242.28039385799104,337.3990709640409 L470.41047224061003,284.3760110665501 M240.5036948718447,281.9353343405396 L242.28039385799104,337.3990709640409 M241.6541412175606,282.22182681573736 L242.5417795933355,310.09921976961584 M242.5417795933355,310.09921976961584 L248.2898407897984,311.61225781358803 M248.2898407897984,311.61225781358803 L249.14473087200747,339.30240446215066 M242.28039385799104,337.3990709640409 L249.14473087200747,339.30240446215066 M242.5417795933355,310.09921976961584 L234.31014775239512,311.915937654068 M234.31014775239512,311.915937654068 L233.38027506983474,283.9479213132653 M240.05425843037966,313.4397329444566 L234.31014775239512,311.915937654068 M240.05425843037966,313.4397329444566 L240.95101174667508,341.2192022962761 M234.09136023843925,339.30240446215066 L240.95101174667508,341.2192022962761 M232.2306418421704,283.65938591494955 L234.09136023843925,339.30240446215066 M193.68315566590175,348.6942683785178 L234.09136023843925,339.30240446215066 M191.39977509715317,292.168278562413 L193.68315566590175,348.6942683785178 M193.68315566590175,348.6942683785178 L200.51670601436376,350.6782023506519 M198.29124017446247,293.96605206084143 L200.51670601436376,350.6782023506519 M483.93810972430043,284.3760110665501 L515.3267613212607,277.0331062785208 M484.1660006606349,259.27135497072476 L477.52401275659275,260.7452116070177 M249.14473087200747,339.30240446215066 L477.32353676693924,285.9233913128579 M248.2898407897984,311.61225781358803 L240.05425843037966,313.4397329444566 M200.51670601436376,350.6782023506519 L240.95101174667508,341.2192022962761 M515.3267613212607,277.0331062785208 L516.0408341795398,227.3150082148187 M508.4209210059396,275.54144477041143 L515.3267613212607,277.0331062785208" stroke="black"  stroke-width="4"  fill="red"/>
<path d="M434.1180609538969,578.370672192327 L426.3028915754854,575.5177421081676 M391.60616271648314,593.9466569459798 L383.7940892519588,590.9790111392406 M434.1180609538969,578.370672192327 L391.60616271648314,593.9466569459798 M426.3028915754854,575.5177421081676 L383.7940892519588,590.9790111392406 M434.3060885662849,308.17499319078524 L426.11626791574884,306.2198011083466 M434.3060885662849,308.17499319078524 L434.1180609538969,578.370672192327 M426.11626791574884,306.2198011083466 L426.3028915754854,575.5177421081676 M389.7135263967302,318.86175736808957 L381.52727534059346,316.8240600875383 M391.60616271648314,593.9466569459798 L389.7135263967302,318.86175736808957 M383.7940892519588,590.9790111392406 L381.52727534059346,316.8240600875383 M389.7135263967302,318.86175736808957 L434.3060885662849,308.17499319078524 M408.29152220737393,378.0438586295489 L408.1406014565884,337.9178040144391 M416.4673405197456,335.8316845079192 L408.1406014565884,337.9178040144391 M416.5609417953357,375.818149440014 L416.4673405197456,335.8316845079192 M408.29152220737393,378.0438586295489 L416.5609417953357,375.818149440014 M381.52727534059346,316.8240600875383 L426.11626791574884,306.2198011083466 M399.9322349467719,325.7491975176731 L400.24112363164136,385.7297639614155 M400.24112363164136,385.7297639614155 L408.49569828811883,383.48701160191973 M408.49569828811883,383.48701160191973 L408.27277014664656,323.7144036696732 M408.27277014664656,323.7144036696732 L399.9322349467719,325.7491975176731 M400.24112363164136,385.7297639614155 L402.2572669575443,386.2931364819782 M402.2572669575443,386.2931364819782 L402.2096129919386,376.3729755930898 M402.2096129919386,376.3729755930898 L408.29152220737393,378.0438586295489 M408.1406014565884,337.9178040144391 L402.01736083472014,336.3517033526045 M402.01736083472014,336.3517033526045 L401.9688845352915,326.2603566300858 M401.9688845352915,326.2603566300858 L399.9322349467719,325.7491975176731 M416.4673405197456,335.8316845079192 L410.34363113333166,334.277631398269 M410.34363113333166,334.277631398269 L402.01736083472014,336.3517033526045 M408.49569828811883,383.48701160191973 L410.51202285537585,384.0460951789768 M410.51202285537585,384.0460951789768 L410.47857333824817,374.16003272031116 M410.47857333824817,374.16003272031116 L416.5609417953357,375.818149440014 M410.34363113333166,334.277631398269 L410.3096066322228,324.22163143261827 M410.3096066322228,324.22163143261827 L408.27277014664656,323.7144036696732 M410.47857333824817,374.16003272031116 L402.2096129919386,376.3729755930898 M410.3096066322228,324.22163143261827 L401.9688845352915,326.2603566300858 M410.51202285537585,384.0460951789768 L402.2572669575443,386.2931364819782" stroke="black"  stroke-width="4"  fill="red"/>
<path d="M657.9419845697473,496.3635596829382 L650.2127072485503,494.0774354048377 M623.9603674441012,508.8141246353099 L616.206986282946,506.4459701954266 M657.9419845697473,496.3635596829382 L623.9603674441012,508.8141246353099 M650.2127072485503,494.0774354048377 L616.206986282946,506.4459701954266 M667.6827312979667,252.24546090956412 L659.5907712376625,250.69434616359354 M667.6827312979667,252.24546090956412 L657.9419845697473,496.3635596829382 M659.5907712376625,250.69434616359354 L650.2127072485503,494.0774354048377 M632.4017140043736,260.7006806459498 L624.2823984487477,259.09146633975377 M623.9603674441012,508.8141246353099 L632.4017140043736,260.7006806459498 M616.206986282946,506.4459701954266 L624.2823984487477,259.09146633975377 M632.4017140043736,260.7006806459498 L667.6827312979667,252.24546090956412 M644.8088842581897,314.38535628829857 L646.1239701813809,278.295214191637 M652.7179034524302,276.64321900875785 L646.1239701813809,278.295214191637 M651.3672837008353,312.62016711717627 L652.7179034524302,276.64321900875785 M644.8088842581897,314.38535628829857 L651.3672837008353,312.62016711717627 M624.2823984487477,259.09146633975377 L659.5907712376625,250.69434616359354 M638.3644155230049,267.5802284317306 L636.4720419824685,321.5462691642096 M636.4720419824685,321.5462691642096 L643.0265804871062,319.7654134195533 M643.0265804871062,319.7654134195533 L644.9723930989749,265.9681170027773 M644.9723930989749,265.9681170027773 L638.3644155230049,267.5802284317306 M636.4720419824685,321.5462691642096 L638.4695596950376,321.99338193717847 M638.4695596950376,321.99338193717847 L638.7858635706384,313.0603334154705 M638.7858635706384,313.0603334154705 L644.8088842581897,314.38535628829857 M646.1239701813809,278.295214191637 L640.0607450539005,277.0551528663151 M640.0607450539005,277.0551528663151 L640.3819038775896,267.98499098562843 M640.3819038775896,267.98499098562843 L638.3644155230049,267.5802284317306 M652.7179034524302,276.64321900875785 L646.6585081437688,275.4116516472485 M646.6585081437688,275.4116516472485 L640.0607450539005,277.0551528663151 M643.0265804871062,319.7654134195533 L645.0228778548083,320.20949192771354 M645.0228778548083,320.20949192771354 L645.34802348626,311.3041652386828 M645.34802348626,311.3041652386828 L651.3672837008353,312.62016711717627 M646.6585081437688,275.4116516472485 L646.9886272563829,266.3701076136001 M646.9886272563829,266.3701076136001 L644.9723930989749,265.9681170027773 M645.34802348626,311.3041652386828 L638.7858635706384,313.0603334154705 M646.9886272563829,266.3701076136001 L640.3819038775896,267.98499098562843 M645.0228778548083,320.20949192771354 L638.4695596950376,321.99338193717847" stroke="black"  stroke-width="4"  fill="red"/>
<path d="M243.57844571625395,508.8141246353099 L237.09124570925536,506.44597019542664 M201.4658878190961,521.7162827624913 L195.00415234028662,519.2616025441052 M243.57844571625395,508.8141246353099 L201.4658878190961,521.7162827624913 M237.09124570925536,506.44597019542664 L195.00415234028662,519.2616025441052 M235.447823569243,260.7006806459498 L228.70721906577964,259.09146633975377 M235.447823569243,260.7006806459498 L243.57844571625395,508.8141246353099 M228.70721906577964,259.09146633975377 L237.09124570925536,506.44597019542664 M191.31181391062253,269.47619281390007 L184.60017827406614,267.80555242052867 M201.4658878190961,521.7162827624913 L191.31181391062253,269.47619281390007 M195.00415234028662,519.2616025441052 L184.60017827406614,267.80555242052867 M191.31181391062253,269.47619281390007 L235.447823569243,260.7006806459498 M211.9420790771947,333.11321334852994 L220.11481910996213,331.25303226625624 M218.15137511973768,276.36899790421717 L220.11481910996213,331.25303226625624 M218.15137511973768,276.36899790421717 L209.8950802777876,278.053597914477 M211.9420790771947,333.11321334852994 L209.8950802777876,278.053597914477 M184.60017827406614,267.80555242052867 L228.70721906577964,259.09146633975377 M204.9374093952863,322.17637928119257 L203.53606604314575,285.5874583505785 M211.77294954320817,283.88507261762 L203.53606604314575,285.5874583505785 M213.11868941364403,320.3576816061381 L211.77294954320817,283.88507261762 M204.9374093952863,322.17637928119257 L213.11868941364403,320.3576816061381 M218.4449150548917,330.79000367075537 L220.11481910996213,331.25303226625624 M210.27347452065553,332.64695386054484 L211.9420790771947,333.11321334852994 M218.4449150548917,330.79000367075537 L210.27347452065553,332.64695386054484 M209.8950802777876,278.053597914477 L208.21263843005926,277.63133799975304 M208.21263843005926,277.63133799975304 L208.5587886707878,286.87208682055393 M208.5587886707878,286.87208682055393 L203.53606604314575,285.5874583505785 M204.9374093952863,322.17637928119257 L209.9326629656701,323.54872539125677 M209.9326629656701,323.54872539125677 L210.27347452065553,332.64695386054484 M218.15137511973768,276.36899790421717 L216.4675969480079,275.94969127779433 M216.4675969480079,275.94969127779433 L208.21263843005926,277.63133799975304 M216.4675969480079,275.94969127779433 L216.79971003041783,285.1607459511628 M216.79971003041783,285.1607459511628 L211.77294954320817,283.88507261762 M213.11868941364403,320.3576816061381 L218.11790644624114,321.7205200145073 M218.11790644624114,321.7205200145073 L218.4449150548917,330.79000367075537 M216.79971003041783,285.1607459511628 L208.5587886707878,286.87208682055393 M218.11790644624114,321.7205200145073 L209.9326629656701,323.54872539125677" stroke="black"  stroke-width="4"  fill="red"/>
<path d="M467.79049020064406,440.1215683906682 L461.25328775415556,438.1880296388899 M433.4777771998598,450.63406326190926 L426.93888598889583,448.63685663278864 M467.79049020064406,440.1215683906682 L433.4777771998598,450.63406326190926 M461.25328775415556,438.1880296388899 L426.93888598889583,448.63685663278864 M469.2637263178377,214.21133293415826 L462.4664928214977,212.9083990307028 M469.2637263178377,214.21133293415826 L467.79049020064406,440.1215683906682 M462.4664928214977,212.9083990307028 L461.25328775415556,438.1880296388899 M433.608302756698,221.30065989720623 L426.80917313823034,219.9531009094123 M433.4777771998598,450.63406326190926 L433.608302756698,221.30065989720623 M426.93888598889583,448.63685663278864 L426.80917313823034,219.9531009094123 M433.608302756698,221.30065989720623 L469.2637263178377,214.21133293415826 M448.0548444125704,279.37205706566255 L454.67245805038806,277.86583520500005 M454.878081008257,228.06769340836627 L454.67245805038806,277.86583520500005 M454.878081008257,228.06769340836627 L448.2053313954879,229.42918960990903 M448.0548444125704,279.37205706566255 L448.2053313954879,229.42918960990903 M426.80917313823034,219.9531009094123 L462.4664928214977,212.9083990307028 M441.3411279617528,269.6238578705684 L441.40343735051005,236.42541554070417 M448.06728885483,235.0481415113431 L441.40343735051005,236.42541554070417 M447.9682166056392,268.1506567722107 L448.06728885483,235.0481415113431 M441.3411279617528,269.6238578705684 L447.9682166056392,268.1506567722107 M452.9863089368543,277.4907495113613 L454.67245805038806,277.86583520500005 M446.3685958606527,278.99461697528506 L448.0548444125704,279.37205706566255 M452.9863089368543,277.4907495113613 L446.3685958606527,278.99461697528506 M448.2053313954879,229.42918960990903 L446.50476028115645,229.08800919825626 M446.50476028115645,229.08800919825626 L446.4819071576058,237.46407299893582 M446.4819071576058,237.46407299893582 L441.40343735051005,236.42541554070417 M441.3411279617528,269.6238578705684 L446.39113175332943,270.7348237594183 M446.39113175332943,270.7348237594183 L446.3685958606527,278.99461697528506 M454.878081008257,228.06769340836627 L453.17761186310264,227.7286590616688 M453.17761186310264,227.7286590616688 L446.50476028115645,229.08800919825626 M453.17761186310264,227.7286590616688 L453.1455052841249,236.08028503234104 M453.1455052841249,236.08028503234104 L448.06728885483,235.0481415113431 M447.9682166056392,268.1506567722107 L453.0179712229682,269.2546938673748 M453.0179712229682,269.2546938673748 L452.9863089368543,277.4907495113613 M453.1455052841249,236.08028503234104 L446.4819071576058,237.46407299893582 M453.0179712229682,269.2546938673748 L446.39113175332943,270.7348237594183" stroke="black"  stroke-width="4"  fill="red"/>
<path d="M218.11790644624114,321.7205200145073 L209.9326629656701,323.54872539125677 M218.4449150548917,330.79000367075537 L210.27347452065553,332.64695386054484 M218.11790644624114,321.7205200145073 L218.4449150548917,330.79000367075537 M209.9326629656701,323.54872539125677 L210.27347452065553,332.64695386054484 M220.12489972841956,322.2676471971156 L211.93809054024655,324.099676547631 M220.12489972841956,322.2676471971156 L218.11790644624114,321.7205200145073 M211.93809054024655,324.099676547631 L209.9326629656701,323.54872539125677 M410.51202285537585,384.0460951789768 L402.2572669575443,386.2931364819782 M218.4449150548917,330.79000367075537 L410.51202285537585,384.0460951789768 M210.27347452065553,332.64695386054484 L402.2572669575443,386.2931364819782 M218.81780663941436,285.6728913050465 L220.12489972841956,322.2676471971156 M216.79971003041783,285.1607459511628 L218.81780663941436,285.6728913050465 M216.4675969480079,275.94969127779433 L216.79971003041783,285.1607459511628 M241.6541412175606,282.22182681573736 L216.4675969480079,275.94969127779433 M241.6541412175606,282.22182681573736 L242.5417795933355,310.09921976961584 M242.5417795933355,310.09921976961584 L249.44352645828846,311.915937654068 M249.44352645828846,311.915937654068 L248.5854894341963,283.9479213132653 M372.7059644988684,314.8573003176973 L248.5854894341963,283.9479213132653 M372.7059644988684,314.8573003176973 L372.99477502135915,344.437814695186 M372.99477502135915,344.437814695186 L380.8538145035771,346.5065167008278 M380.8538145035771,346.5065167008278 L380.6037325195198,316.8240596691436 M410.3096066322228,324.22163143261827 L380.6037325195198,316.8240596691436 M410.34363113333166,334.277631398269 L410.3096066322228,324.22163143261827 M407.9040292673858,333.65851794482967 L410.34363113333166,334.277631398269 M408.05537448822776,373.4994435835742 L407.9040292673858,333.65851794482967 M410.47857333824817,374.16003272031116 L408.05537448822776,373.4994435835742 M410.51202285537585,384.0460951789768 L410.47857333824817,374.16003272031116 M210.57529012810832,287.387834030556 L211.93809054024655,324.099676547631 M208.5587886707878,286.87208682055393 L210.57529012810832,287.387834030556 M208.21263843005926,277.63133799975304 L208.5587886707878,286.87208682055393 M233.38027506983474,283.9479213132653 L208.21263843005926,277.63133799975304 M234.31014775239512,311.915937654068 L233.38027506983474,283.9479213132653 M241.20716567037334,313.7455756973288 L234.31014775239512,311.915937654068 M240.3068266761532,285.68634995171385 L241.20716567037334,313.7455756973288 M364.371138831537,316.8240596691436 L240.3068266761532,285.68634995171385 M364.7030658257202,346.5065167008278 L364.371138831537,316.8240596691436 M372.56046295137236,348.5909237406627 L364.7030658257202,346.5065167008278 M372.2672394003796,318.80582608642163 L372.56046295137236,348.5909237406627 M401.9688845352915,326.2603566300858 L372.2672394003796,318.80582608642163 M402.01736083472014,336.3517033526045 L401.9688845352915,326.2603566300858 M399.57798386153814,335.72780007522533 L402.01736083472014,336.3517033526045 M399.786634474962,375.7073106582292 L399.57798386153814,335.72780007522533 M402.2096129919386,376.3729755930898 L399.786634474962,375.7073106582292 M402.2572669575443,386.2931364819782 L402.2096129919386,376.3729755930898 M218.81780663941436,285.6728913050465 L210.57529012810832,287.387834030556 M410.47857333824817,374.16003272031116 L402.2096129919386,376.3729755930898 M216.79971003041783,285.1607459511628 L208.5587886707878,286.87208682055393 M216.4675969480079,275.94969127779433 L208.21263843005926,277.63133799975304 M241.6541412175606,282.22182681573736 L233.38027506983474,283.9479213132653 M242.5417795933355,310.09921976961584 L234.31014775239512,311.915937654068 M249.44352645828846,311.915937654068 L241.20716567037334,313.7455756973288 M240.3068266761532,285.68634995171385 L248.5854894341963,283.9479213132653 M372.7059644988684,314.8573003176973 L364.371138831537,316.8240596691436 M372.99477502135915,344.437814695186 L364.7030658257202,346.5065167008278 M380.8538145035771,346.5065167008278 L372.56046295137236,348.5909237406627 M372.2672394003796,318.80582608642163 L380.6037325195198,316.8240596691436 M410.3096066322228,324.22163143261827 L401.9688845352915,326.2603566300858 M410.34363113333166,334.277631398269 L402.01736083472014,336.3517033526045 M407.9040292673858,333.65851794482967 L399.57798386153814,335.72780007522533 M408.05537448822776,373.4994435835742 L399.786634474962,375.7073106582292" stroke="black"  stroke-width="4"  fill="red"/>
<path d="M408.05537448822776,373.4994435835742 L399.786634474962,375.7073106582292 M416.967680816808,375.92903071542787 L408.69823530445893,378.1555949265821 M408.05537448822776,373.4994435835742 L416.967680816808,375.92903071542787 M399.786634474962,375.7073106582292 L408.69823530445893,378.1555949265821 M416.87685267674584,335.9356090413788 L408.55008715074285,338.02253545588155 M416.967680816808,375.92903071542787 L416.87685267674584,335.9356090413788 M408.69823530445893,378.1555949265821 L408.55008715074285,338.02253545588155 M407.9040292673858,333.65851794482967 L399.57798386153814,335.72780007522533 M416.87685267674584,335.9356090413788 L407.9040292673858,333.65851794482967 M408.55008715074285,338.02253545588155 L399.57798386153814,335.72780007522533 M407.9040292673858,333.65851794482967 L408.05537448822776,373.4994435835742 M399.57798386153814,335.72780007522533 L399.786634474962,375.7073106582292" stroke="black"  stroke-width="4"  fill="red"/>
<path d="M212.78632873625824,320.26707663867626 L204.60531542862006,322.08514309930337 M220.12489972841956,322.2676471971156 L211.93809054024655,324.099676547631 M212.78632873625824,320.26707663867626 L220.12489972841956,322.2676471971156 M204.60531542862006,322.08514309930337 L211.93809054024655,324.099676547631 M218.81780663941436,285.6728913050465 L210.57529012810832,287.387834030556 M220.12489972841956,322.2676471971156 L218.81780663941436,285.6728913050465 M211.93809054024655,324.099676547631 L210.57529012810832,287.387834030556 M211.43876346445157,283.80026406742235 L203.2021516744599,285.5020552860758 M218.81780663941436,285.6728913050465 L211.43876346445157,283.80026406742235 M210.57529012810832,287.387834030556 L203.2021516744599,285.5020552860758 M211.43876346445157,283.80026406742235 L212.78632873625824,320.26707663867626 M203.2021516744599,285.5020552860758 L204.60531542862006,322.08514309930337" stroke="black"  stroke-width="4"  fill="red"/>
<path d="M453.0179712229682,269.2546938673748 L446.39113175332943,270.7348237594183 M452.9863089368543,277.4907495113613 L446.3685958606527,278.99461697528506 M453.0179712229682,269.2546938673748 L452.9863089368543,277.4907495113613 M446.39113175332943,270.7348237594183 L446.3685958606527,278.99461697528506 M455.0445145686279,269.697760748464 L448.41779593874725,271.1806758559868 M455.0445145686279,269.697760748464 L453.0179712229682,269.2546938673748 M448.41779593874725,271.1806758559868 L446.39113175332943,270.7348237594183 M645.0228778548083,320.20949192771354 L638.4695596950376,321.99338193717847 M452.9863089368543,277.4907495113613 L645.0228778548083,320.20949192771354 M446.3685958606527,278.99461697528506 L638.4695596950376,321.99338193717847 M455.18350813916237,236.4945075200766 L455.0445145686279,269.697760748464 M453.1455052841249,236.08028503234104 L455.18350813916237,236.4945075200766 M453.17761186310264,227.7286590616688 L453.1455052841249,236.08028503234104 M478.5825220435229,232.79381249327906 L453.17761186310264,227.7286590616688 M478.5825220435229,232.79381249327906 L478.37788674139216,258.050284402446 M478.37788674139216,258.050284402446 L485.3273075339678,259.51634628629864 M485.3273075339678,259.51634628629864 L485.5622108642548,234.18540154164924 M609.6964897613068,258.93491509121725 L485.5622108642548,234.18540154164924 M609.6964897613068,258.93491509121725 L608.891888355691,285.5837449291441 M608.891888355691,285.5837449291441 L616.6983306299744,287.23060555370853 M616.6983306299744,287.23060555370853 L617.5409285415651,260.49891534647134 M646.9886272563829,266.3701076136001 L617.5409285415651,260.49891534647134 M646.6585081437688,275.4116516472485 L646.9886272563829,266.3701076136001 M644.2434566924276,274.9207943269501 L646.6585081437688,275.4116516472485 M642.9489160680168,310.7796439924555 L644.2434566924276,274.9207943269501 M645.34802348626,311.3041652386828 L642.9489160680168,310.7796439924555 M645.0228778548083,320.20949192771354 L645.34802348626,311.3041652386828 M448.52003289428063,237.8809140116071 L448.41779593874725,271.1806758559868 M446.4819071576058,237.46407299893582 L448.52003289428063,237.8809140116071 M446.50476028115645,229.08800919825626 L446.4819071576058,237.46407299893582 M471.91207524275615,234.18540154164924 L446.50476028115645,229.08800919825626 M471.7350932800677,259.51634628629864 L471.91207524275615,234.18540154164924 M478.6854930176533,260.9917693315301 L471.7350932800677,259.51634628629864 M478.89275557691207,235.58591421057082 L478.6854930176533,260.9917693315301 M603.0684956136658,260.49891534647134 L478.89275557691207,235.58591421057082 M602.2909911035035,287.23060555370853 L603.0684956136658,260.49891534647134 M610.1015138235148,288.88861453901785 L602.2909911035035,287.23060555370853 M610.9170703975833,262.0735510397965 L610.1015138235148,288.88861453901785 M640.3819038775896,267.98499098562843 L610.9170703975833,262.0735510397965 M640.0607450539005,277.0551528663151 L640.3819038775896,267.98499098562843 M637.6441971143545,276.5609162879904 L640.0607450539005,277.0551528663151 M636.3852867124481,312.5322231183137 L637.6441971143545,276.5609162879904 M638.7858635706384,313.0603334154705 L636.3852867124481,312.5322231183137 M638.4695596950376,321.99338193717847 L638.7858635706384,313.0603334154705 M455.18350813916237,236.4945075200766 L448.52003289428063,237.8809140116071 M645.34802348626,311.3041652386828 L638.7858635706384,313.0603334154705 M453.1455052841249,236.08028503234104 L446.4819071576058,237.46407299893582 M453.17761186310264,227.7286590616688 L446.50476028115645,229.08800919825626 M478.5825220435229,232.79381249327906 L471.91207524275615,234.18540154164924 M478.37788674139216,258.050284402446 L471.7350932800677,259.51634628629864 M485.3273075339678,259.51634628629864 L478.6854930176533,260.9917693315301 M478.89275557691207,235.58591421057082 L485.5622108642548,234.18540154164924 M609.6964897613068,258.93491509121725 L603.0684956136658,260.49891534647134 M608.891888355691,285.5837449291441 L602.2909911035035,287.23060555370853 M616.6983306299744,287.23060555370853 L610.1015138235148,288.88861453901785 M610.9170703975833,262.0735510397965 L617.5409285415651,260.49891534647134 M646.9886272563829,266.3701076136001 L640.3819038775896,267.98499098562843 M646.6585081437688,275.4116516472485 L640.0607450539005,277.0551528663151 M644.2434566924276,274.9207943269501 L637.6441971143545,276.5609162879904 M642.9489160680168,310.7796439924555 L636.3852867124481,312.5322231183137" stroke="black"  stroke-width="4"  fill="red"/>
<path d="M642.9489160680168,310.7796439924555 L636.3852867124481,312.5322231183137 M651.7696680678723,312.70814114787436 L645.2115237696305,314.47393419460826 M642.9489160680168,310.7796439924555 L651.7696680678723,312.70814114787436 M636.3852867124481,312.5322231183137 L645.2115237696305,314.47393419460826 M653.1229775698953,276.7255500065967 L646.5293041547775,278.3781137993013 M651.7696680678723,312.70814114787436 L653.1229775698953,276.7255500065967 M645.2115237696305,314.47393419460826 L646.5293041547775,278.3781137993013 M644.2434566924276,274.9207943269501 L637.6441971143545,276.5609162879904 M653.1229775698953,276.7255500065967 L644.2434566924276,274.9207943269501 M646.5293041547775,278.3781137993013 L637.6441971143545,276.5609162879904 M644.2434566924276,274.9207943269501 L642.9489160680168,310.7796439924555 M637.6441971143545,276.5609162879904 L636.3852867124481,312.5322231183137" stroke="black"  stroke-width="4"  fill="red"/>
<path d="M447.63240291842976,268.07723721109573 L441.0053003327197,269.5499781160597 M455.0445145686279,269.697760748464 L448.41779593874725,271.1806758559868 M447.63240291842976,268.07723721109573 L455.0445145686279,269.697760748464 M441.0053003327197,269.5499781160597 L448.41779593874725,271.1806758559868 M455.18350813916237,236.4945075200766 L448.52003289428063,237.8809140116071 M455.0445145686279,269.697760748464 L455.18350813916237,236.4945075200766 M448.41779593874725,271.1806758559868 L448.52003289428063,237.8809140116071 M447.7295871393921,234.97950390156967 L441.06572145836657,236.35634530036364 M455.18350813916237,236.4945075200766 L447.7295871393921,234.97950390156967 M448.52003289428063,237.8809140116071 L441.06572145836657,236.35634530036364 M447.7295871393921,234.97950390156967 L447.63240291842976,268.07723721109573 M441.06572145836657,236.35634530036364 L441.0053003327197,269.5499781160597" stroke="black"  stroke-width="4"  fill="red"/></svg>