<svg version="1.1" xmlns="http://www.w3.org/2000/svg" viewBox="-15.476684783491711 -17.26467652317121 30.953369566983422 31.81417273357541" fill="none" stroke="black" stroke-width="0.6%" vector-effect="non-scaling-stroke">
    <path d="M -13.85536 -12.16515 A 9 3.00307 0 0 1 -14.47668 -13.26161 A 9 3.00307 0 0 1 2.90199 -14.35807" />
    <path d="M -14.47668 -12.31892 A 9 3.00307 180 0 0 -13.85536 -11.22246 L -13.85536 -12.16515 L -2.90199 -2.846" />
    <path d="M 13.85536 -5.03891 L 2.90199 -14.35807" />
    <path d="M 13.85536 -5.03891 A 9 3.00307 0 0 1 14.47668 -3.94246 A 9 3.00307 0 0 1 -2.90199 -2.846" />
    <path d="M -13.85536 -11.22246 L -13.20041 -10.66523" />
    <path d="M -11.20829 -9.67735 L -12.8513 -11.07522 L -13.20041 -11.02954 L -13.20041 5.93885 L -11.5574 7.33673 L -11.5574 -9.63167 L -13.20041 -11.02954" />
    <path d="M -11.20829 -8.97034 L -11.20829 -9.67735 L -11.5574 -9.63167" />
    <path d="M -11.20829 -8.97034 L -5.89816 -4.45246" />
    <path d="M -3.90605 -3.46458 L -5.54905 -4.86246 L -5.89816 -4.81677 L -5.89816 12.15162 L -4.25516 13.5495 L -4.25516 -3.4189 L -5.89816 -4.81677" />
    <path d="M -3.90605 -2.75757 L -3.90605 -3.46458 L -4.25516 -3.4189" />
    <path d="M -3.90605 -2.75757 L -2.90199 -1.90331 A 9 3.00307 180 0 0 14.47668 -2.99977" />
    <path d="M -2.90199 -1.90331 L -2.90199 -2.846" />
    <path d="M 13.20041 11.26521 L 13.20041 -1.4582" />
    <path d="M 13.20041 -5.59614 L 13.20041 -5.70318 L 11.5574 -7.10105 L 11.44837 -7.08679" />
    <path d="M 13.20041 -5.70318 L 13.09137 -5.68891" />
    <path d="M 12.50219 11.35658 L 12.50219 -1.1228" />
    <path d="M 13.20041 11.26521 L 12.50219 11.35658" />
    <path d="M 10.85918 -0.59295 L 10.85918 9.95871 L 12.50219 11.35658" />
    <path d="M 5.89816 5.05244 L 5.89816 0" />
    <path d="M 5.89816 -11.80891 L 5.89816 -11.91595 L 4.25516 -13.31382 L 4.14612 -13.29955" />
    <path d="M 5.89816 -11.91595 L 5.78913 -11.90168" />
    <path d="M 5.19994 5.14381 L 5.19994 0.00188" />
    <path d="M 5.89816 5.05244 L 5.19994 5.14381" />
    <path d="M 3.55694 -0.06581 L 3.55694 3.74594 L 5.19994 5.14381" />
    <path d="M -10.85918 7.24536 L -10.85918 -8.67331" />
    <path d="M -10.85918 7.24536 L -11.5574 7.33673" />
    <path d="M -3.55694 13.45812 L -3.55694 -2.46054" />
    <path d="M -3.55694 13.45812 L -4.25516 13.5495" />
    <path d="M -3.55694 0.76681 L 3.09537 -0.10373" />
    <path d="M -10.85918 -5.44596 L -7.57155 -5.87619" />
    <path d="M -12.24199 -5.97201 L -12.24199 -8.80008 L -12.2769 -8.79551 L -12.2769 -5.96745 L -12.24199 -5.97201 Z" />
    <path d="M -12.51582 -9.03306 L -12.24199 -8.80008" />
    <path d="M -4.93974 0.24075 L -4.93974 -2.58731 L -4.97465 -2.58274 L -4.97465 0.24532 L -4.93974 0.24075 Z" />
    <path d="M -5.21358 -2.82029 L -4.93974 -2.58731" />
    <path d="M -12.55073 -9.02849 L -12.55073 -6.20042 L -12.2769 -5.96745" />
    <path d="M -12.51582 -9.03306 L -12.55073 -9.02849 L -12.2769 -8.79551" />
    <path d="M -5.24849 -2.81572 L -5.24849 0.01234 L -4.97465 0.24532" />
    <path d="M -5.21358 -2.82029 L -5.24849 -2.81572 L -4.97465 -2.58274" />
    <path d="M -14.47668 -13.26161 L -14.47668 -12.31892" />
    <path d="M 14.47668 -3.94246 L 14.47668 -2.99977" />
</svg>