<svg version="1.1" xmlns="http://www.w3.org/2000/svg" viewBox="-16.572136355402 -17.139104654112533 33.14427271080399 32.34478446597018" fill="none" stroke="black" stroke-width="0.6%" vector-effect="non-scaling-stroke">
    <path d="M 13.90011 -1.61879 A 4 1.50322 261.86837 0 1 13.04982 -0.45992 A 4 1.50322 261.86837 0 1 12.48403 -0.64285 L 12.08782 -0.94361" />
    <path d="M 14.66466 -2.07108 A 4 1.50322 261.86837 0 1 13.73786 -0.55823 L 13.04982 -0.45992" />
    <path d="M -3.60168 -2.13114 A 10 3.29337 180 0 0 15.57214 -3.44193" />
    <path d="M -1.19051 0.00966 L -1.19051 -1.01584" />
    <path d="M -3.25766 1.01319 L -0.40539 0.60564" />
    <path d="M 2.30247 0.21873 L 4.92179 -0.15553" />
    <path d="M 0.25228 1.10488 L -1.19051 0.00966" />
    <path d="M 1.77238 -0.39557 A 4 1.50322 261.86837 0 1 0.81807 1.28781 A 4 1.50322 261.86837 0 1 0.25228 1.10488" />
    <path d="M 2.43146 -0.3152 A 4 1.50322 261.86837 0 1 1.50611 1.1895 L 0.81807 1.28781" />
    <path d="M 12.80989 -0.47545 L 12.80989 10.37558 L 14.40193 11.58409 L 14.40193 -1.18611" />
    <path d="M 15.08997 11.48578 L 15.08997 -2.43162" />
    <path d="M 15.08997 -5.39646 L 15.08997 -5.51004 L 13.49793 -6.71855 L 13.41561 -6.70679" />
    <path d="M 15.08997 -5.51004 L 14.9878 -5.49544" />
    <path d="M 15.08997 11.48578 L 14.40193 11.58409" />
    <path d="M -3.60168 -2.8393 L -3.60168 -2.13114" />
    <path d="M -3.60168 -2.8393 L -3.60168 -3.07535" />
    <path d="M 14.74595 -5.69694 A 10 3.29337 360 0 1 15.57214 -4.38615 A 10 3.29337 360 0 1 -3.60168 -3.07535" />
    <path d="M -3.25766 14.10737 L -3.25766 -1.89598" />
    <path d="M -3.60168 -2.8393 L -3.94569 -2.79014 L -5.53773 -3.99865 L -5.53773 12.99717 L -3.94569 14.20568 L -3.94569 -2.79014" />
    <path d="M -3.25766 14.10737 L -3.94569 14.20568" />
    <path d="M 14.74595 -5.69694 L 3.60168 -14.15652 A 10 3.29337 180 0 0 -15.57214 -12.84573 L -15.57214 -11.90152" />
    <path d="M -13.15391 -9.38221 L -5.53773 -3.60079" />
    <path d="M -3.60168 -2.8393 L -5.19372 -4.04781 L -5.53773 -3.99865" />
    <path d="M -14.74595 -11.53493 L -3.60168 -3.07535" />
    <path d="M -14.74595 -11.29888 L -14.74595 -11.53493" />
    <path d="M -13.15391 -10.09037 L -14.74595 -11.29888 L -15.08997 -11.24973 L -15.08997 5.74609 L -13.49793 6.95461 L -13.49793 -10.04121 L -15.08997 -11.24973" />
    <path d="M -13.15391 -9.38221 L -13.15391 -10.09037 L -13.49793 -10.04121" />
    <path d="M -15.57214 -12.84573 A 10 3.29337 180 0 0 -14.74595 -11.53493" />
    <path d="M -4.59246 0.57443 L -4.59246 -1.94347 L -4.62686 -1.93855 L -4.62686 0.57935 L -4.59246 0.57443 Z" />
    <path d="M -4.89097 -2.17006 L -4.59246 -1.94347" />
    <path d="M -10.74274 -7.24141 L -10.74274 -7.5519" />
    <path d="M -12.80989 -6.23789 L -9.95762 -6.64543" />
    <path d="M 3.25766 0.08225 L 3.25766 3.12451 L 4.8497 4.33302 L 4.8497 -0.14523" />
    <path d="M 5.53773 4.23471 L 5.53773 -0.14858" />
    <path d="M 5.53773 -12.68687 L 5.53773 -12.76111 L 3.94569 -13.96963 L 3.86338 -13.95786" />
    <path d="M 5.53773 -12.76111 L 5.45542 -12.74935" />
    <path d="M 5.53773 4.23471 L 4.8497 4.33302" />
    <path d="M -5.53773 -3.29031 L -10.74274 -7.24141" />
    <path d="M -15.08997 -10.8912 A 10 3.29337 360 0 1 -15.57214 -11.90152" />
    <path d="M -12.80989 6.8563 L -12.80989 -9.12107" />
    <path d="M -12.80989 6.8563 L -13.49793 6.95461" />
    <path d="M -4.89097 -2.17006 L -4.92537 -2.16515 L -4.92537 0.35275 L -4.62686 0.57935" />
    <path d="M -4.92537 -2.16515 L -4.62686 -1.93855" />
    <path d="M -14.14469 -6.67664 L -14.14469 -9.19454 L -14.17909 -9.18962 L -14.17909 -6.67172 L -14.14469 -6.67664 Z" />
    <path d="M -14.4432 -9.42113 L -14.14469 -9.19454" />
    <path d="M -14.4432 -9.42113 L -14.4776 -9.41622 L -14.4776 -6.89832 L -14.17909 -6.67172" />
    <path d="M -14.4776 -9.41622 L -14.17909 -9.18962" />
    <path d="M 15.57214 -4.38615 L 15.57214 -3.44193" />
</svg>