<svg version="1.1" xmlns="http://www.w3.org/2000/svg" viewBox="-16.35849312311045 -17.631795010837806 32.7169862462209 33.28048355107944" fill="none" stroke="black" stroke-width="0.6%" vector-effect="non-scaling-stroke">
    <path d="M 14.55977 -5.6972 L 3.09278 -14.6639" />
    <path d="M 5.52552 4.34864 L 4.83776 4.45038 L 4.83776 -0.19181" />
    <path d="M 5.52552 -13.2836 L 4.96417 -13.20056" />
    <path d="M 5.52552 4.34864 L 5.52552 -0.17837" />
    <path d="M 5.52552 -12.76161 L 5.52552 -13.2836 L 3.93011 -14.53114 L 3.36876 -14.4481" />
    <path d="M 3.24235 -0.06287 L 3.24235 3.20284 L 4.83776 4.45038" />
    <path d="M -15.35849 -12.41786 A 9.625 3.27355 180 0 0 -15.09796 -11.66136" />
    <path d="M -14.55977 -12.05258 A 9.625 3.27355 360 0 1 -15.35849 -13.35824 A 9.625 3.27355 360 0 1 3.09278 -14.6639" />
    <path d="M -14.55977 -11.79595 L -14.55977 -12.05258 L -3.09278 -3.08588" />
    <path d="M 14.55977 -5.6972 A 9.625 3.27355 360 0 1 15.35849 -4.39154 A 9.625 3.27355 360 0 1 -3.09278 -3.08588" />
    <path d="M -3.09278 -2.14549 L -3.09278 -3.08588" />
    <path d="M -3.09278 -2.14549 A 9.625 3.27355 180 0 0 15.35849 -3.45116" />
    <path d="M -3.24235 -2.26245 L -3.09278 -2.14549" />
    <path d="M 15.09796 11.83389 L 14.4102 11.93563 L 14.4102 -0.58755" />
    <path d="M 15.09796 -5.79835 L 14.53661 -5.71531" />
    <path d="M 15.09796 11.83389 L 15.09796 -2.69466" />
    <path d="M 15.09796 -5.14804 L 15.09796 -5.79835 L 13.50255 -7.04589 L 12.9412 -6.96285" />
    <path d="M 12.81479 0.08655 L 12.81479 10.68809 L 14.4102 11.93563" />
    <path d="M -12.81479 7.0617 L -12.81479 -9.7477 L -5.52552 -4.04779" />
    <path d="M -12.81479 -10.57054 L -14.4102 -11.81808 L -15.09796 -11.71634 L -15.09796 5.9159 L -13.50255 7.16344 L -13.50255 -10.4688 L -15.09796 -11.71634" />
    <path d="M -12.81479 -9.7477 L -12.81479 -10.57054 L -13.50255 -10.4688" />
    <path d="M -3.24235 -3.08529 L -4.83776 -4.33283 L -5.52552 -4.23109 L -5.52552 13.40115 L -3.93011 14.64869 L -3.93011 -2.98355 L -5.52552 -4.23109" />
    <path d="M -3.24235 -2.26245 L -3.24235 -3.08529 L -3.93011 -2.98355" />
    <path d="M -3.24235 14.54695 L -3.24235 -2.26245" />
    <path d="M -1.17765 0.59097 L -1.17765 -1.17276" />
    <path d="M -3.24235 0.8964 L -1.17765 0.59097" />
    <path d="M 0.26819 1.72156 L -1.17765 0.59097" />
    <path d="M 1.85696 -0.45485 A 4 1.5003 261.58533 0 1 0.85354 1.91695 A 4 1.5003 261.58533 0 1 0.26819 1.72156" />
    <path d="M 2.53461 -0.36369 A 4 1.5003 261.58533 0 1 1.5413 1.81521 L 0.85354 1.91695" />
    <path d="M 2.49565 0.04758 L 4.27387 -0.21547" />
    <path d="M 12.49506 -0.08715 L 11.53382 -0.8388" />
    <path d="M 14.05137 -1.80404 A 4 1.5003 261.58533 0 1 13.08041 0.10824 A 4 1.5003 261.58533 0 1 12.49506 -0.08715" />
    <path d="M 14.76983 -2.3239 A 4 1.5003 261.58533 0 1 13.76817 0.0065 L 13.08041 0.10824" />
    <path d="M -12.81479 -6.58885 L -10.75009 -6.89428 L -10.75009 -8.13319" />
    <path d="M -5.52552 -2.80888 L -10.75009 -6.89428" />
    <path d="M -12.81479 7.0617 L -13.50255 7.16344" />
    <path d="M -3.24235 14.54695 L -3.93011 14.64869" />
    <path d="M -14.15069 -7.01815 L -14.15069 -9.52585 L -14.18507 -9.52076 L -14.18507 -7.01307 L -14.15069 -7.01815 Z" />
    <path d="M -14.44982 -9.75976 L -14.15069 -9.52585" />
    <path d="M -4.57825 0.46709 L -4.57825 -2.0406 L -4.61263 -2.03551 L -4.61263 0.47218 L -4.57825 0.46709 Z" />
    <path d="M -4.87739 -2.27452 L -4.57825 -2.0406" />
    <path d="M -14.44982 -9.75976 L -14.48421 -9.75468 L -14.48421 -7.24698 L -14.18507 -7.01307" />
    <path d="M -14.48421 -9.75468 L -14.18507 -9.52076" />
    <path d="M -4.87739 -2.27452 L -4.91177 -2.26943 L -4.91177 0.23827 L -4.61263 0.47218" />
    <path d="M -4.91177 -2.26943 L -4.61263 -2.03551" />
    <path d="M -15.35849 -13.35824 L -15.35849 -12.41786" />
    <path d="M 15.35849 -4.39154 L 15.35849 -3.45116" />
</svg>