<svg viewBox="0 0 800 800" xmlns="http://www.w3.org/2000/svg"><path d="M153.48764799831267,444.81755231861615 L153.45794253816976,437.64112535286773 M304.1587238067266,552.7247278220625 L317.4543486145584,540.3783771012683 M317.4543486145584,540.3783771012683 L327.33604163350304,526.2968822471244 M327.33604163350304,526.2968822471244 L333.425320353725,511.0228243603669 M333.425320353725,511.0228243603669 L335.49003870250345,495.1441373258329 M335.49003870250345,495.1441373258329 L333.45309559919144,479.271344632912 M333.45309559919144,479.271344632912 L327.39496765131815,464.0141077367193 M327.39496765131815,464.0141077367193 L317.5503472056733,449.957783732915 M317.5503472056733,449.957783732915 L304.29880731528084,437.6411253528678 M304.29880731528084,437.6411253528678 L288.1500471470012,427.5357576355998 M288.1500471470012,427.5357576355998 L269.72420319020387,420.02834454746267 M269.72420319020387,420.02834454746267 L249.72812989701526,415.4059593752867 M249.72812989701526,415.4059593752867 L228.92837692501752,413.8452866311126 M228.92837692501752,413.8452866311126 L208.12207956077347,415.40595368452006 M208.12207956077347,415.40595368452006 L188.10657511594528,420.0283417017709 M188.10657511594528,420.0283417017709 L169.64917733756766,427.53575550095513 M169.64917733756766,427.53575550095513 L153.45794253816976,437.64112535286773 M304.17086719442847,559.8973942468995 L304.1587238067266,552.7247278220625 M153.48764799831267,444.81755231861615 L169.6769908824042,434.7125109458697 M169.6769908824042,434.7125109458697 L188.1322337014546,427.20534099741445 M188.1322337014546,427.20534099741445 L208.1454026636698,422.58310304476714 M208.1454026636698,422.58310304476714 L228.94927333583237,421.0224866448067 M228.94927333583237,421.0224866448067 L249.74660114372614,422.5831087353492 M249.74660114372614,422.5831087353492 L269.74034348562105,427.20534384301385 M269.74034348562105,427.20534384301385 L288.164039842523,434.712513080445 M288.164039842523,434.712513080445 L304.3109180028773,444.8175523186161 M304.3109180028773,444.8175523186161 L317.5609136980677,457.133809963014 M317.5609136980677,457.133809963014 L327.404387207713,471.1896761223543 M327.404387207713,471.1896761223543 L333.4618098470053,486.44641544619213 M333.4618098470053,486.44641544619213 L335.4985168123945,502.3186898164194 M335.4985168123945,502.3186898164194 L333.43404108606603,518.1968576463385 M333.43404108606603,518.1968576463385 L327.3454749456034,533.4704154480858 M327.3454749456034,533.4704154480858 L317.46493751650945,547.5514486974246 M317.46493751650945,547.5514486974246 L304.17086719442847,559.8973942468995 M646.682028043526,298.79999630340467 L646.7098101136254,291.6188499642472 M304.17086719442847,559.8973942468995 L646.682028043526,298.79999630340467 M304.1587238067266,552.7247278220625 L646.7098101136254,291.6188499642472 M496.00896260656265,177.23733016884546 L482.7955869466939,189.47889630221394 M482.7955869466939,189.47889630221394 L472.9784174675826,203.44950675826146 M472.9784174675826,203.44950675826146 L466.93596716302477,218.61368759315337 M466.93596716302477,218.61368759315337 L464.90230601647096,234.38964956346388 M464.90230601647096,234.38964956346388 L466.9577821879606,250.17146898632427 M466.9577821879606,250.17146898632427 L473.0256178407699,265.35231712539024 M473.0256178407699,265.35231712539024 L482.87449355351185,279.34786703185273 M482.87449355351185,279.34786703185273 L496.12717583259524,291.6188499642472 M496.12717583259524,291.6188499642472 L512.2748008405614,301.6920325021851 M512.2748008405614,301.6920325021851 L530.6963971093732,309.17862394333616 M530.6963971093732,309.17862394333616 L550.6827708741392,313.78949962214006 M550.6827708741392,313.78949962214006 L571.4639996084121,315.34651200688006 M571.4639996084121,315.34651200688006 L592.2392490670849,313.78949962214006 M592.2392490670849,313.78949962214006 L612.2079344127336,309.1786267816349 M612.2079344127336,309.1786267816349 L630.6008173090268,301.69203463053486 M630.6008173090268,301.69203463053486 L646.7098101136254,291.6188499642472 M495.9987426322636,184.42213253576998 L496.00896260656265,177.23733016884546 M646.682028043526,298.79999630340467 L630.5749079852426,308.8728572816318 M630.5749079852426,308.8728572816318 L612.1841650111812,316.359208681524 M612.1841650111812,316.359208681524 L592.2178042364858,320.96993317091795 M592.2178042364858,320.96993317091795 L571.4449742324667,322.52689544690895 M571.4449742324667,322.52689544690895 L550.6661663447853,320.96993317091795 M550.6661663447853,320.96993317091795 L530.6821212707127,316.35920584331666 M530.6821212707127,316.35920584331666 L512.2626716119903,308.87285515335043 M512.2626716119903,308.87285515335043 L496.11692834772276,298.7999963034047 M496.11692834772276,298.7999963034047 L482.865790530604,286.5294073073806 M482.865790530604,286.5294073073806 L473.0180627463268,272.53430619849905 M473.0180627463268,272.53430619849905 L466.950934665569,257.3539442604791 M466.950934665569,257.3539442604791 L464.89569895261786,241.57262961791702 M464.89569895261786,241.57262961791702 L466.9291247174222,225.79717155974978 M466.9291247174222,225.79717155974978 L472.9708733571699,210.63347445403338 M472.9708733571699,210.63347445403338 L482.7869022865976,196.66330909630528 M482.7869022865976,196.66330909630528 L495.9987426322636,184.42213253576998 M495.9987426322636,184.42213253576998 L153.48764799831267,444.81755231861615 M496.00896260656265,177.23733016884546 L153.45794253816976,437.64112535286773" stroke="black"  stroke-width="4"  fill="red"/>
<path d="M646.3616134371704,184.4221325357698 L646.3893209230479,177.23733016884535 M646.3616134371704,184.4221325357698 L629.6618377612024,174.095884613238 M629.6618377612024,174.095884613238 L610.5779071206355,166.53189047091305 M610.5779071206355,166.53189047091305 L589.8897400164952,162.0382625301171 M589.8897400164952,162.0382625301171 L568.4421844761866,160.79800897461467 M568.4421844761866,160.79800897461467 L547.1109049773552,162.86159183710882 M547.1109049773552,162.86159183710882 L526.766822609805,168.14501256716355 M526.766822609805,168.14501256716355 L508.24086641976083,176.43311773336492 M508.24086641976083,176.43311773336492 L492.2903050029568,187.38821655606574 M492.2903050029568,187.38821655606574 L479.56788843458617,200.5636776543082 M479.56788843458617,200.5636776543082 L470.5952368601485,215.4218738124161 M470.5952368601485,215.4218738124161 L465.7412930250557,231.35593338956812 M465.7412930250557,231.35593338956812 L465.206984024488,247.71434409807478 M465.206984024488,247.71434409807478 L469.01664581480884,263.82749023768065 M469.01664581480884,263.82749023768065 L477.0166324313601,279.0350450093092 M477.0166324313601,279.0350450093092 L488.88119986097166,292.7131267291824 M488.88119986097166,292.7131267291824 L504.12559119971775,304.3000263280599 M504.12559119971775,304.3000263280599 L522.1256986571,313.31949770953065 M522.1256986571,313.31949770953065 L542.1436159880107,319.40056151197666 M542.1436159880107,319.40056151197666 L563.3580253876114,322.29295418856674 M563.3580253876114,322.29295418856674 L584.8980827706231,321.8776146823397 M584.8980827706231,321.8776146823397 L605.8794701739913,318.1716413429879 M605.8794701739913,318.1716413429879 L625.440993754281,311.32757993109993 M625.440993754281,311.32757993109993 L642.7801997025327,301.627050293651 M642.7801997025327,301.627050293651 L657.1864730129408,289.4690045343197 M657.1864730129408,289.4690045343197 L668.0702885697576,275.3530466990504 M668.0702885697576,275.3530466990504 L674.9872526171567,259.8587303825028 M674.9872526171567,259.8587303825028 L677.6561475907707,243.6215288005763 M677.6561475907707,243.6215288005763 L675.9701196664201,227.30665991288734 M675.9701196664201,227.30665991288734 L670.0005899688779,211.58179391061782 M670.0005899688779,211.58179391061782 L659.994075116776,197.08968699131623 M659.994075116776,197.08968699131623 L646.3616134371704,184.4221325357698 M646.3893209230479,177.23733016884535 L660.0233724498504,189.90528777399714 M660.0233724498504,189.90528777399714 L670.0310564443134,204.39785644825298 M670.0310564443134,204.39785644825298 L676.0012863928393,220.1232241341097 M676.0012863928393,220.1232241341097 L677.6875165190014,236.4386142436249 M677.6875165190014,236.4386142436249 L675.0183168578047,252.67633528894524 M675.0183168578047,252.67633528894524 L668.100553148335,268.17114797476734 M668.100553148335,268.17114797476734 L657.215475236327,282.2875585944393 M657.215475236327,282.2875585944393 L642.8075282788953,294.44599477292525 M642.8075282788953,294.44599477292525 L625.4663058490156,304.14683620376087 M625.4663058490156,304.14683620376087 L605.9025056790607,310.99111775159656 M605.9025056790607,310.99111775159656 L584.918675154967,314.6972103452715 M584.918675154967,314.6972103452715 L563.3761086575419,315.112563219028 M563.3761086575419,315.112563219028 L542.1592274478666,312.2200774617803 M542.1592274478666,312.2200774617803 L522.138977348191,306.138818038052 M522.138977348191,306.138818038052 L504.13677208360195,297.1190566961543 M504.13677208360195,297.1190566961543 L488.8906040114655,285.53178492500274 M488.8906040114655,285.53178492500274 L477.0246536621102,271.85326433650835 M477.0246536621102,271.85326433650835 L469.02373432886,256.64522222305476 M469.02373432886,256.64522222305476 L465.2136277952722,240.5315604112098 M465.2136277952722,240.5315604112098 L465.74799769422026,224.1726269076637 M465.74799769422026,224.1726269076637 L470.60250500311224,208.23805880092496 M470.60250500311224,208.23805880092496 L479.57619904397154,193.3793890747162 M479.57619904397154,193.3793890747162 L492.3000940197646,180.20350854650866 M492.3000940197646,180.20350854650866 L508.25250908432156,169.24806133878013 M508.25250908432156,169.24806133878013 L526.7806183338873,160.9596928192058 M526.7806183338873,160.9596928192058 L547.127065302854,155.67610430726535 M547.127065302854,155.67610430726535 L568.4608245919092,153.61245593375236 M568.4608245919092,153.61245593375236 L589.9108741424379,154.8527488612586 M589.9108741424379,154.8527488612586 L610.601447933945,159.3465194880714 M610.601447933945,159.3465194880714 L629.6875998998964,166.91075393437885 M629.6875998998964,166.91075393437885 L646.3893209230479,177.23733016884535" stroke="black"  stroke-width="4"  fill="red"/>
<path d="M304.31091800287743,444.81755231861615 L287.60166787256554,434.42798083237807 M287.60166787256554,434.42798083237807 L268.48984425746784,426.8175971124436 M268.48984425746784,426.8175971124436 L247.75647573593113,422.29642102312306 M247.75647573593113,422.29642102312306 L226.2482814574019,421.048557100031 M226.2482814574019,421.048557100031 L204.8433727702901,423.12479298616734 M204.8433727702901,423.12479298616734 L184.41567605780227,428.44061083986117 M184.41567605780227,428.44061083986117 L165.79952691252953,436.77954146739893 M165.79952691252953,436.77954146739893 L149.75587255556277,447.801828294344 M149.75587255556277,447.801828294344 L136.94126512610723,461.05810647343367 M136.94126512610723,461.05810647343367 L127.88109646557967,476.00745654516965 M127.88109646557967,476.00745654516965 L122.94790382939266,492.0392824508532 M122.94790382939266,492.0392824508532 L122.34584677848312,508.49809385930917 M122.34584677848312,508.49809385930917 L126.10207176623152,524.7101487126777 M126.10207176623152,524.7101487126777 L134.06512991649367,540.0110705831096 M134.06512991649367,540.0110705831096 L145.91079022107513,553.773154899083 M145.91079022107513,553.773154899083 L161.15511221934148,565.4312152414122 M161.15511221934148,565.4312152414122 L179.17399856779,574.5060748614394 M179.17399856779,574.5060748614394 L199.22874580319697,580.6244932762849 M199.22874580319697,580.6244932762849 L220.4965376072505,583.5346542132386 M220.4965376072505,583.5346542132386 L242.10434027029942,583.116757485177 M242.10434027029942,583.116757485177 L263.16502461855123,579.3880239100433 M263.16502461855123,579.3880239100433 L282.81415562670975,572.5019217609445 M282.81415562670975,572.5019217609445 L300.2456697226322,562.7418108891854 M300.2456697226322,562.7418108891854 L314.74516092524084,550.5090993114889 M314.74516092524084,550.5090993114889 L325.71928189240725,536.3064650303438 M325.71928189240725,536.3064650303438 L332.71994245893126,520.7170253308095 M332.71994245893126,520.7170253308095 L335.46250596236524,504.380158276719 M335.46250596236524,504.380158276719 L333.83710795334355,487.96517212561054 M333.83710795334355,487.96517212561054 L327.9127253809305,472.14381650987923 M327.9127253809305,472.14381650987923 L317.9340139672919,457.56281114182957 M317.9340139672919,457.56281114182957 L304.31091800287743,444.81755231861615 M304.31091800287743,444.81755231861615 L304.2988073152807,437.64112535286773 M304.2988073152807,437.64112535286773 L317.9234909534719,450.38679887767455 M317.9234909534719,450.38679887767455 L327.90336504001584,464.96827922323126 M327.90336504001584,464.96827922323126 L333.8284373541903,480.7901508788154 M333.8284373541903,480.7901508788154 L335.4540234438092,497.2056731557083 M335.4540234438092,497.2056731557083 L332.7111380895432,513.5430745159123 M332.7111380895432,513.5430745159123 L325.70965835471344,529.13302475722 M325.70965835471344,529.13302475722 L314.73425397912075,543.3361247420337 M314.73425397912075,543.3361247420337 L300.23306739091765,555.5692378719841 M300.23306739091765,555.5692378719841 L282.7995152815025,565.3296694237118 M282.7995152815025,565.3296694237118 L263.1480872441749,572.2159979805945 M263.1480872441749,572.2159979805945 L242.0849412711912,575.9448542066896 M242.0849412711912,575.9448542066896 L220.47461368611113,576.3627646831919 M220.47461368611113,576.3627646831919 L199.20433761595268,573.4525080143815 M199.20433761595268,573.4525080143815 L179.1472490204803,567.3338884052683 M179.1472490204803,567.3338884052683 L161.12626049022583,558.2587305617603 M161.12626049022583,558.2587305617603 L145.88016178286034,546.6002874358179 M145.88016178286034,546.6002874358179 L134.03312297805684,532.837751730629 M134.03312297805684,532.837751730629 L126.06914073692411,517.5363286060731 M126.06914073692411,517.5363286060731 L122.31248348099854,501.3237433488054 M122.31248348099854,501.3237433488054 L122.91461723888779,484.86439419880236 M122.91461723888779,484.86439419880236 L127.8483918360401,468.83204521438955 M127.8483918360401,468.83204521438955 L136.90962337088877,453.88220801583356 M136.90962337088877,453.88220801583356 L149.7257306986059,440.6254983902776 M149.7257306986059,440.6254983902776 L165.77126039819746,429.6028531916155 M165.77126039819746,429.6028531916155 L184.38958361690382,421.26365165812354 M184.38958361690382,421.26365165812354 L204.81966440830996,415.94766120928887 M204.81966440830996,415.94766120928887 L226.22707003513096,413.87135793245955 M226.22707003513096,413.87135793245955 L247.7377724481574,415.1192623574425 M247.7377724481574,415.1192623574425 L268.4735581852257,419.64058522614323 M268.4735581852257,419.64058522614323 L287.5876096264123,427.25121614243835 M287.5876096264123,427.25121614243835 L304.2988073152807,437.64112535286773" stroke="black"  stroke-width="4"  fill="red"/>
<path d="M332.01162288617866,498.8315621229262 L337.8878859501019,503.315059460622 M300.62176419101803,522.7489918407756 L306.4980246389871,527.2350021734985 M332.01162288617866,498.8315621229262 L300.62176419101803,522.7489918407756 M337.8878859501019,503.315059460622 L306.4980246389871,527.2350021734985 M332.0471413390879,527.5134873173932 L337.92066393056115,531.9963981400533 M300.62176419101803,522.7489918407756 L301.42007723290044,528.5331311785828 M301.42007723290044,528.5331311785828 L303.7522650194438,532.8265115634119 M303.7522650194438,532.8265115634119 L307.5008471607484,535.4143198433276 M307.5008471607484,535.4143198433276 L312.4773477652743,536.167454386833 M312.4773477652743,536.167454386833 L318.43196865254566,535.048788966956 M318.43196865254566,535.048788966956 L325.06605472912725,532.1149869130758 M325.06605472912725,532.1149869130758 L332.0471413390879,527.5134873173932 M306.4980246389871,527.2350021734985 L307.2957277251721,533.0189477160297 M307.2957277251721,533.0189477160297 L309.62733640893015,537.3120179765635 M309.62733640893015,537.3120179765635 L313.375399303242,539.8994154214763 M313.375399303242,539.8994154214763 L318.35146650276005,540.652059088845 M318.35146650276005,540.652059088845 L324.305761502206,539.532847412434 M324.305761502206,539.532847412434 L330.9396454973758,536.5984711368076 M330.9396454973758,536.5984711368076 L337.92066393056115,531.9963981400533 M332.0471413390879,527.5134873173932 L332.01162288617866,498.8315621229262 M337.92066393056115,531.9963981400533 L337.8878859501019,503.315059460622" stroke="black"  stroke-width="4"  fill="red"/>
<path d="M582.417616536037,336.6801239786781 L588.2911269138506,341.14301857372334 M613.7309656651125,284.1761650881924 L619.6072108477978,288.63714018364107 M582.417616536037,336.6801239786781 L589.3678166618372,330.6648393367795 M589.3678166618372,330.6648393367795 L595.9732444668297,323.5127750100861 M595.9732444668297,323.5127750100861 L601.9032281225443,315.5820832875215 M601.9032281225443,315.5820832875215 L606.8608653974153,307.2698101964397 M606.8608653974153,307.2698101964397 L610.5978805341164,298.99208168550047 M610.5978805341164,298.99208168550047 L612.9268998530246,291.16346287575954 M612.9268998530246,291.16346287575954 L613.7309656651125,284.1761650881924 M588.2911269138506,341.14301857372334 L595.2413945404917,335.12719350419997 M595.2413945404917,335.12719350419997 L601.8470237844598,327.97464472701427 M601.8470237844598,327.97464472701427 L607.7773327510581,320.0435487549951 M607.7773327510581,320.0435487549951 L612.7354029481746,311.7309718226316 M612.7354029481746,311.7309718226316 L616.4729369672635,303.45305506328674 M616.4729369672635,303.45305506328674 L618.8025351606404,295.6243730176877 M618.8025351606404,295.6243730176877 L619.6072108477978,288.63714018364107 M582.498807560155,307.97343520866133 L588.3750583933378,312.4369043847648 M613.7309656651125,284.1761650881924 L582.498807560155,307.97343520866133 M619.6072108477978,288.63714018364107 L588.3750583933378,312.4369043847648 M582.498807560155,307.97343520866133 L582.417616536037,336.6801239786781 M588.3750583933378,312.4369043847648 L588.2911269138506,341.14301857372334" stroke="black"  stroke-width="4"  fill="red"/>
<path d="M582.498807560155,307.97343520866133 L588.3750583933378,312.4369043847648 M332.01162288617866,498.8315621229262 L337.8878859501019,503.315059460622 M582.498807560155,307.97343520866133 L332.01162288617866,498.8315621229262 M588.3750583933378,312.4369043847648 L337.8878859501019,503.315059460622 M582.417616536037,336.6801239786781 L588.2911269138506,341.14301857372334 M582.417616536037,336.6801239786781 L582.498807560155,307.97343520866133 M588.2911269138506,341.14301857372334 L588.3750583933378,312.4369043847648 M332.0471413390879,527.5134873173932 L337.92066393056115,531.9963981400533 M332.01162288617866,498.8315621229262 L332.0471413390879,527.5134873173932 M337.8878859501019,503.315059460622 L337.92066393056115,531.9963981400533 M554.111557763457,358.2551135783329 L582.417616536037,336.6801239786781 M332.0471413390879,527.5134873173932 L360.4657407303336,505.85271881447403 M360.46018145018184,498.6840393159946 L360.4657407303336,505.85271881447403 M366.33877750262053,494.2037267252253 L360.46018145018184,498.6840393159946 M366.33877750262053,494.2037267252253 L366.34365088048014,501.37255252300986 M366.34365088048014,501.37255252300986 L548.2533417825493,362.72026889635436 M548.2696601405896,355.54694254382 L548.2533417825493,362.72026889635436 M554.128557433931,351.08164316328333 L548.2696601405896,355.54694254382 M554.128557433931,351.08164316328333 L554.111557763457,358.2551135783329 M559.9850724679774,362.72026889635436 L588.2911269138506,341.14301857372334 M337.92066393056115,531.9963981400533 L366.33926489156545,510.3333554179705 M366.3343904904124,503.16482228901975 L366.33926489156545,510.3333554179705 M372.2129867731324,498.68403931599454 L366.3343904904124,503.16482228901975 M372.2129867731324,498.68403931599454 L372.2171752719127,505.85271881447403 M372.2171752719127,505.85271881447403 L554.1268572887262,367.1858921646289 M554.1438605227403,360.0127099442063 L554.1268572887262,367.1858921646289 M560.0027570141449,355.54694254382 L554.1438605227403,360.0127099442063 M560.0027570141449,355.54694254382 L559.9850724679774,362.72026889635436 M554.111557763457,358.2551135783329 L559.9850724679774,362.72026889635436 M360.4657407303336,505.85271881447403 L366.33926489156545,510.3333554179705 M554.128557433931,351.08164316328333 L560.0027570141449,355.54694254382 M554.1438605227403,360.0127099442063 L548.2696601405896,355.54694254382 M548.2533417825493,362.72026889635436 L554.1268572887262,367.1858921646289 M366.34365088048014,501.37255252300986 L372.2171752719127,505.85271881447403 M366.33877750262053,494.2037267252253 L372.2129867731324,498.68403931599454 M366.3343904904124,503.16482228901975 L360.46018145018184,498.6840393159946" stroke="black"  stroke-width="4"  fill="red"/>
<path d="M226.6701721525629,418.45767334779276 L232.53537379251003,422.93273099100793 M195.28038969656527,442.3300759963138 L201.14558563033893,446.807639541246 M226.6701721525629,418.45767334779276 L195.28038969656527,442.3300759963138 M232.53537379251003,422.93273099100793 L201.14558563033893,446.807639541246 M226.75476912703334,447.1500754837179 L232.61724060549528,451.62455164841083 M195.28038969656527,442.3300759963138 L196.0896255514429,448.1176805538564 M196.0896255514429,448.1176805538564 L198.43218217951284,452.41661086712827 M198.43218217951284,452.41661086712827 L202.19005989502787,455.01177428070827 M202.19005989502787,455.01177428070827 L207.17431760168353,455.7736991169329 M207.17431760168353,455.7736991169329 L213.13476917572606,454.66481753927565 M213.13476917572606,454.66481753927565 L219.7724680818338,451.74130185056396 M219.7724680818338,451.74130185056396 L226.75476912703334,447.1500754837179 M201.14558563033893,446.807639541246 L201.95421390358698,452.5950516040861 M201.95421390358698,452.5950516040861 L204.2961938380499,456.8936733838892 M204.2961938380499,456.8936733838892 L208.05355463009434,459.4884277635354 M208.05355463009434,459.4884277635354 L213.03738105324322,460.2498636444334 M213.03738105324322,460.2498636444334 L218.99750855280166,459.1404377544033 M218.99750855280166,459.1404377544033 L225.63500679202718,456.2163497140036 M225.63500679202718,456.2163497140036 L232.61724060549528,451.62455164841083 M226.75476912703334,447.1500754837179 L226.6701721525629,418.45767334779276 M232.61724060549528,451.62455164841083 L232.53537379251003,422.93273099100793" stroke="black"  stroke-width="4"  fill="red"/>
<path d="M477.125229439173,256.6753576554521 L482.98771339136607,261.12987399420115 M508.3895721234803,204.20582373930864 L514.2547836943397,208.65842262409257 M477.125229439173,256.6753576554521 L484.0742142300372,250.6697570681358 M484.0742142300372,250.6697570681358 L490.67602833899576,243.52637536659773 M490.67602833899576,243.52637536659773 L496.60018051986737,235.60293068296028 M496.60018051986737,235.60293068296028 L501.55006002574106,227.29610678777934 M501.55006002574106,227.29610678777934 L505.27777908004884,219.0217573016264 M505.27777908004884,219.0217573016264 L507.59642923736493,211.194278264451 M507.59642923736493,211.194278264451 L508.3895721234803,204.20582373930864 M482.98771339136607,261.12987399420115 L489.9367661122981,255.12373441618416 M489.9367661122981,255.12373441618416 L496.53878155306865,247.97986937941835 M496.53878155306865,247.97986937941835 L502.4632584066104,240.05602118424915 M502.4632584066104,240.05602118424915 L507.4135696973134,231.74889377153806 M507.4135696973134,231.74889377153806 L511.14180605419153,223.4743559304123 M511.14180605419153,223.4743559304123 L513.4610331427007,215.64681312579495 M513.4610331427007,215.64681312579495 L514.2547836943397,208.65842262409257 M477.15734192067873,227.95840552472703 L483.0225560518159,232.4134914679181 M508.3895721234803,204.20582373930864 L477.15734192067873,227.95840552472703 M514.2547836943397,208.65842262409257 L483.0225560518159,232.4134914679181 M477.15734192067873,227.95840552472703 L477.125229439173,256.6753576554521 M483.0225560518159,232.4134914679181 L482.98771339136607,261.12987399420115" stroke="black"  stroke-width="4"  fill="red"/>
<path d="M477.15734192067873,227.95840552472703 L483.0225560518159,232.4134914679181 M226.6701721525629,418.45767334779276 L232.53537379251003,422.93273099100793 M477.15734192067873,227.95840552472703 L226.6701721525629,418.45767334779276 M483.0225560518159,232.4134914679181 L232.53537379251003,422.93273099100793 M477.125229439173,256.6753576554521 L482.98771339136607,261.12987399420115 M477.125229439173,256.6753576554521 L477.15734192067873,227.95840552472703 M482.98771339136607,261.12987399420115 L483.0225560518159,232.4134914679181 M226.75476912703334,447.1500754837179 L232.61724060549528,451.62455164841083 M226.6701721525629,418.45767334779276 L226.75476912703334,447.1500754837179 M232.53537379251003,422.93273099100793 L232.61724060549528,451.62455164841083 M448.8191195398269,278.2098401545936 L477.125229439173,256.6753576554521 M448.8333257595712,256.6766987690154 L448.8191195398269,278.2098401545936 M442.9730564568024,261.13389775501537 L448.8333257595712,256.6766987690154 M442.9730564568024,261.13389775501537 L442.9608946592189,282.6666108523717 M261.0512143698878,421.05831640798266 L442.9608946592189,282.6666108523717 M260.9997861549939,399.5389835904222 L261.0512143698878,421.05831640798266 M255.11982744414033,404.0111579308328 L260.9997861549939,399.5389835904222 M255.11982744414033,404.0111579308328 L255.17331383616093,425.5300557824618 M226.75476912703334,447.1500754837179 L255.17331383616093,425.5300557824618 M454.6816050221178,282.6666108523716 L482.98771339136607,261.12987399420115 M454.68702163385007,275.4907099400804 L454.6816050221178,282.6666108523716 M454.68702163385007,275.4907099400804 L448.8281156608247,279.9480901568324 M448.8281156608247,279.9480901568324 L448.82338036455656,287.1238481829196 M266.9136910235275,425.53005578246166 L448.82338036455656,287.1238481829196 M266.8972345844587,418.3587616814564 L266.9136910235275,425.53005578246166 M266.8972345844587,418.3587616814564 L261.01864734271,422.83111515400935 M261.01864734271,422.83111515400935 L261.0357896809902,430.00226414262056 M232.61724060549528,451.62455164841083 L261.0357896809902,430.00226414262056 M448.8191195398269,278.2098401545936 L454.6816050221178,282.6666108523716 M255.17331383616093,425.5300557824618 L261.0357896809902,430.00226414262056 M449.8107052545487,257.4195328503123 L448.8333257595712,256.6766987690154 M449.8107052545487,257.4195328503123 L449.8010058443497,271.7765829377163 M449.8010058443497,271.7765829377163 L454.68702163385007,275.4907099400804 M443.95043598675807,261.8768096379764 L442.9730564568024,261.13389775501537 M449.8107052545487,257.4195328503123 L443.95043598675807,261.8768096379764 M443.94209968315363,276.2335742310305 L443.95043598675807,261.8768096379764 M448.8281156608247,279.9480901568324 L443.94209968315363,276.2335742310305 M442.9608946592189,282.6666108523717 L448.82338036455656,287.1238481829196 M261.0512143698878,421.05831640798266 L266.9136910235275,425.53005578246166 M261.9771641054608,400.2843134006152 L260.9997861549939,399.5389835904222 M261.9771641054608,400.2843134006152 L262.0112260832642,414.6321587637841 M262.0112260832642,414.6321587637841 L266.8972345844587,418.3587616814564 M256.0972052574288,404.75656593511934 L255.11982744414033,404.0111579308328 M261.9771641054608,400.2843134006152 L256.0972052574288,404.75656593511934 M256.1326395135263,419.1041213515868 L256.0972052574288,404.75656593511934 M261.01864734271,422.83111515400935 L256.1326395135263,419.1041213515868 M449.8010058443497,271.7765829377163 L443.94209968315363,276.2335742310305 M262.0112260832642,414.6321587637841 L256.1326395135263,419.1041213515868" stroke="black"  stroke-width="4"  fill="red"/>
<path d="M411.05745812882265,622.491332493348 L405.1913707938956,618.0122797108734 M379.76291313122,646.3875440662475 L373.89682625468834,641.9059867679052 M411.05745812882265,622.491332493348 L379.76291313122,646.3875440662475 M405.1913707938956,618.0122797108734 L373.89682625468834,641.9059867679052 M411.0638762232814,488.27263830950534 L405.18495337274675,483.79083341312617 M411.0638762232814,488.27263830950534 L411.05745812882265,622.491332493348 M405.18495337274675,483.79083341312617 L405.1913707938956,618.0122797108734 M379.70083682128035,512.1835500634534 L373.82191443215726,507.69923362655624 M379.76291313122,646.3875440662475 L379.70083682128035,512.1835500634534 M373.89682625468834,641.9059867679052 L373.82191443215726,507.69923362655624 M379.70083682128035,512.1835500634534 L411.0638762232814,488.27263830950534 M392.4518890732488,532.6419089289666 L392.4470118273843,513.5253245701754 M398.3265235282913,509.04225462022265 L392.4470118273843,513.5253245701754 M398.3295714868723,528.1592300592192 L398.3265235282913,509.04225462022265 M392.4518890732488,532.6419089289666 L398.3295714868723,528.1592300592192 M373.82191443215726,507.69923362655624 L405.18495337274675,483.79083341312617 M386.56746959500526,504.26115672523906 L386.5775278574266,532.9366173296332 M386.5775278574266,532.9366173296332 L392.45475304055407,528.4545068605175 M392.45475304055407,528.4545068605175 L392.44743870869263,499.77845991722506 M392.44743870869263,499.77845991722506 L386.56746959500526,504.26115672523906 M386.5775278574266,532.9366173296332 L388.0463650415787,534.0572184707382 M388.0463650415787,534.0572184707382 L388.04480352864107,529.2798556533348 M388.04480352864107,529.2798556533348 L392.4518890732488,532.6419089289666 M392.4470118273843,513.5253245701754 L388.03855504951656,510.1629779668083 M388.03855504951656,510.1629779668083 L388.03699232372674,505.3819044950134 M388.03699232372674,505.3819044950134 L386.56746959500526,504.26115672523906 M398.3265235282913,509.04225462022265 L393.91806668861943,505.68026112785105 M393.91806668861943,505.68026112785105 L388.03855504951656,510.1629779668083 M392.45475304055407,528.4545068605175 L393.92359024932966,529.5749903658163 M393.92359024932966,529.5749903658163 L393.92248588051814,524.7975297539447 M393.92248588051814,524.7975297539447 L398.3295714868723,528.1592300592192 M393.91806668861943,505.68026112785105 L393.91696146207204,500.89908998088407 M393.91696146207204,500.89908998088407 L392.44743870869263,499.77845991722506 M393.92248588051814,524.7975297539447 L388.04480352864107,529.2798556533348 M393.91696146207204,500.89908998088407 L388.03699232372674,505.3819044950134 M393.92359024932966,529.5749903658163 L388.0463650415787,534.0572184707382" stroke="black"  stroke-width="4"  fill="red"/>
<path d="M598.4580143501895,479.39408213588405 L592.5919434531961,474.9300124539883 M567.2681716117365,503.2103440774025 L561.4020956984153,498.7437824378422 M598.4580143501895,479.39408213588405 L567.2681716117365,503.2103440774025 M592.5919434531961,474.9300124539883 L561.4020956984153,498.7437824378422 M598.8737934140413,345.08797119532153 L592.9948871094581,340.62119132771295 M598.8737934140413,345.08797119532153 L598.4580143501895,479.39408213588405 M592.9948871094581,340.62119132771295 L592.5919434531961,474.9300124539883 M567.6159144927178,368.91870950238973 L561.7370031388574,364.44943071515655 M567.2681716117365,503.2103440774025 L567.6159144927178,368.91870950238973 M561.4020956984153,498.7437824378422 L561.7370031388574,364.44943071515655 M567.6159144927178,368.91870950238973 L598.8737934140413,345.08797119532153 M580.232139078366,389.42924454567725 L580.2856089505394,370.30023836545257 M586.1454101475696,365.83219748119836 L580.2856089505394,370.30023836545257 M586.0901232351146,384.9615887672863 L586.1454101475696,365.83219748119836 M580.232139078366,389.42924454567725 L586.0901232351146,384.9615887672863 M561.7370031388574,364.44943071515655 L592.9948871094581,340.62119132771295 M574.4206724189983,361.0479975414426 L574.3432099936198,389.74208191191093 M574.3432099936198,389.74208191191093 L580.2007410113354,385.27499067759106 M580.2007410113354,385.27499067759106 L580.280928998215,356.5803289272236 M580.280928998215,356.5803289272236 L574.4206724189983,361.0479975414426 M574.3432099936198,389.74208191191093 L575.8120439617558,390.85892787506236 M575.8120439617558,390.85892787506236 L575.8250635725703,386.07845881018585 M575.8250635725703,386.07845881018585 L580.232139078366,389.42924454567725 M580.2856089505394,370.30023836545257 L575.8771622208476,366.9491637831395 M575.8771622208476,366.9491637831395 L575.8901919272031,362.1649878931209 M575.8901919272031,362.1649878931209 L574.4206724189983,361.0479975414426 M586.1454101475696,365.83219748119836 L581.7369641305967,362.4814742357482 M581.7369641305967,362.4814742357482 L575.8771622208476,366.9491637831395 M580.2007410113354,385.27499067759106 L581.6695747462211,386.3917195957283 M581.6695747462211,386.3917195957283 L581.683048441374,381.61115422927594 M581.683048441374,381.61115422927594 L586.0901232351146,384.9615887672863 M581.7369641305967,362.4814742357482 L581.7504482728433,357.69720216420683 M581.7504482728433,357.69720216420683 L580.280928998215,356.5803289272236 M581.683048441374,381.61115422927594 L575.8250635725703,386.07845881018585 M581.7504482728433,357.69720216420683 L575.8901919272031,362.1649878931209 M581.6695747462211,386.3917195957283 L575.8120439617558,390.85892787506236" stroke="black"  stroke-width="4"  fill="red"/>
<path d="M254.8385588601734,503.2103440774025 L248.98883081789305,498.7437824378423 M223.5440847203132,527.0399030682472 L217.69436169868501,522.5708473838282 M254.8385588601734,503.2103440774025 L223.5440847203132,527.0399030682472 M248.98883081789305,498.7437824378423 L217.69436169868501,522.5708473838282 M254.50361633063923,368.91870950238973 L248.64112436698815,364.44943071515655 M254.50361633063923,368.91870950238973 L254.8385588601734,503.2103440774025 M248.64112436698815,364.44943071515655 L248.98883081789305,498.7437824378423 M223.14064825218918,392.7627820221844 L217.27816134217784,388.29100221772615 M223.5440847203132,527.0399030682472 L223.14064825218918,392.7627820221844 M217.69436169868501,522.5708473838282 L217.27816134217784,388.29100221772615 M223.14064825218918,392.7627820221844 L254.50361633063923,368.91870950238973 M235.98178452684036,418.0445355913684 L241.85899644624976,413.5744777982266 M241.78149069332693,384.88347749696584 L241.85899644624976,413.5744777982266 M241.78149069332693,384.88347749696584 L235.9015348619248,389.3541144367668 M235.98178452684036,418.0445355913684 L235.9015348619248,389.3541144367668 M217.27816134217784,388.29100221772615 L248.64112436698815,364.44943071515655 M230.10879532816975,408.79449898484324 L230.05347749174007,389.667163745399 M235.93297487996722,385.1970921031192 L230.05347749174007,389.667163745399 M235.98646344245452,404.3248132543173 L235.93297487996722,385.1970921031192 M230.10879532816975,408.79449898484324 L235.98646344245452,404.3248132543173 M240.3941473480985,412.4570365716399 L241.85899644624976,413.5744777982266 M234.51693566216284,416.9269772077606 L235.98178452684036,418.0445355913684 M240.3941473480985,412.4570365716399 L234.51693566216284,416.9269772077606 M235.9015348619248,389.3541144367668 L234.43600417300163,388.2364112403177 M234.43600417300163,388.2364112403177 L234.44949798129036,393.0200251447843 M234.44949798129036,393.0200251447843 L230.05347749174007,389.667163745399 M230.10879532816975,408.79449898484324 L234.503452312208,412.1470708282789 M234.503452312208,412.1470708282789 L234.51693566216284,416.9269772077606 M241.78149069332693,384.88347749696584 L240.3159597706033,383.7658915273378 M240.3159597706033,383.7658915273378 L234.43600417300163,388.2364112403177 M240.3159597706033,383.7658915273378 L240.3289960828068,388.54960188460876 M240.3289960828068,388.54960188460876 L235.93297487996722,385.1970921031192 M235.98646344245452,404.3248132543173 L240.38112113911745,407.6770336194376 M240.38112113911745,407.6770336194376 L240.3941473480985,412.4570365716399 M240.3289960828068,388.54960188460876 L234.44949798129036,393.0200251447843 M240.38112113911745,407.6770336194376 L234.503452312208,412.1470708282789" stroke="black"  stroke-width="4"  fill="red"/>
<path d="M442.23920162327295,360.5118391692314 L436.38946264531035,356.0601980491231 M411.0492837496621,384.2617825160068 L405.1995443176285,379.8076598393449 M442.23920162327295,360.5118391692314 L411.0492837496621,384.2617825160068 M436.38946264531035,356.0601980491231 L405.1995443176285,379.8076598393449 M442.3136206313505,226.13390191378295 L436.45111766020625,221.6795852622507 M442.3136206313505,226.13390191378295 L442.23920162327295,360.5118391692314 M436.45111766020625,221.6795852622507 L436.38946264531035,356.0601980491231 M411.05566608158705,249.89813663929422 L405.1931626533937,245.44133152103018 M411.0492837496621,384.2617825160068 L411.05566608158705,249.89813663929422 M405.1995443176285,379.8076598393449 L405.1931626533937,245.44133152103018 M411.05566608158705,249.89813663929422 L442.3136206313505,226.13390191378295 M423.7474532977522,275.23474712652956 L429.6049975268432,270.7796480780419 M429.61499411094144,242.07026205980628 L429.6049975268432,270.7796480780419 M429.61499411094144,242.07026205980628 L423.75472430187966,246.52593136019013 M423.7474532977522,275.23474712652956 L423.75472430187966,246.52593136019013 M405.1931626533937,245.44133152103018 L436.45111766020625,221.6795852622507 M417.88903096308803,265.9966030552707 L417.8920602312669,246.85701066815486 M423.7518756869646,242.4019028302032 L417.8920602312669,246.85701066815486 M423.74702936523005,261.541875200892 L423.7518756869646,242.4019028302032 M417.88903096308803,265.9966030552707 L423.74702936523005,261.541875200892 M428.140145219353,269.6659461703841 L429.6049975268432,270.7796480780419 M422.28260096586195,274.12092864944157 L423.7474532977522,275.23474712652956 M428.140145219353,269.6659461703841 L422.28260096586195,274.12092864944157 M423.75472430187966,246.52593136019013 L422.289190140895,245.41197029418524 M422.289190140895,245.41197029418524 L422.2880915202251,250.19864767065306 M422.2880915202251,250.19864767065306 L417.8920602312669,246.85701066815486 M417.88903096308803,265.9966030552707 L422.2836987364777,269.3379549490454 M422.2836987364777,269.3379549490454 L422.28260096586195,274.12092864944157 M429.61499411094144,242.07026205980628 L428.14945997439094,240.95641763240826 M428.14945997439094,240.95641763240826 L422.289190140895,245.41197029418524 M428.14945997439094,240.95641763240826 L428.14790691468914,245.74318997895145 M428.14790691468914,245.74318997895145 L423.7518756869646,242.4019028302032 M423.74702936523005,261.541875200892 L428.1416970774429,264.882877379251 M428.1416970774429,264.882877379251 L428.140145219353,269.6659461703841 M428.14790691468914,245.74318997895145 L422.2880915202251,250.19864767065306 M428.1416970774429,264.882877379251 L422.2836987364777,269.3379549490454" stroke="black"  stroke-width="4"  fill="red"/>
<path d="M240.38112113911745,407.6770336194376 L234.503452312208,412.1470708282789 M240.3941473480985,412.4570365716399 L234.51693566216284,416.9269772077606 M240.38112113911745,407.6770336194376 L240.3941473480985,412.4570365716399 M234.503452312208,412.1470708282789 L234.51693566216284,416.9269772077606 M242.13908395734936,409.01799784627065 L236.2614148504465,413.4881756582849 M242.13908395734936,409.01799784627065 L240.38112113911745,407.6770336194376 M236.2614148504465,413.4881756582849 L234.503452312208,412.1470708282789 M393.92359024932966,529.5749903658163 L388.0463650415787,534.0572184707382 M240.3941473480985,412.4570365716399 L393.92359024932966,529.5749903658163 M234.51693566216284,416.9269772077606 L388.0463650415787,534.0572184707382 M242.08750436453212,389.89068190749543 L242.13908395734936,409.01799784627065 M240.3289960828068,388.54960188460876 L242.08750436453212,389.89068190749543 M240.3159597706033,383.7658915273378 L240.3289960828068,388.54960188460876 M261.9771641054608,400.2843134006152 L240.3159597706033,383.7658915273378 M261.9771641054608,400.2843134006152 L262.0112260832642,414.6321587637841 M262.0112260832642,414.6321587637841 L267.8744875317567,419.10412135158674 M267.8744875317567,419.10412135158674 L267.84179068602396,404.75656593511934 M366.3290273354656,479.86105684705035 L267.84179068602396,404.75656593511934 M366.3290273354656,479.86105684705035 L366.33877750262053,494.2037267252253 M366.33877750262053,494.2037267252253 L372.2129867731324,498.68403931599454 M372.2129867731324,498.68403931599454 L372.20460684340753,484.3416618753675 M393.91696146207204,500.89908998088407 L372.20460684340753,484.3416618753675 M393.91806668861943,505.68026112785105 L393.91696146207204,500.89908998088407 M392.1547781866537,504.33553559590655 L393.91806668861943,505.68026112785105 M392.1597458123346,523.4529214675097 L392.1547781866537,504.33553559590655 M393.92248588051814,524.7975297539447 L392.1597458123346,523.4529214675097 M393.92359024932966,529.5749903658163 L393.92248588051814,524.7975297539447 M236.20800598276114,394.36124582668447 L236.2614148504465,413.4881756582849 M234.44949798129036,393.0200251447843 L236.20800598276114,394.36124582668447 M234.43600417300163,388.2364112403177 L234.44949798129036,393.0200251447843 M256.0972052574288,404.75656593511934 L234.43600417300163,388.2364112403177 M256.1326395135263,419.1041213515868 L256.0972052574288,404.75656593511934 M261.99590015828653,423.57655300723974 L256.1326395135263,419.1041213515868 M261.9618310336974,409.2292876772545 L261.99590015828653,423.57655300723974 M360.44905899809663,484.3416618753676 L261.9618310336974,409.2292876772545 M360.46018145018184,498.6840393159946 L360.44905899809663,484.3416618753676 M366.3343904904124,503.16482228901975 L360.46018145018184,498.6840393159946 M366.32463827559604,488.82273742642025 L366.3343904904124,503.16482228901975 M388.03699232372674,505.3819044950134 L366.32463827559604,488.82273742642025 M388.03855504951656,510.1629779668083 L388.03699232372674,505.3819044950134 M386.27526657737656,508.8181112019074 L388.03855504951656,510.1629779668083 M386.28206349025544,527.9351061901905 L386.27526657737656,508.8181112019074 M388.04480352864107,529.2798556533348 L386.28206349025544,527.9351061901905 M388.0463650415787,534.0572184707382 L388.04480352864107,529.2798556533348 M242.08750436453212,389.89068190749543 L236.20800598276114,394.36124582668447 M393.92248588051814,524.7975297539447 L388.04480352864107,529.2798556533348 M240.3289960828068,388.54960188460876 L234.44949798129036,393.0200251447843 M240.3159597706033,383.7658915273378 L234.43600417300163,388.2364112403177 M261.9771641054608,400.2843134006152 L256.0972052574288,404.75656593511934 M262.0112260832642,414.6321587637841 L256.1326395135263,419.1041213515868 M267.8744875317567,419.10412135158674 L261.99590015828653,423.57655300723974 M261.9618310336974,409.2292876772545 L267.84179068602396,404.75656593511934 M366.3290273354656,479.86105684705035 L360.44905899809663,484.3416618753676 M366.33877750262053,494.2037267252253 L360.46018145018184,498.6840393159946 M372.2129867731324,498.68403931599454 L366.3343904904124,503.16482228901975 M366.32463827559604,488.82273742642025 L372.20460684340753,484.3416618753675 M393.91696146207204,500.89908998088407 L388.03699232372674,505.3819044950134 M393.91806668861943,505.68026112785105 L388.03855504951656,510.1629779668083 M392.1547781866537,504.33553559590655 L386.27526657737656,508.8181112019074 M392.1597458123346,523.4529214675097 L386.28206349025544,527.9351061901905" stroke="black"  stroke-width="4"  fill="red"/>
<path d="M392.1597458123346,523.4529214675097 L386.28206349025544,527.9351061901905 M398.62339252169966,528.3833551048165 L392.7457101046074,532.8660575076428 M392.1597458123346,523.4529214675097 L398.62339252169966,528.3833551048165 M386.28206349025544,527.9351061901905 L392.7457101046074,532.8660575076428 M398.6204359872832,509.2663992155753 L392.74092428290413,513.749492707984 M398.62339252169966,528.3833551048165 L398.6204359872832,509.2663992155753 M392.7457101046074,532.8660575076428 L392.74092428290413,513.749492707984 M392.1547781866537,504.33553559590655 L386.27526657737656,508.8181112019074 M398.6204359872832,509.2663992155753 L392.1547781866537,504.33553559590655 M392.74092428290413,513.749492707984 L386.27526657737656,508.8181112019074 M392.1547781866537,504.33553559590655 L392.1597458123346,523.4529214675097 M386.27526657737656,508.8181112019074 L386.28206349025544,527.9351061901905" stroke="black"  stroke-width="4"  fill="red"/>
<path d="M235.6934955686453,404.1013389951833 L229.8158275025114,408.57100129505716 M242.13908395734936,409.01799784627065 L236.2614148504465,413.4881756582849 M235.6934955686453,404.1013389951833 L242.13908395734936,409.01799784627065 M229.8158275025114,408.57100129505716 L236.2614148504465,413.4881756582849 M242.08750436453212,389.89068190749543 L236.20800598276114,394.36124582668447 M242.13908395734936,409.01799784627065 L242.08750436453212,389.89068190749543 M236.2614148504465,413.4881756582849 L236.20800598276114,394.36124582668447 M235.63991611245245,384.9735985530858 L229.76041877242105,389.44364675540913 M242.08750436453212,389.89068190749543 L235.63991611245245,384.9735985530858 M236.20800598276114,394.36124582668447 L229.76041877242105,389.44364675540913 M235.63991611245245,384.9735985530858 L235.6934955686453,404.1013389951833 M229.76041877242105,389.44364675540913 L229.8158275025114,408.57100129505716" stroke="black"  stroke-width="4"  fill="red"/>
<path d="M428.1416970774429,264.882877379251 L422.2836987364777,269.3379549490454 M428.140145219353,269.6659461703841 L422.28260096586195,274.12092864944157 M428.1416970774429,264.882877379251 L428.140145219353,269.6659461703841 M422.2836987364777,269.3379549490454 L422.28260096586195,274.12092864944157 M429.8996637400782,266.2193539535831 L424.0416654286407,270.674571421312 M429.8996637400782,266.2193539535831 L428.1416970774429,264.882877379251 M424.0416654286407,270.674571421312 L422.2836987364777,269.3379549490454 M581.6695747462211,386.3917195957283 L575.8120439617558,390.85892787506236 M428.140145219353,269.6659461703841 L581.6695747462211,386.3917195957283 M422.28260096586195,274.12092864944157 L575.8120439617558,390.85892787506236 M429.90641904440105,247.0797805706806 L429.8996637400782,266.2193539535831 M428.14790691468914,245.74318997895145 L429.90641904440105,247.0797805706806 M428.14945997439094,240.95641763240826 L428.14790691468914,245.74318997895145 M449.8107052545487,257.4195328503123 L428.14945997439094,240.95641763240826 M449.8107052545487,257.4195328503123 L449.8010058443497,271.7765829377163 M449.8010058443497,271.7765829377163 L455.6642759530286,276.2335742310305 M455.6642759530286,276.2335742310305 L455.6753405013545,261.8768096379764 M554.162568654937,336.7296892214815 L455.6753405013545,261.8768096379764 M554.162568654937,336.7296892214815 L554.128557433931,351.08164316328333 M554.128557433931,351.08164316328333 L560.0027570141449,355.54694254382 M560.0027570141449,355.54694254382 L560.038138465805,341.1952765649646 M581.7504482728433,357.69720216420683 L560.038138465805,341.1952765649646 M581.7369641305967,362.4814742357482 L581.7504482728433,357.69720216420683 M579.9736797943897,361.14125643770325 L581.7369641305967,362.4814742357482 M579.9203125350674,380.27105188513843 L579.9736797943897,361.14125643770325 M581.683048441374,381.61115422927594 L579.9203125350674,380.27105188513843 M581.6695747462211,386.3917195957283 L581.683048441374,381.61115422927594 M424.04660367949236,251.53537821565848 L424.0416654286407,270.674571421312 M422.2880915202251,250.19864767065306 L424.04660367949236,251.53537821565848 M422.289190140895,245.41197029418524 L422.2880915202251,250.19864767065306 M443.95043598675807,261.8768096379764 L422.289190140895,245.41197029418524 M443.94209968315363,276.2335742310305 L443.95043598675807,261.8768096379764 M449.80537002031815,280.6910322385788 L443.94209968315363,276.2335742310305 M449.8150714622092,266.3345532784069 L449.80537002031815,280.6910322385788 M548.3023082611979,341.19527656496473 L449.8150714622092,266.3345532784069 M548.2696601405896,355.54694254382 L548.3023082611979,341.19527656496473 M554.1438605227403,360.0127099442063 L548.2696601405896,355.54694254382 M554.1778788745629,345.6613320675216 L554.1438605227403,360.0127099442063 M575.8901919272031,362.1649878931209 L554.1778788745629,345.6613320675216 M575.8771622208476,366.9491637831395 L575.8901919272031,362.1649878931209 M574.1138776046564,365.6088054617145 L575.8771622208476,366.9491637831395 M574.0623273865405,384.7382159984128 L574.1138776046564,365.6088054617145 M575.8250635725703,386.07845881018585 L574.0623273865405,384.7382159984128 M575.8120439617558,390.85892787506236 L575.8250635725703,386.07845881018585 M429.90641904440105,247.0797805706806 L424.04660367949236,251.53537821565848 M581.683048441374,381.61115422927594 L575.8250635725703,386.07845881018585 M428.14790691468914,245.74318997895145 L422.2880915202251,250.19864767065306 M428.14945997439094,240.95641763240826 L422.289190140895,245.41197029418524 M449.8107052545487,257.4195328503123 L443.95043598675807,261.8768096379764 M449.8010058443497,271.7765829377163 L443.94209968315363,276.2335742310305 M455.6642759530286,276.2335742310305 L449.80537002031815,280.6910322385788 M449.8150714622092,266.3345532784069 L455.6753405013545,261.8768096379764 M554.162568654937,336.7296892214815 L548.3023082611979,341.19527656496473 M554.128557433931,351.08164316328333 L548.2696601405896,355.54694254382 M560.0027570141449,355.54694254382 L554.1438605227403,360.0127099442063 M554.1778788745629,345.6613320675216 L560.038138465805,341.1952765649646 M581.7504482728433,357.69720216420683 L575.8901919272031,362.1649878931209 M581.7369641305967,362.4814742357482 L575.8771622208476,366.9491637831395 M579.9736797943897,361.14125643770325 L574.1138776046564,365.6088054617145 M579.9203125350674,380.27105188513843 L574.0623273865405,384.7382159984128" stroke="black"  stroke-width="4"  fill="red"/>
<path d="M579.9203125350674,380.27105188513843 L574.0623273865405,384.7382159984128 M586.3839435283705,385.18496270681896 L580.5259594197403,389.65264190008594 M579.9203125350674,380.27105188513843 L586.3839435283705,385.18496270681896 M574.0623273865405,384.7382159984128 L580.5259594197403,389.65264190008594 M586.4393218642983,366.055590671806 L580.5795207154314,370.5236549802294 M586.3839435283705,385.18496270681896 L586.4393218642983,366.055590671806 M580.5259594197403,389.65264190008594 L580.5795207154314,370.5236549802294 M579.9736797943897,361.14125643770325 L574.1138776046564,365.6088054617145 M586.4393218642983,366.055590671806 L579.9736797943897,361.14125643770325 M580.5795207154314,370.5236549802294 L574.1138776046564,365.6088054617145 M579.9736797943897,361.14125643770325 L579.9203125350674,380.27105188513843 M574.1138776046564,365.6088054617145 L574.0623273865405,384.7382159984128" stroke="black"  stroke-width="4"  fill="red"/>
<path d="M423.45406080316377,261.3191487814785 L417.59606239758546,265.773853322723 M429.8996637400782,266.2193539535831 L424.0416654286407,270.674571421312 M423.45406080316377,261.3191487814785 L429.8996637400782,266.2193539535831 M417.59606239758546,265.773853322723 L424.0416654286407,270.674571421312 M429.90641904440105,247.0797805706806 L424.04660367949236,251.53537821565848 M429.8996637400782,266.2193539535831 L429.90641904440105,247.0797805706806 M424.0416654286407,270.674571421312 L424.04660367949236,251.53537821565848 M423.4588162305514,242.17915741625873 L417.5990007714141,246.63424193185477 M429.90641904440105,247.0797805706806 L423.4588162305514,242.17915741625873 M424.04660367949236,251.53537821565848 L417.5990007714141,246.63424193185477 M423.4588162305514,242.17915741625873 L423.45406080316377,261.3191487814785 M417.5990007714141,246.63424193185477 L417.59606239758546,265.773853322723" stroke="black"  stroke-width="4"  fill="red"/></svg>