<svg version="1.1" xmlns="http://www.w3.org/2000/svg" viewBox="-16.450053467022876 -17.69296061188947 32.90010693404575 32.94783590312829" fill="none" stroke="black" stroke-width="0.6%" vector-effect="non-scaling-stroke">
    <path d="M -13.16391 -10.90111 L -14.68136 -12.09399 L -14.73031 -12.13247 L -15.42041 -12.03421 L -15.42041 5.6353 L -13.85401 6.86667 L -13.85401 -10.80284 L -15.42041 -12.03421" />
    <path d="M -13.16391 -10.07653 L -13.16391 -10.90111 L -13.85401 -10.80284" />
    <path d="M -13.16391 -10.07653 L -6.022 -4.46219" />
    <path d="M -3.7655 -3.5129 L -5.3319 -4.74426 L -6.022 -4.646 L -6.022 13.02351 L -4.4556 14.25487 L -4.4556 -3.41464 L -6.022 -4.646" />
    <path d="M -3.7655 -2.68832 L -3.7655 -3.5129 L -4.4556 -3.41464" />
    <path d="M -3.7655 -2.68832 L -3.03125 -2.11112 L -3.03125 -3.05349" />
    <path d="M -14.68136 -12.21179 L -3.03125 -3.05349" />
    <path d="M -14.68136 -12.21179 L -14.68136 -12.09399" />
    <path d="M -13.16391 6.7684 L -13.85401 6.86667" />
    <path d="M -13.16391 6.7684 L -13.16391 -10.07653" />
    <path d="M -15.34034 -12.04561 A 9.625 3.22016 360 0 1 -15.45005 -12.53043" />
    <path d="M -3.03125 -2.11112 A 9.625 3.22016 180 0 0 15.45005 -3.37213" />
    <path d="M -3.7655 14.15661 L -4.4556 14.25487" />
    <path d="M -3.7655 14.15661 L -3.7655 -2.68832" />
    <path d="M 14.68136 -5.57552 A 9.625 3.22016 360 0 1 15.45005 -4.3145 A 9.625 3.22016 360 0 1 -3.03125 -3.05349" />
    <path d="M 14.68136 -5.57552 L 3.03125 -14.73382 A 9.625 3.22016 180 0 0 -15.45005 -13.4728 A 9.625 3.22016 180 0 0 -14.68136 -12.21179" />
    <path d="M -14.49036 -7.33726 L -14.49036 -9.85026 L -14.52486 -9.84535 L -14.52486 -7.33235 L -14.49036 -7.33726 Z" />
    <path d="M -14.78406 -10.08114 L -14.49036 -9.85026" />
    <path d="M 12.35329 -0.48671 L 11.87033 -0.86637" />
    <path d="M 13.77516 -1.55695 A 4 1.47614 261.89635 0 1 12.91715 -0.29615 A 4 1.47614 261.89635 0 1 12.35329 -0.48671" />
    <path d="M 14.53002 -1.99822 A 4 1.47614 261.89635 0 1 13.60725 -0.39441 L 12.91715 -0.29615" />
    <path d="M 12.38071 -0.46574 L 12.38071 10.40322 L 13.94711 11.63459 L 13.94711 -0.56517" />
    <path d="M -1.67978 0.19335 L -1.67978 -1.35591" />
    <path d="M -3.7655 0.49033 L -1.67978 0.19335" />
    <path d="M -11.07819 -7.19486 L -11.07819 -8.43692" />
    <path d="M -13.16391 -6.89788 L -11.07819 -7.19486" />
    <path d="M -6.022 -3.22013 L -11.07819 -7.19486" />
    <path d="M -0.26023 1.30928 L -1.67978 0.19335" />
    <path d="M 1.27755 -0.53405 A 4 1.47614 261.89635 0 1 0.30362 1.49984 A 4 1.47614 261.89635 0 1 -0.26023 1.30928" />
    <path d="M 1.94666 -0.42497 A 4 1.47614 261.89635 0 1 0.99372 1.40158 L 0.30362 1.49984" />
    <path d="M 1.93364 -0.32115 L 2.30873 -0.37456" />
    <path d="M -5.09195 0.05094 L -5.09195 -2.46205 L -5.12646 -2.45714 L -5.12646 0.05586 L -5.09195 0.05094 Z" />
    <path d="M -5.38565 -2.69293 L -5.09195 -2.46205" />
    <path d="M 2.9823 -0.29563 L 2.9823 3.01501 L 4.5487 4.24638 L 4.5487 -0.18041" />
    <path d="M -14.78406 -10.08114 L -14.81856 -10.07623 L -14.81856 -7.56323 L -14.52486 -7.33235" />
    <path d="M -14.81856 -10.07623 L -14.52486 -9.84535" />
    <path d="M 13.07081 -7.36455 L 12.50757 -7.28436" />
    <path d="M 14.63721 11.53633 L 13.94711 11.63459" />
    <path d="M 14.63721 -6.13318 L 14.07397 -6.05299" />
    <path d="M 14.63721 11.53633 L 14.63721 -2.07696" />
    <path d="M 14.63721 -5.61022 L 14.63721 -6.13318 L 13.07081 -7.36455" />
    <path d="M 5.2388 4.14812 L 4.5487 4.24638" />
    <path d="M 5.2388 -13.52139 L 4.67557 -13.4412" />
    <path d="M 5.2388 4.14812 L 5.2388 -0.15795" />
    <path d="M 5.2388 -12.99843 L 5.2388 -13.52139 L 3.6724 -14.75276 L 3.10917 -14.67257" />
    <path d="M -5.38565 -2.69293 L -5.42016 -2.68802 L -5.42016 -0.17502 L -5.12646 0.05586" />
    <path d="M -5.42016 -2.68802 L -5.12646 -2.45714" />
    <path d="M 15.45005 -4.3145 L 15.45005 -3.37213" />
    <path d="M -15.45005 -13.4728 L -15.45005 -12.53043" />
</svg>