<svg viewBox="0 0 800 800" xmlns="http://www.w3.org/2000/svg"><path d="M-612.1131018554888,-102.6072597175903 L-614.8499274501164,-164.99078430101008 M223.34183441096496,47.12304931281437 L309.70640428937975,22.360586189885453 M309.70640428937975,22.360586189885453 L373.366850374847,-5.248996509754534 M373.366850374847,-5.248996509754534 L412.4886263762471,-34.46084828672099 M412.4886263762471,-34.46084828672099 L426.43855173499986,-64.04743933044597 M426.43855173499986,-64.04743933044597 L415.6592644706535,-92.85721211079215 M415.6592644706535,-92.85721211079215 L381.49857923592214,-119.85535034270242 M381.49857923592214,-119.85535034270242 L326.0248831284293,-144.14770699752364 M326.0248831284293,-144.14770699752364 L251.85175828379158,-164.99078430100985 M251.85175828379158,-164.99078430100985 L161.9859453540387,-181.79171934705505 M161.9859453540387,-181.79171934705505 L59.70620047864378,-194.10235097898624 M59.70620047864378,-194.10235097898624 L-51.527156209489306,-201.61084867911518 M-51.527156209489306,-201.61084867911518 L-168.13575033756683,-204.13384080856122 M-168.13575033756683,-204.13384080856122 L-286.4670097631698,-201.61085328453407 M-286.4670097631698,-201.61085328453407 L-402.8271404020809,-194.10234633988432 M-402.8271404020809,-194.10234633988432 L-513.512509516291,-181.79172756259345 M-513.512509516291,-181.79172756259345 L-614.8499274501164,-164.99078430101008 M224.15523749517794,115.25369164649078 L223.34183441096496,47.12304931281437 M-612.1131018554888,-102.6072597175903 L-511.0372280163649,-119.8679139187966 M-511.0372280163649,-119.8679139187966 L-400.6266876314669,-132.5157976706405 M-400.6266876314669,-132.5157976706405 L-284.5470790326424,-140.23018375003733 M-284.5470790326424,-140.23018375003733 L-166.49498435345583,-142.82237981469711 M-166.49498435345583,-142.82237981469711 L-50.157499673588234,-140.23017901830042 M-50.157499673588234,-140.23017901830042 L60.81936625208209,-132.5158024369034 M60.81936625208209,-132.5158024369034 L162.8638718184713,-119.86790547830117 M162.8638718184713,-119.86790547830117 L252.52254887070876,-102.60725971759075 M252.52254887070876,-102.60725971759075 L326.5237665760076,-81.19478755192051 M326.5237665760076,-81.19478755192051 L381.868098704242,-56.24009047990069 M381.868098704242,-56.24009047990069 L415.9492063704254,-28.507457206928848 M415.9492063704254,-28.507457206928848 L426.70540959387705,1.0842165843284874 M426.70540959387705,1.0842165843284874 L412.7943946154375,31.47177125964288 M412.7943946154375,31.47177125964288 L373.7769797889856,61.47243351071438 M373.7769797889856,61.47243351071438 L310.28684385918723,89.82572633851981 M310.28684385918723,89.82572633851981 L224.15523749517794,115.25369164649078 M224.15523749517794,115.25369164649078 L1538.4572959470374,-205.38925018674524 M223.34183441096496,47.12304931281437 L1540.7444606488598,-265.02585320979495 M1538.4572959470374,-205.38925018674524 L1540.7444606488598,-265.02585320979495 M700.7794952743379,-425.5946955116051 L634.9282917022192,-409.63740767115826 M634.9282917022192,-409.63740767115826 L585.4310420679658,-391.0891575818275 M585.4310420679658,-391.0891575818275 L554.5545300558016,-370.53752022261926 M554.5545300558016,-370.53752022261926 L544.0586265951423,-348.6791574280679 M544.0586265951423,-348.6791574280679 L555.0536607560032,-326.30875110140414 M555.0536607560032,-326.30875110140414 L587.856189210858,-304.29817337519967 M587.856189210858,-304.29817337519967 L641.8615211622271,-283.5643792430104 M641.8615211622271,-283.5643792430104 L715.4551421513845,-265.0258532097953 M715.4551421513845,-265.0258532097953 L805.9879732299712,-249.54965364423572 M805.9879732299712,-249.54965364423572 L909.8346897741949,-237.89328075640424 M909.8346897741949,-237.89328075640424 L1022.5461010975214,-230.64779475574676 M1022.5461010975214,-230.64779475574676 L1139.0912824001632,-228.18953850695686 M1139.0912824001632,-228.18953850695686 L1254.1694621992829,-230.6477902794337 M1254.1694621992829,-230.6477902794337 L1362.5569509680786,-237.8932852007879 M1362.5569509680786,-237.8932852007879 L1459.4474347800358,-249.54964595603667 M1459.4474347800358,-249.54964595603667 L1540.7444606488598,-265.02585320979495 M700.4297435294984,-370.41621435512286 L700.7794952743379,-425.5946955116051 M1538.4572959470374,-205.38925018674524 L1457.3285408712106,-189.48654158159513 M1457.3285408712106,-189.48654158159513 L1360.6487340050594,-177.5093188476451 M1360.6487340050594,-177.5093188476451 L1252.5047077495183,-170.06453908462788 M1252.5047077495183,-170.06453908462788 L1137.6905750919461,-167.53870185386245 M1137.6905750919461,-167.53870185386245 L1021.4162124578363,-170.06454368402217 M1021.4162124578363,-170.06454368402217 L908.9681747273723,-177.50931428098215 M908.9681747273723,-177.50931428098215 L805.3640185697859,-189.48654948153 M805.3640185697859,-189.48654948153 L715.0415059819074,-205.38925018674547 M715.0415059819074,-205.38925018674547 L641.6172411043085,-224.439408418016 M641.6172411043085,-224.439408418016 L587.7346581764446,-245.7463733329223 M587.7346581764446,-245.7463733329223 L555.0056779590295,-268.3665186586361 M555.0056779590295,-268.3665186586361 L544.0351133442471,-291.35761977527477 M544.0351133442471,-291.35761977527477 L554.5087164579331,-313.82360165662635 M554.5087164579331,-313.82360165662635 L585.3200548683063,-334.9475539890643 M585.3200548683063,-334.9475539890643 L634.7141722774355,-354.0131784011396 M634.7141722774355,-354.0131784011396 L700.4297435294984,-370.41621435512286 M700.4297435294984,-370.41621435512286 L-612.1131018554888,-102.6072597175903 M700.7794952743379,-425.5946955116051 L-614.8499274501164,-164.99078430101008" stroke="black"  stroke-width="4"  fill="red"/>
<path d="M1457.662844739603,-370.41621435512286 L1370.6048961442812,-383.66822977491483 M1370.6048961442812,-383.66822977491483 L1274.8158617390727,-393.39552704639607 M1274.8158617390727,-393.39552704639607 L1173.5469729230929,-399.33552071051565 M1173.5469729230929,-399.33552071051565 L1070.1094876266802,-401.3326703387164 M1070.1094876266802,-401.3326703387164 L967.826676595243,-399.3355280005296 M967.826676595243,-399.3355280005296 L869.9917908645664,-393.39553805139917 M869.9917908645664,-393.39553805139917 L779.826346087681,-383.66823996833045 M779.826346087681,-383.66823996833045 L700.4297435294984,-370.41621435512286 M700.4297435294984,-370.41621435512286 L634.7141722774355,-354.0131784011396 M634.7141722774355,-354.0131784011396 L585.3200548683063,-334.9475539890643 M585.3200548683063,-334.9475539890643 L554.5087164579331,-313.82360165662635 M554.5087164579331,-313.82360165662635 L544.0351133442471,-291.35761977527477 M544.0351133442471,-291.35761977527477 L555.0056779590295,-268.3665186586361 M555.0056779590295,-268.3665186586361 L587.7346581764446,-245.7463733329223 M587.7346581764446,-245.7463733329223 L641.6172411043085,-224.439408418016 M641.6172411043085,-224.439408418016 L715.0415059819061,-205.38925018674558 M715.0415059819061,-205.38925018674558 L805.3640185697859,-189.48654948153 M805.3640185697859,-189.48654948153 L908.9681747273723,-177.50931428098215 M908.9681747273723,-177.50931428098215 L1021.4162124578363,-170.06454368402217 M1021.4162124578363,-170.06454368402217 L1137.6905750919461,-167.53870185386245 M1137.6905750919461,-167.53870185386245 L1252.5047077495183,-170.06453908462788 M1252.5047077495183,-170.06453908462788 L1360.6487340050594,-177.5093188476451 M1360.6487340050594,-177.5093188476451 L1457.3285408712106,-189.48654158159513 M1457.3285408712106,-189.48654158159513 L1538.4572959470374,-205.38925018674524 M1538.4572959470374,-205.38925018674524 L1600.8682240325975,-224.4394073272606 M1600.8682240325975,-224.4394073272606 L1642.432699575178,-245.74637760501855 M1642.432699575178,-245.74637760501855 L1662.084447578695,-268.3665228352527 M1662.084447578695,-268.3665228352527 L1659.763207710478,-291.3576156945978 M1659.763207710478,-291.3576156945978 L1636.3014760274862,-313.82360165662647 M1636.3014760274862,-313.82360165662647 L1593.2778400157256,-334.9475422835428 M1593.2778400157256,-334.9475422835428 L1532.8613716314003,-354.01317362004 M1532.8613716314003,-354.01317362004 L1457.662844739603,-370.41621435512286 M1457.662844739603,-370.41621435512286 L1459.5967661522463,-425.5946955116051 M1459.5967661522463,-425.5946955116051 L1537.1707640866582,-409.07666701679796 M1537.1707640866582,-409.07666701679796 L1598.8722659528403,-389.8167873388579 M1598.8722659528403,-389.8167873388579 L1641.843500328264,-368.46730721651954 M1641.843500328264,-368.46730721651954 L1663.7388567900402,-345.80363326287534 M1663.7388567900402,-345.80363326287534 L1662.9012714273822,-322.7106455570797 M1662.9012714273822,-322.7106455570797 L1638.5447263597043,-300.1567372903336 M1638.5447263597043,-300.1567372903336 L1590.9226136429475,-279.1541950995389 M1590.9226136429475,-279.1541950995389 L1521.4514085329895,-260.70603757401886 M1521.4514085329895,-260.70603757401886 L1432.75880596837,-245.7422242919015 M1432.75880596837,-245.7422242919015 L1328.6297810115354,-235.05124350436574 M1328.6297810115354,-235.05124350436574 L1213.836674595374,-229.21539316253052 M1213.836674595374,-229.21539316253052 L1093.858289146066,-228.5592859082327 M1093.858289146066,-228.5592859082327 L974.513656550484,-233.11970896089963 M974.513656550484,-233.11970896089963 L861.5552288550518,-242.6421754736483 M861.5552288550518,-242.6421754736483 L760.2738192274862,-256.6046815138708 M760.2738192274862,-256.6046815138708 L675.1649717878745,-274.264579815188 M675.1649717878745,-274.264579815188 L609.6928405044243,-294.7208585016873 M609.6928405044243,-294.7208585016873 L566.1671844865832,-316.9824827320183 M566.1671844865832,-316.9824827320183 L545.7290006051176,-340.0339903817194 M545.7290006051176,-340.0339903817194 L548.4246699635664,-362.8917425716238 M548.4246699635664,-362.8917425716238 L573.3400461004803,-384.64706776076616 M573.3400461004803,-384.64706776076616 L618.764727273219,-404.4954358677461 M618.764727273219,-404.4954358677461 L682.3616012302391,-421.7530935503546 M682.3616012302391,-421.7530935503546 L761.322793015519,-435.86369444713387 M761.322793015519,-435.86369444713387 L852.5025089537326,-446.39824575591047 M852.5025089537326,-446.39824575591047 L952.5227292563447,-453.05144593592524 M952.5227292563447,-453.05144593592524 L1057.8539978167164,-455.63700866568047 M1057.8539978167164,-455.63700866568047 L1164.87673211318,-454.0839086017089 M1164.87673211318,-454.0839086017089 L1269.93135411769,-448.4346920624986 M1269.93135411769,-448.4346920624986 L1369.367006051166,-438.84659270102577 M1369.367006051166,-438.84659270102577 L1459.5967661522463,-425.5946955116051 M1540.4579960338037,-257.55644074699933 L1538.4572959470374,-205.38925018674524 M700.7356962976642,-418.68476283867574 L700.4297435294984,-370.41621435512286" stroke="black"  stroke-width="4"  fill="red"/>
<path d="M252.52254887070941,-102.6072597175903 L159.74729567772505,-120.3499854118952 M159.74729567772505,-120.3499854118952 L53.89136893391009,-133.16506699709578 M53.89136893391009,-133.16506699709578 L-61.23948556111719,-140.70684156786206 M-61.23948556111719,-140.70684156786206 L-181.70883184568686,-142.7791375098917 M-181.70883184568686,-142.7791375098917 L-303.49984310129435,-139.32899134811134 M-303.49984310129435,-139.32899134811134 L-422.55341990705006,-130.44479520770778 M-422.55341990705006,-130.44479520770778 L-534.8063719627744,-116.35936201067057 M-534.8063719627744,-116.35936201067057 L-636.2416992879666,-97.45712453301724 M-636.2416992879666,-97.45712453301724 L-722.9628991842635,-74.28388111923812 M-722.9628991842635,-74.28388111923812 L-791.3015466610254,-47.556410366687146 M-791.3015466610254,-47.556410366687146 L-837.9659588927616,-18.167921921346704 M-837.9659588927616,-18.167921921346704 L-860.2304501614276,12.81531201505419 M-860.2304501614276,12.81531201505419 L-856.1569008376639,44.17120956232765 M-856.1569008376639,44.17120956232765 L-824.8315340521428,74.55809521592755 M-824.8315340521428,74.55809521592755 L-766.5848843674078,102.57251681763728 M-766.5848843674078,102.57251681763728 L-683.1553665822503,126.82840281110498 M-683.1553665822503,126.82840281110498 L-577.7538753496904,146.05270573958944 M-577.7538753496904,146.05270573958944 L-454.99241261718635,159.1875179016534 M-454.99241261718635,159.1875179016534 L-320.658708446804,165.48477281676782 M-320.658708446804,165.48477281676782 L-181.3467838628817,164.57850229629145 M-181.3467838628817,164.57850229629145 L-43.982751321846536,156.52170349374478 M-43.982751321846536,156.52170349374478 L84.69120457081692,141.7808274366007 M84.69120457081692,141.7808274366007 L198.60046532633663,121.18929605783632 M198.60046532633663,121.18929605783632 L292.7266305895289,95.86828293655367 M292.7266305895289,95.86828293655367 L363.35904418918744,67.1285905064795 M363.35904418918744,67.1285905064795 L408.1965545870251,36.36908838682433 M408.1965545870251,36.36908838682433 L426.3155159692012,4.984431651645309 M426.3155159692012,4.984431651645309 L418.0370315300883,-25.70905209866129 M418.0370315300883,-25.70905209866129 L384.73376865504537,-54.52566868879978 M384.73376865504537,-54.52566868879978 L328.61546390811367,-80.44139571863309 M328.61546390811367,-80.44139571863309 L252.52254887070941,-102.6072597175903 M252.52254887070941,-102.6072597175903 L251.8517582837909,-164.99078430101008 M251.8517582837909,-164.99078430101008 L328.12145701854035,-143.41433114634322 M328.12145701854035,-143.41433114634322 L384.37096139157507,-118.18638291150796 M384.37096139157507,-118.18638291150796 L417.7518921057115,-90.13283019139647 M417.7518921057115,-90.13283019139647 L426.047218099373,-60.25013870913665 M426.047218099373,-60.25013870913665 L407.8784343173011,-29.692429510874774 M407.8784343173011,-29.692429510874774 L362.9210539393249,0.25866026112373675 M362.9210539393249,0.25866026112373675 L292.09886089510314,28.244870191128598 M292.09886089510314,28.244870191128598 L197.71760502444593,52.90350771538971 M197.71760502444593,52.90350771538971 L83.49756488577566,72.95740328331567 M83.49756488577566,72.95740328331567 L-45.5282590067892,87.31396389334742 M-45.5282590067892,87.31396389334742 L-183.2664768065231,95.16090889954853 M-183.2664768065231,95.16090889954853 L-322.9535100533958,96.04358274735557 M-322.9535100533958,96.04358274735557 L-457.6413066711466,89.9103268591511 M-457.6413066711466,89.9103268591511 L-580.7155997256898,77.117859401575 M-580.7155997256898,77.117859401575 L-686.3720786573388,58.39528884219931 M-686.3720786573388,58.39528884219931 L-769.9871773400648,34.77359242544287 M-769.9871773400648,34.77359242544287 L-828.344001498087,7.4932111254881875 M-828.344001498087,7.4932111254881875 L-859.7034654534141,-22.095554760206085 M-859.7034654534141,-22.095554760206085 L-863.7388567900402,-52.62579158308688 M-863.7388567900402,-52.62579158308688 L-841.3711003959384,-82.79109324963451 M-841.3711003959384,-82.79109324963451 L-794.547553871445,-111.40183480907513 M-794.547553871445,-111.40183480907513 L-726.0041281160234,-137.4203624035863 M-726.0041281160234,-137.4203624035863 L-639.0428712048661,-159.97769052153967 M-639.0428712048661,-159.97769052153967 L-537.3421566967249,-178.3766725814687 M-537.3421566967249,-178.3766725814687 L-424.80773672913983,-192.0865922857115 M-424.80773672913983,-192.0865922857115 L-305.4651067286029,-200.73371824808964 M-305.4651067286029,-200.73371824808964 L-183.38530576999221,-204.09175314056972 M-183.38530576999221,-204.09175314056972 L-62.63484438478531,-202.07478599532794 M-62.63484438478531,-202.07478599532794 L52.7622247353919,-194.73429311677364 M52.7622247353919,-194.73429311677364 L158.86218198758098,-182.26095059696388 M158.86218198758098,-182.26095059696388 L251.8517582837909,-164.99078430101008" stroke="black"  stroke-width="4"  fill="red"/>
<path d="M61.075837592313746,75.93655955357946 L95.8592043510331,85.0104813167236 M-147.52506617124163,125.15987802143525 L-112.83334507041809,134.62125650347804 M61.075837592313746,75.93655955357946 L-147.52506617124163,125.15987802143525 M95.8592043510331,85.0104813167236 L-112.83334507041809,134.62125650347804 M65.90110551502494,340.9121051137071 L100.34620623815562,350.9122956462289 M-147.52506617124163,125.15987802143525 L-140.60756889705453,184.44125841810245 M-140.60756889705453,184.44125841810245 L-123.47774677689506,237.8115170230207 M-123.47774677689506,237.8115170230207 L-97.14339395231002,282.54711202908857 M-97.14339395231002,282.54711202908857 L-63.08379863346613,316.45333410364645 M-63.08379863346613,316.45333410364645 L-23.142550509845478,337.9624987547163 M-23.142550509845478,337.9624987547163 L20.590658267206095,346.1843558618715 M20.590658267206095,346.1843558618715 L65.90110551502494,340.9121051137071 M-112.83334507041809,134.62125650347804 L-105.98830188343629,194.11002846495904 M-105.98830188343629,194.11002846495904 L-88.92171472188363,247.65418941626373 M-88.92171472188363,247.65418941626373 L-62.638759885003594,292.52129458400793 M-62.638759885003594,292.52129458400793 L-28.616848615178583,326.5105967410382 M-28.616848615178583,326.5105967410382 L11.30161874940785,348.0514040024681 M11.30161874940785,348.0514040024681 L55.027529839798035,356.25338864095977 M55.027529839798035,356.25338864095977 L100.34620623815562,350.9122956462289 M65.90110551502494,340.9121051137071 L61.075837592313746,75.93655955357946 M100.34620623815562,350.9122956462289 L95.8592043510331,85.0104813167236" stroke="black"  stroke-width="4"  fill="red"/>
<path d="M1455.5394429320506,-24.396471459392615 L1489.7201141929359,-17.013446467041263 M1611.5636363890326,-289.930286292893 L1645.9568214371595,-283.4815640963691 M1455.5394429320506,-24.396471459392615 L1488.8407179622236,-38.808434079874246 M1488.8407179622236,-38.808434079874246 L1520.6780511256607,-63.799291461640905 M1520.6780511256607,-63.799291461640905 L1549.540591598698,-98.07802136367525 M1549.540591598698,-98.07802136367525 L1574.0761112377188,-139.95325920561697 M1574.0761112377188,-139.95325920561697 L1593.14097933511,-187.4121477629219 M1593.14097933511,-187.4121477629219 L1605.8406718281883,-238.20428293081375 M1605.8406718281883,-238.20428293081375 L1611.5636363890326,-289.930286292893 M1489.7201141929359,-17.013446467041263 L1523.004998727533,-31.500081574133787 M1523.004998727533,-31.500081574133787 L1554.8425388188562,-56.59527768090334 M1554.8425388188562,-56.59527768090334 L1583.7220049281777,-91.00262838756987 M1583.7220049281777,-91.00262838756987 L1608.2905638671125,-133.02458359443278 M1608.2905638671125,-133.02458359443278 L1627.4032385401078,-180.64155347578833 M1627.4032385401078,-180.64155347578833 L1640.1634287521185,-231.59607188918164 M1640.1634287521185,-231.59607188918164 L1645.9568214371595,-283.4815640963691 M1463.7118574740018,-255.04186985619936 L1498.2236596259809,-248.36216621388064 M1611.5636363890326,-289.930286292893 L1463.7118574740018,-255.04186985619936 M1645.9568214371595,-283.4815640963691 L1498.2236596259809,-248.36216621388064 M1463.7118574740018,-255.04186985619936 L1455.5394429320506,-24.396471459392615 M1498.2236596259809,-248.36216621388064 L1489.7201141929359,-17.013446467041263" stroke="black"  stroke-width="4"  fill="red"/>
<path d="M1463.7118574740018,-255.04186985619936 L1498.2236596259809,-248.36216621388064 M95.8592043510331,85.0104813167236 L1498.2236596259809,-248.36216621388064 M61.075837592313746,75.93655955357946 L95.8592043510331,85.0104813167236 M1463.7118574740018,-255.04186985619936 L61.075837592313746,75.93655955357946 M1455.5394429320506,-24.396471459392615 L1489.7201141929359,-17.013446467041263 M1455.5394429320506,-24.396471459392615 L1463.7118574740018,-255.04186985619936 M1489.7201141929359,-17.013446467041263 L1498.2236596259809,-248.36216621388064 M316.62474264885657,293.63869884375555 L1323.3419303584367,27.04583549318852 M1326.9076025071943,-90.1915556658156 L1323.3419303584367,27.04583549318852 M1356.010865682113,-97.50621563918207 L1326.9076025071943,-90.1915556658156 M1356.010865682113,-97.50621563918207 L1352.3268546868871,19.370220072037966 M1352.3268546868871,19.370220072037966 L1489.7201141929359,-17.013446467041263 M95.8592043510331,85.0104813167236 L100.34620623815562,350.9122956462289 M100.34620623815562,350.9122956462289 L280.22522444680396,303.2778029541597 M278.9446347301659,173.19790440596694 L280.22522444680396,303.2778029541597 M315.5325224807542,164.00209854630327 L278.9446347301659,173.19790440596694 M315.5325224807542,164.00209854630327 L316.62474264885657,293.63869884375555 M65.90110551502494,340.9121051137071 L100.34620623815562,350.9122956462289 M61.075837592313746,75.93655955357946 L65.90110551502494,340.9121051137071 M1318.053093108368,11.745984746641284 L1455.5394429320506,-24.396471459392615 M65.90110551502494,340.9121051137071 L245.72972686651377,293.63869884375555 M244.28005283761047,164.00209854630327 L245.72972686651377,293.63869884375555 M280.86069498220945,154.87557879184777 L244.28005283761047,164.00209854630327 M280.86069498220945,154.87557879184777 L282.1221079650336,284.0718579044668 M282.1221079650336,284.0718579044668 L1289.0504077593143,19.370220072037966 M1292.4498170444247,-97.50621563918207 L1289.0504077593143,19.370220072037966 M1321.5710819752478,-104.77169224331874 L1292.4498170444247,-97.50621563918207 M1321.5710819752478,-104.77169224331874 L1318.053093108368,11.745984746641284 M1318.053093108368,11.745984746641284 L1352.3268546868871,19.370220072037966 M1289.0504077593143,19.370220072037966 L1323.3419303584367,27.04583549318852 M282.1221079650336,284.0718579044668 L316.62474264885657,293.63869884375555 M280.86069498220945,154.87557879184777 L315.5325224807542,164.00209854630327 M278.9446347301659,173.19790440596694 L244.28005283761047,164.00209854630327 M245.72972686651377,293.63869884375555 L280.22522444680396,303.2778029541597 M1326.9076025071943,-90.1915556658156 L1292.4498170444247,-97.50621563918207 M1321.5710819752478,-104.77169224331874 L1356.010865682113,-97.50621563918207" stroke="black"  stroke-width="4"  fill="red"/>
<path d="M-520.2843464972634,-75.72261890457094 L-489.88117968364145,-67.7913579966696 M-726.5129137840797,-32.74589860024787 L-696.2730673075673,-24.49866774301705 M-520.2843464972634,-75.72261890457094 L-726.5129137840797,-32.74589860024787 M-489.88117968364145,-67.7913579966696 L-696.2730673075673,-24.49866774301705 M-510.2107265119828,173.65383129941466 L-480.06306286675203,182.40637880932013 M-726.5129137840797,-32.74589860024787 L-718.5024936957325,23.041736674160404 M-718.5024936957325,23.041736674160404 L-700.4691177908487,73.46576605319007 M-700.4691177908487,73.46576605319007 L-673.4559490228287,115.95364456171575 M-673.4559490228287,115.95364456171575 L-638.9641324312272,148.41468369680751 M-638.9641324312272,148.41468369680751 L-598.8470584778006,169.33517063206313 M-598.8470584778006,169.33517063206313 L-555.1939967884373,177.83008032234846 M-555.1939967884373,177.83008032234846 L-510.2107265119828,173.65383129941466 M-696.2730673075673,-24.49866774301705 L-688.3142967005533,31.472958940096078 M-688.3142967005533,31.472958940096078 L-670.3210180655831,82.05291715902956 M-670.3210180655831,82.05291715902956 L-643.3349338015919,124.66066356589005 M-643.3349338015919,124.66066356589005 L-608.8564882946059,157.19992533595672 M-608.8564882946059,157.19992533595672 L-568.7390291443187,178.15399430162887 M-568.7390291443187,178.15399430162887 L-525.0723206242706,186.63738861743377 M-525.0723206242706,186.63738861743377 L-480.06306286675203,182.40637880932013 M-510.2107265119828,173.65383129941466 L-520.2843464972634,-75.72261890457094 M-480.06306286675203,182.40637880932013 L-489.88117968364145,-67.7913579966696" stroke="black"  stroke-width="4"  fill="red"/>
<path d="M878.3219983633915,-149.075439486223 L908.7885846029785,-142.49465685847213 M1030.458361804649,-398.88752527746465 L1061.1442774363431,-393.13391609652217 M878.3219983633915,-149.075439486223 L911.7747067053438,-162.25320548654315 M911.7747067053438,-162.25320548654315 L943.5050999099124,-185.50349881772547 M943.5050999099124,-185.50349881772547 L972.004909075961,-217.62521129941842 M972.004909075961,-217.62521129941842 L995.9355537216588,-257.03092881172336 M995.9355537216588,-257.03092881172336 L1014.1782772757124,-301.82146150879055 M1014.1782772757124,-301.82146150879055 L1025.8743972303218,-349.866045651856 M1025.8743972303218,-349.866045651856 L1030.458361804649,-398.88752527746465 M908.7885846029785,-142.49465685847213 L942.2392181984198,-155.73629999580453 M942.2392181984198,-155.73629999580453 L973.9801414515389,-179.07745136149083 M973.9801414515389,-179.07745136149083 L1002.5027293559606,-211.31230488692904 M1002.5027293559606,-211.31230488692904 L1026.467518032586,-250.84798387982255 M1026.467518032586,-250.84798387982255 L1044.754336346375,-295.77930037667534 M1044.754336346375,-295.77930037667534 L1056.5025728675018,-343.96915779756 M1056.5025728675018,-343.96915779756 L1061.1442774363431,-393.13391609652217 M881.2076311641997,-367.784623335516 L911.9388691917845,-361.8366417817898 M1030.458361804649,-398.88752527746465 L881.2076311641997,-367.784623335516 M1061.1442774363431,-393.13391609652217 L911.9388691917845,-361.8366417817898 M881.2076311641997,-367.784623335516 L878.3219983633915,-149.075439486223 M911.9388691917845,-361.8366417817898 L908.7885846029785,-142.49465685847213" stroke="black"  stroke-width="4"  fill="red"/>
<path d="M881.2076311641997,-367.784623335516 L741.5705432404936,-338.68514332283144 M746.6835425446534,-337.6657291313477 L741.5705432404936,-338.68514332283144 M746.6835425446534,-337.6657291313477 L717.255444958721,-331.5264374859597 M717.255444958721,-331.5264374859597 L712.1417802251524,-332.5523764920674 M712.1417802251524,-332.5523764920674 L-303.6519399821095,-120.86743305976006 M-298.5765007588751,-119.60351045163952 L-303.6519399821095,-120.86743305976006 M-298.5765007588751,-119.60351045163952 L-335.07842449511327,-111.98847673156638 M-335.07842449511327,-111.98847673156638 L-340.1502764747804,-113.26141213038477 M-340.1502764747804,-113.26141213038477 L-520.2843464972634,-75.72261890457094 M-520.2843464972634,-75.72261890457094 L-489.88117968364145,-67.7913579966696 M911.9388691917845,-361.8366417817898 L-489.88117968364145,-67.7913579966696 M881.2076311641997,-367.784623335516 L911.9388691917845,-361.8366417817898 M739.8165593032156,-116.88335747983945 L878.3219983633915,-149.075439486223 M741.5705432404936,-338.68514332283144 L739.8165593032156,-116.88335747983945 M878.3219983633915,-149.075439486223 L881.2076311641997,-367.784623335516 M746.6835425446534,-337.6657291313477 L745.7807502999212,-226.24142095248817 M745.7807502999212,-226.24142095248817 L771.3162483469771,-220.85440792084466 M771.3162483469771,-220.85440792084466 L770.3108589159976,-110.09986755567786 M739.8165593032156,-116.88335747983945 L770.3108589159976,-110.09986755567786 M745.7807502999212,-226.24142095248817 L716.4746513140815,-219.77357652262617 M716.4746513140815,-219.77357652262617 L717.255444958721,-331.5264374859597 M742.0137032487587,-214.35217527946918 L716.4746513140815,-219.77357652262617 M742.0137032487587,-214.35217527946918 L741.1292606974016,-103.27326984026581 M710.6308033114169,-110.09986755567786 L741.1292606974016,-103.27326984026581 M712.1417802251524,-332.5523764920674 L710.6308033114169,-110.09986755567786 M-295.8136537762841,123.82266081059726 L710.6308033114169,-110.09986755567786 M-303.6519399821095,-120.86743305976006 L-295.8136537762841,123.82266081059726 M-298.5765007588751,-119.60351045163952 L-294.66049490146884,3.38354945472463 M-294.66049490146884,3.38354945472463 L-269.30169797650456,10.058639225940965 M-269.30169797650456,10.058639225940965 L-265.53016819508093,132.21962215275346 M-295.8136537762841,123.82266081059726 L-265.53016819508093,132.21962215275346 M-294.66049490146884,3.38354945472463 L-330.97609299286137,11.398387558766103 M-330.97609299286137,11.398387558766103 L-335.07842449511327,-111.98847673156638 M-305.6347246220507,18.120935215001566 L-330.97609299286137,11.398387558766103 M-305.6347246220507,18.120935215001566 L-301.6785062620728,140.67598428259782 M-331.9413207360069,132.21962215275346 L-301.6785062620728,140.67598428259782 M-340.1502764747804,-113.26141213038477 L-331.9413207360069,132.21962215275346 M-510.2107265119828,173.65383129941466 L-331.9413207360069,132.21962215275346 M-520.2843464972634,-75.72261890457094 L-510.2107265119828,173.65383129941466 M-510.2107265119828,173.65383129941466 L-480.06306286675203,182.40637880932013 M-489.88117968364145,-67.7913579966696 L-480.06306286675203,182.40637880932013 M770.3108589159976,-110.09986755567786 L908.7885846029785,-142.49465685847213 M771.3162483469771,-220.85440792084466 L742.0137032487587,-214.35217527946918 M-265.53016819508093,132.21962215275346 L741.1292606974016,-103.27326984026581 M-269.30169797650456,10.058639225940965 L-305.6347246220507,18.120935215001566 M-480.06306286675203,182.40637880932013 L-301.6785062620728,140.67598428259782 M908.7885846029785,-142.49465685847213 L911.9388691917845,-361.8366417817898 M878.3219983633915,-149.075439486223 L908.7885846029785,-142.49465685847213" stroke="black"  stroke-width="4"  fill="red"/>
<path d="M550.5190967235742,1186.920232560847 L516.0408115370333,1174.333923512878 M362.96879803143406,1255.6370086656805 L328.50417112877017,1242.5446067607331 M550.5190967235742,1186.920232560847 L362.96879803143406,1255.6370086656805 M516.0408115370333,1174.333923512878 L328.50417112877017,1242.5446067607331 M551.3486206057776,-5.105586165509976 L515.2174814911452,-13.731332703902694 M551.3486206057776,-5.105586165509976 L550.5190967235742,1186.920232560847 M515.2174814911452,-13.731332703902694 L516.0408115370333,1174.333923512878 M354.6190295712512,42.04135143564213 L318.5036384830199,33.05161563327317 M362.96879803143406,1255.6370086656805 L354.6190295712512,42.04135143564213 M328.50417112877017,1242.5446067607331 L318.5036384830199,33.05161563327317 M354.6190295712512,42.04135143564213 L551.3486206057776,-5.105586165509976 M436.57981720601964,303.13580331891865 L435.9139981515376,126.11116220849652 M472.6491820218323,116.9078014371114 L435.9139981515376,126.11116220849652 M473.0621239962615,293.31661291326094 L472.6491820218323,116.9078014371114 M436.57981720601964,303.13580331891865 L473.0621239962615,293.31661291326094 M318.5036384830199,33.05161563327317 L515.2174814911452,-13.731332703902694 M399.70104002642233,72.4267614228583 L401.06376828631693,337.04381261694755 M401.06376828631693,337.04381261694755 L437.4805834977446,327.1494326349747 M437.4805834977446,327.1494326349747 L436.49708849391044,63.44983473193355 M436.49708849391044,63.44983473193355 L399.70104002642233,72.4267614228583 M401.06376828631693,337.04381261694755 L409.95841422443846,339.5292505504977 M409.95841422443846,339.5292505504977 L409.74817859973655,295.76434672534447 M409.74817859973655,295.76434672534447 L436.57981720601964,303.13580331891865 M435.9139981515376,126.11116220849652 L408.9000172377298,119.20197539052128 M408.9000172377298,119.20197539052128 L408.6861537121222,74.68184877926933 M408.6861537121222,74.68184877926933 L399.70104002642233,72.4267614228583 M472.6491820218323,116.9078014371114 L445.6331330533338,110.05176496302579 M445.6331330533338,110.05176496302579 L408.9000172377298,119.20197539052128 M437.4805834977446,327.1494326349747 L446.37602902072365,329.61594898024225 M446.37602902072365,329.61594898024225 L446.2284593475614,286.00147764665894 M446.2284593475614,286.00147764665894 L473.0621239962615,293.31661291326094 M445.6331330533338,110.05176496302579 L445.48302671580495,65.68757810236656 M445.48302671580495,65.68757810236656 L436.49708849391044,63.44983473193355 M446.2284593475614,286.00147764665894 L409.74817859973655,295.76434672534447 M445.48302671580495,65.68757810236656 L408.6861537121222,74.68184877926933 M446.37602902072365,329.61594898024225 L409.95841422443846,339.5292505504977" stroke="black"  stroke-width="4"  fill="red"/>
<path d="M1537.9660343824378,825.1283793690318 L1503.866680310567,815.042654925239 M1388.0488886844385,880.056699969125 L1353.8431953858767,869.609081985359 M1537.9660343824378,825.1283793690318 L1388.0488886844385,880.056699969125 M1503.866680310567,815.042654925239 L1353.8431953858767,869.609081985359 M1580.9394144032394,-251.85063684459385 L1545.2400081372707,-258.693710101119 M1580.9394144032394,-251.85063684459385 L1537.9660343824378,825.1283793690318 M1545.2400081372707,-258.693710101119 L1503.866680310567,815.042654925239 M1425.2896879520108,-214.54863310411633 L1389.4695970887612,-221.64802495204663 M1388.0488886844385,880.056699969125 L1425.2896879520108,-214.54863310411633 M1353.8431953858767,869.609081985359 L1389.4695970887612,-221.64802495204663 M1425.2896879520108,-214.54863310411633 L1580.9394144032394,-251.85063684459385 M1480.0265635916764,22.292754116085973 L1485.8283453969223,-136.926598834699 M1514.9188872408754,-144.21472763705583 L1485.8283453969223,-136.926598834699 M1508.9603403790888,14.505245912071018 L1514.9188872408754,-144.21472763705583 M1480.0265635916764,22.292754116085973 L1508.9603403790888,14.505245912071018 M1389.4695970887612,-221.64802495204663 L1545.2400081372707,-258.693710101119 M1451.5954163997508,-184.19804196174027 L1443.2468072460813,53.88464731467184 M1443.2468072460813,53.88464731467184 L1472.1635506826774,46.028022682842106 M1472.1635506826774,46.028022682842106 L1480.7479176878117,-191.31021508411322 M1480.7479176878117,-191.31021508411322 L1451.5954163997508,-184.19804196174027 M1443.2468072460813,53.88464731467184 L1452.059282321718,55.85718059585048 M1452.059282321718,55.85718059585048 L1453.4547242757594,16.447133339874483 M1453.4547242757594,16.447133339874483 L1480.0265635916764,22.292754116085973 M1485.8283453969223,-136.926598834699 L1459.079135626379,-142.3973936381176 M1459.079135626379,-142.3973936381176 L1460.4959962185385,-182.41234569715584 M1460.4959962185385,-182.41234569715584 L1451.5954163997508,-184.19804196174027 M1514.9188872408754,-144.21472763705583 L1488.1865735322153,-149.64804950898508 M1488.1865735322153,-149.64804950898508 L1459.079135626379,-142.3973936381176 M1472.1635506826774,46.028022682842106 L1480.9706419468666,47.98716965819193 M1480.9706419468666,47.98716965819193 L1482.4050911910915,8.699423174811045 M1482.4050911910915,8.699423174811045 L1508.9603403790888,14.505245912071018 M1488.1865735322153,-149.64804950898508 L1489.6429643484748,-189.53674783712768 M1489.6429643484748,-189.53674783712768 L1480.7479176878117,-191.31021508411322 M1482.4050911910915,8.699423174811045 L1453.4547242757594,16.447133339874483 M1489.6429643484748,-189.53674783712768 L1460.4959962185385,-182.41234569715584 M1480.9706419468666,47.98716965819193 L1452.059282321718,55.85718059585048" stroke="black"  stroke-width="4"  fill="red"/>
<path d="M-290.0870213785605,880.0566999691251 L-318.7066866824607,869.6090819853591 M-475.87554505711364,936.9773200979268 L-504.38286816821756,926.1479752029757 M-290.0870213785605,880.0566999691251 L-475.87554505711364,936.9773200979268 M-318.7066866824607,869.6090819853591 L-504.38286816821756,926.1479752029757 M-325.95699367922793,-214.54863310411633 L-355.6946069217614,-221.64802495204663 M-325.95699367922793,-214.54863310411633 L-290.0870213785605,880.0566999691251 M-355.6946069217614,-221.64802495204663 L-318.7066866824607,869.6090819853591 M-520.6724060168594,-175.8335910449705 L-550.2822169295407,-183.20397716685454 M-475.87554505711364,936.9773200979268 L-520.6724060168594,-175.8335910449705 M-504.38286816821756,926.1479752029757 L-550.2822169295407,-183.20397716685454 M-520.6724060168594,-175.8335910449705 L-325.95699367922793,-214.54863310411633 M-429.6575947637725,104.91468659001418 L-393.60181043443936,96.70810132643595 M-402.26396202257524,-145.42451247839745 L-393.60181043443936,96.70810132643595 M-402.26396202257524,-145.42451247839745 L-438.6883661988006,-137.9925405317075 M-429.6575947637725,104.91468659001418 L-438.6883661988006,-137.9925405317075 M-550.2822169295407,-183.20397716685454 L-355.6946069217614,-221.64802495204663 M-460.5601878153693,56.66451237713295 L-466.74251265055864,-104.75530969330191 M-430.4037457457796,-112.26574714595415 L-466.74251265055864,-104.75530969330191 M-424.4667275196671,48.6409400049406 L-430.4037457457796,-112.26574714595415 M-460.5601878153693,56.66451237713295 L-424.4667275196671,48.6409400049406 M-400.9689480429888,94.66535200237081 L-393.60181043443936,96.70810132643595 M-437.01899935761776,102.85768349522709 L-429.6575947637725,104.91468659001418 M-400.9689480429888,94.66535200237081 L-437.01899935761776,102.85768349522709 M-438.6883661988006,-137.9925405317075 L-446.1108169515617,-139.85543013240056 M-446.1108169515617,-139.85543013240056 L-444.5837013972657,-99.08789743363764 M-444.5837013972657,-99.08789743363764 L-466.74251265055864,-104.75530969330191 M-460.5601878153693,56.66451237713295 L-438.5225621620423,62.71890969936351 M-438.5225621620423,62.71890969936351 L-437.01899935761776,102.85768349522709 M-402.26396202257524,-145.42451247839745 L-409.69230825344994,-147.27437301838177 M-409.69230825344994,-147.27437301838177 L-446.1108169515617,-139.85543013240056 M-409.69230825344994,-147.27437301838177 L-408.2271206145051,-106.63784237907157 M-408.2271206145051,-106.63784237907157 L-430.4037457457796,-112.26574714595415 M-424.4667275196671,48.6409400049406 L-402.41161620814137,54.65339207497834 M-402.41161620814137,54.65339207497834 L-400.9689480429888,94.66535200237081 M-408.2271206145051,-106.63784237907157 L-444.5837013972657,-99.08789743363764 M-402.41161620814137,54.65339207497834 L-438.5225621620423,62.71890969936351" stroke="black"  stroke-width="4"  fill="red"/>
<path d="M699.0721942034568,577.0048491752486 L670.2319324818361,568.474630919558 M547.6943484931669,623.3829605945517 L518.8466364271742,614.571857929843 M699.0721942034568,577.0048491752486 L547.6943484931669,623.3829605945517 M670.2319324818361,568.474630919558 L518.8466364271742,614.571857929843 M705.5716892925877,-419.64629777804475 L675.5842451798983,-425.394468358537 M705.5716892925877,-419.64629777804475 L699.0721942034568,577.0048491752486 M675.5842451798983,-425.394468358537 L670.2319324818361,568.474630919558 M548.270189803175,-388.37022108957194 L518.2743805436407,-394.31526473957763 M547.6943484931669,623.3829605945517 L548.270189803175,-388.37022108957194 M518.8466364271742,614.571857929843 L518.2743805436407,-394.31526473957763 M548.270189803175,-388.37022108957194 L705.5716892925877,-419.64629777804475 M612.0041869889976,-132.17587701230252 L641.1991998174201,-138.8208957382658 M642.1063493159186,-358.51601064735723 L641.1991998174201,-138.8208957382658 M642.1063493159186,-358.51601064735723 L612.6680923840906,-352.5094800087693 M612.0041869889976,-132.17587701230252 L612.6680923840906,-352.5094800087693 M518.2743805436407,-394.31526473957763 L675.5842451798983,-425.394468358537 M582.3851961207654,-175.18213517890104 L582.6600872678857,-321.6441383646379 M612.0590882980339,-327.7202762530251 L582.6600872678857,-321.6441383646379 M611.6220099576581,-181.6814757749744 L612.0590882980339,-327.7202762530251 M582.3851961207654,-175.18213517890104 L611.6220099576581,-181.6814757749744 M633.7603936715111,-140.47566620944644 L641.1991998174201,-138.8208957382658 M604.5649421494668,-133.84103440643582 L612.0041869889976,-132.17587701230252 M633.7603936715111,-140.47566620944644 L604.5649421494668,-133.84103440643582 M612.6680923840906,-352.5094800087693 L605.1656605082211,-354.01467010298757 M605.1656605082211,-354.01467010298757 L605.0648390834982,-317.06187964162643 M605.0648390834982,-317.06187964162643 L582.6600872678857,-321.6441383646379 M582.3851961207654,-175.18213517890104 L604.6643640425847,-170.28087240472507 M604.6643640425847,-170.28087240472507 L604.5649421494668,-133.84103440643582 M642.1063493159186,-358.51601064735723 L634.6043672988039,-360.0117329186821 M634.6043672988039,-360.0117329186821 L605.1656605082211,-354.01467010298757 M634.6043672988039,-360.0117329186821 L634.4627222834808,-323.166755152291 M634.4627222834808,-323.166755152291 L612.0590882980339,-327.7202762530251 M611.6220099576581,-181.6814757749744 L633.9000785941826,-176.8107808507243 M633.9000785941826,-176.8107808507243 L633.7603936715111,-140.47566620944644 M634.4627222834808,-323.166755152291 L605.0648390834982,-317.06187964162643 M633.9000785941826,-176.8107808507243 L604.6643640425847,-170.28087240472507" stroke="black"  stroke-width="4"  fill="red"/>
<path d="M-402.41161620814137,54.65339207497834 L-438.5225621620423,62.71890969936351 M-400.9689480429888,94.66535200237081 L-437.01899935761776,102.85768349522709 M-402.41161620814137,54.65339207497834 L-400.9689480429888,94.66535200237081 M-438.5225621620423,62.71890969936351 L-437.01899935761776,102.85768349522709 M-393.5573376378559,57.06716023813357 L-429.67519104450776,65.14954813770606 M-393.5573376378559,57.06716023813357 L-402.41161620814137,54.65339207497834 M-429.67519104450776,65.14954813770606 L-438.5225621620423,62.71890969936351 M446.37602902072365,329.61594898024225 L409.95841422443846,339.5292505504977 M-400.9689480429888,94.66535200237081 L446.37602902072365,329.61594898024225 M-437.01899935761776,102.85768349522709 L409.95841422443846,339.5292505504977 M-399.32385735175603,-104.3784040082362 L-393.5573376378559,57.06716023813357 M-408.2271206145051,-106.63784237907157 L-399.32385735175603,-104.3784040082362 M-409.69230825344994,-147.27437301838177 L-408.2271206145051,-106.63784237907157 M-298.5765007588751,-119.60351045163952 L-409.69230825344994,-147.27437301838177 M-298.5765007588751,-119.60351045163952 L-294.66049490146884,3.38354945472463 M-294.66049490146884,3.38354945472463 L-264.2119677905275,11.398387558766103 M-264.2119677905275,11.398387558766103 L-267.9973809767064,-111.98847673156638 M279.5865458144617,24.37483577674027 L-267.9973809767064,-111.98847673156638 M279.5865458144617,24.37483577674027 L280.86069498220945,154.87557879184777 M280.86069498220945,154.87557879184777 L315.5325224807542,164.00209854630327 M315.5325224807542,164.00209854630327 L314.4292325136597,33.0516137874356 M445.48302671580495,65.68757810236656 L314.4292325136597,33.0516137874356 M445.6331330533338,110.05176496302579 L445.48302671580495,65.68757810236656 M434.87030952348795,107.32041402526215 L445.6331330533338,110.05176496302579 M435.5380012180818,283.08714789323597 L434.87030952348795,107.32041402526215 M446.2284593475614,286.00147764665894 L435.5380012180818,283.08714789323597 M446.37602902072365,329.61594898024225 L446.2284593475614,286.00147764665894 M-435.68747548607485,-96.81256870695177 L-429.67519104450776,65.14954813770606 M-444.5837013972657,-99.08789743363764 L-435.68747548607485,-96.81256870695177 M-446.1108169515617,-139.85543013240056 L-444.5837013972657,-99.08789743363764 M-335.07842449511327,-111.98847673156638 L-446.1108169515617,-139.85543013240056 M-330.97609299286137,11.398387558766103 L-335.07842449511327,-111.98847673156638 M-300.54842863927445,19.470225696778584 L-330.97609299286137,11.398387558766103 M-304.52046598155357,-104.31902832032017 L-300.54842863927445,19.470225696778584 M242.81568616653422,33.0516137874356 L-304.52046598155357,-104.31902832032017 M244.28005283761047,164.00209854630327 L242.81568616653422,33.0516137874356 M278.9446347301659,173.19790440596694 L244.28005283761047,164.00209854630327 M277.6510165467306,41.79459866717099 L278.9446347301659,173.19790440596694 M408.6861537121222,74.68184877926933 L277.6510165467306,41.79459866717099 M408.9000172377298,119.20197539052128 L408.6861537121222,74.68184877926933 M398.13818587023843,116.44949312369846 L408.9000172377298,119.20197539052128 M399.05869251643406,292.8276240068063 L398.13818587023843,116.44949312369846 M409.74817859973655,295.76434672534447 L399.05869251643406,292.8276240068063 M409.95841422443846,339.5292505504977 L409.74817859973655,295.76434672534447 M-399.32385735175603,-104.3784040082362 L-435.68747548607485,-96.81256870695177 M446.2284593475614,286.00147764665894 L409.74817859973655,295.76434672534447 M-408.2271206145051,-106.63784237907157 L-444.5837013972657,-99.08789743363764 M-409.69230825344994,-147.27437301838177 L-446.1108169515617,-139.85543013240056 M-298.5765007588751,-119.60351045163952 L-335.07842449511327,-111.98847673156638 M-294.66049490146884,3.38354945472463 L-330.97609299286137,11.398387558766103 M-264.2119677905275,11.398387558766103 L-300.54842863927445,19.470225696778584 M-304.52046598155357,-104.31902832032017 L-267.9973809767064,-111.98847673156638 M279.5865458144617,24.37483577674027 L242.81568616653422,33.0516137874356 M280.86069498220945,154.87557879184777 L244.28005283761047,164.00209854630327 M315.5325224807542,164.00209854630327 L278.9446347301659,173.19790440596694 M277.6510165467306,41.79459866717099 L314.4292325136597,33.0516137874356 M445.48302671580495,65.68757810236656 L408.6861537121222,74.68184877926933 M445.6331330533338,110.05176496302579 L408.9000172377298,119.20197539052128 M434.87030952348795,107.32041402526215 L398.13818587023843,116.44949312369846 M435.5380012180818,283.08714789323597 L399.05869251643406,292.8276240068063" stroke="black"  stroke-width="4"  fill="red"/>
<path d="M435.5380012180818,283.08714789323597 L399.05869251643406,292.8276240068063 M474.8565398687511,293.8057892894155 L438.37411870755005,303.62875180515897 M435.5380012180818,283.08714789323597 L474.8565398687511,293.8057892894155 M399.05869251643406,292.8276240068063 L438.37411870755005,303.62875180515897 M474.45583217268023,117.36628666359923 L437.72053155590197,126.57320728150842 M474.8565398687511,293.8057892894155 L474.45583217268023,117.36628666359923 M438.37411870755005,303.62875180515897 L437.72053155590197,126.57320728150842 M434.87030952348795,107.32041402526215 L398.13818587023843,116.44949312369846 M474.45583217268023,117.36628666359923 L434.87030952348795,107.32041402526215 M437.72053155590197,126.57320728150842 L398.13818587023843,116.44949312369846 M434.87030952348795,107.32041402526215 L435.5380012180818,283.08714789323597 M398.13818587023843,116.44949312369846 L399.05869251643406,292.8276240068063" stroke="black"  stroke-width="4"  fill="red"/>
<path d="M-425.9330074766126,48.24121688235624 L-462.02529112113734,56.26200451758541 M-393.5573376378559,57.06716023813357 L-429.67519104450776,65.14954813770606 M-425.9330074766126,48.24121688235624 L-393.5573376378559,57.06716023813357 M-462.02529112113734,56.26200451758541 L-429.67519104450776,65.14954813770606 M-399.32385735175603,-104.3784040082362 L-435.68747548607485,-96.81256870695177 M-393.5573376378559,57.06716023813357 L-399.32385735175603,-104.3784040082362 M-429.67519104450776,65.14954813770606 L-435.68747548607485,-96.81256870695177 M-431.8780788498798,-112.63989813851606 L-468.215647047778,-105.1320835124161 M-399.32385735175603,-104.3784040082362 L-431.8780788498798,-112.63989813851606 M-435.68747548607485,-96.81256870695177 L-468.215647047778,-105.1320835124161 M-431.8780788498798,-112.63989813851606 L-425.9330074766126,48.24121688235624 M-468.215647047778,-105.1320835124161 L-462.02529112113734,56.26200451758541" stroke="black"  stroke-width="4"  fill="red"/>
<path d="M633.9000785941826,-176.8107808507243 L604.6643640425847,-170.28087240472507 M633.7603936715111,-140.47566620944644 L604.5649421494668,-133.84103440643582 M633.9000785941826,-176.8107808507243 L633.7603936715111,-140.47566620944644 M604.6643640425847,-170.28087240472507 L604.5649421494668,-133.84103440643582 M642.8406064357872,-174.85609688378338 L613.6054249945337,-168.3139008661468 M642.8406064357872,-174.85609688378338 L633.9000785941826,-176.8107808507243 M613.6054249945337,-168.3139008661468 L604.6643640425847,-170.28087240472507 M1480.9706419468666,47.98716965819193 L1452.059282321718,55.85718059585048 M633.7603936715111,-140.47566620944644 L1480.9706419468666,47.98716965819193 M604.5649421494668,-133.84103440643582 L1452.059282321718,55.85718059585048 M643.453806192816,-321.3393243735957 L642.8406064357872,-174.85609688378338 M634.4627222834808,-323.166755152291 L643.453806192816,-321.3393243735957 M634.6043672988039,-360.0117329186821 L634.4627222834808,-323.166755152291 M746.6835425446534,-337.6657291313477 L634.6043672988039,-360.0117329186821 M746.6835425446534,-337.6657291313477 L745.7807502999212,-226.24142095248817 M745.7807502999212,-226.24142095248817 L776.4396011022566,-219.77357652262617 M776.4396011022566,-219.77357652262617 L777.475927203553,-331.5264374859597 M1325.1207525429697,-222.33868414725976 L777.475927203553,-331.5264374859597 M1325.1207525429697,-222.33868414725976 L1321.5710819752478,-104.77169224331874 M1321.5710819752478,-104.77169224331874 L1356.010865682113,-97.50621563918207 M1356.010865682113,-97.50621563918207 L1359.7281659332957,-215.43876372052796 M1489.6429643484748,-189.53674783712768 L1359.7281659332957,-215.43876372052796 M1488.1865735322153,-149.64804950898508 L1489.6429643484748,-189.53674783712768 M1477.532059388283,-151.81357118301287 L1488.1865735322153,-149.64804950898508 M1471.8209175469692,6.385385917501992 L1477.532059388283,-151.81357118301287 M1482.4050911910915,8.699423174811045 L1471.8209175469692,6.385385917501992 M1480.9706419468666,47.98716965819193 L1482.4050911910915,8.699423174811045 M614.0564651113634,-315.22289668214887 L613.6054249945337,-168.3139008661468 M605.0648390834982,-317.06187964162643 L614.0564651113634,-315.22289668214887 M605.1656605082211,-354.01467010298757 L605.0648390834982,-317.06187964162643 M717.255444958721,-331.5264374859597 L605.1656605082211,-354.01467010298757 M716.4746513140815,-219.77357652262617 L717.255444958721,-331.5264374859597 M747.137820940949,-213.26443333440477 L716.4746513140815,-219.77357652262617 M748.0522038903905,-325.34777738681623 L747.137820940949,-213.26443333440477 M1295.8799438832941,-215.43876372052796 L748.0522038903905,-325.34777738681623 M1292.4498170444247,-97.50621563918207 L1295.8799438832941,-215.43876372052796 M1326.9076025071943,-90.1915556658156 L1292.4498170444247,-97.50621563918207 M1330.5056041351772,-208.4919227922502 L1326.9076025071943,-90.1915556658156 M1460.4959962185385,-182.41234569715584 L1330.5056041351772,-208.4919227922502 M1459.079135626379,-142.3973936381176 L1460.4959962185385,-182.41234569715584 M1448.4180194058176,-144.57782362907471 L1459.079135626379,-142.3973936381176 M1442.8640678841607,14.117262219535462 L1448.4180194058176,-144.57782362907471 M1453.4547242757594,16.447133339874483 L1442.8640678841607,14.117262219535462 M1452.059282321718,55.85718059585048 L1453.4547242757594,16.447133339874483 M643.453806192816,-321.3393243735957 L614.0564651113634,-315.22289668214887 M1482.4050911910915,8.699423174811045 L1453.4547242757594,16.447133339874483 M634.4627222834808,-323.166755152291 L605.0648390834982,-317.06187964162643 M634.6043672988039,-360.0117329186821 L605.1656605082211,-354.01467010298757 M746.6835425446534,-337.6657291313477 L717.255444958721,-331.5264374859597 M745.7807502999212,-226.24142095248817 L716.4746513140815,-219.77357652262617 M776.4396011022566,-219.77357652262617 L747.137820940949,-213.26443333440477 M748.0522038903905,-325.34777738681623 L777.475927203553,-331.5264374859597 M1325.1207525429697,-222.33868414725976 L1295.8799438832941,-215.43876372052796 M1321.5710819752478,-104.77169224331874 L1292.4498170444247,-97.50621563918207 M1356.010865682113,-97.50621563918207 L1326.9076025071943,-90.1915556658156 M1330.5056041351772,-208.4919227922502 L1359.7281659332957,-215.43876372052796 M1489.6429643484748,-189.53674783712768 L1460.4959962185385,-182.41234569715584 M1488.1865735322153,-149.64804950898508 L1459.079135626379,-142.3973936381176 M1477.532059388283,-151.81357118301287 L1448.4180194058176,-144.57782362907471 M1471.8209175469692,6.385385917501992 L1442.8640678841607,14.117262219535462" stroke="black"  stroke-width="4"  fill="red"/>
<path d="M1471.8209175469692,6.385385917501992 L1442.8640678841607,14.117262219535462 M1510.7355447655266,14.893362096449607 L1481.802893602025,22.68353442641569 M1471.8209175469692,6.385385917501992 L1510.7355447655266,14.893362096449607 M1442.8640678841607,14.117262219535462 L1481.802893602025,22.68353442641569 M1516.7059580345326,-143.8515068947106 L1487.6165626004006,-136.5608695489334 M1510.7355447655266,14.893362096449607 L1516.7059580345326,-143.8515068947106 M1481.802893602025,22.68353442641569 L1487.6165626004006,-136.5608695489334 M1477.532059388283,-151.81357118301287 L1448.4180194058176,-144.57782362907471 M1516.7059580345326,-143.8515068947106 L1477.532059388283,-151.81357118301287 M1487.6165626004006,-136.5608695489334 L1448.4180194058176,-144.57782362907471 M1477.532059388283,-151.81357118301287 L1471.8209175469692,6.385385917501992 M1448.4180194058176,-144.57782362907471 L1442.8640678841607,14.117262219535462" stroke="black"  stroke-width="4"  fill="red"/>
<path d="M610.1404963120119,-182.0053818151158 L580.903620967793,-175.50807146026887 M642.8406064357872,-174.85609688378338 L613.6054249945337,-168.3139008661468 M610.1404963120119,-182.0053818151158 L642.8406064357872,-174.85609688378338 M580.903620967793,-175.50807146026887 L613.6054249945337,-168.3139008661468 M643.453806192816,-321.3393243735957 L614.0564651113634,-315.22289668214887 M642.8406064357872,-174.85609688378338 L643.453806192816,-321.3393243735957 M613.6054249945337,-168.3139008661468 L614.0564651113634,-315.22289668214887 M610.5692452135045,-328.02308569575155 L581.1701816397988,-321.9488564493083 M643.453806192816,-321.3393243735957 L610.5692452135045,-328.02308569575155 M614.0564651113634,-315.22289668214887 L581.1701816397988,-321.9488564493083 M610.5692452135045,-328.02308569575155 L610.1404963120119,-182.0053818151158 M581.1701816397988,-321.9488564493083 L580.903620967793,-175.50807146026887" stroke="black"  stroke-width="4"  fill="red"/></svg>