<svg viewBox="0 0 800 800" xmlns="http://www.w3.org/2000/svg"><path d="M358.0924335742464,385.8509944303993 L357.97198058397515,383.7745701904165 M384.73587409949994,390.8905241531853 L387.7554367129883,390.0570250224625 M387.7554367129883,390.0570250224625 L390.02931224628884,389.1285587763636 M390.02931224628884,389.1285587763636 L391.49043322659423,388.1472046173713 M391.49043322659423,388.1472046173713 L392.1123385500952,387.1543012659302 M392.1123385500952,387.1543012659302 L391.90501913317934,386.1884706249591 M391.90501913317934,386.1884706249591 L390.90916888624065,385.28427191965943 M390.90916888624065,385.28427191965943 L389.1899645095616,384.471433865695 M389.1899645095616,384.471433865695 L386.83112721075963,383.7745701904165 M386.83112721075963,383.7745701904165 L383.92981285132714,383.21322583461904 M383.92981285132714,383.21322583461904 L380.59254404452895,382.80212200714 M380.59254404452895,382.80212200714 L376.9322301692285,382.5514695855104 M376.9322301692285,382.5514695855104 L373.066102035385,382.4672609988863 M373.066102035385,382.4672609988863 L369.11436481872374,382.55146927807084 M369.11436481872374,382.55146927807084 L365.19922020442453,382.80212185225463 M365.19922020442453,382.80212185225463 L361.4439956497007,383.2132257170141 M361.4439956497007,383.2132257170141 L357.97198058397515,383.7745701904165 M384.7958722990879,393.1659275715194 L384.73587409949994,390.8905241531853 M358.0924335742464,385.8509944303993 L361.5549366065484,385.27379107064553 M361.5549366065484,385.27379107064553 L365.3003309734296,384.85105779463305 M365.3003309734296,384.85105779463305 L369.20559143101184,384.593308445746 M369.20559143101184,384.593308445746 L373.14763237387547,384.50671489867386 M373.14763237387547,384.50671489867386 L377.0044791013306,384.5933087618931 M377.0044791013306,384.5933087618931 L380.65614683699374,384.8510579539023 M380.65614683699374,384.8510579539023 L383.98562605473427,385.27379119157547 M383.98562605473427,385.27379119157547 L386.8802349683317,385.8509944303993 M386.8802349683317,385.8509944303993 L389.233686687194,386.56751259063867 M389.233686687194,386.56751259063867 L390.9490660860757,387.4032298599889 M390.9490660860757,387.4032298599889 L391.9428882332706,388.33282084912594 M391.9428882332706,388.33282084912594 L392.15019157185947,389.3257065250304 M392.15019157185947,389.3257065250304 L391.5304522412193,390.34635002409004 M391.5304522412193,390.34635002409004 L390.07377457600535,391.35504869735047 M390.07377457600535,391.35504869735047 L387.80660796433153,392.309319011084 M387.80660796433153,392.309319011084 L384.7958722990879,393.1659275715194 M447.3787647698541,378.3373696102932 L447.468673166807,376.4691910342641 M384.7958722990879,393.1659275715194 L447.3787647698541,378.3373696102932 M384.73587409949994,390.8905241531853 L447.468673166807,376.4691910342641 M420.5553456767753,371.7521521363033 L418.56956027259815,372.2219091552313 M418.56956027259815,372.2219091552313 L417.10737806402955,372.76766816554795 M417.10737806402955,372.76766816554795 L416.23665427498287,373.3720326110931 M416.23665427498287,373.3720326110931 L416.0086966888197,374.01443087638586 M416.0086966888197,374.01443087638586 L416.45393970159415,374.6714585943898 M416.45393970159415,374.6714585943898 L417.57764381135235,375.3175039570481 M417.57764381135235,375.3175039570481 L419.3561795770581,375.9256989587822 M419.3561795770581,375.9256989587822 L421.7346054012654,376.4691910342641 M421.7346054012654,376.4691910342641 L424.62623500815727,376.9226830738943 M424.62623500815727,376.9226830738943 L427.9147884933605,377.2641107419165 M427.9147884933605,377.2641107419165 L431.4593798714519,377.4762812301502 M431.4593798714519,377.4762812301502 L435.1022063165992,377.54825629248865 M435.1022063165992,377.54825629248865 L438.6782546005815,377.4762812301502 M438.6782546005815,377.4762812301502 L442.02599834415963,377.26411087207543 M442.02599834415963,377.26411087207543 L444.99778297599016,376.92268317042294 M444.99778297599016,376.92268317042294 L447.468673166807,376.4691910342641 M420.5271746797669,373.48372941908207 L420.5553456767753,371.7521521363033 M447.3787647698541,378.3373696102932 L444.91268779040394,378.803906043588 M444.91268779040394,378.803906043588 L441.9470642761193,379.1551443745014 M441.9470642761193,379.1551443745014 L438.606551705011,379.37340683510206 M438.606551705011,379.37340683510206 L435.0384458035039,379.44744776493644 M435.0384458035039,379.44744776493644 L431.4038609980916,379.37340683510206 M431.4038609980916,379.37340683510206 L427.86738090453514,379.15514424060405 M427.86738090453514,379.15514424060405 L424.58639842416767,378.8039059442844 M424.58639842416767,378.8039059442844 L421.7014424679632,378.3373696102932 M421.7014424679632,378.3373696102932 L419.3285129195153,377.7782240363337 M419.3285129195153,377.7782240363337 L417.55410568452675,377.15248556596055 M417.55410568452675,377.15248556596055 L416.4330626975697,376.487774375677 M416.4330626975697,376.487774375677 L415.9889960404403,375.81173123106174 M415.9889960404403,375.81173123106174 L416.2166956549457,375.1507094519825 M416.2166956549457,375.1507094519825 L417.08582828756084,374.5287956920391 M417.08582828756084,374.5287956920391 L418.5452213452574,373.9671654508533 M418.5452213452574,373.9671654508533 L420.5271746797669,373.48372941908207 M420.5271746797669,373.48372941908207 L358.0924335742464,385.8509944303993 M420.5553456767753,371.7521521363033 L357.97198058397515,383.7745701904165" stroke="black"  stroke-width="4"  fill="red"/>
<path d="M444.19519432185535,373.48372941908207 L444.27156902485575,371.7521521363033 M444.19519432185535,373.48372941908207 L441.32576930700526,373.08207280853463 M441.32576930700526,373.08207280853463 L438.18332535232645,372.7913605123594 M438.18332535232645,372.7913605123594 L434.8813771842745,372.6200350705662 M434.8813771842745,372.6200350705662 L431.53509288702554,372.57292848200984 M431.53509288702554,372.57292848200984 L428.25948692580664,372.65134911280745 M428.25948692580664,372.65134911280745 L425.16780268077696,372.8531130438581 M425.16780268077696,372.8531130438581 L422.3698427820785,373.1724969804023 M422.3698427820785,373.1724969804023 L419.9699554104372,373.60013482317083 M419.9699554104372,373.60013482317083 L418.06442395676794,374.1228936999112 M418.06442395676794,374.1228936999112 L416.7381318887438,374.7237827259611 M416.7381318887438,374.7237827259611 L416.06042235623465,375.3819775992244 M416.06042235623465,375.3819775992244 L416.08031860158087,376.0730475775309 M416.08031860158087,376.0730475775309 L416.82142656021455,376.7694796015962 M416.82142656021455,376.7694796015962 L418.27709176382814,377.4415752661298 M418.27709176382814,377.4415752661298 L420.40658057266,378.05875778198583 M420.40658057266,378.05875778198583 L423.1331903726754,378.59125678505353 M423.1331903726754,378.59125678505353 L426.34509928693876,379.0120622087296 M426.34509928693876,379.0120622087296 L429.89953335332115,379.29894858422114 M429.89953335332115,379.29894858422114 L433.6303309219212,379.4363118257902 M433.6303309219212,379.4363118257902 L437.35836566993083,379.4165505948036 M437.35836566993083,379.4165505948036 L440.9037283967645,379.2407636545985 M440.9037283967645,379.2407636545985 L444.0981441418371,378.9186480228752 M444.0981441418371,378.9186480228752 L446.79604909821455,378.4676144075489 M446.79604909821455,378.4676144075489 L448.883020595157,377.9112698217822 M448.883020595157,377.9112698217822 L450.2808046820964,377.27750472756856 M450.2808046820964,377.27750472756856 L450.9487963044719,376.5964667203545 M450.9487963044719,376.5964667203545 L450.88243794034446,375.89865714345507 M450.88243794034446,375.89865714345507 L450.10932481285215,375.2133342766707 M450.10932481285215,375.2133342766707 L448.68395986218826,374.56731023063554 M448.68395986218826,374.56731023063554 L446.6820839359895,373.9841490852183 M446.6820839359895,373.9841490852183 L444.19519432185535,373.48372941908207 M444.27156902485575,371.7521521363033 L446.7642378820849,372.2384125251747 M446.7642378820849,372.2384125251747 L448.77110081434967,372.8050951136098 M448.77110081434967,372.8050951136098 L450.2004251296229,373.4328917573186 M450.2004251296229,373.4328917573186 L450.97624168067716,374.0989100041181 M450.97624168067716,374.0989100041181 L451.04384344102147,374.77709664477885 M451.04384344102147,374.77709664477885 L450.3754769539622,375.43901586074503 M450.3754769539622,375.43901586074503 L448.9756114255243,376.0550181122767 M448.9756114255243,376.0550181122767 L446.8848562279349,376.5957926872157 M446.8848562279349,376.5957926872157 L444.1815789152867,377.0342192890897 M444.1815789152867,377.0342192890897 L440.98043087503225,377.347339968877 M440.98043087503225,377.347339968877 L437.42731120772817,377.51822115962443 M437.42731120772817,377.51822115962443 L433.6909130491299,377.5374310406649 M433.6909130491299,377.5374310406649 L429.9516103916092,377.403900873706 M429.9516103916092,377.403900873706 L426.38899786302255,377.1250241807089 M426.38899786302255,377.1250241807089 L423.16966641545025,376.715977687277 M423.16966641545025,376.715977687277 L420.43674552336995,376.1983763459703 M420.43674552336995,376.1983763459703 L418.3023166110606,375.598485245811 M418.3023166110606,375.598485245811 L416.8432380279248,374.9452494889777 M416.8432380279248,374.9452494889777 L416.10030039127497,374.2683932859775 M416.10030039127497,374.2683932859775 L416.0801307238107,373.59678160835125 M416.0801307238107,373.59678160835125 L416.75903046148693,372.9571501257992 M416.75903046148693,372.9571501257992 L418.08783856856905,372.3732344577221 M418.08783856856905,372.3732344577221 L419.99704670064307,371.86526232473153 M419.99704670064307,371.86526232473153 L422.4015925285976,371.4497347032054 M422.4015925285976,371.4497347032054 L425.2050092426399,371.13940361778964 M425.2050092426399,371.13940361778964 L428.3027653026464,370.9433622701571 M428.3027653026464,370.9433622701571 L431.5848757056453,370.86716662595876 M431.5848757056453,370.86716662595876 L434.9379138478948,370.9129366334267 M434.9379138478948,370.9129366334267 L438.2466777226596,371.0794022597115 M438.2466777226596,371.0794022597115 L441.3958034593493,371.3618728633725 M441.3958034593493,371.3618728633725 L444.27156902485575,371.7521521363033" stroke="black"  stroke-width="4"  fill="red"/>
<path d="M386.88023496833176,385.8509944303993 L383.8844196842706,385.25767532021786 M383.8844196842706,385.25767532021786 L380.429043753246,384.8293624044599 M380.429043753246,384.8293624044599 L376.63830452851016,384.5773851427781 M376.63830452851016,384.5773851427781 L372.64120503896504,384.50815968585533 M372.64120503896504,384.50815968585533 L368.5700059298773,384.623415758402 M368.5700059298773,384.623415758402 L364.5591096267728,384.9202650903769 M364.5591096267728,384.9202650903769 L360.7439816564371,385.3910907406053 M360.7439816564371,385.3910907406053 L357.25969319473097,386.0232834563123 M357.25969319473097,386.0232834563123 L354.2386421853747,386.7988828018213 M354.2386421853747,386.7988828018213 L351.80713407983313,387.6942092598706 M351.80713407983313,387.6942092598706 L350.0805076929454,388.67962703344034 M350.0805076929454,388.67962703344034 L349.1567746920169,389.7195987289818 M349.1567746920169,389.7195987289818 L349.10900207612195,390.77321047471406 M349.10900207612195,390.77321047471406 L349.9769756581744,391.7953494125241 M349.9769756581744,391.7953494125241 L351.759214444618,392.73863530916884 M351.759214444618,392.73863530916884 L354.40673134569346,393.55610242407977 M354.40673134569346,393.55610242407977 L357.82001374073246,394.2044819054135 M357.82001374073246,394.2044819054135 L361.8506540168047,394.64772891462695 M361.8506540168047,394.64772891462695 L366.3083789808415,394.8603072611159 M366.3083789808415,394.8603072611159 L370.973197996698,394.82971116208637 M370.973197996698,394.82971116208637 L375.6114375474984,394.55775214364786 M375.6114375474984,394.55775214364786 L379.9934757374079,394.06036656059297 M379.9934757374079,394.06036656059297 L383.91056956054376,393.3659924582142 M383.91056956054376,393.3659924582142 L387.18853297040323,392.51281047678873 M387.18853297040323,392.51281047678873 L389.696729555051,391.5453404600657 M389.696729555051,391.5453404600657 L391.3518821950078,390.51093977841117 M391.3518821950078,390.51093977841117 L392.11723446236414,389.4566458110126 M392.11723446236414,389.4566458110126 L391.99817647140645,388.42667221175526 M391.99817647140645,388.42667221175526 L391.03576079540017,387.460671125523 M391.03576079540017,387.460671125523 L389.2994691293451,386.59273286982386 M389.2994691293451,386.59273286982386 L386.88023496833176,385.8509944303993 M386.88023496833176,385.8509944303993 L386.83112721075963,383.7745701904165 M386.83112721075963,383.7745701904165 L389.25589599002194,384.4959629872537 M389.25589599002194,384.4959629872537 L390.9960511201303,385.3401424090091 M390.9960511201303,385.3401424090091 L391.9604000068263,386.27976171651505 M391.9604000068263,386.27976171651505 L392.07922745598194,387.28167770353457 M392.07922745598194,387.28167770353457 L391.31130168970145,388.30732773871483 M391.31130168970145,388.30732773871483 L389.65114301807586,389.3136998884171 M389.65114301807586,389.3136998884171 L387.1355454039801,390.25502212259937 M387.1355454039801,390.25502212259937 L383.8479829280975,391.0851990587209 M383.8479829280975,391.0851990587209 L379.9194665357758,391.7608874581973 M379.9194665357758,391.7608874581973 L375.5247299520249,392.2449088900054 M375.5247299520249,392.2449088900054 L370.87320481452025,392.50956795606794 M370.87320481452025,392.50956795606794 L366.19528384681246,392.53934311257007 M366.19528384681246,392.53934311257007 L361.72541673355414,392.33246992702703 M361.72541673355414,392.33246992702703 L357.68429456226085,391.9011288311517 M357.68429456226085,391.9011288311517 L354.2627459385317,391.27018981364375 M354.2627459385317,391.27018981364375 L351.6095439322621,390.47475294072206 M351.6095439322621,390.47475294072206 L349.82436186278795,389.5569456353912 M349.82436186278795,389.5569456353912 L348.95615655897853,388.56248482117496 M348.95615655897853,388.56248482117496 L349.0062225569235,387.5374792832418 M349.0062225569235,387.5374792832418 L349.9344765960613,386.5258189562556 M349.9344765960613,386.5258189562556 L351.6674893475417,385.56729661678776 M351.6674893475417,385.56729661678776 L354.10686175721384,384.6964650674226 M354.10686175721384,384.6964650674226 L357.1368721129695,383.942129984095 M357.1368721129695,383.942129984095 L360.6308550555294,383.32730066326445 M360.6308550555294,383.32730066326445 L364.4560841789574,382.86942440426094 M364.4560841789574,382.86942440426094 L368.47719168873454,382.5807473896554 M368.47719168873454,382.5807473896554 L372.5584421777896,382.4686659843301 M372.5584421777896,382.4686659843301 L376.56518165152363,382.53598455242786 M376.56518165152363,382.53598455242786 L380.3649065989278,382.78102363739924 M380.3649065989278,382.78102363739924 L383.8283708800416,383.1975530844874 M383.8283708800416,383.1975530844874 L386.83112721075963,383.7745701904165" stroke="black"  stroke-width="4"  fill="red"/>
<path d="M391.4972611318367,389.1052626638526 L392.6167017239267,389.38893562043125 M384.7817682871627,390.6441723153752 L385.89824346374263,390.93999052455456 M391.4972611318367,389.1052626638526 L384.7817682871627,390.6441723153752 M392.6167017239267,389.38893562043125 L385.89824346374263,390.93999052455456 M391.65297122622604,397.6559520495863 L392.76149894780406,397.96968631041034 M384.7817682871627,390.6441723153752 L385.00460020258805,392.55867865561453 M385.00460020258805,392.55867865561453 L385.55619819543034,394.2848263743083 M385.55619819543034,394.2848263743083 L386.404098614594,395.73449304928107 M386.404098614594,395.73449304928107 L387.50065959492906,396.8365189982276 M387.50065959492906,396.8365189982276 L388.7865155972862,397.5398993748433 M388.7865155972862,397.5398993748433 L390.19438540263195,397.81543526556555 M390.19438540263195,397.81543526556555 L391.65297122622604,397.6559520495863 M385.89824346374263,390.93999052455456 L386.1187382629642,392.8612404441151 M386.1187382629642,392.8612404441151 L386.66829707533134,394.5930659458791 M386.66829707533134,394.5930659458791 L387.5145405967251,396.0470535283163 M387.5145405967251,396.0470535283163 L388.60988737637166,397.1518444599942 M388.60988737637166,397.1518444599942 L389.895010098471,397.85633248962614 M389.895010098471,397.85633248962614 L391.30264611503463,398.1313119305448 M391.30264611503463,398.1313119305448 L392.76149894780406,397.96968631041034 M391.65297122622604,397.6559520495863 L391.4972611318367,389.1052626638526 M392.76149894780406,397.96968631041034 L392.6167017239267,389.38893562043125" stroke="black"  stroke-width="4"  fill="red"/>
<path d="M436.3697947624786,386.19942550052747 L437.46977667605535,386.4308846206187 M441.38918571086174,377.67212349691954 L442.4960160477821,377.87356228622207 M436.3697947624786,386.19942550052747 L437.4410097768775,385.74249960941046 M437.4410097768775,385.74249960941046 L438.46515110299856,384.94402438225126 M438.46515110299856,384.94402438225126 L439.3936236286167,383.84528335195193 M439.3936236286167,383.84528335195193 L440.18293432000377,382.5005052389563 M440.18293432000377,382.5005052389563 L440.7962983371694,380.97433321054694 M440.7962983371694,380.97433321054694 L441.20494087441426,379.33912843975054 M441.20494087441426,379.33912843975054 L441.38918571086174,377.67212349691954 M437.46977667605535,386.4308846206187 L438.54046152110675,385.97159572875734 M438.54046152110675,385.97159572875734 L439.5646081191557,385.1697929905887 M439.5646081191557,385.1697929905887 L440.49362534032366,384.0669319444583 M440.49362534032366,384.0669319444583 L441.2840007045902,382.7174395748446 M441.2840007045902,382.7174395748446 L441.89890600819206,381.1861753993165 M441.89890600819206,381.1861753993165 L442.309499533065,379.54572802930045 M442.309499533065,379.54572802930045 L442.4960160477821,377.87356228622207 M436.63332479401555,378.7619675985387 L437.74398847339495,378.97063774436145 M441.38918571086174,377.67212349691954 L436.63332479401555,378.7619675985387 M442.4960160477821,377.87356228622207 L437.74398847339495,378.97063774436145 M436.63332479401555,378.7619675985387 L436.3697947624786,386.19942550052747 M437.74398847339495,378.97063774436145 L437.46977667605535,386.4308846206187" stroke="black"  stroke-width="4"  fill="red"/>
<path d="M436.63332479401555,378.7619675985387 L437.74398847339495,378.97063774436145 M391.4972611318367,389.1052626638526 L392.6167017239267,389.38893562043125 M436.63332479401555,378.7619675985387 L391.4972611318367,389.1052626638526 M437.74398847339495,378.97063774436145 L392.6167017239267,389.38893562043125 M436.3697947624786,386.19942550052747 L437.46977667605535,386.4308846206187 M436.3697947624786,386.19942550052747 L436.63332479401555,378.7619675985387 M437.46977667605535,386.4308846206187 L437.74398847339495,378.97063774436145 M391.65297122622604,397.6559520495863 L392.76149894780406,397.96968631041034 M391.4972611318367,389.1052626638526 L391.65297122622604,397.6559520495863 M392.6167017239267,389.38893562043125 L392.76149894780406,397.96968631041034 M431.9470904447979,387.33252989898875 L436.3697947624786,386.19942550052747 M391.65297122622604,397.6559520495863 L397.4414446149769,396.17293528291054 M397.41811578171735,394.08676241068196 L397.4414446149769,396.17293528291054 M398.5925082169544,393.7937627493499 L397.41811578171735,394.08676241068196 M398.5925082169544,393.7937627493499 L398.6128072739697,395.8728301694414 M398.6128072739697,395.8728301694414 L431.0140826825413,387.571568080896 M431.0687727894,385.691245877182 L431.0140826825413,387.571568080896 M432.0036878492315,385.4579935267021 L431.0687727894,385.691245877182 M432.0036878492315,385.4579935267021 L431.9470904447979,387.33252989898875 M433.05008091274107,387.571568080896 L437.46977667605535,386.4308846206187 M392.76149894780406,397.96968631041034 L398.5516026708447,396.4753129634972 M398.53099462578876,394.3819864473407 L398.5516026708447,396.4753129634972 M399.70561967544603,394.08676241068196 L398.53099462578876,394.3819864473407 M399.70561967544603,394.08676241068196 L399.72319619380556,396.17293528291054 M399.72319619380556,396.17293528291054 L432.1176472008973,387.81222077960285 M432.17501259849183,385.9260772206312 L432.1176472008973,387.81222077960285 M433.109349726261,385.691245877182 L432.17501259849183,385.9260772206312 M433.109349726261,385.691245877182 L433.05008091274107,387.571568080896 M431.9470904447979,387.33252989898875 L433.05008091274107,387.571568080896 M397.4414446149769,396.17293528291054 L398.5516026708447,396.4753129634972 M432.0036878492315,385.4579935267021 L433.109349726261,385.691245877182 M432.17501259849183,385.9260772206312 L431.0687727894,385.691245877182 M431.0140826825413,387.571568080896 L432.1176472008973,387.81222077960285 M398.6128072739697,395.8728301694414 L399.72319619380556,396.17293528291054 M398.5925082169544,393.7937627493499 L399.70561967544603,394.08676241068196 M398.53099462578876,394.3819864473407 L397.41811578171735,394.08676241068196" stroke="black"  stroke-width="4"  fill="red"/>
<path d="M372.79055412180594,384.36487096921263 L373.76869563873936,384.61273789312224 M366.1518006408088,385.708027041555 L367.12466028051307,385.96579327087835 M372.79055412180594,384.36487096921263 L366.1518006408088,385.708027041555 M373.76869563873936,384.61273789312224 L367.12466028051307,385.96579327087835 M373.1155189242279,392.4095032848699 L374.0854236823636,392.6840046315121 M366.1518006408088,385.708027041555 L366.40986932936084,387.5089857766278 M366.40986932936084,387.5089857766278 L366.9905844011057,389.1390098058921 M366.9905844011057,389.1390098058921 L367.86034393278135,390.51490937023453 M367.86034393278135,390.51490937023453 L368.9708042121401,391.56894879957315 M368.9708042121401,391.56894879957315 L370.26228687218577,392.2519350338665 M370.26228687218577,392.2519350338665 L371.6675273762756,392.53490690214284 M371.6675273762756,392.53490690214284 L373.1155189242279,392.4095032848699 M367.12466028051307,385.96579327087835 L367.3810645674344,387.77272918389957 M367.3810645674344,387.77272918389957 L367.96048853688035,389.4078373721087 M367.96048853688035,389.4078373721087 L368.82937719985273,390.7876669811955 M368.82937719985273,390.7876669811955 L369.939409237067,391.84429876092855 M369.939409237067,391.84429876092855 L371.23090745185016,392.5284394520105 M371.23090745185016,392.5284394520105 L372.6365911569187,392.81110963292275 M372.6365911569187,392.81110963292275 L374.0854236823636,392.6840046315121 M373.1155189242279,392.4095032848699 L372.79055412180594,384.36487096921263 M374.0854236823636,392.6840046315121 L373.76869563873936,384.61273789312224" stroke="black"  stroke-width="4"  fill="red"/>
<path d="M417.7965442795162,382.2912265011065 L418.77676018773644,382.49748435754555 M422.6906352252674,374.26906049269195 L423.6779202470693,374.44874250253065 M417.7965442795162,382.2912265011065 L418.8726603243466,381.8733558979388 M418.8726603243466,381.8733558979388 L419.8933698507406,381.13039170170896 M419.8933698507406,381.13039170170896 L420.8101600803244,380.1007450521145 M420.8101600803244,380.1007450521145 L421.57997713895264,378.835312823565 M421.57997713895264,378.835312823565 L422.1668374349491,377.3950856895643 M422.1668374349491,377.3950856895643 L422.5431212334503,375.8485720551878 M422.5431212334503,375.8485720551878 L422.6906352252674,374.26906049269195 M418.77676018773644,382.49748435754555 L419.85280880076704,382.0775924308383 M419.85280880076704,382.0775924308383 L420.87385729881817,381.33173043836865 M420.87385729881817,381.33173043836865 L421.79138145739006,380.2984595964186 M421.79138145739006,380.2984595964186 L422.56229895864766,379.02885186405086 M422.56229895864766,379.02885186405086 L423.1505806405034,377.5840906451153 M423.1505806405034,377.5840906451153 L423.52854460831963,376.03288826436915 M423.52854460831963,376.03288826436915 L423.6779202470693,374.44874250253065 M417.8895721773227,375.2404140766146 L418.87832133699425,375.4261790702499 M422.6906352252674,374.26906049269195 L417.8895721773227,375.2404140766146 M423.6779202470693,374.44874250253065 L418.87832133699425,375.4261790702499 M417.8895721773227,375.2404140766146 L417.7965442795162,382.2912265011065 M418.87832133699425,375.4261790702499 L418.77676018773644,382.49748435754555" stroke="black"  stroke-width="4"  fill="red"/>
<path d="M417.8895721773227,375.2404140766146 L418.87832133699425,375.4261790702499 M372.79055412180594,384.36487096921263 L373.76869563873936,384.61273789312224 M417.8895721773227,375.2404140766146 L372.79055412180594,384.36487096921263 M418.87832133699425,375.4261790702499 L373.76869563873936,384.61273789312224 M417.7965442795162,382.2912265011065 L418.77676018773644,382.49748435754555 M417.7965442795162,382.2912265011065 L417.8895721773227,375.2404140766146 M418.77676018773644,382.49748435754555 L418.87832133699425,375.4261790702499 M373.1155189242279,392.4095032848699 L374.0854236823636,392.6840046315121 M372.79055412180594,384.36487096921263 L373.1155189242279,392.4095032848699 M373.76869563873936,384.61273789312224 L374.0854236823636,392.6840046315121 M413.34090986317585,383.3002307017332 L417.7965442795162,382.2912265011065 M413.38323164097227,377.9483881359031 L413.34090986317585,383.3002307017332 M412.4384445995916,378.14527573958844 L413.38323164097227,377.9483881359031 M412.4384445995916,378.14527573958844 L412.40198608074627,383.5128554262989 M380.01636915174134,390.8467658120824 L412.40198608074627,383.5128554262989 M379.8271947462634,384.9412525635543 L380.01636915174134,390.8467658120824 M378.65544466855033,385.18543781887064 L379.8271947462634,384.9412525635543 M378.65544466855033,385.18543781887064 L378.8535666976063,391.11008915755673 M373.1155189242279,392.4095032848699 L378.8535666976063,391.11008915755673 M414.3220210922431,383.5128554262989 L418.77676018773644,382.49748435754555 M414.33819385622695,381.73125022311064 L414.3220210922431,383.5128554262989 M414.33819385622695,381.73125022311064 L413.3974589407351,381.9399992329284 M413.3974589407351,381.9399992329284 L413.38323164097227,383.7268342089027 M380.99066552999625,391.11008915755673 L413.38323164097227,383.7268342089027 M380.92998195815767,389.1445300309054 L380.99066552999625,391.11008915755673 M380.92998195815767,389.1445300309054 L379.76353902166875,389.40336363428406 M379.76353902166875,389.40336363428406 L379.8271947462634,391.37527967664624 M374.0854236823636,392.6840046315121 L379.8271947462634,391.37527967664624 M413.34090986317585,383.3002307017332 L414.3220210922431,383.5128554262989 M378.8535666976063,391.11008915755673 L379.8271947462634,391.37527967664624 M413.547380418909,377.9811156181085 L413.38323164097227,377.9483881359031 M413.547380418909,377.9811156181085 L413.51839699159206,381.558304452288 M413.51839699159206,381.558304452288 L414.33819385622695,381.73125022311064 M412.6026147406106,378.1782126957803 L412.4384445995916,378.14527573958844 M413.547380418909,377.9811156181085 L412.6026147406106,378.1782126957803 M412.57754798136335,381.76594945591296 L412.6026147406106,378.1782126957803 M413.3974589407351,381.9399992329284 L412.57754798136335,381.76594945591296 M412.40198608074627,383.5128554262989 L413.38323164097227,383.7268342089027 M380.01636915174134,390.8467658120824 L380.99066552999625,391.11008915755673 M379.9901376876615,384.98182979409705 L379.8271947462634,384.9412525635543 M379.9901376876615,384.98182979409705 L380.115857942574,388.93023158035174 M380.115857942574,388.93023158035174 L380.92998195815767,389.1445300309054 M378.8182724443455,385.22630439789367 L378.65544466855033,385.18543781887064 M379.9901376876615,384.98182979409705 L378.8182724443455,385.22630439789367 M378.9499745359609,389.1875415860599 L378.8182724443455,385.22630439789367 M379.76353902166875,389.40336363428406 L378.9499745359609,389.1875415860599 M413.51839699159206,381.558304452288 L412.57754798136335,381.76594945591296 M380.115857942574,388.93023158035174 L378.9499745359609,389.1875415860599" stroke="black"  stroke-width="4"  fill="red"/>
<path d="M407.24967683229346,426.9267359055388 L406.14277889586674,426.5226624593958 M401.2285235911927,429.13283337404124 L400.12206414311186,428.7125122190578 M407.24967683229346,426.9267359055388 L401.2285235911927,429.13283337404124 M406.14277889586674,426.5226624593958 L400.12206414311186,428.7125122190578 M407.27630803707814,388.65769462994234 L406.11634653927297,388.3807718946083 M407.27630803707814,388.65769462994234 L407.24967683229346,426.9267359055388 M406.11634653927297,388.3807718946083 L406.14277889586674,426.5226624593958 M400.960460912663,390.1713095808369 L399.8010049927261,389.8827012595464 M401.2285235911927,429.13283337404124 L400.960460912663,390.1713095808369 M400.12206414311186,428.7125122190578 L399.8010049927261,389.8827012595464 M400.960460912663,390.1713095808369 L407.27630803707814,388.65769462994234 M403.59174684263274,398.553539394136 L403.57037125120024,392.87030402202737 M404.7497251256834,392.5748374409338 L403.57037125120024,392.87030402202737 M404.7629822994926,398.2383020922053 L404.7497251256834,392.5748374409338 M403.59174684263274,398.553539394136 L404.7629822994926,398.2383020922053 M399.8010049927261,389.8827012595464 L406.11634653927297,388.3807718946083 M402.4077830191079,391.14680901273607 L402.45153232655247,399.64212907651887 M402.45153232655247,399.64212907651887 L403.6206652283389,399.3244778730147 M403.6206652283389,399.3244778730147 L403.589090903098,390.8586119177855 M403.589090903098,390.8586119177855 L402.4077830191079,391.14680901273607 M402.45153232655247,399.64212907651887 L402.7370878633457,399.72192208550643 M402.7370878633457,399.72192208550643 L402.7303384157474,398.316884640347 M402.7303384157474,398.316884640347 L403.59174684263274,398.553539394136 M403.57037125120024,392.87030402202737 L402.70310886949,392.6484900718896 M402.70310886949,392.6484900718896 L402.69624295101727,391.2192067995682 M402.69624295101727,391.2192067995682 L402.4077830191079,391.14680901273607 M404.7497251256834,392.5748374409338 L403.8823963507214,392.3547298403332 M403.8823963507214,392.3547298403332 L402.70310886949,392.6484900718896 M403.6206652283389,399.3244778730147 L403.9062464351683,399.4036634194526 M403.9062464351683,399.4036634194526 L403.90150882812617,398.0034554898445 M403.90150882812617,398.0034554898445 L404.7629822994926,398.2383020922053 M403.8823963507214,392.3547298403332 L403.8775773060863,390.93045288973593 M403.8775773060863,390.93045288973593 L403.589090903098,390.8586119177855 M403.90150882812617,398.0034554898445 L402.7303384157474,398.316884640347 M403.8775773060863,390.93045288973593 L402.69624295101727,391.2192067995682 M403.9062464351683,399.4036634194526 L402.7370878633457,399.72192208550643" stroke="black"  stroke-width="4"  fill="red"/>
<path d="M438.95087576698114,415.3116960754741 L437.85614311274895,414.98790191013785 M434.1379049852188,417.07512614151926 L433.03975839465113,416.7397136717796 M438.95087576698114,415.3116960754741 L434.1379049852188,417.07512614151926 M437.85614311274895,414.98790191013785 L433.03975839465113,416.7397136717796 M440.3305019696461,380.73614093484184 L439.1844009117291,380.5164495080356 M440.3305019696461,380.73614093484184 L438.95087576698114,415.3116960754741 M439.1844009117291,380.5164495080356 L437.85614311274895,414.98790191013785 M435.3334912400784,381.93369211064777 L434.1835156991073,381.70577177923224 M434.1379049852188,417.07512614151926 L435.3334912400784,381.93369211064777 M433.03975839465113,416.7397136717796 L434.1835156991073,381.70577177923224 M435.3334912400784,381.93369211064777 L440.3305019696461,380.73614093484184 M437.0907751178636,389.5372965635981 L437.27703671043065,384.4256858130376 M438.2109654299823,384.19170623174193 L437.27703671043065,384.4256858130376 M438.01967101989993,389.2872848036079 L438.2109654299823,384.19170623174193 M437.0907751178636,389.5372965635981 L438.01967101989993,389.2872848036079 M434.1835156991073,381.70577177923224 L439.1844009117291,380.5164495080356 M436.1780157394108,382.9080737112136 L435.90999027949505,390.5515291798704 M435.90999027949505,390.5515291798704 L436.8383393393445,390.29929849191126 M436.8383393393445,390.29929849191126 L437.1139336176592,382.67974304714284 M437.1139336176592,382.67974304714284 L436.1780157394108,382.9080737112136 M435.90999027949505,390.5515291798704 L436.1929077860722,390.61485579274154 M436.1929077860722,390.61485579274154 L436.2377073406607,389.3496275557193 M436.2377073406607,389.3496275557193 L437.0907751178636,389.5372965635981 M437.27703671043065,384.4256858130376 L436.4182745957876,384.2500502950368 M436.4182745957876,384.2500502950368 L436.4637617787254,382.96540207019837 M436.4637617787254,382.96540207019837 L436.1780157394108,382.9080737112136 M438.2109654299823,384.19170623174193 L437.3527457499741,384.0172737524163 M437.3527457499741,384.0172737524163 L436.4182745957876,384.2500502950368 M436.8383393393445,390.29929849191126 L437.12108400293516,390.3621953480756 M437.12108400293516,390.3621953480756 L437.16713585556505,389.10089348013105 M437.16713585556505,389.10089348013105 L438.01967101989993,389.2872848036079 M437.3527457499741,384.0172737524163 L437.399502019331,382.73667880323944 M437.399502019331,382.73667880323944 L437.1139336176592,382.67974304714284 M437.16713585556505,389.10089348013105 L436.2377073406607,389.3496275557193 M437.399502019331,382.73667880323944 L436.4637617787254,382.96540207019837 M437.12108400293516,390.3621953480756 L436.1929077860722,390.61485579274154" stroke="black"  stroke-width="4"  fill="red"/>
<path d="M380.26268567421494,417.07512614151926 L379.343874071645,416.7397136717796 M374.2980928193526,418.90251740009876 L373.38288787357277,418.5548498913402 M380.26268567421494,417.07512614151926 L374.2980928193526,418.90251740009876 M379.343874071645,416.7397136717796 L373.38288787357277,418.5548498913402 M379.11110872935024,381.93369211064777 L378.1564062969548,381.70577177923224 M379.11110872935024,381.93369211064777 L380.26268567421494,417.07512614151926 M378.1564062969548,381.70577177923224 L379.343874071645,416.7397136717796 M372.8599252107706,383.1766077583398 L371.909325770575,382.9399873711935 M374.2980928193526,418.90251740009876 L372.8599252107706,383.1766077583398 M373.38288787357277,418.5548498913402 L371.909325770575,382.9399873711935 M372.8599252107706,383.1766077583398 L379.11110872935024,381.93369211064777 M375.78188337125454,392.1898080230333 L376.939425663583,391.92634212720304 M376.6613341730681,384.1528670511633 L376.939425663583,391.92634212720304 M376.6613341730681,384.1528670511633 L375.4919576335999,384.3914646022556 M375.78188337125454,392.1898080230333 L375.4919576335999,384.3914646022556 M371.909325770575,382.9399873711935 L378.1564062969548,381.70577177923224 M374.7897801882227,390.6407745377684 L374.5913015642028,385.4585194754466 M375.757928787151,385.21740285166373 L374.5913015642028,385.4585194754466 M375.94853203749994,390.38318412532476 L375.757928787151,385.21740285166373 M374.7897801882227,390.6407745377684 L375.94853203749994,390.38318412532476 M376.7029095673748,391.8607612840952 L376.939425663583,391.92634212720304 M375.54555132892574,392.12376957394787 L375.78188337125454,392.1898080230333 M376.7029095673748,391.8607612840952 L375.54555132892574,392.12376957394787 M375.4919576335999,384.3914646022556 L375.25366575286955,384.33165801258207 M375.25366575286955,384.33165801258207 L375.3026925837166,385.64046724057357 M375.3026925837166,385.64046724057357 L374.5913015642028,385.4585194754466 M374.7897801882227,390.6407745377684 L375.4972806403894,390.8351461506843 M375.4972806403894,390.8351461506843 L375.54555132892574,392.12376957394787 M376.6613341730681,384.1528670511633 L376.4228530226997,384.09347874912595 M376.4228530226997,384.09347874912595 L375.25366575286955,384.33165801258207 M376.4228530226997,384.09347874912595 L376.46989170705564,385.39808226014253 M376.46989170705564,385.39808226014253 L375.757928787151,385.21740285166373 M375.94853203749994,390.38318412532476 L376.6565938528224,390.57620911926466 M376.6565938528224,390.57620911926466 L376.7029095673748,391.8607612840952 M376.46989170705564,385.39808226014253 L375.3026925837166,385.64046724057357 M376.6565938528224,390.57620911926466 L375.4972806403894,390.8351461506843" stroke="black"  stroke-width="4"  fill="red"/>
<path d="M412.0188559304018,407.3458873914155 L411.0929622552104,407.0720315156546 M407.1589905359696,408.83481978894173 L406.2328576733949,408.5519463425264 M412.0188559304018,407.3458873914155 L407.1589905359696,408.83481978894173 M411.0929622552104,407.0720315156546 L406.2328576733949,408.5519463425264 M412.22751705328113,375.3491946344763 L411.26479399940945,375.16465418766023 M412.22751705328113,375.3491946344763 L412.0188559304018,407.3458873914155 M411.26479399940945,375.16465418766023 L411.0929622552104,407.0720315156546 M407.1774774634461,376.3532882127586 L406.21448585318507,376.1624273125556 M407.1589905359696,408.83481978894173 L407.1774774634461,376.3532882127586 M406.2328576733949,408.5519463425264 L406.21448585318507,376.1624273125556 M407.1774774634461,376.3532882127586 L412.22751705328113,375.3491946344763 M409.22360677595464,384.578203960425 L410.1608894534106,384.36487091687343 M410.1900127668958,377.3117339055577 L410.1608894534106,384.36487091687343 M410.1900127668958,377.3117339055577 L409.2449209308738,377.50456879664813 M409.22360677595464,384.578203960425 L409.2449209308738,377.50456879664813 M406.21448585318507,376.1624273125556 L411.26479399940945,375.16465418766023 M408.2727126205839,383.19752223102677 L408.28153778232974,378.49547605285744 M409.2253693388359,378.30040647634826 L408.28153778232974,378.49547605285744 M409.21133728618594,382.9888660680243 L409.2253693388359,378.30040647634826 M408.2727126205839,383.19752223102677 L409.21133728618594,382.9888660680243 M409.92207249578536,384.31174582640267 L410.1608894534106,384.36487091687343 M408.98477573441943,384.52474540605033 L409.22360677595464,384.578203960425 M409.92207249578536,384.31174582640267 L408.98477573441943,384.52474540605033 M409.2449209308738,377.50456879664813 L409.0040613197692,377.45624586526674 M409.0040613197692,377.45624586526674 L409.0008245280793,378.64258582636353 M409.0008245280793,378.64258582636353 L408.28153778232974,378.49547605285744 M408.2727126205839,383.19752223102677 L408.9879675952598,383.35487337599426 M408.9879675952598,383.35487337599426 L408.98477573441943,384.52474540605033 M410.1900127668958,377.3117339055577 L409.9491675981489,377.26371493110344 M409.9491675981489,377.26371493110344 L409.0040613197692,377.45624586526674 M409.9491675981489,377.26371493110344 L409.94462019753666,378.44659365133697 M409.94462019753666,378.44659365133697 L409.2253693388359,378.30040647634826 M409.21133728618594,382.9888660680243 L409.9265569691813,383.14523585647083 M409.9265569691813,383.14523585647083 L409.92207249578536,384.31174582640267 M409.94462019753666,378.44659365133697 L409.0008245280793,378.64258582636353 M409.9265569691813,383.14523585647083 L408.9879675952598,383.35487337599426" stroke="black"  stroke-width="4"  fill="red"/>
<path d="M376.6565938528224,390.57620911926466 L375.4972806403894,390.8351461506843 M376.7029095673748,391.8607612840952 L375.54555132892574,392.12376957394787 M376.6565938528224,390.57620911926466 L376.7029095673748,391.8607612840952 M375.4972806403894,390.8351461506843 L375.54555132892574,392.12376957394787 M376.9408534273624,390.6537012272495 L375.7813184566502,390.91317986544254 M376.9408534273624,390.6537012272495 L376.6565938528224,390.57620911926466 M375.7813184566502,390.91317986544254 L375.4972806403894,390.8351461506843 M403.9062464351683,399.4036634194526 L402.7370878633457,399.72192208550643 M376.7029095673748,391.8607612840952 L403.9062464351683,399.4036634194526 M375.54555132892574,392.12376957394787 L402.7370878633457,399.72192208550643 M376.7557238962055,385.4706197328339 L376.9408534273624,390.6537012272495 M376.46989170705564,385.39808226014253 L376.7557238962055,385.4706197328339 M376.4228530226997,384.09347874912595 L376.46989170705564,385.39808226014253 M379.9901376876615,384.98182979409705 L376.4228530226997,384.09347874912595 M379.9901376876615,384.98182979409705 L380.115857942574,388.93023158035174 M380.115857942574,388.93023158035174 L381.0933836995536,389.1875415860599 M381.0933836995536,389.1875415860599 L380.97185601853255,385.22630439789367 M398.5516026708447,389.6041401401037 L380.97185601853255,385.22630439789367 M398.5516026708447,389.6041401401037 L398.5925082169544,393.7937627493499 M398.5925082169544,393.7937627493499 L399.70561967544603,394.08676241068196 M399.70561967544603,394.08676241068196 L399.670199428144,389.8827012002872 M403.8775773060863,390.93045288973593 L399.670199428144,389.8827012002872 M403.8823963507214,392.3547298403332 L403.8775773060863,390.93045288973593 M403.53686445750645,392.26704198984095 L403.8823963507214,392.3547298403332 M403.55830016856106,397.9098932499396 L403.53686445750645,392.26704198984095 M403.90150882812617,398.0034554898445 L403.55830016856106,397.9098932499396 M403.9062464351683,399.4036634194526 L403.90150882812617,398.0034554898445 M375.5882988442891,385.713514860507 L375.7813184566502,390.91317986544254 M375.3026925837166,385.64046724057357 L375.5882988442891,385.713514860507 M375.25366575286955,384.33165801258207 L375.3026925837166,385.64046724057357 M378.8182724443455,385.22630439789367 L375.25366575286955,384.33165801258207 M378.9499745359609,389.1875415860599 L378.8182724443455,385.22630439789367 M379.92683051070105,389.4466815325449 L378.9499745359609,389.1875415860599 M379.79931140951055,385.472525942092 L379.92683051070105,389.4466815325449 M397.3711034538821,389.8827012002872 L379.79931140951055,385.472525942092 M397.41811578171735,394.08676241068196 L397.3711034538821,389.8827012002872 M398.53099462578876,394.3819864473407 L397.41811578171735,394.08676241068196 M398.4894640424079,390.16338777936824 L398.53099462578876,394.3819864473407 M402.69624295101727,391.2192067995682 L398.4894640424079,390.16338777936824 M402.70310886949,392.6484900718896 L402.69624295101727,391.2192067995682 M402.3576088288587,392.56012381687674 L402.70310886949,392.6484900718896 M402.38716096295207,398.22260349209904 L402.3576088288587,392.56012381687674 M402.7303384157474,398.316884640347 L402.38716096295207,398.22260349209904 M402.7370878633457,399.72192208550643 L402.7303384157474,398.316884640347 M376.7557238962055,385.4706197328339 L375.5882988442891,385.713514860507 M403.90150882812617,398.0034554898445 L402.7303384157474,398.316884640347 M376.46989170705564,385.39808226014253 L375.3026925837166,385.64046724057357 M376.4228530226997,384.09347874912595 L375.25366575286955,384.33165801258207 M379.9901376876615,384.98182979409705 L378.8182724443455,385.22630439789367 M380.115857942574,388.93023158035174 L378.9499745359609,389.1875415860599 M381.0933836995536,389.1875415860599 L379.92683051070105,389.4466815325449 M379.79931140951055,385.472525942092 L380.97185601853255,385.22630439789367 M398.5516026708447,389.6041401401037 L397.3711034538821,389.8827012002872 M398.5925082169544,393.7937627493499 L397.41811578171735,394.08676241068196 M399.70561967544603,394.08676241068196 L398.53099462578876,394.3819864473407 M398.4894640424079,390.16338777936824 L399.670199428144,389.8827012002872 M403.8775773060863,390.93045288973593 L402.69624295101727,391.2192067995682 M403.8823963507214,392.3547298403332 L402.70310886949,392.6484900718896 M403.53686445750645,392.26704198984095 L402.3576088288587,392.56012381687674 M403.55830016856106,397.9098932499396 L402.38716096295207,398.22260349209904" stroke="black"  stroke-width="4"  fill="red"/>
<path d="M403.55830016856106,397.9098932499396 L402.38716096295207,398.22260349209904 M404.82059059455725,398.2540067108771 L403.6493514659087,398.5693651134034 M403.55830016856106,397.9098932499396 L404.82059059455725,398.2540067108771 M402.38716096295207,398.22260349209904 L403.6493514659087,398.5693651134034 M404.8077261925288,392.5895567446444 L403.6283685699926,392.8851376117806 M404.82059059455725,398.2540067108771 L404.8077261925288,392.5895567446444 M403.6493514659087,398.5693651134034 L403.6283685699926,392.8851376117806 M403.53686445750645,392.26704198984095 L402.3576088288587,392.56012381687674 M404.8077261925288,392.5895567446444 L403.53686445750645,392.26704198984095 M403.6283685699926,392.8851376117806 L402.3576088288587,392.56012381687674 M403.53686445750645,392.26704198984095 L403.55830016856106,397.9098932499396 M402.3576088288587,392.56012381687674 L402.38716096295207,398.22260349209904" stroke="black"  stroke-width="4"  fill="red"/>
<path d="M375.9014582851429,390.3703513322454 L374.74274421131634,390.62785234292255 M376.9408534273624,390.6537012272495 L375.7813184566502,390.91317986544254 M375.9014582851429,390.3703513322454 L376.9408534273624,390.6537012272495 M374.74274421131634,390.62785234292255 L375.7813184566502,390.91317986544254 M376.7557238962055,385.4706197328339 L375.5882988442891,385.713514860507 M376.9408534273624,390.6537012272495 L376.7557238962055,385.4706197328339 M375.7813184566502,390.91317986544254 L375.5882988442891,385.713514860507 M375.7105964949066,385.2053910314894 L374.5440077554899,385.44642345151095 M376.7557238962055,385.4706197328339 L375.7105964949066,385.2053910314894 M375.5882988442891,385.713514860507 L374.5440077554899,385.44642345151095 M375.7105964949066,385.2053910314894 L375.9014582851429,390.3703513322454 M374.5440077554899,385.44642345151095 L374.74274421131634,390.62785234292255" stroke="black"  stroke-width="4"  fill="red"/>
<path d="M409.9265569691813,383.14523585647083 L408.9879675952598,383.35487337599426 M409.92207249578536,384.31174582640267 L408.98477573441943,384.52474540605033 M409.9265569691813,383.14523585647083 L409.92207249578536,384.31174582640267 M408.9879675952598,383.35487337599426 L408.98477573441943,384.52474540605033 M410.2135855080107,383.2079894312982 L409.275013249173,383.4180214335408 M410.2135855080107,383.2079894312982 L409.9265569691813,383.14523585647083 M409.275013249173,383.4180214335408 L408.9879675952598,383.35487337599426 M437.12108400293516,390.3621953480756 L436.1929077860722,390.61485579274154 M409.92207249578536,384.31174582640267 L437.12108400293516,390.3621953480756 M408.98477573441943,384.52474540605033 L436.1929077860722,390.61485579274154 M410.2332717987296,378.50526186371934 L410.2135855080107,383.2079894312982 M409.94462019753666,378.44659365133697 L410.2332717987296,378.50526186371934 M409.9491675981489,377.26371493110344 L409.94462019753666,378.44659365133697 M413.547380418909,377.9811156181085 L409.9491675981489,377.26371493110344 M413.547380418909,377.9811156181085 L413.51839699159206,381.558304452288 M413.51839699159206,381.558304452288 L414.5026750234812,381.76594945591296 M414.5026750234812,381.76594945591296 L414.5359454491065,378.1782126957803 M432.1176472008973,381.6835987148289 L414.5359454491065,378.1782126957803 M432.1176472008973,381.6835987148289 L432.0036878492315,385.4579935267021 M432.0036878492315,385.4579935267021 L433.109349726261,385.691245877182 M433.109349726261,385.691245877182 L433.22869069565235,381.9051151748424 M437.399502019331,382.73667880323944 L433.22869069565235,381.9051151748424 M437.3527457499741,384.0172737524163 L437.399502019331,382.73667880323944 M437.0106910434903,383.9477514006144 L437.3527457499741,384.0172737524163 M436.82733937490843,389.02660315359446 L437.0106910434903,383.9477514006144 M437.16713585556505,389.10089348013105 L436.82733937490843,389.02660315359446 M437.12108400293516,390.3621953480756 L437.16713585556505,389.10089348013105 M409.28949353355677,378.7016249123261 L409.275013249173,383.4180214335408 M409.0008245280793,378.64258582636353 L409.28949353355677,378.7016249123261 M409.0040613197692,377.45624586526674 L409.0008245280793,378.64258582636353 M412.6026147406106,378.1782126957803 L409.0040613197692,377.45624586526674 M412.57754798136335,381.76594945591296 L412.6026147406106,378.1782126957803 M413.56196466568065,381.9749203233435 L412.57754798136335,381.76594945591296 M413.5913202033579,378.37657366636284 L413.56196466568065,381.9749203233435 M431.17889428468555,381.9051151748424 L413.5913202033579,378.37657366636284 M431.0687727894,385.691245877182 L431.17889428468555,381.9051151748424 M432.17501259849183,385.9260772206312 L431.0687727894,385.691245877182 M432.29052358042514,382.12813798025724 L432.17501259849183,385.9260772206312 M436.4637617787254,382.96540207019837 L432.29052358042514,382.12813798025724 M436.4182745957876,384.2500502950368 L436.4637617787254,382.96540207019837 M436.0760079348821,384.18004932357155 L436.4182745957876,384.2500502950368 M435.89770273655006,389.27482889559764 L436.0760079348821,384.18004932357155 M436.2377073406607,389.3496275557193 L435.89770273655006,389.27482889559764 M436.1929077860722,390.61485579274154 L436.2377073406607,389.3496275557193 M410.2332717987296,378.50526186371934 L409.28949353355677,378.7016249123261 M437.16713585556505,389.10089348013105 L436.2377073406607,389.3496275557193 M409.94462019753666,378.44659365133697 L409.0008245280793,378.64258582636353 M409.9491675981489,377.26371493110344 L409.0040613197692,377.45624586526674 M413.547380418909,377.9811156181085 L412.6026147406106,378.1782126957803 M413.51839699159206,381.558304452288 L412.57754798136335,381.76594945591296 M414.5026750234812,381.76594945591296 L413.56196466568065,381.9749203233435 M413.5913202033579,378.37657366636284 L414.5359454491065,378.1782126957803 M432.1176472008973,381.6835987148289 L431.17889428468555,381.9051151748424 M432.0036878492315,385.4579935267021 L431.0687727894,385.691245877182 M433.109349726261,385.691245877182 L432.17501259849183,385.9260772206312 M432.29052358042514,382.12813798025724 L433.22869069565235,381.9051151748424 M437.399502019331,382.73667880323944 L436.4637617787254,382.96540207019837 M437.3527457499741,384.0172737524163 L436.4182745957876,384.2500502950368 M437.0106910434903,383.9477514006144 L436.0760079348821,384.18004932357155 M436.82733937490843,389.02660315359446 L435.89770273655006,389.27482889559764" stroke="black"  stroke-width="4"  fill="red"/>
<path d="M436.82733937490843,389.02660315359446 L435.89770273655006,389.27482889559764 M438.0766625454776,389.29974496516354 L437.1478027807021,389.5498422547994 M436.82733937490843,389.02660315359446 L438.0766625454776,389.29974496516354 M435.89770273655006,389.27482889559764 L437.1478027807021,389.5498422547994 M438.2683379171303,384.2033671449223 L437.3344460021545,384.43742726101027 M438.0766625454776,389.29974496516354 L438.2683379171303,384.2033671449223 M437.1478027807021,389.5498422547994 L437.3344460021545,384.43742726101027 M437.0106910434903,383.9477514006144 L436.0760079348821,384.18004932357155 M438.2683379171303,384.2033671449223 L437.0106910434903,383.9477514006144 M437.3344460021545,384.43742726101027 L436.0760079348821,384.18004932357155 M437.0106910434903,383.9477514006144 L436.82733937490843,389.02660315359446 M436.0760079348821,384.18004932357155 L435.89770273655006,389.27482889559764" stroke="black"  stroke-width="4"  fill="red"/>
<path d="M409.1637744683636,382.9784673221038 L408.22514782811777,383.1870583058257 M410.2135855080107,383.2079894312982 L409.275013249173,383.4180214335408 M409.1637744683636,382.9784673221038 L410.2135855080107,383.2079894312982 M408.22514782811777,383.1870583058257 L409.275013249173,383.4180214335408 M410.2332717987296,378.50526186371934 L409.28949353355677,378.7016249123261 M410.2135855080107,383.2079894312982 L410.2332717987296,378.50526186371934 M409.275013249173,383.4180214335408 L409.28949353355677,378.7016249123261 M409.177539111,378.2906850199164 L408.2337055465826,378.4856933209933 M410.2332717987296,378.50526186371934 L409.177539111,378.2906850199164 M409.28949353355677,378.7016249123261 L408.2337055465826,378.4856933209933 M409.177539111,378.2906850199164 L409.1637744683636,382.9784673221038 M408.2337055465826,378.4856933209933 L408.22514782811777,383.1870583058257" stroke="black"  stroke-width="4"  fill="red"/></svg>