<svg viewBox="0 0 1000 1000" xmlns="http://www.w3.org/2000/svg"><path d="M453.83473934163726,485.7475783669006 L453.8303525820141,483.3294261994922 M490.13587535057104,498.7565253521991 L493.3421118136041,497.09957936805375 M493.3421118136041,497.09957936805375 L495.72408572321217,495.21032727064846 M495.72408572321217,495.21032727064846 L497.19085818425447,493.16174625438344 M497.19085818425447,493.16174625438344 L497.68694430470526,491.0328125670089 M497.68694430470526,491.0328125670089 L497.19432686101396,488.90542580974443 M497.19432686101396,488.90542580974443 L495.7329804745198,486.8612511683192 M495.7329804745198,486.8612511683192 L493.35994474686106,484.9785933950734 M493.35994474686106,484.9785933950734 L490.1670061108308,483.3294261994922 M490.1670061108308,483.3294261994922 L486.2770726013787,481.9766845417641 M486.2770726013787,481.9766845417641 L481.83942561639867,480.9719117450462 M481.83942561639867,480.9719117450462 L477.02401153913706,480.35334809693137 M477.02401153913706,480.35334809693137 L472.01500282402094,480.1445141171385 M472.01500282402094,480.1445141171385 L467.0038542391532,480.35334771618403 M467.0038542391532,480.35334771618403 L462.18209921811837,480.97191212587427 M462.18209921811837,480.97191212587427 L457.7341529199854,481.97668387508594 M457.7341529199854,481.97668387508594 L453.8303525820141,483.3294261994922 M490.13695621823905,501.17964812334765 L490.13587535057104,498.7565253521991 M453.83473934163726,485.7475783669006 L457.7381829706659,484.3943998356331 M457.7381829706659,484.3943998356331 L462.1857233719704,483.38930404961894 M462.1857233719704,483.38930404961894 L467.0070387981529,482.7705401385333 M467.0070387981529,482.7705401385333 L472.0177308224781,482.56163918310506 M472.0177308224781,482.56163918310506 L477.0262833669481,482.77054051940354 M477.0262833669481,482.77054051940354 L481.8412590045528,483.3893036686681 M481.8412590045528,483.3893036686681 L486.27850196935896,484.3944005025262 M486.27850196935896,484.3944005025262 L490.168081297013,485.7475783669006 M490.168081297013,485.7475783669006 L493.3607291629103,487.39727727765387 M493.3607291629103,487.39727727765387 L495.73354874370085,489.28054194310107 M495.73354874370085,489.28054194310107 L497.1947620206297,491.32537541801855 M497.1947620206297,491.32537541801855 L497.68733466822005,493.45344768949366 M497.68733466822005,493.45344768949366 L497.1912939769985,495.58306724825235 M497.1912939769985,495.58306724825235 L495.72465561563604,497.63230811550494 M495.72465561563604,497.63230811550494 L493.3428994843754,499.52216862780824 M493.3428994843754,499.52216862780824 L490.13695621823905,501.17964812334765 M490.13695621823905,501.17964812334765 L546.2560343062594,477.36427013613445 M490.13587535057104,498.7565253521991 L546.2600654250128,474.9488213067304 M546.2560343062594,477.36427013613445 L546.2600654250128,474.9488213067304 M509.9545016229959,459.6466178085341 L506.77342937332,461.2824490968627 M506.77342937332,461.2824490968627 L504.4087976227458,463.1498781072834 M504.4087976227458,463.1498781072834 L502.95205662855756,465.17751227197255 M502.95205662855756,465.17751227197255 L502.46006769971814,467.2876791409734 M502.46006769971814,467.2876791409734 L502.9527728040679,469.39937419105246 M502.9527728040679,469.39937419105246 L504.4122709146641,471.4313613289999 M504.4122709146641,471.4313613289999 L506.7833574701455,473.30530531324985 M506.7833574701455,473.30530531324985 L509.9754991593575,474.9488213067304 M509.9754991593575,474.9488213067304 L513.8662325002074,476.29831157571 M513.8662325002074,476.29831157571 L518.3058319981117,477.3014778032842 M518.3058319981117,477.3014778032842 L523.123098502298,477.9193954664788 M523.123098502298,477.9193954664788 L528.1320246876961,478.1280708047005 M528.1320246876961,478.1280708047005 L533.1390821276568,477.9193958469091 M533.1390821276568,477.9193958469091 L537.9508123347626,477.30147742293445 M537.9508123347626,477.30147742293445 L542.3814232011084,476.29831224109336 M542.3814232011084,476.29831224109336 L546.2600654250128,474.9488213067304 M509.95377640747205,462.05712494364496 L509.9545016229959,459.6466178085341 M546.2560343062594,477.36427013613445 L542.3777442090807,478.71419652475686 M542.3777442090807,478.71419652475686 L537.9475360821644,479.7176853715268 M537.9475360821644,479.7176853715268 L533.1362436440444,480.33580314737 M533.1362436440444,480.33580314737 L528.1296420194082,480.54454542485774 M528.1296420194082,480.54454542485774 L523.1211719897112,480.33580276681704 M523.1211719897112,480.33580276681704 L518.3043442625888,479.7176857519993 M518.3043442625888,479.7176857519993 L513.8651491405225,478.7141958591587 M513.8651491405225,478.7141958591587 L509.97477012724255,477.36427013613445 M509.97477012724255,477.36427013613445 L506.7829190631806,475.7202237355693 M506.7829190631806,475.7202237355693 L504.41204829981655,473.84567487610246 M504.41204829981655,473.84567487610246 L502.95268296251356,471.8130317257055 M502.95268296251356,471.8130317257055 L502.4600226706125,469.7006547936047 M502.4600226706125,469.7006547936047 L502.9519669170963,467.5898063971243 M502.9519669170963,467.5898063971243 L504.40857563929774,465.56151722998436 M504.40857563929774,465.56151722998436 L506.77299277077935,463.6934848560085 M506.77299277077935,463.6934848560085 L509.95377640747205,462.05712494364496 M509.95377640747205,462.05712494364496 L453.83473934163726,485.7475783669006 M509.9545016229959,459.6466178085341 L453.8303525820141,483.3294261994922" stroke="black"  stroke-width="4"  fill="red"/>
<path d="M546.1399513851757,462.05712494364496 L542.2532249836378,460.7148860015456 M542.2532249836378,460.7148860015456 L537.8243645044738,459.7179127147682 M537.8243645044738,459.7179127147682 L533.022983546415,459.10414857119304 M533.022983546415,459.10414857119304 L528.0327131333563,458.89693559665386 M528.0327131333563,458.89693559665386 L523.044301908948,459.10414781560786 M523.044301908948,459.10414781560786 L518.2484145668896,459.71791158115155 M518.2484145668896,459.71791158115155 L513.8284818356391,460.71488496204114 M513.8284818356391,460.71488496204114 L509.95377640747205,462.05712494364496 M509.95377640747205,462.05712494364496 L506.77299277077935,463.6934848560085 M506.77299277077935,463.6934848560085 L504.40857563929774,465.56151722998436 M504.40857563929774,465.56151722998436 L502.9519669170963,467.5898063971243 M502.9519669170963,467.5898063971243 L502.4600226706125,469.7006547936047 M502.4600226706125,469.7006547936047 L502.95268296251356,471.8130317257055 M502.95268296251356,471.8130317257055 L504.41204829981655,473.84567487610246 M504.41204829981655,473.84567487610246 L506.7829190631806,475.7202237355693 M506.7829190631806,475.7202237355693 L509.97477012724255,477.36427013613445 M509.97477012724255,477.36427013613445 L513.8651491405225,478.7141958591587 M513.8651491405225,478.7141958591587 L518.3043442625888,479.7176857519993 M518.3043442625888,479.7176857519993 L523.1211719897112,480.33580276681704 M523.1211719897112,480.33580276681704 L528.1296420194082,480.54454542485774 M528.1296420194082,480.54454542485774 L533.1362436440444,480.33580314737 M533.1362436440444,480.33580314737 L537.9475360821644,479.7176853715268 M537.9475360821644,479.7176853715268 L542.3777442090807,478.71419652475686 M542.3777442090807,478.71419652475686 L546.2560343062594,477.36427013613445 M546.2560343062594,477.36427013613445 L549.4331643837625,475.7202238305573 M549.4331643837625,475.7202238305573 L551.7872477424177,473.84567449639445 M551.7872477424177,473.84567449639445 L553.228412402164,471.8130313462618 M553.228412402164,471.8130313462618 L553.7021526147391,469.7006551727738 M553.7021526147391,469.7006551727738 L553.1913064556726,467.5898063971243 M553.1913064556726,467.5898063971243 L551.7165333636455,465.56151836587753 M551.7165333636455,465.56151836587753 L549.3353862865905,463.6934853289941 M549.3353862865905,463.6934853289941 L546.1399513851757,462.05712494364496 M546.1399513851757,462.05712494364496 L546.143961400425,459.6466178085341 M546.143961400425,459.6466178085341 L549.4298005823167,461.3394355447331 M549.4298005823167,461.3394355447331 L551.8443642332953,463.2766644548862 M551.8443642332953,463.2766644548862 L553.2881507122281,465.37939313454274 M553.2881507122281,465.37939313454274 L553.7010627127422,467.5617995627411 M553.7010627127422,467.5617995627411 L553.0650604189944,469.73460832975496 M553.0650604189944,469.73460832975496 L551.405051978084,471.80874350332596 M551.405051978084,471.80874350332596 L548.7880745872742,473.69899249697806 M548.7880745872742,473.69899249697806 L545.3207001582111,475.32754009407955 M545.3207001582111,475.32754009407955 L541.1447627626595,476.6272248451728 M541.1447627626595,476.6272248451728 L536.4315689845349,477.54436745922976 M536.4315689845349,477.54436745922976 L531.3748292854301,478.0410481748098 M531.3748292854301,478.0410481748098 L526.1826135778674,478.09671519486267 M526.1826135778674,478.09671519486267 L521.0686527516946,477.70906506855164 M521.0686527516946,477.70906506855164 L516.2434044999966,476.8941390888865 M516.2434044999966,476.8941390888865 L511.90526001349133,475.6856392026492 M511.90526001349133,475.6856392026492 L508.2322813940093,474.13349341205884 M508.2322813940093,474.13349341205884 L505.37484010303075,472.301737721771 M505.37484010303075,472.301737721771 L503.4494609750307,470.26581447711277 M503.4494609750307,470.26581447711277 L502.53412594572717,468.1094117580877 M502.53412594572717,468.1094117580877 L502.66521982595157,465.92098136025857 M502.66521982595157,465.92098136025857 L503.8362188549624,463.7900907794224 M503.8362188549624,463.7900907794224 L505.998140746644,461.803763154026 M505.998140746644,461.803763154026 L509.0617265479194,460.04294562447785 M509.0617265479194,460.04294562447785 L512.9012047502342,458.5792594099734 M512.9012047502342,458.5792594099734 L517.3595035993993,457.4721431884285 M517.3595035993993,457.4721431884285 L522.2546607943891,456.766496638592 M522.2546607943891,456.766496638592 L527.3871849823879,456.4909099430993 M527.3871849823879,456.4909099430993 L532.5480686998859,456.65654139767526 M532.5480686998859,456.65654139767526 L537.5271594699929,457.2566879304441 M537.5271594699929,457.2566879304441 L542.1216039896234,458.2670335255546 M542.1216039896234,458.2670335255546 L546.143961400425,459.6466178085341 M546.2595614950409,475.2507764549761 L546.2560343062594,477.36427013613445 M509.95441096385525,459.94795513290694 L509.95377640747205,462.05712494364496" stroke="black"  stroke-width="4"  fill="red"/>
<path d="M490.168081297013,485.7475783669006 L486.14304893676217,484.3563024811307 M486.14304893676217,484.3563024811307 L481.5401013263111,483.3373948234055 M481.5401013263111,483.3373948234055 L476.5470189575045,482.73216429485393 M476.5470189575045,482.73216429485393 L471.3672314925014,482.5651280872813 M471.3672314925014,482.5651280872813 L466.2116481530277,482.8430495738793 M466.2116481530277,482.8430495738793 L461.2902121343896,483.5546756528158 M461.2902121343896,483.5546756528158 L456.8034839884589,484.67117357613193 M456.8034839884589,484.67117357613193 L452.93458131074266,486.1472648946343 M452.93458131074266,486.1472648946343 L449.8417695019221,487.9230113795767 M449.8417695019221,487.9230113795767 L447.65201834366593,489.92618495889445 M447.65201834366593,489.92618495889445 L446.45573292703614,492.0751516019495 M446.45573292703614,492.0751516019495 L446.3029280293399,494.28215461477913 M446.3029280293399,494.28215461477913 L447.20103148962335,496.4568638373157 M447.20103148962335,496.4568638373157 L449.11437429137766,498.5100759021083 M449.11437429137766,498.5100759021083 L451.9654737324136,500.3573922128805 M451.9654737324136,500.3573922128805 L455.63807447225196,501.92272697668056 M455.63807447225196,501.92272697668056 L459.98182530148597,503.14149808783463 M459.98182530148597,503.14149808783463 L464.8184335147904,503.9633521505049 M464.8184335147904,503.9633521505049 L469.9490429344087,504.3542978356481 M469.9490429344087,504.3542978356481 L475.1625072039648,504.29815678933295 M475.1625072039648,504.29815678933295 L480.24420973601855,503.7972548314143 M480.24420973601855,503.7972548314143 L484.985057108833,502.8723155096682 M484.985057108833,502.8723155096682 L489.19019264793263,501.56158433214233 M489.19019264793263,501.56158433214233 L492.6871035615529,499.9192002117519 M492.6871035615529,499.9192002117519 L495.3327481417031,498.0128949086337 M495.3327481417031,498.0128949086337 L497.0193812309654,495.9211463414536 M497.0193812309654,495.9211463414536 L497.6788765732977,493.729893408898 M497.6788765732977,493.729893408898 L497.2853702399687,491.5289694173402 M497.2853702399687,491.5289694173402 L495.85612623724967,489.40840320216887 M495.85612623724967,489.40840320216887 L493.45064796256315,487.45474755405064 M493.45064796256315,487.45474755405064 L490.168081297013,485.7475783669006 M490.168081297013,485.7475783669006 L490.1670061108308,483.3294261994922 M490.1670061108308,483.3294261994922 L493.44987173677737,485.0360451497289 M493.44987173677737,485.0360451497289 L495.85556913487324,486.9890712274121 M495.85556913487324,486.9890712274121 L497.2849433317961,489.1089542193909 M497.2849433317961,489.1089542193909 L497.67848541939634,491.309169245531 M497.67848541939634,491.309169245531 L497.018929716964,493.49971647785867 M497.018929716964,493.49971647785867 L495.33214241726006,495.5907915300853 M495.33214241726006,495.5907915300853 L492.6862559205977,497.49648314722157 M492.6862559205977,497.49648314722157 L489.18902518451495,499.1383386350648 M489.18902518451495,499.1383386350648 L484.9835049884574,500.44864798914693 M484.9835049884574,500.44864798914693 L480.24222393653406,501.3732896763566 M480.24222393653406,501.3732896763566 L475.1600565980483,501.87403046107454 M475.1600565980483,501.87403046107454 L469.94611561619575,501.930153443599 M469.94611561619575,501.930153443599 L464.81503730982143,501.5393335501171 M464.81503730982143,501.5393335501171 L459.97798743239804,500.7177439447929 M459.97798743239804,500.7177439447929 L455.63384039789713,499.49936505025033 M455.63384039789713,499.49936505025033 L451.96090521573433,497.9345340997053 M451.96090521573433,497.9345340997053 L449.1095467859067,496.0878124580073 M449.1095467859067,496.0878124580073 L447.1960309658569,494.0352614668941 M447.1960309658569,494.0352614668941 L446.29784738526087,491.86125257977017 M446.29784738526087,491.86125257977017 L446.4506681398253,489.65496045277695 M446.4506681398253,489.65496045277695 L447.6470645278958,487.50668614760247 M447.6470645278958,487.50668614760247 L449.83701703909804,485.5041580652265 M449.83701703909804,485.5041580652265 L452.9301122015254,483.72898389630456 M452.9301122015254,483.72898389630456 L456.79936857029736,482.25336839093177 M456.79936857029736,482.25336839093177 L461.28650628796447,481.13723041210307 M461.28650628796447,481.13723041210307 L466.2083910952836,480.42583377247536 M466.2083910952836,480.42583377247536 L471.3644442354373,480.1480018963687 M471.3644442354373,480.1480018963687 L476.54470348495954,480.3149842460081 M476.54470348495954,480.3149842460081 L481.53824051697256,480.92001963573614 M481.53824051697256,480.92001963573614 L486.14160723527397,481.9385988023663 M486.14160723527397,481.9385988023663 L490.1670061108308,483.3294261994922" stroke="black"  stroke-width="4"  fill="red"/>
<path d="M483.6003904446012,498.60198366136103 L485.017344948742,499.20435157662905 M476.0197941480476,501.8160437949122 L477.4367462353388,502.41907250316484 M483.6003904446012,498.60198366136103 L476.0197941480476,501.8160437949122 M485.017344948742,499.20435157662905 L477.4367462353388,502.41907250316484 M483.60709726976575,508.2867325474306 L485.02353492186427,508.8898753263487 M476.0197941480476,501.8160437949122 L476.2120519205187,503.89198531568684 M476.2120519205187,503.89198531568684 L476.77487378829363,505.70213510478294 M476.77487378829363,505.70213510478294 L477.6798863239141,507.1557245092588 M477.6798863239141,507.1557245092588 L478.8815367620674,508.1799642718333 M478.8815367620674,508.1799642718333 L480.3194406959922,508.72366698558284 M480.3194406959922,508.72366698558284 L481.92140863948623,508.75978916040026 M481.92140863948623,508.75978916040026 L483.60709726976575,508.2867325474306 M477.4367462353388,502.41907250316484 L477.6288890364862,504.49517011045384 M477.6288890364862,504.49517011045384 L478.19160185421487,506.3054349230037 M478.19160185421487,506.3054349230037 L479.09651671656576,507.7590925284308 M479.09651671656576,507.7590925284308 L480.2980857377597,508.7833502768378 M480.2980857377597,508.7833502768378 L481.73592857328845,509.3270198980258 M481.73592857328845,509.3270198980258 L483.3378587823423,509.3630596057684 M483.3378587823423,509.3630596057684 L485.02353492186427,508.8898753263487 M483.60709726976575,508.2867325474306 L483.6003904446012,498.60198366136103 M485.02353492186427,508.8898753263487 L485.017344948742,499.20435157662905" stroke="black"  stroke-width="4"  fill="red"/>
<path d="M543.9320913935592,482.6675608852827 L545.3485178279103,483.2654513572982 M551.4537054210759,469.8331868459545 L552.870643512464,470.42965618989115 M543.9320913935592,482.6675608852827 L545.6029108291464,481.71627439598325 M545.6029108291464,481.71627439598325 L547.1904265562312,480.32914409863673 M547.1904265562312,480.32914409863673 L548.6151877527561,478.575726634531 M548.6151877527561,478.575726634531 L549.805907681377,476.54384808272494 M549.805907681377,476.54384808272494 L550.7030213324856,474.335218482892 M550.7030213324856,474.335218482892 L551.2616175058059,472.0603798062151 M551.2616175058059,472.0603798062151 L551.4537054210759,469.8331868459545 M545.3485178279103,483.2654513572982 L547.0193491370165,482.314000469472 M547.0193491370165,482.314000469472 L548.6069020126145,480.92667549987715 M548.6069020126145,480.92667549987715 L550.0317237820274,479.1730428431082 M550.0317237820274,479.1730428431082 L551.222524688493,477.1409393428781 M551.222524688493,477.1409393428781 L552.1197356817601,474.93208627941505 M552.1197356817601,474.93208627941505 L552.6784406982811,472.6570367869321 M552.6784406982811,472.6570367869321 L552.870643512464,470.42965618989115 M543.9473570624443,473.01576695762634 L545.364300336586,473.61288740968763 M551.4537054210759,469.8331868459545 L543.9473570624443,473.01576695762634 M552.870643512464,470.42965618989115 L545.364300336586,473.61288740968763 M543.9473570624443,473.01576695762634 L543.9320913935592,482.6675608852827 M545.364300336586,473.61288740968763 L545.3485178279103,483.2654513572982" stroke="black"  stroke-width="4"  fill="red"/>
<path d="M543.9473570624443,473.01576695762634 L545.364300336586,473.61288740968763 M485.017344948742,499.20435157662905 L545.364300336586,473.61288740968763 M483.6003904446012,498.60198366136103 L485.017344948742,499.20435157662905 M543.9473570624443,473.01576695762634 L483.6003904446012,498.60198366136103 M543.9320913935592,482.6675608852827 L545.3485178279103,483.2654513572982 M543.9320913935592,482.6675608852827 L543.9473570624443,473.01576695762634 M545.3485178279103,483.2654513572982 L545.364300336586,473.61288740968763 M493.3022791793149,505.3732882911786 L537.1320506277614,486.75558478000175 M537.138450014477,481.9279344306431 L537.1320506277614,486.75558478000175 M538.5479396502047,481.3297151075883 L537.138450014477,481.9279344306431 M538.5479396502047,481.3297151075883 L538.5412845076257,486.156980277031 M538.5412845076257,486.156980277031 L545.3485178279103,483.2654513572982 M485.017344948742,499.20435157662905 L485.02353492186427,508.8898753263487 M485.02353492186427,508.8898753263487 L491.88377018216863,505.97583261354345 M491.8819297502677,501.13582658537456 L491.88377018216863,505.97583261354345 M493.30069788290865,500.5336692580935 L491.8819297502677,501.13582658537456 M493.30069788290865,500.5336692580935 L493.3022791793149,505.3732882911786 M483.60709726976575,508.2867325474306 L485.02353492186427,508.8898753263487 M483.6003904446012,498.60198366136103 L483.60709726976575,508.2867325474306 M537.1248541004911,485.55849827017835 L543.9320913935592,482.6675608852827 M483.60709726976575,508.2867325474306 L490.46733108045026,505.3732882911786 M490.4652322688745,500.5336692580935 L490.46733108045026,505.3732882911786 M491.88400018891565,499.93163558131255 L490.4652322688745,500.5336692580935 M491.88400018891565,499.93163558131255 L491.8858398651131,504.77086767620165 M491.8858398651131,504.77086767620165 L535.7156194842165,486.156980277031 M535.7217604956049,481.3297151075883 L535.7156194842165,486.156980277031 M537.1312508681449,480.7316182241017 L535.7217604956049,481.3297151075883 M537.1312508681449,480.7316182241017 L537.1248541004911,485.55849827017835 M537.1248541004911,485.55849827017835 L538.5412845076257,486.156980277031 M535.7156194842165,486.156980277031 L537.1320506277614,486.75558478000175 M491.8858398651131,504.77086767620165 L493.3022791793149,505.3732882911786 M491.88400018891565,499.93163558131255 L493.30069788290865,500.5336692580935 M491.8819297502677,501.13582658537456 L490.4652322688745,500.5336692580935 M490.46733108045026,505.3732882911786 L491.88377018216863,505.97583261354345 M537.138450014477,481.9279344306431 L535.7217604956049,481.3297151075883 M537.1312508681449,480.7316182241017 L538.5479396502047,481.3297151075883" stroke="black"  stroke-width="4"  fill="red"/>
<path d="M458.22333378459524,487.813828733836 L459.6350771370856,488.4139813129398 M450.64280781201705,491.0160658515396 L452.05454590692887,491.6168755806767 M458.22333378459524,487.813828733836 L450.64280781201705,491.0160658515396 M459.6350771370856,488.4139813129398 L452.05454590692887,491.6168755806767 M458.2392792083438,497.4846924731726 L459.6505095069512,498.08561787411384 M450.64280781201705,491.0160658515396 L450.8371199792749,493.08920993472634 M450.8371199792749,493.08920993472634 L451.40188907527585,494.89729722989676 M451.40188907527585,494.89729722989676 L452.30864425908453,496.3496623578349 M452.30864425908453,496.3496623578349 L453.51174570840726,497.3735769641247 M453.51174570840726,497.3735769641247 L454.9507366209066,497.91786925590407 M454.9507366209066,497.91786925590407 L456.5533733327619,497.9554653832555 M456.5533733327619,497.9554653832555 L458.2392792083438,497.4846924731726 M452.05454590692887,491.6168755806767 L452.2487440202877,493.69017538648535 M452.2487440202877,493.69017538648535 L452.81340507981815,495.4983775426541 M452.81340507981815,495.4983775426541 L453.72006364922476,496.9508109185797 M453.72006364922476,496.9508109185797 L454.923084732665,497.97474376468506 M454.923084732665,497.97474376468506 L456.36201553742177,498.5190034118659 M456.36201553742177,498.5190034118659 L457.96461539549745,498.55651769138115 M457.96461539549745,498.55651769138115 L459.6505095069512,498.08561787411384 M458.2392792083438,497.4846924731726 L458.22333378459524,487.813828733836 M459.6505095069512,498.08561787411384 L459.6350771370856,488.4139813129398" stroke="black"  stroke-width="4"  fill="red"/>
<path d="M518.5642592202881,471.95949671459755 L519.9755010027873,472.55519868330083 M526.0767006805917,459.1505709570634 L527.4884531875147,459.7448573953513 M518.5642592202881,471.95949671459755 L520.2348604973935,471.01115223668285 M520.2348604973935,471.01115223668285 L521.821706568596,469.6275066409757 M521.821706568596,469.6275066409757 L523.2453799725662,467.87794198065865 M523.2453799725662,467.87794198065865 L524.434648196319,465.8500916040797 M524.434648196319,465.8500916040797 L525.3300186678725,463.6454642643681 M525.3300186678725,463.6454642643681 L525.8866672775862,461.37440200078066 M525.8866672775862,461.37440200078066 L526.0767006805917,459.1505709570634 M519.9755010027873,472.55519868330083 L521.6461146903092,471.60669065352675 M521.6461146903092,471.60669065352675 L523.2329982309722,470.2228512908095 M523.2329982309722,470.2228512908095 L524.6567322967724,468.47307235633644 M524.6567322967724,468.47307235633644 L525.8460813508283,466.4449979172289 M525.8460813508283,466.4449979172289 L526.7415487878492,464.24014792298124 M526.7415487878492,464.24014792298124 L527.2983056537047,461.9688755355396 M527.2983056537047,461.9688755355396 L527.4884531875147,459.7448573953513 M518.570286274847,462.3215011692801 L519.9820411237919,462.91643514369224 M526.0767006805917,459.1505709570634 L518.570286274847,462.3215011692801 M527.4884531875147,459.7448573953513 L519.9820411237919,462.91643514369224 M518.570286274847,462.3215011692801 L518.5642592202881,471.95949671459755 M519.9820411237919,462.91643514369224 L519.9755010027873,472.55519868330083" stroke="black"  stroke-width="4"  fill="red"/>
<path d="M518.570286274847,462.3215011692801 L511.76053223684966,465.19814155304647 M511.9958049123577,465.2973867222475 L511.76053223684966,465.19814155304647 M511.9958049123577,465.2973867222475 L510.58605054793156,465.8929287234401 M510.58605054793156,465.8929287234401 L510.35077784037907,465.7936632716652 M510.35077784037907,465.7936632716652 L466.50504384041875,484.31539083721094 M466.7403150956462,484.4152881457117 L466.50504384041875,484.31539083721094 M466.7403150956462,484.4152881457117 L465.3212966904724,485.0147436835496 M465.3212966904724,485.0147436835496 L465.0860255615221,484.91482589222164 M465.0860255615221,484.91482589222164 L458.22333378459524,487.813828733836 M458.22333378459524,487.813828733836 L459.6350771370856,488.4139813129398 M519.9820411237919,462.91643514369224 L459.6350771370856,488.4139813129398 M518.570286274847,462.3215011692801 L519.9820411237919,462.91643514369224 M511.756975039051,474.83985011506155 L518.5642592202881,471.95949671459755 M511.76053223684966,465.19814155304647 L511.756975039051,474.83985011506155 M518.5642592202881,471.95949671459755 L518.570286274847,462.3215011692801 M511.9958049123577,465.2973867222475 L511.99398323431086,470.1191805302651 M511.99398323431086,470.1191805302651 L513.1702529859676,470.615777440973 M513.1702529859676,470.615777440973 L513.1682182226965,475.4361403729174 M511.756975039051,474.83985011506155 L513.1682182226965,475.4361403729174 M511.99398323431086,470.1191805302651 L510.5844847234392,470.7151069697097 M510.5844847234392,470.7151069697097 L510.58605054793156,465.8929287234401 M511.7607546475241,471.2118053558713 L510.5844847234392,470.7151069697097 M511.7607546475241,471.2118053558713 L511.75897564486155,476.0325524545694 M510.3477322568723,475.4361403729174 L511.75897564486155,476.0325524545694 M510.35077784037907,465.7936632716652 L510.3477322568723,475.4361403729174 M466.5179625280154,493.98174871229565 L510.3477322568723,475.4361403729174 M466.50504384041875,484.31539083721094 L466.5179625280154,493.98174871229565 M466.7403150956462,484.4152881457117 L466.7467328609168,489.2494120287028 M466.7467328609168,489.2494120287028 L467.92299590840923,489.74927164613996 M467.92299590840923,489.74927164613996 L467.9291975924277,494.5819559268628 M466.5179625280154,493.98174871229565 L467.9291975924277,494.5819559268628 M466.7467328609168,489.2494120287028 L465.3279736810342,489.84925381638516 M465.3279736810342,489.84925381638516 L465.3212966904724,485.0147436835496 M466.50423610977816,490.3492159110287 L465.3279736810342,489.84925381638516 M466.50423610977816,490.3492159110287 L466.5106969247337,495.182286167625 M465.09946260487084,494.5819559268628 L466.5106969247337,495.182286167625 M465.0860255615221,484.91482589222164 L465.09946260487084,494.5819559268628 M458.2392792083438,497.4846924731726 L465.09946260487084,494.5819559268628 M458.22333378459524,487.813828733836 L458.2392792083438,497.4846924731726 M458.2392792083438,497.4846924731726 L459.6505095069512,498.08561787411384 M459.6350771370856,488.4139813129398 L459.6505095069512,498.08561787411384 M513.1682182226965,475.4361403729174 L519.9755010027873,472.55519868330083 M513.1702529859676,470.615777440973 L511.7607546475241,471.2118053558713 M467.9291975924277,494.5819559268628 L511.75897564486155,476.0325524545694 M467.92299590840923,489.74927164613996 L466.50423610977816,490.3492159110287 M459.6505095069512,498.08561787411384 L466.5106969247337,495.182286167625 M519.9755010027873,472.55519868330083 L519.9820411237919,462.91643514369224 M518.5642592202881,471.95949671459755 L519.9755010027873,472.55519868330083" stroke="black"  stroke-width="4"  fill="red"/>
<path d="M502.67262700697177,540.2783044876792 L501.2566873836983,539.6729256260362 M495.11681617473107,543.5090900569007 L493.7008769755055,542.9030484246473 M502.67262700697177,540.2783044876792 L495.11681617473107,543.5090900569007 M501.2566873836983,539.6729256260362 L493.7008769755055,542.9030484246473 M502.67383928393366,494.94411266941415 L501.25547535557035,494.3423542646313 M502.67383928393366,494.94411266941415 L502.67262700697177,540.2783044876792 M501.25547535557035,494.3423542646313 L501.2566873836983,539.6729256260362 M495.10508465613765,498.1555801597734 L493.6867211540049,497.5531618191616 M495.11681617473107,543.5090900569007 L495.10508465613765,498.1555801597734 M493.7008769755055,542.9030484246473 L493.6867211540049,497.5531618191616 M495.10508465613765,498.1555801597734 L502.67383928393366,494.94411266941415 M498.1823458752946,507.0415920339651 L498.18142465051193,500.5847764497101 M499.600366176649,499.9823274485092 L498.18142465051193,500.5847764497101 M499.60094182384705,506.438626486518 L499.600366176649,499.9823274485092 M498.1823458752946,507.0415920339651 L499.60094182384705,506.438626486518 M493.6867211540049,497.5531618191616 L501.25547535557035,494.3423542646313 M496.76294381512355,498.36776302946043 L496.76484345068565,508.0522106106089 M496.76484345068565,508.0522106106089 L498.1833529513203,507.4492398931975 M498.1833529513203,507.4492398931975 L498.1819716819954,497.765567017421 M498.1819716819954,497.765567017421 L496.76294381512355,498.36776302946043 M496.76484345068565,508.0522106106089 L497.1192493118878,508.2029726442333 M497.1192493118878,508.2029726442333 L497.1189543672293,506.58935626020957 M497.1189543672293,506.58935626020957 L498.1823458752946,507.0415920339651 M498.18142465051193,500.5847764497101 L497.11777422985614,500.1329280927621 M497.11777422985614,500.1329280927621 L497.1174791060065,498.518331368937 M497.1174791060065,498.518331368937 L496.76294381512355,498.36776302946043 M499.600366176649,499.9823274485092 L498.536715698901,499.53057193159395 M498.536715698901,499.53057193159395 L497.11777422985614,500.1329280927621 M498.1833529513203,507.4492398931975 L498.5377588352727,507.5999709611801 M498.5377588352727,507.5999709611801 L498.53755025873124,505.9864836097748 M498.53755025873124,505.9864836097748 L499.60094182384705,506.438626486518 M498.536715698901,499.53057193159395 L498.5365069956535,497.91610441974285 M498.5365069956535,497.91610441974285 L498.1819716819954,497.765567017421 M498.53755025873124,505.9864836097748 L497.1189543672293,506.58935626020957 M498.5365069956535,497.91610441974285 L497.1174791060065,498.518331368937 M498.5377588352727,507.5999709611801 L497.1192493118878,508.2029726442333" stroke="black"  stroke-width="4"  fill="red"/>
<path d="M547.8344788006796,520.9675697043465 L546.4185543270102,520.3661447302036 M540.3280328992673,524.1772473462142 L538.9121038080358,523.5751660857015 M547.8344788006796,520.9675697043465 L540.3280328992673,524.1772473462142 M546.4185543270102,520.3661447302036 L538.9121038080358,523.5751660857015 M547.9127616881404,475.74896951251327 L546.4944129871593,475.1511480452003 M547.9127616881404,475.74896951251327 L547.8344788006796,520.9675697043465 M546.4944129871593,475.1511480452003 L546.4185543270102,520.3661447302036 M540.3935408343224,478.9394195287137 L538.9751874920923,478.3409445930633 M540.3280328992673,524.1772473462142 L540.3935408343224,478.9394195287137 M538.9121038080358,523.5751660857015 L538.9751874920923,478.3409445930633 M540.3935408343224,478.9394195287137 L547.9127616881404,475.74896951251327 M543.4333256619614,487.80793933149886 L543.44339282992,481.3676156155335 M544.853049383898,480.7691087938379 L543.44339282992,481.3676156155335 M544.8426411488354,487.20891838763134 L544.853049383898,480.7691087938379 M543.4333256619614,487.80793933149886 L544.8426411488354,487.20891838763134 M538.9751874920923,478.3409445930633 L546.4944129871593,475.1511480452003 M542.0276721413271,479.15866959271045 L542.0130891760898,488.81838300885977 M542.0130891760898,488.81838300885977 L543.4223202910405,488.219356286797 M543.4223202910405,488.219356286797 L543.437414857832,478.56041394058394 M543.437414857832,478.56041394058394 L542.0276721413271,479.15866959271045 M542.0130891760898,488.81838300885977 L542.3674920759008,488.9681588540604 M542.3674920759008,488.9681588540604 L542.3699433984916,487.3586621242006 M542.3699433984916,487.3586621242006 L543.4333256619614,487.80793933149886 M543.44339282992,481.3676156155335 L542.3797516606004,480.91872400694473 M542.3797516606004,480.91872400694473 L542.3822044675798,479.30825265272773 M542.3822044675798,479.30825265272773 L542.0276721413271,479.15866959271045 M544.853049383898,480.7691087938379 L543.7894088697998,480.3203091155484 M543.7894088697998,480.3203091155484 L542.3797516606004,480.91872400694473 M543.4223202910405,488.219356286797 L543.7767229763799,488.36910146967887 M543.7767229763799,488.36910146967887 L543.7792595401102,486.7597331672737 M543.7792595401102,486.7597331672737 L544.8426411488354,487.20891838763134 M543.7894088697998,480.3203091155484 L543.7919469693785,478.7099663666006 M543.7919469693785,478.7099663666006 L543.437414857832,478.56041394058394 M543.7792595401102,486.7597331672737 L542.3699433984916,487.3586621242006 M543.7919469693785,478.7099663666006 L542.3822044675798,479.30825265272773 M543.7767229763799,488.36910146967887 L542.3674920759008,488.9681588540604" stroke="black"  stroke-width="4"  fill="red"/>
<path d="M465.01335902176424,524.1772473462142 L463.60513226129115,523.5751660857015 M457.45761356718435,527.3904285846278 L456.0493914320569,526.7876899629307 M465.01335902176424,524.1772473462142 L457.45761356718435,527.3904285846278 M463.60513226129115,523.5751660857015 L456.0493914320569,526.7876899629307 M464.9502624217418,478.9394195287137 L463.5396377358056,478.3409445930633 M464.9502624217418,478.9394195287137 L465.01335902176424,524.1772473462142 M463.5396377358056,478.3409445930633 L463.60513226129115,523.5751660857015 M457.38157350751385,482.1333581031318 L455.97095347066346,481.5342286271157 M457.45761356718435,527.3904285846278 L457.38157350751385,482.1333581031318 M456.0493914320569,526.7876899629307 L455.97095347066346,481.5342286271157 M457.38157350751385,482.1333581031318 L464.9502624217418,478.9394195287137 M460.47577690244503,492.6150689883309 L461.89427417855416,492.0152647612947 M461.87967527274697,482.3514370584629 L461.89427417855416,492.0152647612947 M461.87967527274697,482.3514370584629 L460.4606596437805,482.95046949776616 M460.47577690244503,492.6150689883309 L460.4606596437805,482.95046949776616 M455.97095347066346,481.5342286271157 L463.5396377358056,478.3409445930633 M459.0631750029556,490.40511490023783 L459.052755390701,483.9625624485086 M460.4716837299852,483.3635240589516 L459.052755390701,483.9625624485086 M460.481757774268,489.80556206109287 L460.4716837299852,483.3635240589516 M459.0631750029556,490.40511490023783 L460.481757774268,489.80556206109287 M461.541747434919,491.8653329035955 L461.89427417855416,492.0152647612947 M460.1232503736833,492.4651064109559 L460.47577690244503,492.6150689883309 M461.541747434919,491.8653329035955 L460.1232503736833,492.4651064109559 M460.4606596437805,482.95046949776616 L460.10800505577504,482.8006998779561 M460.10800505577504,482.8006998779561 L460.1105467111201,484.4119218064738 M460.1105467111201,484.4119218064738 L459.052755390701,483.9625624485086 M459.0631750029556,490.40511490023783 L460.12071025741733,490.8548601450023 M460.12071025741733,490.8548601450023 L460.1232503736833,492.4651064109559 M461.87967527274697,482.3514370584629 L461.5270204696332,482.2016981299784 M461.5270204696332,482.2016981299784 L460.10800505577504,482.8006998779561 M461.5270204696332,482.2016981299784 L461.5294757066506,483.81279134289906 M461.5294757066506,483.81279134289906 L460.4716837299852,483.3635240589516 M460.481757774268,489.80556206109287 L461.53929368449815,490.25521517514477 M461.53929368449815,490.25521517514477 L461.541747434919,491.8653329035955 M461.5294757066506,483.81279134289906 L460.1105467111201,484.4119218064738 M461.53929368449815,490.25521517514477 L460.12071025741733,490.8548601450023" stroke="black"  stroke-width="4"  fill="red"/>
<path d="M510.1752903867262,504.971535424771 L508.76705356780724,504.37337584199986 M502.66877541904705,508.1637807439137 L501.26053818386396,507.56497021384524 M510.1752903867262,504.971535424771 L502.66877541904705,508.1637807439137 M508.76705356780724,504.37337584199986 L501.26053818386396,507.56497021384524 M510.1892648050631,459.84884830591415 L508.7786300091117,459.2542781815328 M510.1892648050631,459.84884830591415 L510.1752903867262,504.971535424771 M508.7786300091117,459.2542781815328 L508.76705356780724,504.37337584199986 M502.66997453102374,463.0219409684167 L501.2593393166791,462.42672270087 M502.66877541904705,508.1637807439137 L502.66997453102374,463.0219409684167 M501.26053818386396,507.56497021384524 L501.2593393166791,462.42672270087 M502.66997453102374,463.0219409684167 L510.1892648050631,459.84884830591415 M505.7240102207757,473.4820878629125 L507.13325346617205,472.88619665483805 M507.1351304094579,463.2470064031979 L507.13325346617205,472.88619665483805 M507.1351304094579,463.2470064031979 L505.72537554926464,463.8421294416499 M505.7240102207757,473.4820878629125 L505.72537554926464,463.8421294416499 M501.2593393166791,462.42672270087 L508.7786300091117,459.2542781815328 M504.31414148502813,471.2801501981237 L504.3147102557782,464.8540227147416 M505.7243798995611,464.25889313008247 L504.3147102557782,464.8540227147416 M505.7234700521884,470.6845085755011 L505.7243798995611,464.25889313008247 M504.31414148502813,471.2801501981237 L505.7234700521884,470.6845085755011 M506.7807237731474,472.73724286431377 L507.13325346617205,472.88619665483805 M505.37148050540225,473.3331036528326 L505.7240102207757,473.4820878629125 M506.7807237731474,472.73724286431377 L505.37148050540225,473.3331036528326 M505.72537554926464,463.8421294416499 L505.3727177711664,463.69333728454416 M505.3727177711664,463.69333728454416 L505.3725114979984,465.3004496817337 M505.3725114979984,465.3004496817337 L504.3147102557782,464.8540227147416 M504.31414148502813,471.2801501981237 L505.3716866540722,471.7269612429023 M505.3716866540722,471.7269612429023 L505.37148050540225,473.3331036528326 M507.1351304094579,463.2470064031979 L506.78247265373284,463.0982446374661 M506.78247265373284,463.0982446374661 L505.3727177711664,463.69333728454416 M506.78247265373284,463.0982446374661 L506.7821810857138,464.70522892281235 M506.7821810857138,464.70522892281235 L505.7243798995611,464.25889313008247 M505.7234700521884,470.6845085755011 L506.7810151652059,471.1312283896593 M506.7810151652059,471.1312283896593 L506.7807237731474,472.73724286431377 M506.7821810857138,464.70522892281235 L505.3725114979984,465.3004496817337 M506.7810151652059,471.1312283896593 L505.3716866540722,471.7269612429023" stroke="black"  stroke-width="4"  fill="red"/>
<path d="M461.53929368449815,490.25521517514477 L460.12071025741733,490.8548601450023 M461.541747434919,491.8653329035955 L460.1232503736833,492.4651064109559 M461.53929368449815,490.25521517514477 L461.541747434919,491.8653329035955 M460.12071025741733,490.8548601450023 L460.1232503736833,492.4651064109559 M461.9623542651584,490.4350960715627 L460.5437705804029,491.034777899714 M461.9623542651584,490.4350960715627 L461.53929368449815,490.25521517514477 M460.5437705804029,491.034777899714 L460.12071025741733,490.8548601450023 M498.5377588352727,507.5999709611801 L497.1192493118878,508.2029726442333 M461.541747434919,491.8653329035955 L498.5377588352727,507.5999709611801 M460.1232503736833,492.4651064109559 L497.1192493118878,508.2029726442333 M461.95263873612896,483.9925178951083 L461.9623542651584,490.4350960715627 M461.5294757066506,483.81279134289906 L461.95263873612896,483.9925178951083 M461.5270204696332,482.2016981299784 L461.5294757066506,483.81279134289906 M466.7403150956462,484.4152881457117 L461.5270204696332,482.2016981299784 M466.7403150956462,484.4152881457117 L466.7467328609168,489.2494120287028 M466.7467328609168,489.2494120287028 L468.1582726304428,489.84925381638516 M468.1582726304428,489.84925381638516 L468.15211145889856,485.0147436835496 M491.8821598410047,495.0906365573943 L468.15211145889856,485.0147436835496 M491.8821598410047,495.0906365573943 L491.88400018891565,499.93163558131255 M491.88400018891565,499.93163558131255 L493.30069788290865,500.5336692580935 M493.30069788290865,500.5336692580935 L493.2991160090708,495.6922829732159 M498.5365069956535,497.91610441974285 L493.2991160090708,495.6922829732159 M498.536715698901,499.53057193159395 L498.5365069956535,497.91610441974285 M498.1113006802605,499.34988891055474 L498.536715698901,499.53057193159395 M498.11223878297756,505.8056456565057 L498.1113006802605,499.34988891055474 M498.53755025873124,505.9864836097748 L498.11223878297756,505.8056456565057 M498.5377588352727,507.5999709611801 L498.53755025873124,505.9864836097748 M460.53370948273596,484.5916851942966 L460.5437705804029,491.034777899714 M460.1105467111201,484.4119218064738 L460.53370948273596,484.5916851942966 M460.10800505577504,482.8006998779561 L460.1105467111201,484.4119218064738 M465.3212966904724,485.0147436835496 L460.10800505577504,482.8006998779561 M465.3279736810342,489.84925381638516 L465.3212966904724,485.0147436835496 M466.7395127105211,490.4492185798666 L465.3279736810342,489.84925381638516 M466.7330923132811,485.6143221404001 L466.7395127105211,490.4492185798666 M490.4631326908895,495.6922829732159 L466.7330923132811,485.6143221404001 M490.4652322688745,500.5336692580935 L490.4631326908895,495.6922829732159 M491.8819297502677,501.13582658537456 L490.4652322688745,500.5336692580935 M491.8800886462393,496.2940529825631 L491.8819297502677,501.13582658537456 M497.1174791060065,498.518331368937 L491.8800886462393,496.2940529825631 M497.11777422985614,500.1329280927621 L497.1174791060065,498.518331368937 M496.69235923876545,499.95220794165544 L497.11777422985614,500.1329280927621 M496.6936429190053,506.40848115408363 L496.69235923876545,499.95220794165544 M497.1189543672293,506.58935626020957 L496.6936429190053,506.40848115408363 M497.1192493118878,508.2029726442333 L497.1189543672293,506.58935626020957 M461.95263873612896,483.9925178951083 L460.53370948273596,484.5916851942966 M498.53755025873124,505.9864836097748 L497.1189543672293,506.58935626020957 M461.5294757066506,483.81279134289906 L460.1105467111201,484.4119218064738 M461.5270204696332,482.2016981299784 L460.10800505577504,482.8006998779561 M466.7403150956462,484.4152881457117 L465.3212966904724,485.0147436835496 M466.7467328609168,489.2494120287028 L465.3279736810342,489.84925381638516 M468.1582726304428,489.84925381638516 L466.7395127105211,490.4492185798666 M466.7330923132811,485.6143221404001 L468.15211145889856,485.0147436835496 M491.8821598410047,495.0906365573943 L490.4631326908895,495.6922829732159 M491.88400018891565,499.93163558131255 L490.4652322688745,500.5336692580935 M493.30069788290865,500.5336692580935 L491.8819297502677,501.13582658537456 M491.8800886462393,496.2940529825631 L493.2991160090708,495.6922829732159 M498.5365069956535,497.91610441974285 L497.1174791060065,498.518331368937 M498.536715698901,499.53057193159395 L497.11777422985614,500.1329280927621 M498.1113006802605,499.34988891055474 L496.69235923876545,499.95220794165544 M498.11223878297756,505.8056456565057 L496.6936429190053,506.40848115408363" stroke="black"  stroke-width="4"  fill="red"/>
<path d="M498.11223878297756,505.8056456565057 L496.6936429190053,506.40848115408363 M499.6718411416679,506.46877212860346 L498.25324518991016,507.0717438700111 M498.11223878297756,505.8056456565057 L499.6718411416679,506.46877212860346 M496.6936429190053,506.40848115408363 L498.25324518991016,507.0717438700111 M499.67128275832516,500.012447264824 L498.2523412289805,500.61490245618654 M499.6718411416679,506.46877212860346 L499.67128275832516,500.012447264824 M498.25324518991016,507.0717438700111 L498.2523412289805,500.61490245618654 M498.1113006802605,499.34988891055474 L496.69235923876545,499.95220794165544 M499.67128275832516,500.012447264824 L498.1113006802605,499.34988891055474 M498.2523412289805,500.61490245618654 L496.69235923876545,499.95220794165544 M498.1113006802605,499.34988891055474 L498.11223878297756,505.8056456565057 M496.69235923876545,499.95220794165544 L496.6936429190053,506.40848115408363" stroke="black"  stroke-width="4"  fill="red"/>
<path d="M460.41126044016323,489.7755873382434 L458.9926777131573,490.3751340360332 M461.9623542651584,490.4350960715627 L460.5437705804029,491.034777899714 M460.41126044016323,489.7755873382434 L461.9623542651584,490.4350960715627 M458.9926777131573,490.3751340360332 L460.5437705804029,491.034777899714 M461.95263873612896,483.9925178951083 L460.53370948273596,484.5916851942966 M461.9623542651584,490.4350960715627 L461.95263873612896,483.9925178951083 M460.5437705804029,491.034777899714 L460.53370948273596,484.5916851942966 M460.40116932741324,483.333575056859 L458.98224103246787,483.93260730884043 M461.95263873612896,483.9925178951083 L460.40116932741324,483.333575056859 M460.53370948273596,484.5916851942966 L458.98224103246787,483.93260730884043 M460.40116932741324,483.333575056859 L460.41126044016323,489.7755873382434 M458.98224103246787,483.93260730884043 L458.9926777131573,490.3751340360332" stroke="black"  stroke-width="4"  fill="red"/>
<path d="M506.7810151652059,471.1312283896593 L505.3716866540722,471.7269612429023 M506.7807237731474,472.73724286431377 L505.37148050540225,473.3331036528326 M506.7810151652059,471.1312283896593 L506.7807237731474,472.73724286431377 M505.3716866540722,471.7269612429023 L505.37148050540225,473.3331036528326 M507.20407927872185,471.3099357751321 L505.7947507946324,471.905705126554 M507.20407927872185,471.3099357751321 L506.7810151652059,471.1312283896593 M505.7947507946324,471.905705126554 L505.3716866540722,471.7269612429023 M543.7767229763799,488.36910146967887 L542.3674920759008,488.9681588540604 M506.7807237731474,472.73724286431377 L543.7767229763799,488.36910146967887 M505.37148050540225,473.3331036528326 L542.3674920759008,488.9681588540604 M507.2053476506203,464.8837826876188 L507.20407927872185,471.3099357751321 M506.7821810857138,464.70522892281235 L507.2053476506203,464.8837826876188 M506.78247265373284,463.0982446374661 L506.7821810857138,464.70522892281235 M511.9958049123577,465.2973867222475 L506.78247265373284,463.0982446374661 M511.9958049123577,465.2973867222475 L511.99398323431086,470.1191805302651 M511.99398323431086,470.1191805302651 L513.4055309701434,470.7151069697097 M513.4055309701434,470.7151069697097 L513.40760924627,465.8929287234401 M537.1376499637742,475.9029815316231 L513.40760924627,465.8929287234401 M537.1376499637742,475.9029815316231 L537.1312508681449,480.7316182241017 M537.1312508681449,480.7316182241017 L538.5479396502047,481.3297151075883 M538.5479396502047,481.3297151075883 L538.5545972150375,476.5006929717511 M543.7919469693785,478.7099663666006 L538.5545972150375,476.5006929717511 M543.7894088697998,480.3203091155484 L543.7919469693785,478.7099663666006 M543.3639976858199,480.14080824097624 L543.7894088697998,480.3203091155484 M543.3539518962233,486.58007808750585 L543.3639976858199,480.14080824097624 M543.7792595401102,486.7597331672737 L543.3539518962233,486.58007808750585 M543.7767229763799,488.36910146967887 L543.7792595401102,486.7597331672737 M505.7956780899685,465.4790399221736 L505.7947507946324,471.905705126554 M505.3725114979984,465.3004496817337 L505.7956780899685,465.4790399221736 M505.3727177711664,463.69333728454416 L505.3725114979984,465.3004496817337 M510.58605054793156,465.8929287234401 L505.3727177711664,463.69333728454416 M510.5844847234392,470.7151069697097 L510.58605054793156,465.8929287234401 M511.99603266864455,471.31115518280893 L510.5844847234392,470.7151069697097 M511.99785509133096,466.4885924418384 L511.99603266864455,471.31115518280893 M535.7279037421202,476.5006929717511 L511.99785509133096,466.4885924418384 M535.7217604956049,481.3297151075883 L535.7279037421202,476.5006929717511 M537.138450014477,481.9279344306431 L535.7217604956049,481.3297151075883 M537.1448517305982,477.098526794811 L537.138450014477,481.9279344306431 M542.3822044675798,479.30825265272773 L537.1448517305982,477.098526794811 M542.3797516606004,480.91872400694473 L542.3822044675798,479.30825265272773 M541.9543402192439,480.7391863661211 L542.3797516606004,480.91872400694473 M541.9446354974157,487.17897025552685 L541.9543402192439,480.7391863661211 M542.3699433984916,487.3586621242006 L541.9446354974157,487.17897025552685 M542.3674920759008,488.9681588540604 L542.3699433984916,487.3586621242006 M507.2053476506203,464.8837826876188 L505.7956780899685,465.4790399221736 M543.7792595401102,486.7597331672737 L542.3699433984916,487.3586621242006 M506.7821810857138,464.70522892281235 L505.3725114979984,465.3004496817337 M506.78247265373284,463.0982446374661 L505.3727177711664,463.69333728454416 M511.9958049123577,465.2973867222475 L510.58605054793156,465.8929287234401 M511.99398323431086,470.1191805302651 L510.5844847234392,470.7151069697097 M513.4055309701434,470.7151069697097 L511.99603266864455,471.31115518280893 M511.99785509133096,466.4885924418384 L513.40760924627,465.8929287234401 M537.1376499637742,475.9029815316231 L535.7279037421202,476.5006929717511 M537.1312508681449,480.7316182241017 L535.7217604956049,481.3297151075883 M538.5479396502047,481.3297151075883 L537.138450014477,481.9279344306431 M537.1448517305982,477.098526794811 L538.5545972150375,476.5006929717511 M543.7919469693785,478.7099663666006 L542.3822044675798,479.30825265272773 M543.7894088697998,480.3203091155484 L542.3797516606004,480.91872400694473 M543.3639976858199,480.14080824097624 L541.9543402192439,480.7391863661211 M543.3539518962233,486.58007808750585 L541.9446354974157,487.17897025552685" stroke="black"  stroke-width="4"  fill="red"/>
<path d="M543.3539518962233,486.58007808750585 L541.9446354974157,487.17897025552685 M544.9135397837497,487.2388668263534 L543.504224341124,487.8378939034995 M543.3539518962233,486.58007808750585 L544.9135397837497,487.2388668263534 M541.9446354974157,487.17897025552685 L543.504224341124,487.8378939034995 M544.9239652821697,480.7990315279836 L543.5143087724721,481.3975444791813 M544.9135397837497,487.2388668263534 L544.9239652821697,480.7990315279836 M543.504224341124,487.8378939034995 L543.5143087724721,481.3975444791813 M543.3639976858199,480.14080824097624 L541.9543402192439,480.7391863661211 M544.9239652821697,480.7990315279836 L543.3639976858199,480.14080824097624 M543.5143087724721,481.3975444791813 L541.9543402192439,480.7391863661211 M543.3639976858199,480.14080824097624 L543.3539518962233,486.58007808750585 M541.9543402192439,480.7391863661211 L541.9446354974157,487.17897025552685" stroke="black"  stroke-width="4"  fill="red"/>
<path d="M505.652972085735,470.65472938397073 L504.2436435154278,471.25036492523526 M507.20407927872185,471.3099357751321 L505.7947507946324,471.905705126554 M505.652972085735,470.65472938397073 L507.20407927872185,471.3099357751321 M504.2436435154278,471.25036492523526 L505.7947507946324,471.905705126554 M507.2053476506203,464.8837826876188 L505.7956780899685,465.4790399221736 M507.20407927872185,471.3099357751321 L507.2053476506203,464.8837826876188 M505.7947507946324,471.905705126554 L505.7956780899685,465.4790399221736 M505.65386486418004,464.2291395387383 L504.24419521724803,464.8242630457962 M507.2053476506203,464.8837826876188 L505.65386486418004,464.2291395387383 M505.7956780899685,465.4790399221736 L504.24419521724803,464.8242630457962 M505.65386486418004,464.2291395387383 L505.652972085735,470.65472938397073 M504.24419521724803,464.8242630457962 L504.2436435154278,471.25036492523526" stroke="black"  stroke-width="4"  fill="red"/></svg>