<svg version="1.1" xmlns="http://www.w3.org/2000/svg" viewBox="-16.443218065950518 -17.685495070629127 32.88643613190104 32.93426907095298" fill="none" stroke="black" stroke-width="0.6%" vector-effect="non-scaling-stroke">
    <path d="M -13.16073 -10.90201 L -14.6764 -12.09365 L -14.72529 -12.13209 L -15.41554 -12.03407 L -15.41554 5.63826 L -13.85098 6.86833 L -13.85098 -10.80399 L -15.41554 -12.03407" />
    <path d="M -13.16073 -10.07731 L -13.16073 -10.90201 L -13.85098 -10.80399" />
    <path d="M -13.16073 -10.07731 L -6.02817 -4.46961" />
    <path d="M -3.77336 -3.52157 L -5.33792 -4.75164 L -6.02817 -4.65362 L -6.02817 13.0187 L -4.4636 14.24877 L -4.4636 -3.42355 L -6.02817 -4.65362" />
    <path d="M -3.77336 -2.69686 L -3.77336 -3.52157 L -4.4636 -3.42355" />
    <path d="M -3.77336 -2.69686 L -3.03997 -2.12026 L -3.03997 -3.06279" />
    <path d="M -14.6764 -12.21146 L -3.03997 -3.06279" />
    <path d="M -14.6764 -12.21146 L -14.6764 -12.09365" />
    <path d="M -13.16073 6.77031 L -13.85098 6.86833" />
    <path d="M -13.16073 6.77031 L -13.16073 -10.07731" />
    <path d="M -3.77336 14.15075 L -4.4636 14.24877" />
    <path d="M -3.77336 14.15075 L -3.77336 -2.69686" />
    <path d="M -3.03997 -2.12026 A 9.625 3.21609 180 0 0 15.44322 -3.37821" />
    <path d="M 14.6764 -5.57867 A 9.625 3.21609 360 0 1 15.44322 -4.32073 A 9.625 3.21609 360 0 1 -3.03997 -3.06279" />
    <path d="M 14.6764 -5.57867 L 3.03997 -14.72735 A 9.625 3.21609 180 0 0 -15.44322 -13.46941 A 9.625 3.21609 180 0 0 -14.6764 -12.21146" />
    <path d="M -15.3348 -12.04553 A 9.625 3.21609 360 0 1 -15.44322 -12.52688" />
    <path d="M -14.48658 -7.33726 L -14.48658 -9.85065 L -14.5211 -9.84575 L -14.5211 -7.33235 L -14.48658 -7.33726 Z" />
    <path d="M -14.77994 -10.08129 L -14.48658 -9.85065" />
    <path d="M -11.07369 -7.19357 L -11.07369 -8.43645" />
    <path d="M -6.02817 -3.22673 L -11.07369 -7.19357" />
    <path d="M -13.16073 -6.89719 L -11.07369 -7.19357" />
    <path d="M -5.09921 0.04319 L -5.09921 -2.47021 L -5.13372 -2.46531 L -5.13372 0.04809 L -5.09921 0.04319 Z" />
    <path d="M -5.39256 -2.70085 L -5.09921 -2.47021" />
    <path d="M -1.68631 0.18688 L -1.68631 -1.36441" />
    <path d="M -0.26843 1.30163 L -1.68631 0.18688" />
    <path d="M 1.26761 -0.54427 A 4 1.47464 261.91752 0 1 0.29396 1.4918 A 4 1.47464 261.91752 0 1 -0.26843 1.30163" />
    <path d="M 1.93696 -0.43519 A 4 1.47464 261.91752 0 1 0.98421 1.39378 L 0.29396 1.4918" />
    <path d="M 1.92322 -0.32571 L 2.32 -0.38206" />
    <path d="M 12.00265 -0.44097 L 11.55221 -0.79512" />
    <path d="M 13.39442 -1.3946 A 4 1.47464 261.91752 0 1 12.56504 -0.2508 A 4 1.47464 261.91752 0 1 12.00265 -0.44097" />
    <path d="M 14.14526 -1.76528 A 4 1.47464 261.91752 0 1 13.25529 -0.34882 L 12.56504 -0.2508" />
    <path d="M 12.37845 -0.25589 L 12.37845 10.40479 L 13.94301 11.63487 L 13.94301 -1.05926" />
    <path d="M -3.77336 0.48325 L -1.68631 0.18688" />
    <path d="M 2.99108 -0.30398 L 2.99108 3.02435 L 4.55564 4.25442 L 4.55564 -0.18991" />
    <path d="M -14.77994 -10.08129 L -14.81445 -10.07639 L -14.81445 -7.56299 L -14.5211 -7.33235" />
    <path d="M -14.81445 -10.07639 L -14.5211 -9.84575" />
    <path d="M -5.39256 -2.70085 L -5.42708 -2.69595 L -5.42708 -0.18255 L -5.13372 0.04809" />
    <path d="M -5.42708 -2.69595 L -5.13372 -2.46531" />
    <path d="M 13.0687 -7.36555 L 12.50538 -7.28555" />
    <path d="M 14.63326 11.53684 L 13.94301 11.63487" />
    <path d="M 14.63326 -6.13548 L 14.06994 -6.05548" />
    <path d="M 14.63326 11.53684 L 14.63326 -2.08687" />
    <path d="M 14.63326 -5.61259 L 14.63326 -6.13548 L 13.0687 -7.36555" />
    <path d="M 5.24589 4.1564 L 4.55564 4.25442" />
    <path d="M 5.24589 -13.51592 L 4.68256 -13.43592" />
    <path d="M 5.24589 4.1564 L 5.24589 -0.16781" />
    <path d="M 5.24589 -12.99303 L 5.24589 -13.51592 L 3.68132 -14.74599 L 3.118 -14.666" />
    <path d="M 15.44322 -4.32073 L 15.44322 -3.37821" />
    <path d="M -15.44322 -13.46941 L -15.44322 -12.52688" />
</svg>