<svg viewBox="0 0 800 800" xmlns="http://www.w3.org/2000/svg"><path d="M-604.2973423610185,-147.56447367246187 L-607.0027086185423,-209.54918880808566 M271.36264789771326,4.976949825463805 L361.23366561209053,-20.178418635333742 M361.23366561209053,-20.178418635333742 L427.1690425744907,-48.19128172559965 M427.1690425744907,-48.19128172559965 L467.3175234150803,-77.78991131505848 M467.3175234150803,-77.78991131505848 L481.0999694531171,-107.72651311351433 M481.0999694531171,-107.72651311351433 L469.0642909025854,-136.83683339687218 M469.0642909025854,-136.83683339687218 L432.69579388996493,-164.0806396963843 M432.69579388996493,-164.0806396963843 L374.21530271379174,-188.56433358214974 M374.21530271379174,-188.56433358214974 L296.39069740496143,-209.5491888080859 M296.39069740496143,-209.5491888080859 L202.3764090929027,-226.44937619140103 M202.3764090929027,-226.44937619140103 L95.58800445361419,-238.82422505739362 M95.58800445361419,-238.82422505739362 L-20.38893324342729,-246.36836296295667 M-20.38893324342729,-246.36836296295667 L-141.8602118504,-248.9027315097178 M-141.8602118504,-248.9027315097178 L-265.06330896432564,-246.36836296295667 M-265.06330896432564,-246.36836296295667 L-386.1953960553619,-238.82422727325718 M-386.1953960553619,-238.82422727325718 L-501.4399835500292,-226.4493795569099 M-501.4399835500292,-226.4493795569099 L-607.0027086185423,-209.54918880808566 M272.0448614629043,73.00338818308569 L271.36264789771326,4.976949825463805 M-604.2973423610185,-147.56447367246187 L-499.0062709132942,-164.94539005399804 M-499.0062709132942,-164.94539005399804 L-384.04685557468406,-177.67268146924494 M-384.04685557468406,-177.67268146924494 L-263.2057386930974,-185.43186213098272 M-263.2057386930974,-185.43186213098272 L-140.2922866837166,-188.0385037679098 M-140.2922866837166,-188.0385037679098 L-19.102581563271315,-185.43186213098272 M-19.102581563271315,-185.43186213098272 L96.60747420723794,-177.6726791902388 M96.60747420723794,-177.6726791902388 L203.1504180714798,-164.9453865926879 M203.1504180714798,-164.9453865926879 L296.9476845756268,-147.56447367246176 M296.9476845756268,-147.56447367246176 L374.59109178196866,-125.98367313491372 M374.59109178196866,-125.98367313491372 L432.9338916846978,-100.80602713013252 M432.9338916846978,-100.80602713013252 L469.21592694752064,-72.79175419244939 M469.21592694752064,-72.79175419244939 L481.2236517347341,-42.86017947494997 M481.2236517347341,-42.86017947494997 L467.4778786374372,-12.081165059572527 M467.4778786374372,-12.081165059572527 L427.4347430884646,18.348220870420846 M427.4347430884646,18.348220870420846 L361.6743438654094,47.14536698097646 M361.6743438654094,47.14536698097646 L272.0448614629043,73.00338818308569 M1535.8528236149284,-227.9803262346818 L1538.1557996079289,-287.735203329657 M272.0448614629043,73.00338818308569 L1535.8528236149284,-227.9803262346818 M271.36264789771326,4.976949825463805 L1538.1557996079289,-287.735203329657 M658.1151503357423,-451.54835417659945 L588.7783674124344,-435.3382376482027 M588.7783674124344,-435.3382376482027 L536.4477728992258,-416.47686624943697 M536.4477728992258,-416.47686624943697 L503.53260376866984,-395.55411584201704 M503.53260376866984,-395.55411584201704 L491.928204617899,-373.27310475712443 M491.928204617899,-373.27310475712443 L502.8621332741316,-350.440261425157 M502.8621332741316,-350.440261425157 L536.7351166309713,-327.9451180098223 M536.7351166309713,-327.9451180098223 L592.9775334090652,-306.72799742312577 M592.9775334090652,-306.72799742312577 L669.9461001191319,-287.735203329657 M669.9461001191319,-287.735203329657 L764.8885286143766,-271.86375736748323 M764.8885286143766,-271.86375736748323 L873.998853407347,-259.9000577773181 M873.998853407347,-259.9000577773181 L992.5766391957188,-252.45936137849878 M992.5766391957188,-252.45936137849878 L1115.2862629553465,-249.93414993663225 M1115.2862629553465,-249.93414993663225 L1236.4947888023087,-252.45936137849878 M1236.4947888023087,-252.45936137849878 L1350.6494844927895,-259.9000556084171 M1350.6494844927895,-259.9000556084171 L1452.648091278954,-271.86375415378404 M1452.648091278954,-271.86375415378404 L1538.1557996079289,-287.735203329657 M657.8483901941829,-396.513684971791 L658.1151503357423,-451.54835417659945 M1535.8528236149284,-227.9803262346818 L1450.5232642602684,-211.655023735628 M1450.5232642602684,-211.655023735628 L1348.7481149019122,-199.3496220578378 M1348.7481149019122,-199.3496220578378 L1234.8518921578202,-191.69658515112258 M1234.8518921578202,-191.69658515112258 L1113.9237230546744,-189.09933983971246 M1113.9237230546744,-189.09933983971246 L991.5014397132445,-191.69658515112258 M991.5014397132445,-191.69658515112258 L873.2026527555049,-199.34962428865435 M873.2026527555049,-199.34962428865435 L764.348625573838,-211.65502704116284 M764.348625573838,-211.65502704116284 L669.6276034392502,-227.98032623468168 M669.6276034392502,-227.98032623468168 L592.8363651664375,-247.51703725058496 M592.8363651664375,-247.51703725058496 L536.7213936217827,-269.3428148834895 M536.7213936217827,-269.3428148834895 L502.92348651853507,-292.48447651989306 M502.92348651853507,-292.48447651989306 L492.0126952744854,-315.9748051820744 M492.0126952744854,-315.9748051820744 L503.59103035911414,-338.8986365497302 M503.59103035911414,-338.8986365497302 L536.4353046780591,-360.4261225873063 M536.4353046780591,-360.4261225873063 L588.6555482490328,-379.83356388539937 M588.6555482490328,-379.83356388539937 L657.8483901941829,-396.513684971791 M657.8483901941829,-396.513684971791 L-604.2973423610185,-147.56447367246187 M658.1151503357423,-451.54835417659945 L-607.0027086185423,-209.54918880808566" stroke="black"  stroke-width="4"  fill="red"/>
<path d="M1450.6800509198304,-396.513684971791 L1452.6089319434143,-451.54835417659945 M1450.6800509198304,-396.513684971791 L1359.5498147251526,-409.9781051531603 M1359.5498147251526,-409.9781051531603 L1259.3386741717122,-419.85481016511517 M1259.3386741717122,-419.85481016511517 L1153.4230292226002,-425.88332566385554 M1153.4230292226002,-425.88332566385554 L1045.2336245486824,-427.9097757670868 M1045.2336245486824,-427.9097757670868 L938.210011765078,-425.88331863176086 M938.210011765078,-425.88331863176086 L835.7623543745372,-419.85481193499254 M835.7623543745372,-419.85481193499254 L741.2329228917415,-409.9781114160023 M741.2329228917415,-409.9781114160023 L657.8483901941829,-396.513684971791 M657.8483901941829,-396.513684971791 L588.6555482490328,-379.83356388539937 M588.6555482490328,-379.83356388539937 L536.4353046780591,-360.4261225873063 M536.4353046780591,-360.4261225873063 L503.59103035911414,-338.8986365497302 M503.59103035911414,-338.8986365497302 L492.0126952744854,-315.9748051820744 M492.0126952744854,-315.9748051820744 L502.92348651853507,-292.48447651989306 M502.92348651853507,-292.48447651989306 L536.7213936217827,-269.3428148834895 M536.7213936217827,-269.3428148834895 L592.8363651664375,-247.51703725058496 M592.8363651664375,-247.51703725058496 L669.6276034392522,-227.98032623468134 M669.6276034392522,-227.98032623468134 L764.348625573838,-211.65502704116284 M764.348625573838,-211.65502704116284 L873.2026527555049,-199.34962428865435 M873.2026527555049,-199.34962428865435 L991.5014397132445,-191.69658515112258 M991.5014397132445,-191.69658515112258 L1113.9237230546744,-189.09933983971246 M1113.9237230546744,-189.09933983971246 L1234.8518921578202,-191.69658515112258 M1234.8518921578202,-191.69658515112258 L1348.7481149019122,-199.3496220578378 M1348.7481149019122,-199.3496220578378 L1450.5232642602684,-211.655023735628 M1450.5232642602684,-211.655023735628 L1535.8528236149284,-227.9803262346818 M1535.8528236149284,-227.9803262346818 L1601.4052192864374,-247.51703193663457 M1601.4052192864374,-247.51703193663457 L1644.9644923081169,-269.3428169622216 M1644.9644923081169,-269.3428169622216 L1665.4497142963014,-292.48447651989306 M1665.4497142963014,-292.48447651989306 L1662.8472519551174,-315.97480518207476 M1662.8472519551174,-315.97480518207476 L1638.0815854749053,-338.8986442813947 M1638.0815854749053,-338.8986442813947 L1592.853175164355,-360.42612447616614 M1592.853175164355,-360.42612447616614 L1529.4684179477533,-379.83355556229367 M1529.4684179477533,-379.83355556229367 L1450.6800509198304,-396.513684971791 M1452.6089319434143,-451.54835417659945 L1531.5817000848165,-435.3382295594665 M1531.5817000848165,-435.3382295594665 L1595.1243499113448,-416.4768680851913 M1595.1243499113448,-416.4768680851913 L1640.4769764340292,-395.55412335667506 M1640.4769764340292,-395.55412335667506 L1665.3261648161679,-373.27310475712443 M1665.3261648161679,-373.27310475712443 L1667.9650930294936,-350.440261425157 M1667.9650930294936,-350.440261425157 L1647.4642315172885,-327.9451200305334 M1647.4642315172885,-327.9451200305334 L1603.834223469017,-306.72799225723634 M1603.834223469017,-306.72799225723634 L1538.1557996079289,-287.735203329657 M1538.1557996079289,-287.735203329657 L1452.648091278954,-271.86375415378404 M1452.648091278954,-271.86375415378404 L1350.6494844927895,-259.9000556084171 M1350.6494844927895,-259.9000556084171 L1236.4947888023087,-252.45936137849878 M1236.4947888023087,-252.45936137849878 L1115.2862629553465,-249.93414993663225 M1115.2862629553465,-249.93414993663225 L992.5766391957188,-252.45936137849878 M992.5766391957188,-252.45936137849878 L873.998853407347,-259.9000577773181 M873.998853407347,-259.9000577773181 L764.8885286143766,-271.86375736748323 M764.8885286143766,-271.86375736748323 L669.9461001191314,-287.73520332965677 M669.9461001191314,-287.73520332965677 L592.9775334090652,-306.72799742312577 M592.9775334090652,-306.72799742312577 L536.7351166309713,-327.9451180098223 M536.7351166309713,-327.9451180098223 L502.8621332741316,-350.440261425157 M502.8621332741316,-350.440261425157 L491.928204617899,-373.27310475712443 M491.928204617899,-373.27310475712443 L503.53260376866984,-395.55411584201704 M503.53260376866984,-395.55411584201704 L536.4477728992258,-416.47686624943697 M536.4477728992258,-416.47686624943697 L588.7783674124344,-435.3382376482027 M588.7783674124344,-435.3382376482027 L658.1151503357423,-451.54835417659945 M658.1151503357423,-451.54835417659945 L741.6712208584754,-464.63293218207104 M741.6712208584754,-464.63293218207104 L836.3938807859888,-474.2307405637009 M836.3938807859888,-474.2307405637009 L939.0507185200418,-480.08891073914185 M939.0507185200418,-480.08891073914185 L1046.2938691517797,-482.0580917056417 M1046.2938691517797,-482.0580917056417 L1154.7076228257913,-480.08891757249637 M1154.7076228257913,-480.08891757249637 L1260.8467928732296,-474.2307388438195 M1260.8467928732296,-474.2307388438195 L1361.2747678204112,-464.63292609600614 M1361.2747678204112,-464.63292609600614 L1452.6089319434143,-451.54835417659945" stroke="black"  stroke-width="4"  fill="red"/>
<path d="M296.94768457562736,-147.56447367246187 L296.39069740496075,-209.54918880808566 M296.94768457562736,-147.56447367246187 L203.1504180714798,-164.9453865926879 M203.1504180714798,-164.9453865926879 L96.60747420723794,-177.6726791902388 M96.60747420723794,-177.6726791902388 L-19.102581563271315,-185.43186213098272 M-19.102581563271315,-185.43186213098272 L-140.2922866837166,-188.0385037679098 M-140.2922866837166,-188.0385037679098 L-263.2057386930974,-185.43186213098272 M-263.2057386930974,-185.43186213098272 L-384.04685557468406,-177.67268146924494 M-384.04685557468406,-177.67268146924494 L-499.0062709132942,-164.94539005399804 M-499.0062709132942,-164.94539005399804 L-604.2973423610185,-147.56447367246187 M-604.2973423610185,-147.56447367246187 L-696.2119851942136,-125.98366954092421 M-696.2119851942136,-125.98366954092421 L-771.2044700277929,-100.80602467609492 M-771.2044700277929,-100.80602467609492 L-826.0120605180812,-72.79175419244939 M-826.0120605180812,-72.79175419244939 L-857.8132460055767,-42.86017947494997 M-857.8132460055767,-42.86017947494997 L-864.4213892444948,-12.081154403087453 M-864.4213892444948,-12.081154403087453 L-844.5008503909692,18.3482236085797 M-844.5008503909692,18.3482236085797 L-797.7836869369528,47.14535433975698 M-797.7836869369528,47.14535433975698 L-725.2539117656709,73.0033881830866 M-725.2539117656709,73.0033881830866 L-629.2614333411145,94.66993197391292 M-629.2614333411145,94.66993197391292 L-513.5291994399449,111.0370238061937 M-513.5291994399449,111.0370238061937 L-383.0253541179668,121.23163528370083 M-383.0253541179668,121.23163528370083 L-243.6958138094135,124.69411485614876 M-243.6958138094135,124.69411485614876 L-102.07661398188515,121.23162329970052 M-102.07661398188515,121.23162329970052 L35.168861398080026,111.0370267761266 M35.168861398080026,111.0370267761266 L161.7245097277599,94.66995393632561 M161.7245097277599,94.66995393632561 L272.0448614629043,73.00338818308569 M272.0448614629043,73.00338818308569 L361.6743438654094,47.14536698097646 M361.6743438654094,47.14536698097646 L427.4347430884646,18.348220870420846 M427.4347430884646,18.348220870420846 L467.4778786374372,-12.081165059572527 M467.4778786374372,-12.081165059572527 L481.2236517347341,-42.86017947494997 M481.2236517347341,-42.86017947494997 L469.21592694752064,-72.79175419244939 M469.21592694752064,-72.79175419244939 L432.9338916846978,-100.80602713013252 M432.9338916846978,-100.80602713013252 L374.59109178196866,-125.98367313491372 M374.59109178196866,-125.98367313491372 L296.94768457562736,-147.56447367246187 M296.39069740496075,-209.54918880808566 L374.21530271379174,-188.56433358214974 M374.21530271379174,-188.56433358214974 L432.69579388996493,-164.0806396963843 M432.69579388996493,-164.0806396963843 L469.0642909025854,-136.83683339687218 M469.0642909025854,-136.83683339687218 L481.0999694531171,-107.72651311351433 M481.0999694531171,-107.72651311351433 L467.3175234150803,-77.78991131505848 M467.3175234150803,-77.78991131505848 L427.1690425744907,-48.19128172559965 M427.1690425744907,-48.19128172559965 L361.23366561209053,-20.178418635333742 M361.23366561209053,-20.178418635333742 L271.36264789771326,4.976949825463805 M271.36264789771326,4.976949825463805 L160.74198056088954,26.05591346994231 M160.74198056088954,26.05591346994231 L33.83987684448431,41.97980542387586 M33.83987684448431,41.97980542387586 L-103.78120567296241,51.89866039736597 M-103.78120567296241,51.89866039736597 L-245.78505876340137,55.26755213809116 M-245.78505876340137,55.26755213809116 L-385.4868886248055,51.89867205736232 M-385.4868886248055,51.89867205736232 L-516.330044746426,41.97980253430728 M-516.330044746426,41.97980253430728 L-632.3507946443046,26.055892102621783 M-632.3507946443046,26.055892102621783 L-728.5675205108885,4.976949825463464 M-728.5675205108885,4.976949825463464 L-801.2489882497935,-20.178430932680612 M-801.2489882497935,-20.178430932680612 L-848.0422804962332,-48.191279062101785 M-848.0422804962332,-48.191279062101785 L-867.9650930294936,-77.78990094987057 M-867.9650930294936,-77.78990094987057 L-861.2908090579895,-107.72651311351433 M-861.2908090579895,-107.72651311351433 L-829.3630783138296,-136.83683339687218 M-829.3630783138296,-136.83683339687218 L-774.3779927240544,-164.0806373099166 M-774.3779927240544,-164.0806373099166 L-699.1670262284699,-188.56433008732006 M-699.1670262284699,-188.56433008732006 L-607.0027086185423,-209.54918880808566 M-607.0027086185423,-209.54918880808566 L-501.4399835500292,-226.4493795569099 M-501.4399835500292,-226.4493795569099 L-386.1953960553619,-238.82422727325718 M-386.1953960553619,-238.82422727325718 L-265.06330896432564,-246.36836296295667 M-265.06330896432564,-246.36836296295667 L-141.8602118504,-248.9027315097178 M-141.8602118504,-248.9027315097178 L-20.38893324342729,-246.36836296295667 M-20.38893324342729,-246.36836296295667 L95.58800445361419,-238.82422505739362 M95.58800445361419,-238.82422505739362 L202.3764090929027,-226.44937619140103 M202.3764090929027,-226.44937619140103 L296.39069740496075,-209.54918880808566" stroke="black"  stroke-width="4"  fill="red"/>
<path d="M34.905536369652054,48.26333509026466 L69.64357205747416,57.143591527502224 M-132.0293667534837,86.6439185030003 L-97.36595930028352,95.82824013589936 M34.905536369652054,48.26333509026466 L-132.0293667534837,86.6439185030003 M69.64357205747416,57.143591527502224 L-97.36595930028352,95.82824013589936 M39.91168644447242,308.89066272518846 L74.31696017373446,318.6921970306014 M-132.0293667534837,86.6439185030003 L-124.9593422728376,146.93959669153583 M-124.9593422728376,146.93959669153583 L-107.37739904925064,201.1406502052556 M-107.37739904925064,201.1406502052556 L-80.35295554416126,246.38731528545685 M-80.35295554416126,246.38731528545685 L-45.453910601448115,280.3870888547359 M-45.453910601448115,280.3870888547359 L-4.631086505463145,301.5199065050985 M-4.631086505463145,301.5199065050985 L39.91168644447242,308.89066272518846 M-97.36595930028352,95.82824013589936 L-90.37002477125657,156.33651430722904 M-90.37002477125657,156.33651430722904 L-72.85266204503677,210.71572143401085 M-72.85266204503677,210.71572143401085 L-45.880527661163455,256.0966707868745 M-45.880527661163455,256.0966707868745 L-11.01954864903746,290.180502249778 M-11.01954864903746,290.180502249778 L29.78069297336549,311.3440407874934 M29.78069297336549,311.3440407874934 L74.31696017373446,318.6921970306014 M39.91168644447242,308.89066272518846 L34.905536369652054,48.26333509026466 M74.31696017373446,318.6921970306014 L69.64357205747416,57.143591527502224" stroke="black"  stroke-width="4"  fill="red"/>
<path d="M1493.534841799204,-63.95666712260572 L1527.650101217802,-56.83917157069436 M1619.1456195971912,-315.9748051820744 L1653.48834734249,-309.7245631462374 M1493.534841799204,-63.95666712260572 L1525.965495791346,-88.16263189915742 M1525.965495791346,-88.16263189915742 L1555.4697894490785,-122.11948167101036 M1555.4697894490785,-122.11948167101036 L1580.617178643597,-164.08898656539077 M1580.617178643597,-164.08898656539077 L1600.1951686708758,-211.9817999062643 M1600.1951686708758,-211.9817999062643 L1613.2546065496676,-263.44853079038467 M1613.2546065496676,-263.44853079038467 L1619.1456195971912,-315.9748051820744 M1527.650101217802,-56.83917157069436 L1560.07899704597,-81.14755962207619 M1560.07899704597,-81.14755962207619 L1589.5989441351644,-115.23276018058982 M1589.5989441351644,-115.23276018058982 L1614.7788338481198,-157.35012577694795 M1614.7788338481198,-157.35012577694795 L1634.404809389711,-205.40327487824584 M1634.404809389711,-205.40327487824584 L1647.5255680837836,-257.0354049652266 M1647.5255680837836,-257.0354049652266 L1653.48834734249,-309.7245631462374 M1501.896210305825,-289.017586234987 L1536.336569253046,-282.5885348465656 M1619.1456195971912,-315.9748051820744 L1501.896210305825,-289.017586234987 M1653.48834734249,-309.7245631462374 L1536.336569253046,-282.5885348465656 M1501.896210305825,-289.017586234987 L1493.534841799204,-63.95666712260572 M1536.336569253046,-282.5885348465656 L1527.650101217802,-56.83917157069436" stroke="black"  stroke-width="4"  fill="red"/>
<path d="M1501.896210305825,-289.017586234987 L1536.336569253046,-282.5885348465656 M34.905536369652054,48.26333509026466 L69.64357205747416,57.143591527502224 M1501.896210305825,-289.017586234987 L34.905536369652054,48.26333509026466 M1536.336569253046,-282.5885348465656 L69.64357205747416,57.143591527502224 M1493.3639392098303,-59.35652375939151 L1527.4725589415855,-52.2250918724983 M1493.3639392098303,-59.35652375939151 L1501.896210305825,-289.017586234987 M1527.4725589415855,-52.2250918724983 L1536.336569253046,-282.5885348465656 M40.013852890089765,314.2095938992935 L74.41233169842792,324.029714195397 M34.905536369652054,48.26333509026466 L40.013852890089765,314.2095938992935 M69.64357205747416,57.143591527502224 L74.41233169842792,324.029714195397 M1326.9758201683107,-16.588463785439103 L1493.3639392098303,-59.35652375939151 M40.013852890089765,314.2095938992935 L259.54645036699617,257.781386469489 M258.8619621036039,193.14188611784158 L259.54645036699617,257.781386469489 M295.1982377495217,184.04667110953818 L258.8619621036039,193.14188611784158 M295.1982377495217,184.04667110953818 L295.7889668961234,248.4656845464575 M295.7889668961234,248.4656845464575 L1298.1185195342543,-9.171042569830831 M1299.8471562839477,-67.42373303895636 L1298.1185195342543,-9.171042569830831 M1328.7634116778463,-74.66166690442287 L1299.8471562839477,-67.42373303895636 M1328.7634116778463,-74.66166690442287 L1326.9758201683107,-16.588463785439103 M1361.2019209203318,-9.171042569830831 L1527.4725589415855,-52.2250918724983 M74.41233169842792,324.029714195397 L294.00781769935327,267.16775111254356 M293.4080813622912,202.3062662592879 L294.00781769935327,267.16775111254356 M329.75113790361513,193.14188611784158 L293.4080813622912,202.3062662592879 M329.75113790361513,193.14188611784158 L330.2570640113398,257.781386469489 M330.2570640113398,257.781386469489 L1332.3627785730323,-1.7034471408136937 M1334.1746632643378,-60.13672843541872 L1332.3627785730323,-1.7034471408136937 M1363.0726374028768,-67.42373303895636 L1334.1746632643378,-60.13672843541872 M1363.0726374028768,-67.42373303895636 L1361.2019209203318,-9.171042569830831 M1326.9758201683107,-16.588463785439103 L1361.2019209203318,-9.171042569830831 M259.54645036699617,257.781386469489 L294.00781769935327,267.16775111254356 M1328.7634116778463,-74.66166690442287 L1363.0726374028768,-67.42373303895636 M1334.1746632643378,-60.13672843541872 L1299.8471562839477,-67.42373303895636 M1298.1185195342543,-9.171042569830831 L1332.3627785730323,-1.7034471408136937 M295.7889668961234,248.4656845464575 L330.2570640113398,257.781386469489 M295.1982377495217,184.04667110953818 L329.75113790361513,193.14188611784158 M293.4080813622912,202.3062662592879 L258.8619621036039,193.14188611784158" stroke="black"  stroke-width="4"  fill="red"/>
<path d="M-572.1319505580448,-106.9166698869318 L-541.9982120995896,-99.21343279752034 M-737.0203754284078,-73.65284447924455 L-707.0213135217227,-65.70437508516557 M-572.1319505580448,-106.9166698869318 L-737.0203754284078,-73.65284447924455 M-541.9982120995896,-99.21343279752034 L-707.0213135217227,-65.70437508516557 M-561.7509155810851,137.48622396259702 L-531.8643404860941,146.00045039689257 M-737.0203754284078,-73.65284447924455 L-728.7876805177902,-17.103106615615616 M-728.7876805177902,-17.103106615615616 L-710.2492725898558,33.940502373285426 M-710.2492725898558,33.940502373285426 L-682.5131018526238,76.7854830867422 M-682.5131018526238,76.7854830867422 L-647.1704868227475,109.25398681762914 M-647.1704868227475,109.25398681762914 L-606.1822500393603,129.7845444345673 M-606.1822500393603,129.7845444345673 L-561.7509155810851,137.48622396259702 M-707.0213135217227,-65.70437508516557 L-698.8404552201712,-8.967311252568493 M-698.8404552201712,-8.967311252568493 L-680.3418616159686,42.23500698624383 M-680.3418616159686,42.23500698624383 L-652.6320012044266,85.20166514249121 M-652.6320012044266,85.20166514249121 L-617.3015198097157,117.74896465534158 M-617.3015198097157,117.74896465534158 L-576.3112629669306,138.31233906163027 M-576.3112629669306,138.31233906163027 L-531.8643404860941,146.00045039689257 M-561.7509155810851,137.48622396259702 L-572.1319505580448,-106.9166698869318 M-531.8643404860941,146.00045039689257 L-541.9982120995896,-99.21343279752034" stroke="black"  stroke-width="4"  fill="red"/>
<path d="M890.5628209499819,-189.75523203053115 L920.8022717310434,-183.44634972699782 M1011.9500581024881,-426.48202087484844 L1042.4104836784434,-420.9383426389112 M890.5628209499819,-189.75523203053115 L922.9064092799047,-212.17520532725007 M922.9064092799047,-212.17520532725007 L952.0457247304159,-243.88087636588716 M952.0457247304159,-243.88087636588716 L976.564271949984,-283.24680906234084 M976.564271949984,-283.24680906234084 L995.2761876988282,-328.30791653972994 M995.2761876988282,-328.30791653972994 L1007.2712761877672,-376.8462054278674 M1007.2712761877672,-376.8462054278674 L1011.9500581024881,-426.48202087484844 M920.8022717310434,-183.44634972699782 L953.155553788238,-205.95479618595493 M953.155553788238,-205.95479618595493 L982.3171566500091,-237.7725820742778 M982.3171566500091,-237.7725820742778 L1006.8696955729347,-277.26864349316156 M1006.8696955729347,-277.26864349316156 L1025.625855555265,-322.47166554760247 M1025.625855555265,-322.47166554760247 L1037.6734433841273,-371.15704717668507 M1037.6734433841273,-371.15704717668507 L1042.4104836784434,-420.9383426389112 M893.5043253969905,-402.58732859369627 L924.0008902140294,-396.8944732236482 M1011.9500581024881,-426.48202087484844 L893.5043253969905,-402.58732859369627 M1042.4104836784434,-420.9383426389112 L924.0008902140294,-396.8944732236482 M893.5043253969905,-402.58732859369627 L890.5628209499819,-189.75523203053115 M924.0008902140294,-396.8944732236482 L920.8022717310434,-183.44634972699782" stroke="black"  stroke-width="4"  fill="red"/>
<path d="M893.5043253969905,-402.58732859369627 L924.0008902140294,-396.8944732236482 M-572.1319505580448,-106.9166698869318 L-541.9982120995896,-99.21343279752034 M893.5043253969905,-402.58732859369627 L-572.1319505580448,-106.9166698869318 M924.0008902140294,-396.8944732236482 L-541.9982120995896,-99.21343279752034 M890.5026668041723,-185.40278817049602 L920.7368612674304,-179.0814213088205 M890.5026668041723,-185.40278817049602 L893.5043253969905,-402.58732859369627 M920.7368612674304,-179.0814213088205 L924.0008902140294,-396.8944732236482 M-561.5389078184919,142.47756738946055 L-531.6573877002143,151.00818072928058 M-572.1319505580448,-106.9166698869318 L-561.5389078184919,142.47756738946055 M-541.9982120995896,-99.21343279752034 L-531.6573877002143,151.00818072928058 M722.7773029433295,-147.52931891159596 L890.5026668041723,-185.40278817049602 M723.9993919752724,-312.88736561832684 L722.7773029433295,-147.52931891159596 M694.7682097861286,-306.8133537348689 L723.9993919752724,-312.88736561832684 M694.7682097861286,-306.8133537348689 L693.7275479343643,-140.96969681279734 M-308.10609449256003,85.25080309005654 L693.7275479343643,-140.96969681279734 M-314.04386367601387,-97.19006574273499 L-308.10609449256003,85.25080309005654 M-350.2854937717432,-89.65933741115487 L-314.04386367601387,-97.19006574273499 M-350.2854937717432,-89.65933741115487 L-344.0711072007234,93.37193499189993 M-561.5389078184919,142.47756738946055 L-344.0711072007234,93.37193499189993 M753.0452734849284,-140.96969681279734 L920.7368612674304,-179.0814213088205 M753.516298304017,-196.01679733695778 L753.0452734849284,-140.96969681279734 M753.516298304017,-196.01679733695778 L724.4102163816556,-189.57683994849583 M724.4102163816556,-189.57683994849583 L723.9993919752721,-134.36836010605748 M-278.0579064557394,93.37193499189993 L723.9993919752721,-134.36836010605748 M-279.964003589802,32.64912629247755 L-278.0579064557394,93.37193499189993 M-279.964003589802,32.64912629247755 L-316.0418475112508,40.63164273496716 M-316.0418475112508,40.63164273496716 L-314.04386367601387,101.55056163287145 M-531.6573877002143,151.00818072928058 L-314.04386367601387,101.55056163287145 M722.7773029433295,-147.52931891159596 L753.0452734849284,-140.96969681279734 M-344.0711072007234,93.37193499189993 L-314.04386367601387,101.55056163287145 M729.0634252705568,-311.877714120202 L723.9993919752724,-312.88736561832684 M729.0634252705568,-311.877714120202 L728.2251586492252,-201.35226009763767 M728.2251586492252,-201.35226009763767 L753.516298304017,-196.01679733695778 M699.8328563886378,-305.7972490873435 L694.7682097861286,-306.8133537348689 M729.0634252705568,-311.877714120202 L699.8328563886378,-305.7972490873435 M699.1157841271195,-194.94631360086373 L699.8328563886378,-305.7972490873435 M724.4102163816556,-189.57683994849583 L699.1157841271195,-194.94631360086373 M693.7275479343643,-140.96969681279734 L723.9993919752721,-134.36836010605748 M-308.10609449256003,85.25080309005654 L-278.0579064557394,93.37193499189993 M-309.01864316877936,-95.93864896272339 L-314.04386367601387,-97.19006574273499 M-309.01864316877936,-95.93864896272339 L-305.07212168422427,26.040021658591 M-305.07212168422427,26.040021658591 L-279.964003589802,32.64912629247755 M-345.26388126631696,-88.39901113528322 L-350.2854937717432,-89.65933741115487 M-309.01864316877936,-95.93864896272339 L-345.26388126631696,-88.39901113528322 M-341.13242992699315,33.97562347253364 L-345.26388126631696,-88.39901113528322 M-316.0418475112508,40.63164273496716 L-341.13242992699315,33.97562347253364 M728.2251586492252,-201.35226009763767 L699.1157841271195,-194.94631360086373 M-305.07212168422427,26.040021658591 L-341.13242992699315,33.97562347253364" stroke="black"  stroke-width="4"  fill="red"/>
<path d="M570.7272932915753,1213.4683570353682 L536.3147402385778,1200.906043523798 M384.44055359812523,1282.0580917056418 L350.0382829855042,1268.989377670952 M570.7272932915753,1213.4683570353682 L384.44055359812523,1282.0580917056418 M536.3147402385778,1200.906043523798 L350.0382829855042,1268.989377670952 M572.6594035943649,26.876615365070677 L536.5886899140622,18.265294457692335 M572.6594035943649,26.876615365070677 L570.7272932915753,1213.4683570353682 M536.5886899140622,18.265294457692335 L536.3147402385778,1200.906043523798 M377.2545531520984,73.94769671959261 L341.1957012183736,64.97203447551004 M384.44055359812523,1282.0580917056418 L377.2545531520984,73.94769671959261 M350.0382829855042,1268.989377670952 L341.1957012183736,64.97203447551004 M377.2545531520984,73.94769671959261 L572.6594035943649,26.876615365070677 M458.4080539182649,333.8263418727629 L457.9095074704284,157.5901725625797 M494.39729321694705,148.4018138317727 L457.9095074704284,157.5901725625797 M494.6446477091691,324.02350330944296 L494.39729321694705,148.4018138317727 M458.4080539182649,333.8263418727629 L494.6446477091691,324.02350330944296 M341.1957012183736,64.97203447551004 L536.5886899140622,18.265294457692335 M421.79716074471486,104.1182699968972 L422.91027217106364,367.55464089945485 M422.91027217106364,367.55464089945485 L459.0824940924677,357.6770177199058 M459.0824940924677,357.6770177199058 L458.3461099629661,95.15607555257503 M458.3461099629661,95.15607555257503 L421.79716074471486,104.1182699968972 M422.91027217106364,367.55464089945485 L431.78996273916175,370.0358998421575 M431.78996273916175,370.0358998421575 L431.62103206344034,326.4671428401802 M431.62103206344034,326.4671428401802 L458.4080539182649,333.8263418727629 M457.9095074704284,157.5901725625797 L430.93949380798927,150.69223095702046 M430.93949380798927,150.69223095702046 L430.7676404379019,106.36968450812844 M430.7676404379019,106.36968450812844 L421.79716074471486,104.1182699968972 M494.39729321694705,148.4018138317727 L467.4257524166521,141.55707248174292 M467.4257524166521,141.55707248174292 L430.93949380798927,150.69223095702046 M459.0824940924677,357.6770177199058 L467.9628095821301,360.13933883128846 M467.9628095821301,360.13933883128846 L467.85612981968865,316.7206755176069 M467.85612981968865,316.7206755176069 L494.6446477091691,324.02350330944296 M467.4257524166521,141.55707248174292 L467.31723413001356,97.39012981985564 M467.31723413001356,97.39012981985564 L458.3461099629661,95.15607555257503 M467.85612981968865,316.7206755176069 L431.62103206344034,326.4671428401802 M467.31723413001356,97.39012981985564 L430.7676404379019,106.36968450812844 M467.9628095821301,360.13933883128846 L431.78996273916175,370.0358998421575" stroke="black"  stroke-width="4"  fill="red"/>
<path d="M1551.2214348515645,852.4559031912256 L1517.2045361754126,842.394566963068 M1402.3923612953877,907.2539348881631 L1368.2667240502617,896.8307688298788 M1551.2214348515645,852.4559031912256 L1402.3923612953877,907.2539348881631 M1517.2045361754126,842.394566963068 L1368.2667240502617,896.8307688298788 M1594.9746914469313,-219.38895058974003 L1559.3549520186953,-226.21675283579907 M1594.9746914469313,-219.38895058974003 L1551.2214348515645,852.4559031912256 M1559.3549520186953,-226.21675283579907 L1517.2045361754126,842.394566963068 M1440.4617306676616,-182.16831798667158 L1404.7185483052638,-189.25246689214055 M1402.3923612953877,907.2539348881631 L1440.4617306676616,-182.16831798667158 M1368.2667240502617,896.8307688298788 L1404.7185483052638,-189.25246689214055 M1440.4617306676616,-182.16831798667158 L1594.9746914469313,-219.38895058974003 M1494.5451332124612,53.52724487705302 L1500.4656948822624,-104.94645581795442 M1529.3438830730304,-112.21856474875881 L1500.4656948822624,-104.94645581795442 M1523.2678970642933,45.757071478400405 L1529.3438830730304,-112.21856474875881 M1494.5451332124612,53.52724487705302 L1523.2678970642933,45.757071478400405 M1404.7185483052638,-189.25246689214055 L1559.3549520186953,-226.21675283579907 M1466.3409232304607,-152.01506639807496 L1457.8148446832156,84.95111667363324 M1457.8148446832156,84.95111667363324 L1486.5214059667178,77.11215682883358 M1486.5214059667178,77.11215682883358 L1495.281246546754,-159.11154414613168 M1495.281246546754,-159.11154414613168 L1466.3409232304607,-152.01506639807496 M1457.8148446832156,84.95111667363324 L1466.6075909764165,86.91923397863991 M1466.6075909764165,86.91923397863991 L1468.032390497386,47.694624944086854 M1468.032390497386,47.694624944086854 L1494.5451332124612,53.52724487705302 M1500.4656948822624,-104.94645581795442 L1473.7752292894388,-110.40523616019982 M1473.7752292894388,-110.40523616019982 L1475.2219485334472,-150.2332932965353 M1475.2219485334472,-150.2332932965353 L1466.3409232304607,-152.01506639807496 M1529.3438830730304,-112.21856474875881 L1502.67069742683,-117.63986888819738 M1502.67069742683,-117.63986888819738 L1473.7752292894388,-110.40523616019982 M1486.5214059667178,77.11215682883358 L1495.3086443724812,79.06688751435871 M1495.3086443724812,79.06688751435871 L1496.772120701154,39.964251393699556 M1496.772120701154,39.964251393699556 L1523.2678970642933,45.757071478400405 M1502.67069742683,-117.63986888819738 L1504.1566108197353,-157.34200111351186 M1504.1566108197353,-157.34200111351186 L1495.281246546754,-159.11154414613168 M1496.772120701154,39.964251393699556 L1468.032390497386,47.694624944086854 M1504.1566108197353,-157.34200111351186 L1475.2219485334472,-150.2332932965353 M1495.3086443724812,79.06688751435871 L1466.6075909764165,86.91923397863991" stroke="black"  stroke-width="4"  fill="red"/>
<path d="M-306.1286405964663,893.3718175831003 L-334.4285755945334,883.0409172498627 M-490.58513862518225,949.6538538156706 L-518.7717227817536,938.9463510434027 M-306.1286405964663,893.3718175831003 L-490.58513862518225,949.6538538156706 M-334.4285755945334,883.0409172498627 L-518.7717227817536,938.9463510434027 M-342.4977702661322,-191.60290169270877 L-371.897491776955,-198.62162715406544 M-342.4977702661322,-191.60290169270877 L-306.1286405964663,893.3718175831003 M-371.897491776955,-198.62162715406544 L-334.4285755945334,883.0409172498627 M-535.8105124646638,-153.32974547158403 L-565.0813223162666,-160.61574845697146 M-490.58513862518225,949.6538538156706 L-535.8105124646638,-153.32974547158403 M-518.7717227817536,938.9463510434027 L-565.0813223162666,-160.61574845697146 M-535.8105124646638,-153.32974547158403 L-342.4977702661322,-191.60290169270877 M-445.2518271143126,124.96342040056561 L-409.4554293011968,116.85007105362655 M-418.2205503452201,-123.13289822066986 L-409.4554293011968,116.85007105362655 M-418.2205503452201,-123.13289822066986 L-454.3826400245782,-115.78568000010159 M-445.2518271143126,124.96342040056561 L-454.3826400245782,-115.78568000010159 M-565.0813223162666,-160.61574845697146 L-371.897491776955,-198.62162715406544 M-475.83666312862374,77.16127267812789 L-482.08299726215546,-82.82547900006148 M-446.00625888278614,-90.25044287213939 L-482.08299726215546,-82.82547900006148 M-440.00327660885773,69.22878620522107 L-446.00625888278614,-90.25044287213939 M-475.83666312862374,77.16127267812789 L-440.00327660885773,69.22878620522107 M-416.7389412483815,114.83050933271255 L-409.4554293011968,116.85007105362655 M-452.5295540976558,122.92979940651378 L-445.2518271143126,124.96342040056561 M-416.7389412483815,114.83050933271255 L-452.5295540976558,122.92979940651378 M-454.3826400245782,-115.78568000010159 L-461.72040055298,-117.62731401507313 M-461.72040055298,-117.62731401507313 L-460.17667939270177,-77.22264529935933 M-460.17667939270177,-77.22264529935933 L-482.08299726215546,-82.82547900006148 M-475.83666312862374,77.16127267812789 L-454.0495213621832,83.1468545572663 M-454.0495213621832,83.1468545572663 L-452.5295540976558,122.92979940651378 M-418.2205503452201,-123.13289822066986 L-425.5642593867799,-124.96168179522147 M-425.5642593867799,-124.96168179522147 L-461.72040055298,-117.62731401507313 M-425.5642593867799,-124.96168179522147 L-424.0819733267506,-84.68657594194087 M-424.0819733267506,-84.68657594194087 L-446.00625888278614,-90.25044287213939 M-440.00327660885773,69.22878620522107 L-418.19849744881367,75.17299513465025 M-418.19849744881367,75.17299513465025 L-416.7389412483815,114.83050933271255 M-424.0819733267506,-84.68657594194087 L-460.17667939270177,-77.22264529935933 M-418.19849744881367,75.17299513465025 L-454.0495213621832,83.1468545572663" stroke="black"  stroke-width="4"  fill="red"/>
<path d="M676.1890008503112,593.6434931345168 L647.6587339387831,585.2049634846281 M525.8308512775047,639.5213175134742 L497.29508238594514,630.8054932309539 M676.1890008503112,593.6434931345168 L525.8308512775047,639.5213175134742 M647.6587339387831,585.2049634846281 L497.29508238594514,630.8054932309539 M681.8833371546136,-394.4156997958887 L652.2228721478475,-400.101193088179 M681.8833371546136,-394.4156997958887 L676.1890008503112,593.6434931345168 M652.2228721478475,-400.101193088179 L647.6587339387831,585.2049634846281 M525.6409964090558,-363.48195250277115 L495.9743559670567,-369.3617562730483 M525.8308512775047,639.5213175134742 L525.6409964090558,-363.48195250277115 M497.29508238594514,630.8054932309539 L495.9743559670567,-369.3617562730483 M525.6409964090558,-363.48195250277115 L681.8833371546136,-394.4156997958887 M589.1483566156824,-109.48614904925523 L618.1467765272919,-116.05871851505549 M618.8808895156104,-333.8455717162037 L618.1467765272919,-116.05871851505549 M618.8808895156104,-333.8455717162037 L589.6408449769473,-327.9047372702531 M589.1483566156824,-109.48614904925523 L589.6408449769473,-327.9047372702531 M495.9743559670567,-369.3617562730483 L652.2228721478475,-400.101193088179 M559.825295004161,-152.10465140249744 L559.9884296635119,-297.2944982247259 M589.1890833396392,-303.30429313208094 L559.9884296635119,-297.2944982247259 M588.8648479183075,-158.53317750743759 L589.1890833396392,-303.30429313208094 M559.825295004161,-152.10465140249744 L588.8648479183075,-158.53317750743759 M610.7890142477866,-117.69546069051694 L618.1467765272919,-116.05871851505549 M581.7902562565679,-111.13314353378235 L589.1483566156824,-109.48614904925523 M610.7890142477866,-117.69546069051694 L581.7902562565679,-111.13314353378235 M589.6408449769473,-327.9047372702531 L582.2205075081466,-329.3934570132101 M582.2205075081466,-329.3934570132101 L582.1482974451144,-292.7623236093269 M582.1482974451144,-292.7623236093269 L559.9884296635119,-297.2944982247259 M559.825295004161,-152.10465140249744 L581.8614660338433,-147.25684626308805 M581.8614660338433,-147.25684626308805 L581.7902562565679,-111.13314353378235 M618.8808895156104,-333.8455717162037 L611.4608987124315,-335.3249468296101 M611.4608987124315,-335.3249468296101 L582.2205075081466,-329.3934570132101 M611.4608987124315,-335.3249468296101 L611.3481372459786,-298.8004827413039 M611.3481372459786,-298.8004827413039 L589.1890833396392,-303.30429313208094 M588.8648479183075,-158.53317750743759 L610.9002185468115,-153.71554409292037 M610.9002185468115,-153.71554409292037 L610.7890142477866,-117.69546069051694 M611.3481372459786,-298.8004827413039 L582.1482974451144,-292.7623236093269 M610.9002185468115,-153.71554409292037 L581.8614660338433,-147.25684626308805" stroke="black"  stroke-width="4"  fill="red"/>
<path d="M-418.19849744881367,75.17299513465025 L-454.0495213621832,83.1468545572663 M-416.7389412483815,114.83050933271255 L-452.5295540976558,122.92979940651378 M-418.19849744881367,75.17299513465025 L-416.7389412483815,114.83050933271255 M-454.0495213621832,83.1468545572663 L-452.5295540976558,122.92979940651378 M-409.444791295879,77.55934621383079 L-445.3027853097876,85.54984552221566 M-409.444791295879,77.55934621383079 L-418.19849744881367,75.17299513465025 M-445.3027853097876,85.54984552221566 L-454.0495213621832,83.1468545572663 M467.9628095821301,360.13933883128846 L431.78996273916175,370.0358998421575 M-416.7389412483815,114.83050933271255 L467.9628095821301,360.13933883128846 M-452.5295540976558,122.92979940651378 L431.78996273916175,370.0358998421575 M-415.28009200602287,-82.45286591847139 L-409.444791295879,77.55934621383079 M-424.0819733267506,-84.68657594194087 L-415.28009200602287,-82.45286591847139 M-425.5642593867799,-124.96168179522147 L-424.0819733267506,-84.68657594194087 M-309.01864316877936,-95.93864896272339 L-425.5642593867799,-124.96168179522147 M-309.01864316877936,-95.93864896272339 L-305.07212168422427,26.040021658591 M-305.07212168422427,26.040021658591 L-274.9246147930204,33.97562347253364 M-274.9246147930204,33.97562347253364 L-278.7422850179653,-88.39901113528322 M294.0078176993533,54.231364638679565 L-278.7422850179653,-88.39901113528322 M294.0078176993533,54.231364638679565 L295.1982377495217,184.04667110953818 M295.1982377495217,184.04667110953818 L329.75113790361513,193.14188611784158 M329.75113790361513,193.14188611784158 L328.73158122967254,62.87852754117148 M467.31723413001356,97.39012981985564 L328.73158122967254,62.87852754117148 M467.4257524166521,141.55707248174292 L467.31723413001356,97.39012981985564 M456.6807721958462,138.83024975525632 L467.4257524166521,141.55707248174292 M457.1837676357855,313.811278906615 L456.6807721958462,138.83024975525632 M467.85612981968865,316.7206755176069 L457.1837676357855,313.811278906615 M467.9628095821301,360.13933883128846 L467.85612981968865,316.7206755176069 M-451.381898942029,-74.97326260561067 L-445.3027853097876,85.54984552221566 M-460.17667939270177,-77.22264529935933 L-451.381898942029,-74.97326260561067 M-461.72040055298,-117.62731401507313 L-460.17667939270177,-77.22264529935933 M-345.26388126631696,-88.39901113528322 L-461.72040055298,-117.62731401507313 M-341.13242992699315,33.97562347253364 L-345.26388126631696,-88.39901113528322 M-311.00591522993705,41.967572754977596 L-341.13242992699315,33.97562347253364 M-315.00881519616905,-80.80558278826584 L-311.00591522993705,41.967572754977596 M257.48256189768165,62.87852754117148 L-315.00881519616905,-80.80558278826584 M258.8619621036039,193.14188611784158 L257.48256189768165,62.87852754117148 M293.4080813622912,202.3062662592879 L258.8619621036039,193.14188611784158 M292.1994407441613,71.59178340852333 L293.4080813622912,202.3062662592879 M430.7676404379019,106.36968450812844 L292.1994407441613,71.59178340852333 M430.93949380798927,150.69223095702046 L430.7676404379019,106.36968450812844 M420.1952908414877,147.94425738945745 L430.93949380798927,150.69223095702046 M420.9494313344907,323.5353337653895 L420.1952908414877,147.94425738945745 M431.62103206344034,326.4671428401802 L420.9494313344907,323.5353337653895 M431.78996273916175,370.0358998421575 L431.62103206344034,326.4671428401802 M-415.28009200602287,-82.45286591847139 L-451.381898942029,-74.97326260561067 M467.85612981968865,316.7206755176069 L431.62103206344034,326.4671428401802 M-424.0819733267506,-84.68657594194087 L-460.17667939270177,-77.22264529935933 M-425.5642593867799,-124.96168179522147 L-461.72040055298,-117.62731401507313 M-309.01864316877936,-95.93864896272339 L-345.26388126631696,-88.39901113528322 M-305.07212168422427,26.040021658591 L-341.13242992699315,33.97562347253364 M-274.9246147930204,33.97562347253364 L-311.00591522993705,41.967572754977596 M-315.00881519616905,-80.80558278826584 L-278.7422850179653,-88.39901113528322 M294.0078176993533,54.231364638679565 L257.48256189768165,62.87852754117148 M295.1982377495217,184.04667110953818 L258.8619621036039,193.14188611784158 M329.75113790361513,193.14188611784158 L293.4080813622912,202.3062662592879 M292.1994407441613,71.59178340852333 L328.73158122967254,62.87852754117148 M467.31723413001356,97.39012981985564 L430.7676404379019,106.36968450812844 M467.4257524166521,141.55707248174292 L430.93949380798927,150.69223095702046 M456.6807721958462,138.83024975525632 L420.1952908414877,147.94425738945745 M457.1837676357855,313.811278906615 L420.9494313344907,323.5353337653895" stroke="black"  stroke-width="4"  fill="red"/>
<path d="M457.1837676357855,313.811278906615 L420.9494313344907,323.5353337653895 M496.43605857139437,324.5118604886353 L460.1993859245924,334.3184745495285 M457.1837676357855,313.811278906615 L496.43605857139437,324.5118604886353 M420.9494313344907,323.5353337653895 L460.1993859245924,334.3184745495285 M496.20098128957915,148.85954735262396 L459.713115044923,158.0514693154817 M496.43605857139437,324.5118604886353 L496.20098128957915,148.85954735262396 M460.1993859245924,334.3184745495285 L459.713115044923,158.0514693154817 M456.6807721958462,138.83024975525632 L420.1952908414877,147.94425738945745 M496.20098128957915,148.85954735262396 L456.6807721958462,138.83024975525632 M459.713115044923,158.0514693154817 L420.1952908414877,147.94425738945745 M456.6807721958462,138.83024975525632 L457.1837676357855,313.811278906615 M420.1952908414877,147.94425738945745 L420.9494313344907,323.5353337653895" stroke="black"  stroke-width="4"  fill="red"/>
<path d="M-441.4529231334823,68.83359752878732 L-477.2851231323127,76.76333723328253 M-409.444791295879,77.55934621383079 L-445.3027853097876,85.54984552221566 M-441.4529231334823,68.83359752878732 L-409.444791295879,77.55934621383079 M-477.2851231323127,76.76333723328253 L-445.3027853097876,85.54984552221566 M-415.28009200602287,-82.45286591847139 L-451.381898942029,-74.97326260561067 M-409.444791295879,77.55934621383079 L-415.28009200602287,-82.45286591847139 M-445.3027853097876,85.54984552221566 L-451.381898942029,-74.97326260561067 M-447.4638255518189,-90.62033893865737 L-483.5393552215389,-83.19796202088423 M-415.28009200602287,-82.45286591847139 L-447.4638255518189,-90.62033893865737 M-451.381898942029,-74.97326260561067 L-483.5393552215389,-83.19796202088423 M-447.4638255518189,-90.62033893865737 L-441.4529231334823,68.83359752878732 M-483.5393552215389,-83.19796202088423 L-477.2851231323127,76.76333723328253" stroke="black"  stroke-width="4"  fill="red"/>
<path d="M610.9002185468115,-153.71554409292037 L581.8614660338433,-147.25684626308805 M610.7890142477866,-117.69546069051694 L581.7902562565679,-111.13314353378235 M610.9002185468115,-153.71554409292037 L610.7890142477866,-117.69546069051694 M581.8614660338433,-147.25684626308805 L581.7902562565679,-111.13314353378235 M619.7432876719531,-151.78216770355073 L590.7049469385588,-145.31134165966137 M619.7432876719531,-151.78216770355073 L610.9002185468115,-153.71554409292037 M590.7049469385588,-145.31134165966137 L581.8614660338433,-147.25684626308805 M1495.3086443724812,79.06688751435871 L1466.6075909764165,86.91923397863991 M610.7890142477866,-117.69546069051694 L1495.3086443724812,79.06688751435871 M581.7902562565679,-111.13314353378235 L1466.6075909764165,86.91923397863991 M620.241004317701,-296.99301445810397 L619.7432876719531,-151.78216770355073 M611.3481372459786,-298.8004827413039 L620.241004317701,-296.99301445810397 M611.4608987124315,-335.3249468296101 L611.3481372459786,-298.8004827413039 M729.0634252705568,-311.877714120202 L611.4608987124315,-335.3249468296101 M729.0634252705568,-311.877714120202 L728.2251586492252,-201.35226009763767 M728.2251586492252,-201.35226009763767 L758.5906011118748,-194.94631360086373 M758.5906011118748,-194.94631360086373 L759.5607577009878,-305.7972490873435 M1332.3627785730325,-191.59373090724716 L759.5607577009878,-305.7972490873435 M1332.3627785730325,-191.59373090724716 L1328.7634116778463,-74.66166690442287 M1328.7634116778463,-74.66166690442287 L1363.0726374028768,-67.42373303895636 M1363.0726374028768,-67.42373303895636 L1366.839464709359,-184.719874481313 M1504.1566108197353,-157.34200111351186 L1366.839464709359,-184.719874481313 M1502.67069742683,-117.63986888819738 L1504.1566108197353,-157.34200111351186 M1492.0398372437617,-119.80058291316323 L1502.67069742683,-117.63986888819738 M1486.2117373095307,37.655415442840194 L1492.0398372437617,-119.80058291316323 M1496.772120701154,39.964251393699556 L1486.2117373095307,37.655415442840194 M1495.3086443724812,79.06688751435871 L1496.772120701154,39.964251393699556 M591.041583239604,-290.94345336504057 L590.7049469385588,-145.31134165966137 M582.1482974451144,-292.7623236093269 L591.041583239604,-290.94345336504057 M582.2205075081466,-329.3934570132101 L582.1482974451144,-292.7623236093269 M699.8328563886378,-305.7972490873435 L582.2205075081466,-329.3934570132101 M699.1157841271195,-194.94631360086373 L699.8328563886378,-305.7972490873435 M729.4852310571671,-188.49952153662878 L699.1157841271195,-194.94631360086373 M730.3342446255208,-299.6778483125456 L729.4852310571671,-188.49952153662878 M1303.3278954405707,-184.719874481313 L730.3342446255208,-299.6778483125456 M1299.8471562839477,-67.42373303895636 L1303.3278954405707,-184.719874481313 M1334.1746632643378,-60.13672843541872 L1299.8471562839477,-67.42373303895636 M1337.8231121206104,-177.79920405020766 L1334.1746632643378,-60.13672843541872 M1475.2219485334472,-150.2332932965353 L1337.8231121206104,-177.79920405020766 M1473.7752292894388,-110.40523616019982 L1475.2219485334472,-150.2332932965353 M1463.1376143987268,-112.58085961839129 L1473.7752292894388,-110.40523616019982 M1457.4653747624764,45.369954604629584 L1463.1376143987268,-112.58085961839129 M1468.032390497386,47.694624944086854 L1457.4653747624764,45.369954604629584 M1466.6075909764165,86.91923397863991 L1468.032390497386,47.694624944086854 M620.241004317701,-296.99301445810397 L591.041583239604,-290.94345336504057 M1496.772120701154,39.964251393699556 L1468.032390497386,47.694624944086854 M611.3481372459786,-298.8004827413039 L582.1482974451144,-292.7623236093269 M611.4608987124315,-335.3249468296101 L582.2205075081466,-329.3934570132101 M729.0634252705568,-311.877714120202 L699.8328563886378,-305.7972490873435 M728.2251586492252,-201.35226009763767 L699.1157841271195,-194.94631360086373 M758.5906011118748,-194.94631360086373 L729.4852310571671,-188.49952153662878 M730.3342446255208,-299.6778483125456 L759.5607577009878,-305.7972490873435 M1332.3627785730325,-191.59373090724716 L1303.3278954405707,-184.719874481313 M1328.7634116778463,-74.66166690442287 L1299.8471562839477,-67.42373303895636 M1363.0726374028768,-67.42373303895636 L1334.1746632643378,-60.13672843541872 M1337.8231121206104,-177.79920405020766 L1366.839464709359,-184.719874481313 M1504.1566108197353,-157.34200111351186 L1475.2219485334472,-150.2332932965353 M1502.67069742683,-117.63986888819738 L1473.7752292894388,-110.40523616019982 M1492.0398372437617,-119.80058291316323 L1463.1376143987268,-112.58085961839129 M1486.2117373095307,37.655415442840194 L1457.4653747624764,45.369954604629584" stroke="black"  stroke-width="4"  fill="red"/>
<path d="M1486.2117373095307,37.655415442840194 L1457.4653747624764,45.369954604629584 M1525.0391367346497,46.144320849644714 L1496.3175237029986,53.91715852028506 M1486.2117373095307,37.655415442840194 L1525.0391367346497,46.144320849644714 M1457.4653747624764,45.369954604629584 L1496.3175237029986,53.91715852028506 M1531.127012341719,-111.85614511828317 L1502.2499962714894,-104.58152740131538 M1525.0391367346497,46.144320849644714 L1531.127012341719,-111.85614511828317 M1496.3175237029986,53.91715852028506 L1502.2499962714894,-104.58152740131538 M1492.0398372437617,-119.80058291316323 L1463.1376143987268,-112.58085961839129 M1531.127012341719,-111.85614511828317 L1492.0398372437617,-119.80058291316323 M1502.2499962714894,-104.58152740131538 L1463.1376143987268,-112.58085961839129 M1492.0398372437617,-119.80058291316323 L1486.2117373095307,37.655415442840194 M1463.1376143987268,-112.58085961839129 L1457.4653747624764,45.369954604629584" stroke="black"  stroke-width="4"  fill="red"/>
<path d="M587.3994663241892,-158.85355656762522 L558.3598716044249,-152.42703440992136 M619.7432876719531,-151.78216770355073 L590.7049469385588,-145.31134165966137 M587.3994663241892,-158.85355656762522 L619.7432876719531,-151.78216770355073 M558.3598716044249,-152.42703440992136 L590.7049469385588,-145.31134165966137 M620.241004317701,-296.99301445810397 L591.041583239604,-290.94345336504057 M619.7432876719531,-151.78216770355073 L620.241004317701,-296.99301445810397 M590.7049469385588,-145.31134165966137 L591.041583239604,-290.94345336504057 M587.7154971112138,-303.603798381508 L558.5148009266766,-297.5958873313498 M620.241004317701,-296.99301445810397 L587.7154971112138,-303.603798381508 M591.041583239604,-290.94345336504057 L558.5148009266766,-297.5958873313498 M587.7154971112138,-303.603798381508 L587.3994663241892,-158.85355656762522 M558.5148009266766,-297.5958873313498 L558.3598716044249,-152.42703440992136" stroke="black"  stroke-width="4"  fill="red"/></svg>