<svg viewBox="0 0 800 800" xmlns="http://www.w3.org/2000/svg"><path d="M-664.4521872141415,40.61525853214113 L-667.5116931670304,-12.125917163421832 M12.29120212729913,168.61931349090486 L88.98809250990342,147.44843557054634 M88.98809250990342,147.44843557054634 L146.74453105573747,123.86539291963493 M146.74453105573747,123.86539291963493 L183.85700395549438,98.93899728123114 M183.85700395549438,98.93899728123114 L199.65339917241886,73.71925215462585 M199.65339917241886,73.71925215462585 L194.38748598275657,49.18715387395986 M194.38748598275657,49.18715387395986 L169.09288971051274,26.22050675935037 M169.09288971051274,26.22050675935037 L125.42509854286584,5.574420188651857 M125.42509854286584,5.574420188651857 L65.51063115329612,-12.125917163421661 M65.51063115329612,-12.125917163421661 L-8.18275357629068,-26.384063800677097 M-8.18275357629068,-26.384063800677097 L-92.94938126896426,-36.82610101864532 M-92.94938126896426,-36.82610101864532 L-185.92135370159588,-43.19267252803644 M-185.92135370159588,-43.19267252803644 L-284.12100830122154,-45.33157062828883 M-284.12100830122154,-45.33157062828883 L-384.49513360441676,-43.19268033700217 M-384.49513360441676,-43.19268033700217 L-483.9398068076165,-36.826104952733374 M-483.9398068076165,-36.826104952733374 L-579.3225104976012,-26.38406678784213 M-579.3225104976012,-26.38406678784213 L-667.5116931670304,-12.125917163421832 M13.815156396832094,226.41456031659038 L12.29120212729913,168.61931349090486 M-664.4521872141415,40.61525853214113 L-576.504610193671,25.954293194396712 M-576.504610193671,25.954293194396712 L-481.37159327488826,15.216867983679265 M-481.37159327488826,15.216867983679265 L-382.17797765229864,8.670034521948708 M-382.17797765229864,8.670034521948708 L-282.0501377035622,6.470558426314767 M-282.0501377035622,6.470558426314767 L-184.08623082620193,8.67004255208542 M-184.08623082620193,8.67004255208542 L-91.33387034035843,15.216872029117212 M-91.33387034035843,15.216872029117212 L-6.765098209748885,25.954296266016968 M-6.765098209748885,25.954296266016968 L66.75796819562646,40.615258532140786 M66.75796819562646,40.615258532140786 L126.53564185472817,58.81481980222247 M126.53564185472817,58.81481980222247 L170.10627858632313,80.0420384437192 M170.10627858632313,80.0420384437192 L195.34936112507302,103.6536495677982 M195.34936112507302,103.6536495677982 L200.61486592523107,128.87294573576997 M200.61486592523107,128.87294573576997 L184.87348692697037,154.79729061188664 M184.87348692697037,154.79729061188664 L147.87387423053616,180.4182369127023 M147.87387423053616,180.4182369127023 L90.28784229402135,204.65670288153495 M90.28784229402135,204.65670288153495 L13.815156396832094,226.41456031659038 M1603.4206251542942,-150.23081189855384 L1605.7042984368973,-197.68254772969226 M13.815156396832094,226.41456031659038 L1603.4206251542942,-150.23081189855384 M12.29120212729913,168.61931349090486 L1605.7042984368973,-197.68254772969226 M922.1057801900917,-317.49533573789586 L871.6668309239935,-305.5635074571255 M871.6668309239935,-305.5635074571255 L834.5274028263501,-291.7012285950832 M834.5274028263501,-291.7012285950832 L812.4110185845664,-276.350371678235 M812.4110185845664,-276.350371678235 L806.6208958960211,-260.03345573979914 M806.6208958960211,-260.03345573979914 L817.9300684204919,-243.34495170250102 M817.9300684204919,-243.34495170250102 L846.47215280835,-226.93539949097976 M846.47215280835,-226.93539949097976 L891.6469612572754,-211.4872464469331 M891.6469612572754,-211.4872464469331 L952.0589771921419,-197.68254772969226 M952.0589771921419,-197.68254772969226 L1025.506369207194,-186.16384992308417 M1025.506369207194,-186.16384992308417 L1109.0356277313558,-177.49158715532167 M1109.0356277313558,-177.49158715532167 L1199.068248734879,-172.102456754184 M1199.068248734879,-172.102456754184 L1291.596040441621,-170.27429017078862 M1291.596040441621,-170.27429017078862 L1382.4276668547714,-172.102456754184 M1382.4276668547714,-172.102456754184 L1467.4603579416557,-177.4915838492841 M1467.4603579416557,-177.4915838492841 L1542.9436875901515,-186.16384747125653 M1542.9436875901515,-186.16384747125653 L1605.7042984368973,-197.68254772969226 M921.3902368660802,-273.5132727553155 L922.1057801900917,-317.49533573789586 M1603.4206251542942,-150.23081189855384 L1540.7822698762602,-138.38078649286695 M1540.7822698762602,-138.38078649286695 L1465.4554326134325,-129.45933288766537 M1465.4554326134325,-129.45933288766537 L1380.6064133072805,-123.9154663884076 M1380.6064133072805,-123.9154663884076 L1289.9765234089996,-122.03482677061515 M1289.9765234089996,-122.03482677061515 L1197.658069351527,-123.9154663884076 M1197.658069351527,-123.9154663884076 L1107.831474975194,-129.4593362886567 M1107.831474975194,-129.4593362886567 L1024.494519973859,-138.38078901517747 M1024.494519973859,-138.38078901517747 L951.2166386862648,-150.2308118985536 M951.2166386862648,-150.2308118985536 L890.944228155688,-164.43310947712393 M890.944228155688,-164.43310947712393 L845.8742843869802,-180.32686662460173 M845.8742843869802,-180.32686662460173 L817.3997925182717,-197.210530857805 M817.3997925182717,-197.210530857805 L806.1204994271847,-214.38202673103137 M806.1204994271847,-214.38202673103137 L811.9040696356209,-231.17197991964554 M811.9040696356209,-231.17197991964554 L833.9800385040468,-246.96858942220683 M833.9800385040468,-246.96858942220683 L871.0486221695382,-261.23399754832553 M871.0486221695382,-261.23399754832553 L921.3902368660802,-273.5132727553155 M921.3902368660802,-273.5132727553155 L-664.4521872141415,40.61525853214113 M922.1057801900917,-317.49533573789586 L-667.5116931670304,-12.125917163421832" stroke="black"  stroke-width="4"  fill="red"/>
<path d="M1522.5579357751276,-273.5132727553155 L1524.497853231337,-317.49533573789586 M1522.5579357751276,-273.5132727553155 L1449.6745403979348,-283.71535066322053 M1449.6745403979348,-283.71535066322053 L1369.856463949091,-291.0994429860723 M1369.856463949091,-291.0994429860723 L1285.9869804805744,-295.45110920761954 M1285.9869804805744,-295.45110920761954 L1200.9913593304486,-296.64761655695133 M1200.9913593304486,-296.64761655695133 L1117.7909679154877,-294.6557325346914 M1117.7909679154877,-294.6557325346914 L1039.2621880917354,-289.53092868600584 M1039.2621880917354,-289.53092868600584 L968.1940066647951,-281.4185766977839 M968.1940066647951,-281.4185766977839 L907.2368674251062,-270.5565754914612 M907.2368674251062,-270.5565754914612 L858.8363685019078,-257.2785000222573 M858.8363685019078,-257.2785000222573 L825.1485499740946,-242.01591876058774 M825.1485499740946,-242.01591876058774 L807.9347278483609,-225.29776897970237 M807.9347278483609,-225.29776897970237 L808.4400924801545,-207.74459153071666 M808.4400924801545,-207.74459153071666 L827.2642346294502,-190.055218119458 M827.2642346294502,-190.055218119458 L864.2381308012351,-172.9839882403046 M864.2381308012351,-172.9839882403046 L918.327146545565,-157.30755233756054 M918.327146545565,-157.30755233756054 L987.583035465955,-143.78207765964203 M987.583035465955,-143.78207765964203 L1069.1655218882447,-133.09361989826857 M1069.1655218882447,-133.09361989826857 L1159.4481471743584,-125.80670596078471 M1159.4481471743584,-125.80670596078471 L1254.2104054167999,-122.31767962493086 M1254.2104054167999,-122.31767962493086 L1348.9024880162433,-122.81961489199034 M1348.9024880162433,-122.81961489199034 L1438.954701277817,-127.28460317320082 M1438.954701277817,-127.28460317320082 L1520.0928612026632,-135.46634021897057 M1520.0928612026632,-135.46634021897057 L1588.6196470946502,-146.92259404825722 M1588.6196470946502,-146.92259404825722 L1641.628723116988,-161.05374652673413 M1641.628723116988,-161.05374652673413 L1677.1324389252495,-177.15137991975826 M1677.1324389252495,-177.15137991975826 L1694.0994261335863,-194.44974530299555 M1694.0994261335863,-194.44974530299555 L1692.4139236847495,-212.1741085562419 M1692.4139236847495,-212.1741085562419 L1672.776850246445,-229.58130937256374 M1672.776850246445,-229.58130937256374 L1636.5725804995823,-245.99032014185855 M1636.5725804995823,-245.99032014185855 L1585.7249319741345,-260.8026132354569 M1585.7249319741345,-260.8026132354569 L1522.5579357751276,-273.5132727553155 M1524.497853231337,-317.49533573789586 L1587.8116422049575,-305.14432186056365 M1587.8116422049575,-305.14432186056365 L1638.7859606844818,-290.7505841143104 M1638.7859606844818,-290.7505841143104 L1675.0907982924223,-274.8045493641084 M1675.0907982924223,-274.8045493641084 L1694.7965386892015,-257.8876858953993 M1694.7965386892015,-257.8876858953993 L1696.513623401946,-240.66174522261917 M1696.513623401946,-240.66174522261917 L1679.537114630642,-223.8489971370766 M1679.537114630642,-223.8489971370766 L1643.9805302083168,-208.20253994817267 M1643.9805302083168,-208.20253994817267 L1590.875348189547,-194.4668657447221 M1590.875348189547,-194.4668657447221 L1522.2121044482838,-183.3308300571216 M1522.2121044482838,-183.3308300571216 L1440.9029442258197,-175.3775647905245 M1440.9029442258197,-175.3775647905245 L1350.6537046762965,-171.03718254554042 M1350.6537046762965,-171.03718254554042 L1255.7491914479,-170.54925156711238 M1255.7491914479,-170.54925156711238 L1160.7709039468743,-173.9409178078688 M1160.7709039468743,-173.9409178078688 L1070.2805457207733,-181.02438580999433 M1070.2805457207733,-181.02438580999433 L988.5095269524369,-191.41416674316565 M988.5095269524369,-191.41416674316565 L919.0933362935974,-204.56124081235475 M919.0933362935974,-204.56124081235475 L864.8788419209404,-219.79847475640122 M864.8788419209404,-219.79847475640122 L827.8182459092917,-236.39066297996737 M827.8182459092917,-236.39066297996737 L808.9476299383846,-253.58281053617202 M808.9476299383846,-253.58281053617202 L808.4353203847932,-270.64174714787964 M808.4353203847932,-270.64174714787964 L825.6793737217685,-286.88838680469917 M825.6793737217685,-286.88838680469917 L859.4310996416543,-301.71984477385877 M859.4310996416543,-301.71984477385877 L907.9249861963336,-314.6223369518184 M907.9249861963336,-314.6223369518184 L969.000450226378,-325.17673853858264 M969.000450226378,-325.17673853858264 L1040.2072347630544,-333.0591481081442 M1040.2072347630544,-333.0591481081442 L1118.8902386872182,-338.0385983380104 M1118.8902386872182,-338.0385983380104 L1202.2558429233904,-339.9739677006471 M1202.2558429233904,-339.9739677006471 L1287.4230117365269,-338.8114095109636 M1287.4230117365269,-338.8114095109636 L1371.4656141555538,-334.5831826033286 M1371.4656141555538,-334.5831826033286 L1451.4534078674733,-327.40842927033873 M1451.4534078674733,-327.40842927033873 L1524.497853231337,-317.49533573789586" stroke="black"  stroke-width="4"  fill="red"/>
<path d="M66.75796819562709,40.61525853214113 L-9.33574001952718,25.54495313353408 M-9.33574001952718,25.54495313353408 L-97.10228866755187,14.665805073281206 M-97.10228866755187,14.665805073281206 L-193.3870649758402,8.265582626562889 M-193.3870649758402,8.265582626562889 L-294.9133920102879,6.507256020724981 M-294.9133920102879,6.507256020724981 L-398.3218493811157,9.43476026341159 M-398.3218493811157,9.43476026341159 L-500.19861547997004,16.974733295572946 M-500.19861547997004,16.974733295572946 L-597.1028659264979,28.933704811374753 M-597.1028659264979,28.933704811374753 L-685.6037928538326,44.99139979033157 M-685.6037928538326,44.99139979033157 L-762.3384884914813,64.6916231662617 M-762.3384884914813,64.6916231662617 L-824.0987943722375,87.43291520071193 M-824.0987943722375,87.43291520071193 L-867.9551045991866,112.4625266493826 M-867.9551045991866,112.4625266493826 L-891.4179228227708,138.87780771613689 M-891.4179228227708,138.87780771613689 L-892.631347266502,165.63954605773608 M-892.631347266502,165.63954605773608 L-870.5848182823693,191.60187507811148 M-870.5848182823693,191.60187507811148 L-825.3159531067013,215.56133685288808 M-825.3159531067013,215.56133685288808 L-758.0690238193856,236.32500157162536 M-758.0690238193856,236.32500157162536 L-671.3716509853948,252.79384039750104 M-671.3716509853948,252.79384039750104 L-568.9933879731606,264.0523144315228 M-568.9933879731606,264.0523144315228 L-455.76717388662485,269.45180443234256 M-455.76717388662485,269.45180443234256 L-337.28077088387045,268.67466351699426 M-337.28077088387045,268.67466351699426 L-219.46948629354006,261.7669044486556 M-219.46948629354006,261.7669044486556 L-108.16571626983989,249.13331063906074 M-108.16571626983989,249.13331063906074 L-8.671533162186961,231.49620843864085 M-8.671533162186961,231.49620843864085 L74.58873744824314,209.82538611043464 M74.58873744824314,209.82538611043464 L138.29693069829483,185.25164768566887 M138.29693069829483,185.25164768566887 L180.33780775319926,158.9778703716437 M180.33780775319926,158.9778703716437 L199.77775534404933,132.19880359971972 M199.77775534404933,132.19880359971972 L196.7536823737247,106.03747417858182 M196.7536823737247,106.03747417858182 L172.308324203164,81.50104658828315 M172.308324203164,81.50104658828315 L128.20651588536555,59.45541489352519 M128.20651588536555,59.45541489352519 L66.75796819562709,40.61525853214113 M66.75796819562709,40.61525853214113 L65.51063115329544,-12.125917163421832 M65.51063115329544,-12.125917163421832 L127.09975814655809,6.19745987624168 M127.09975814655809,6.19745987624168 L171.29969845130904,27.639617188830982 M171.29969845130904,27.639617188830982 L195.79416017338932,51.5059475994812 M195.79416017338932,51.5059475994812 L198.81237738194065,76.95461366977798 M198.81237738194065,76.95461366977798 L179.30706291841665,103.00612456335506 M179.30706291841665,103.00612456335506 L137.13903265912762,128.56797716579376 M137.13903265912762,128.56797716579376 L73.24285326109327,152.47756191402397 M73.24285326109327,152.47756191402397 L-10.26123362632211,173.56405609150835 M-10.26123362632211,173.56405609150835 L-110.04554999129329,190.72654143821202 M-110.04554999129329,190.72654143821202 L-221.67185921856594,203.02068580613548 M-221.67185921856594,203.02068580613548 L-339.82059771118475,209.74302608412447 M-339.82059771118475,209.74302608412447 L-458.63979029096276,210.499315059279 M-458.63979029096276,210.499315059279 L-572.1744149677241,205.2447361464866 M-572.1744149677241,205.2447361464866 L-674.818918118574,194.28867231125187 M-674.818918118574,194.28867231125187 L-761.7262531612944,178.2628212665507 M-761.7262531612944,178.2628212665507 L-829.1175841205422,158.05872469433876 M-829.1175841205422,158.05872469433876 L-874.4612086851853,134.74641913893527 M-874.4612086851853,134.74641913893527 L-896.513623401946,109.487114457843 M-896.513623401946,109.487114457843 L-895.2419470541422,83.4519737943424 M-895.2419470541422,83.4519737943424 L-871.6642944600421,57.75580148889003 M-871.6642944600421,57.75580148889003 L-827.6457705724417,33.40933406640846 M-827.6457705724417,33.40933406640846 L-765.6857113667672,11.290212712533219 M-765.6857113667672,11.290212712533219 L-688.7234483305729,-7.8698984039869515 M-688.7234483305729,-7.8698984039869515 L-599.976281589552,-23.48656315308341 M-599.976281589552,-23.48656315308341 L-502.81546185448224,-35.116620131773004 M-502.81546185448224,-35.116620131773004 L-400.6793311061416,-42.449016302753705 M-400.6793311061416,-42.449016302753705 L-297.01556868414355,-45.29588399801753 M-297.01556868414355,-45.29588399801753 L-195.24438605129944,-43.585992368332825 M-195.24438605129944,-43.585992368332825 L-98.73137238723405,-37.36199961005866 M-98.73137238723405,-37.36199961005866 L-10.759379646943216,-26.78215165401849 M-10.759379646943216,-26.78215165401849 L65.51063115329544,-12.125917163421832" stroke="black"  stroke-width="4"  fill="red"/>
<path d="M184.03043274865254,123.27367166185553 L212.46422378773937,130.47896475895385 M13.456914493933255,162.36197681053034 L41.8153839790636,169.87575932368446 M184.03043274865254,123.27367166185553 L13.456914493933255,162.36197681053034 M212.46422378773937,130.47896475895385 L41.8153839790636,169.87575932368446 M187.985469146143,340.4611820594928 L216.1420732742241,348.4300322844215 M13.456914493933255,162.36197681053034 L19.116845145736534,210.99043785260906 M19.116845145736534,210.99043785260906 L33.127434163931525,254.83458990743094 M33.127434163931525,254.83458990743094 L54.6641048106884,291.6561234517381 M54.6641048106884,291.6561234517381 L82.51675371119848,319.64758255498003 M82.51675371119848,319.64758255498003 L115.17749617107069,337.51344412101855 M115.17749617107069,337.51344412101855 L150.9373892268522,344.5120557453652 M150.9373892268522,344.5120557453652 L187.985469146143,340.4611820594928 M41.8153839790636,169.87575932368446 L47.415951879291526,218.67550728052265 M47.415951879291526,218.67550728052265 L61.37474571341676,262.66387502532956 M61.37474571341676,262.66387502532956 L82.86933115681802,299.5951596192334 M82.86933115681802,299.5951596192334 L110.6911393598408,327.65684928385247 M110.6911393598408,327.65684928385247 L143.33325650116365,345.5508452365038 M143.33325650116365,345.5508452365038 L179.08721132188072,352.53532303583836 M179.08721132188072,352.53532303583836 L216.1420732742241,348.4300322844215 M187.985469146143,340.4611820594928 L184.03043274865254,123.27367166185553 M216.1420732742241,348.4300322844215 L212.46422378773937,130.47896475895385" stroke="black"  stroke-width="4"  fill="red"/>
<path d="M1323.792786966957,49.46540771339619 L1351.7323275718063,55.34446936371501 M1451.2853170558883,-167.12806317824447 L1479.3988076136657,-162.01151792995984 M1323.792786966957,49.46540771339619 L1351.001648332689,37.85949007902508 M1351.001648332689,37.85949007902508 L1377.0148380161636,17.578219309182316 M1377.0148380161636,17.578219309182316 L1400.5980401668653,-10.329802860422376 M1400.5980401668653,-10.329802860422376 L1420.6465317280963,-44.487166930510114 M1420.6465317280963,-44.487166930510114 L1436.2259777641038,-83.25193645210908 M1436.2259777641038,-83.25193645210908 L1446.6054982101227,-124.7861376303365 M1446.6054982101227,-124.7861376303365 L1451.2853170558883,-167.12806317824447 M1351.7323275718063,55.34446936371501 L1378.9277226361114,43.678531510435164 M1378.9277226361114,43.678531510435164 L1404.9410462265546,23.312741960951655 M1404.9410462265546,23.312741960951655 L1428.5380836442228,-4.6999286107594 M1428.5380836442228,-4.6999286107594 L1448.6136178965908,-38.977034798949205 M1448.6136178965908,-38.977034798949205 L1464.2322126080794,-77.87114485736078 M1464.2322126080794,-77.87114485736078 L1474.6612881398519,-119.53850805576917 M1474.6612881398519,-119.53850805576917 L1479.3988076136657,-162.01151792995984 M1330.4864497679955,-139.44602299711687 L1358.6973072242313,-134.14580129321803 M1451.2853170558883,-167.12806317824447 L1330.4864497679955,-139.44602299711687 M1479.3988076136657,-162.01151792995984 L1358.6973072242313,-134.14580129321803 M1330.4864497679955,-139.44602299711687 L1323.792786966957,49.46540771339619 M1358.6973072242313,-134.14580129321803 L1351.7323275718063,55.34446936371501" stroke="black"  stroke-width="4"  fill="red"/>
<path d="M1330.4864497679955,-139.44602299711687 L1358.6973072242313,-134.14580129321803 M184.03043274865254,123.27367166185553 L212.46422378773937,130.47896475895385 M1330.4864497679955,-139.44602299711687 L184.03043274865254,123.27367166185553 M1358.6973072242313,-134.14580129321803 L212.46422378773937,130.47896475895385 M1323.792786966957,49.46540771339619 L1351.7323275718063,55.34446936371501 M1323.792786966957,49.46540771339619 L1330.4864497679955,-139.44602299711687 M1351.7323275718063,55.34446936371501 L1358.6973072242313,-134.14580129321803 M187.985469146143,340.4611820594928 L216.1420732742241,348.4300322844215 M184.03043274865254,123.27367166185553 L187.985469146143,340.4611820594928 M212.46422378773937,130.47896475895385 L216.1420732742241,348.4300322844215 M1211.456097297866,78.24625943431386 L1323.792786966957,49.46540771339619 M187.985469146143,340.4611820594928 L335.0126932204132,302.79255618592805 M334.42014085562096,249.80376523132009 L335.0126932204132,302.79255618592805 M364.249708710642,242.36157383348774 L334.42014085562096,249.80376523132009 M364.249708710642,242.36157383348774 L364.7653047588303,295.1698863038118 M364.7653047588303,295.1698863038118 L1187.7577001365503,84.3178292547563 M1189.14682885076,36.55764528042073 L1187.7577001365503,84.3178292547563 M1212.8936713704802,30.633035578232523 L1189.14682885076,36.55764528042073 M1212.8936713704802,30.633035578232523 L1211.456097297866,78.24625943431386 M1239.4720551836222,84.3178292547563 L1351.7323275718063,55.34446936371501 M216.1420732742241,348.4300322844215 L363.21070783945686,310.4729492728271 M362.68726349503544,257.30245576245227 L363.21070783945686,310.4729492728271 M392.5227397563292,249.80376523132009 L362.68726349503544,257.30245576245227 M392.5227397563292,249.80376523132009 L392.9691833226615,302.79255618592805 M392.9691833226615,302.79255618592805 L1215.788238902791,90.4304078019116 M1217.2453200016926,42.52236140403198 L1215.788238902791,90.4304078019116 M1240.97748304703,36.55764528042073 L1217.2453200016926,42.52236140403198 M1240.97748304703,36.55764528042073 L1239.4720551836222,84.3178292547563 M1211.456097297866,78.24625943431386 L1239.4720551836222,84.3178292547563 M335.0126932204132,302.79255618592805 L363.21070783945686,310.4729492728271 M1212.8936713704802,30.633035578232523 L1240.97748304703,36.55764528042073 M1217.2453200016926,42.52236140403198 L1189.14682885076,36.55764528042073 M1187.7577001365503,84.3178292547563 L1215.788238902791,90.4304078019116 M364.7653047588303,295.1698863038118 L392.9691833226615,302.79255618592805 M364.249708710642,242.36157383348774 L392.5227397563292,249.80376523132009 M362.68726349503544,257.30245576245227 L334.42014085562096,249.80376523132009" stroke="black"  stroke-width="4"  fill="red"/>
<path d="M-291.11992530612883,2.867722618000812 L-266.2751307760201,9.16354248530348 M-459.74426372345556,36.98388685549571 L-435.03362887496723,43.53114908030892 M-291.11992530612883,2.867722618000812 L-459.74426372345556,36.98388685549571 M-266.2751307760201,9.16354248530348 L-435.03362887496723,43.53114908030892 M-282.8658193246097,207.2013834356948 L-258.2302384679632,214.17371764040618 M-459.74426372345556,36.98388685549571 L-453.1893190342337,82.72823872634729 M-453.1893190342337,82.72823872634729 L-438.43915621191445,124.13084906966031 M-438.43915621191445,124.13084906966031 L-416.3472641073521,159.07869800395565 M-416.3472641073521,159.07869800395565 L-388.1415730116415,185.85129950915692 M-388.1415730116415,185.85129950915692 L-355.3379134464808,203.19914986020746 M-355.3379134464808,203.19914986020746 L-319.6448046425983,210.38663531442728 M-319.6448046425983,210.38663531442728 L-282.8658193246097,207.2013834356948 M-435.03362887496723,43.53114908030892 L-428.52095998716504,89.42732127104927 M-428.52095998716504,89.42732127104927 L-413.803591163238,130.95906925156055 M-413.803591163238,130.95906925156055 L-391.73381912374043,166.0067413223661 M-391.73381912374043,166.0067413223661 L-363.539005378497,192.84518852758407 M-363.539005378497,192.84518852758407 L-330.7349507230049,210.22236208106688 M-330.7349507230049,210.22236208106688 L-295.0305846142637,217.4021846762372 M-295.0305846142637,217.4021846762372 L-258.2302384679632,214.17371764040618 M-282.8658193246097,207.2013834356948 L-291.11992530612883,2.867722618000812 M-258.2302384679632,214.17371764040618 L-266.2751307760201,9.16354248530348" stroke="black"  stroke-width="4"  fill="red"/>
<path d="M852.0322246997131,-49.802846871896065 L876.929708768505,-44.56389731834241 M976.3421347217924,-253.56586348562382 L1001.419174275562,-249.00194043572083 M852.0322246997131,-49.802846871896065 L879.3655722384049,-60.416760192354275 M879.3655722384049,-60.416760192354275 L905.2915942088133,-79.28805077659382 M905.2915942088133,-79.28805077659382 L928.578066040239,-105.44107567629163 M928.578066040239,-105.44107567629163 L948.1314193293979,-137.58305428144968 M948.1314193293979,-137.58305428144968 L963.0376708477096,-174.16482348506747 M963.0376708477096,-174.16482348506747 L972.5952793296375,-213.44626979822988 M972.5952793296375,-213.44626979822988 L976.3421347217924,-253.56586348562382 M876.929708768505,-44.56389731834241 L904.2613435394829,-55.229152256708005 M904.2613435394829,-55.229152256708005 L930.1959753899831,-74.17404686543705 M930.1959753899831,-74.17404686543705 L953.501089017708,-100.41912625096853 M953.501089017708,-100.41912625096853 L973.0823935496505,-132.6671626531097 M973.0823935496505,-132.6671626531097 L988.024748268787,-169.36409761407162 M988.024748268787,-169.36409761407162 L997.6250330513209,-208.7646380850249 M997.6250330513209,-208.7646380850249 L1001.419174275562,-249.00194043572083 M854.3951333039962,-228.89348245398946 L879.5093619596544,-224.1750516156535 M976.3421347217924,-253.56586348562382 L854.3951333039962,-228.89348245398946 M1001.419174275562,-249.00194043572083 L879.5093619596544,-224.1750516156535 M854.3951333039962,-228.89348245398946 L852.0322246997131,-49.802846871896065 M879.5093619596544,-224.1750516156535 L876.929708768505,-44.56389731834241" stroke="black"  stroke-width="4"  fill="red"/>
<path d="M854.3951333039962,-228.89348245398946 L879.5093619596544,-224.1750516156535 M-291.11992530612883,2.867722618000812 L-266.2751307760201,9.16354248530348 M854.3951333039962,-228.89348245398946 L-291.11992530612883,2.867722618000812 M879.5093619596544,-224.1750516156535 L-266.2751307760201,9.16354248530348 M852.0322246997131,-49.802846871896065 L876.929708768505,-44.56389731834241 M852.0322246997131,-49.802846871896065 L854.3951333039962,-228.89348245398946 M876.929708768505,-44.56389731834241 L879.5093619596544,-224.1750516156535 M-282.8658193246097,207.2013834356948 L-258.2302384679632,214.17371764040618 M-291.11992530612883,2.867722618000812 L-282.8658193246097,207.2013834356948 M-266.2751307760201,9.16354248530348 L-258.2302384679632,214.17371764040618 M738.8591105246662,-24.174140175977357 L852.0322246997131,-49.802846871896065 M739.9340836806964,-160.1109413480624 L738.8591105246662,-24.174140175977357 M715.9364928296275,-155.109996214454 L739.9340836806964,-160.1109413480624 M715.9364928296275,-155.109996214454 L715.0104464509554,-18.773472172009065 M-107.58422354576987,167.50785162689255 L715.0104464509554,-18.773472172009065 M-112.38925344490849,17.50781511427863 L-107.58422354576987,167.50785162689255 M-142.1517054188214,23.710120599312575 L-112.38925344490849,17.50781511427863 M-142.1517054188214,23.710120599312575 L-137.11940588079915,174.19626460194024 M-282.8658193246097,207.2013834356948 L-137.11940588079915,174.19626460194024 M763.7793357429767,-18.773472172009065 L876.929708768505,-44.56389731834241 M764.190123948166,-64.02624433299007 L763.7793357429767,-18.773472172009065 M764.190123948166,-64.02624433299007 L740.295457094671,-58.72401948361875 M740.295457094671,-58.72401948361875 L739.9340836806964,-13.338411093872253 M-82.83709553809354,174.19626460194024 L739.9340836806964,-13.338411093872253 M-84.3784582627942,124.27106278499593 L-82.83709553809354,174.19626460194024 M-84.3784582627942,124.27106278499593 L-114.00610884961213,130.84543631081613 M-114.00610884961213,130.84543631081613 L-112.3892534449086,180.93210378681306 M-258.2302384679632,214.17371764040618 L-112.3892534449086,180.93210378681306 M738.8591105246662,-24.174140175977357 L763.7793357429767,-18.773472172009065 M-137.11940588079915,174.19626460194024 L-112.3892534449086,180.93210378681306 M744.1034626402898,-159.2796633000437 L739.9340836806964,-160.1109413480624 M744.1034626402898,-159.2796633000437 L743.3672835864402,-68.41906691188558 M743.3672835864402,-68.41906691188558 L764.190123948166,-64.02624433299007 M720.106414411508,-154.27339752718058 L715.9364928296275,-155.109996214454 M744.1034626402898,-159.2796633000437 L720.106414411508,-154.27339752718058 M719.4697187266297,-63.14488381981073 L720.106414411508,-154.27339752718058 M740.295457094671,-58.72401948361875 L719.4697187266297,-63.14488381981073 M715.0104464509554,-18.773472172009065 L739.9340836806964,-13.338411093872253 M-107.58422354576987,167.50785162689255 L-82.83709553809354,174.19626460194024 M-108.25050273339718,18.538476770063596 L-112.38925344490849,17.50781511427863 M-108.25050273339718,18.538476770063596 L-105.0572082586196,118.8278821409337 M-105.0572082586196,118.8278821409337 L-84.3784582627942,124.27106278499593 M-138.01587991362453,24.748131706499123 L-142.1517054188214,23.710120599312575 M-108.25050273339718,18.538476770063596 L-138.01587991362453,24.748131706499123 M-134.67064678659267,125.36355628592145 L-138.01587991362453,24.748131706499123 M-114.00610884961213,130.84543631081613 L-134.67064678659267,125.36355628592145 M743.3672835864402,-68.41906691188558 L719.4697187266297,-63.14488381981073 M-105.0572082586196,118.8278821409337 L-134.67064678659267,125.36355628592145" stroke="black"  stroke-width="4"  fill="red"/>
<path d="M584.1417915402535,1083.9390920006845 L556.0265839550162,1073.6756264686535 M431.20449921629535,1139.973967700647 L403.100429235042,1129.2978103640683 M584.1417915402535,1083.9390920006845 L431.20449921629535,1139.973967700647 M556.0265839550162,1073.6756264686535 L403.100429235042,1129.2978103640683 M584.8182241417846,111.90544360053599 L555.3552020975349,104.87160612304967 M584.8182241417846,111.90544360053599 L584.1417915402535,1083.9390920006845 M555.3552020975349,104.87160612304967 L556.0265839550162,1073.6756264686535 M424.3957071816396,150.351263353256 L394.94552681524385,143.0206119924772 M431.20449921629535,1139.973967700647 L424.3957071816396,150.351263353256 M403.100429235042,1129.2978103640683 L394.94552681524385,143.0206119924772 M424.3957071816396,150.351263353256 L584.8182241417846,111.90544360053599 M491.23036980287145,363.25990061105296 L490.6874297804866,218.90572215949362 M520.6430181923597,211.40087099971703 L490.6874297804866,218.90572215949362 M520.9797504071123,355.2528731420127 L520.6430181923597,211.40087099971703 M491.23036980287145,363.25990061105296 L520.9797504071123,355.2528731420127 M394.94552681524385,143.0206119924772 L555.3552020975349,104.87160612304967 M461.1576886853416,175.12894892349476 L462.2689210944338,390.9100785435793 M462.2689210944338,390.9100785435793 L491.9648967998091,382.8417379745716 M491.9648967998091,382.8417379745716 L491.16290893868904,167.80874271175054 M491.16290893868904,167.80874271175054 L461.1576886853416,175.12894892349476 M462.2689210944338,390.9100785435793 L469.52203172898174,392.9368209718618 M469.52203172898174,392.9368209718618 L469.35059575998474,357.2488698648136 M469.35059575998474,357.2488698648136 L491.23036980287145,363.25990061105296 M490.6874297804866,218.90572215949362 L468.65896528504726,213.27164782599436 M468.65896528504726,213.27164782599436 L468.4845709558387,176.96785270903132 M468.4845709558387,176.96785270903132 L461.1576886853416,175.12894892349476 M520.6430181923597,211.40087099971703 L498.612867308325,205.81013794446272 M498.612867308325,205.81013794446272 L468.65896528504726,213.27164782599436 M491.9648967998091,382.8417379745716 L499.2186594532764,384.85305085409533 M499.2186594532764,384.85305085409533 L499.09832423440474,349.28776944205 M499.09832423440474,349.28776944205 L520.9797504071123,355.2528731420127 M498.612867308325,205.81013794446272 L498.49046357459383,169.63350339929093 M498.49046357459383,169.63350339929093 L491.16290893868904,167.80874271175054 M499.09832423440474,349.28776944205 L469.35059575998474,357.2488698648136 M498.49046357459383,169.63350339929093 L468.4845709558387,176.96785270903132 M499.2186594532764,384.85305085409533 L469.52203172898174,392.9368209718618" stroke="black"  stroke-width="4"  fill="red"/>
<path d="M1389.352244481323,788.9170803170418 L1361.546035063826,780.6927085175004 M1267.102786624559,833.708203994589 L1239.2098632241386,825.1887272632026 M1389.352244481323,788.9170803170418 L1267.102786624559,833.708203994589 M1361.546035063826,780.6927085175004 L1239.2098632241386,825.1887272632026 M1424.394750029011,-89.302020255017 L1395.28378315792,-94.88218249589585 M1424.394750029011,-89.302020255017 L1389.352244481323,788.9170803170418 M1395.28378315792,-94.88218249589585 L1361.546035063826,780.6927085175004 M1297.4706774979913,-58.884220389546215 L1268.2612987573266,-64.67339680750257 M1267.102786624559,833.708203994589 L1297.4706774979913,-58.884220389546215 M1239.2098632241386,825.1887272632026 L1268.2612987573266,-64.67339680750257 M1297.4706774979913,-58.884220389546215 L1424.394750029011,-89.302020255017 M1342.1056879937355,134.2473327153911 L1346.8367324449378,4.412419651153925 M1370.5585219215513,-1.5306617137566718 L1346.8367324449378,4.412419651153925 M1365.6996439054574,127.89703401164087 L1370.5585219215513,-1.5306617137566718 M1342.1056879937355,134.2473327153911 L1365.6996439054574,127.89703401164087 M1268.2612987573266,-64.67339680750257 L1395.28378315792,-94.88218249589585 M1318.9215997810347,-34.13492773517498 L1312.1137530991741,160.0088411687064 M1312.1137530991741,160.0088411687064 L1335.693819219351,153.60218169454515 M1335.693819219351,153.60218169454515 L1342.6939138885436,-39.93452660257225 M1342.6939138885436,-39.93452660257225 L1318.9215997810347,-34.13492773517498 M1312.1137530991741,160.0088411687064 L1319.2998577662352,161.61733713563393 M1319.2998577662352,161.61733713563393 L1320.4377664527824,129.4805399152686 M1320.4377664527824,129.4805399152686 L1342.1056879937355,134.2473327153911 M1346.8367324449378,4.412419651153925 L1325.024174733005,-0.04872250606649686 M1325.024174733005,-0.04872250606649686 L1326.1795491796279,-32.678787416961825 M1326.1795491796279,-32.678787416961825 L1318.9215997810347,-34.13492773517498 M1370.5585219215513,-1.5306617137566718 L1348.759742049342,-5.96124668862484 M1348.759742049342,-5.96124668862484 L1325.024174733005,-0.04872250606649686 M1335.693819219351,153.60218169454515 L1342.8755336745544,155.1997618411196 M1342.8755336745544,155.1997618411196 L1344.0452507313535,123.1626943953284 M1344.0452507313535,123.1626943953284 L1365.6996439054574,127.89703401164087 M1348.759742049342,-5.96124668862484 L1349.947351291009,-38.488358397719594 M1349.947351291009,-38.488358397719594 L1342.6939138885436,-39.93452660257225 M1344.0452507313535,123.1626943953284 L1320.4377664527824,129.4805399152686 M1349.947351291009,-38.488358397719594 L1326.1795491796279,-32.678787416961825 M1342.8755336745544,155.1997618411196 L1319.2998577662352,161.61733713563393" stroke="black"  stroke-width="4"  fill="red"/>
<path d="M-101.32778387493966,833.708203994589 L-124.66559858021628,825.1887272632026 M-252.82844238844336,880.1239419625092 L-276.0746480112507,871.2931872400401 M-101.32778387493966,833.708203994589 L-252.82844238844336,880.1239419625092 M-124.66559858021628,825.1887272632026 L-276.0746480112507,871.2931872400401 M-130.57783827450316,-58.884220389546215 L-154.8272800573477,-64.67339680750257 M-130.57783827450316,-58.884220389546215 L-101.32778387493966,833.708203994589 M-154.8272800573477,-64.67339680750257 L-124.66559858021628,825.1887272632026 M-289.3578996464257,-27.314162938168522 L-313.5031254273945,-33.324320771685336 M-252.82844238844336,880.1239419625092 L-289.3578996464257,-27.314162938168522 M-276.0746480112507,871.2931872400401 L-313.5031254273945,-33.324320771685336 M-289.3578996464257,-27.314162938168522 L-130.57783827450316,-58.884220389546215 M-215.14016237013425,201.62112378504523 L-185.73858814499067,194.92909003095596 M-192.80211200406893,-2.5171769004537055 L-185.73858814499067,194.92909003095596 M-192.80211200406893,-2.5171769004537055 L-222.50427610656106,3.5432008972916833 M-215.14016237013425,201.62112378504523 L-222.50427610656106,3.5432008972916833 M-313.5031254273945,-33.324320771685336 L-154.8272800573477,-64.67339680750257 M-240.33958321914224,162.27567325931602 L-245.38094026924773,30.646394676343448 M-215.74860880636402,24.522032432258072 L-245.38094026924773,30.646394676343448 M-210.90728624750147,155.7328767832484 L-215.74860880636402,24.522032432258072 M-240.33958321914224,162.27567325931602 L-210.90728624750147,155.7328767832484 M-191.7460969886797,193.2633366160175 L-185.73858814499067,194.92909003095596 M-221.14299624528508,199.94374717827623 L-215.14016237013425,201.62112378504523 M-191.7460969886797,193.2633366160175 L-221.14299624528508,199.94374717827623 M-222.50427610656106,3.5432008972916833 L-228.55688987711324,2.024113519584432 M-228.55688987711324,2.024113519584432 L-227.31160837359948,35.26786791056861 M-227.31160837359948,35.26786791056861 L-245.38094026924773,30.646394676343448 M-240.33958321914224,162.27567325931602 L-222.36907173410725,167.21271222738136 M-222.36907173410725,167.21271222738136 L-221.14299624528508,199.94374717827623 M-192.80211200406893,-2.5171769004537055 L-198.85953322342777,-4.025639772200805 M-198.85953322342777,-4.025639772200805 L-228.55688987711324,2.024113519584432 M-198.85953322342777,-4.025639772200805 L-197.6647506407852,29.11128940762012 M-197.6647506407852,29.11128940762012 L-215.74860880636402,24.522032432258072 M-210.90728624750147,155.7328767832484 L-192.92251613831036,160.6357116293209 M-192.92251613831036,160.6357116293209 L-191.7460969886797,193.2633366160175 M-197.6647506407852,29.11128940762012 L-227.31160837359948,35.26786791056861 M-192.92251613831036,160.6357116293209 L-222.36907173410725,167.21271222738136" stroke="black"  stroke-width="4"  fill="red"/>
<path d="M705.2789406322075,586.5855397419514 L681.7612412823435,579.6296004976252 M581.8383596136293,624.40442263912 L558.3145849042319,617.2194371001691 M705.2789406322075,586.5855397419514 L581.8383596136293,624.40442263912 M681.7612412823435,579.6296004976252 L558.3145849042319,617.2194371001691 M710.5789331533404,-226.1304562843029 L686.1257675849992,-230.81778363343028 M710.5789331533404,-226.1304562843029 L705.2789406322075,586.5855397419514 M686.1257675849992,-230.81778363343028 L681.7612412823435,579.6296004976252 M582.3079275715321,-200.6264793959317 L557.8479406709016,-205.47434626108725 M581.8383596136293,624.40442263912 L582.3079275715321,-200.6264793959317 M558.3145849042319,617.2194371001691 L557.8479406709016,-205.47434626108725 M582.3079275715321,-200.6264793959317 L710.5789331533404,-226.1304562843029 M634.279612109249,8.286380594795673 L658.0865921166303,2.867721288584562 M658.8263242791535,-176.28195879883742 L658.0865921166303,2.867721288584562 M658.8263242791535,-176.28195879883742 L634.8209916441942,-171.38395256513672 M634.279612109249,8.286380594795673 L634.8209916441942,-171.38395256513672 M557.8479406709016,-205.47434626108725 L686.1257675849992,-230.81778363343028 M610.1269005628327,-26.782935331920953 L610.3510596711765,-146.2149082574233 M634.324381206433,-151.16967550075515 L610.3510596711765,-146.2149082574233 M633.9679670691235,-32.08280187218281 L634.324381206433,-151.16967550075515 M610.1269005628327,-26.782935331920953 L633.9679670691235,-32.08280187218281 M652.0206413929495,1.5183439906287504 L658.0865921166303,2.867721288584562 M628.2133036542548,6.928533313677747 L634.279612109249,8.286380594795673 M652.0206413929495,1.5183439906287504 L628.2133036542548,6.928533313677747 M634.8209916441942,-171.38395256513672 L628.703157522139,-172.611355022226 M628.703157522139,-172.611355022226 L628.6209430132158,-142.47832001036568 M628.6209430132158,-142.47832001036568 L610.3510596711765,-146.2149082574233 M610.1269005628327,-26.782935331920953 L628.2943769195986,-22.786216249744882 M628.2943769195986,-22.786216249744882 L628.2133036542548,6.928533313677747 M658.8263242791535,-176.28195879883742 L652.7088569929837,-177.50164074997406 M652.7088569929837,-177.50164074997406 L628.703157522139,-172.611355022226 M652.7088569929837,-177.50164074997406 L652.5933530174327,-147.4565212560401 M652.5933530174327,-147.4565212560401 L634.324381206433,-151.16967550075515 M633.9679670691235,-32.08280187218281 L652.1345470172051,-28.111009245642833 M652.1345470172051,-28.111009245642833 L652.0206413929495,1.5183439906287504 M652.5933530174327,-147.4565212560401 L628.6209430132158,-142.47832001036568 M652.1345470172051,-28.111009245642833 L628.2943769195986,-22.786216249744882" stroke="black"  stroke-width="4"  fill="red"/>
<path d="M-192.92251613831036,160.6357116293209 L-222.36907173410725,167.21271222738136 M-191.7460969886797,193.2633366160175 L-221.14299624528508,199.94374717827623 M-192.92251613831036,160.6357116293209 L-191.7460969886797,193.2633366160175 M-222.36907173410725,167.21271222738136 L-221.14299624528508,199.94374717827623 M-185.70232294499374,162.60401117213678 L-215.15451120108457,169.1947685822413 M-185.70232294499374,162.60401117213678 L-192.92251613831036,160.6357116293209 M-215.15451120108457,169.1947685822413 L-222.36907173410725,167.21271222738136 M499.2186594532764,384.85305085409533 L469.52203172898174,392.9368209718618 M-191.7460969886797,193.2633366160175 L499.2186594532764,384.85305085409533 M-221.14299624528508,199.94374717827623 L469.52203172898174,392.9368209718618 M-190.40461303638017,30.95374121397839 L-185.70232294499374,162.60401117213678 M-197.6647506407852,29.11128940762012 L-190.40461303638017,30.95374121397839 M-198.85953322342777,-4.025639772200805 L-197.6647506407852,29.11128940762012 M-108.25050273339718,18.538476770063596 L-198.85953322342777,-4.025639772200805 M-108.25050273339718,18.538476770063596 L-105.0572082586196,118.8278821409337 M-105.0572082586196,118.8278821409337 L-80.22805403133748,125.36355628592145 M-80.22805403133748,125.36355628592145 L-83.31485712927275,24.748131706499123 M363.21070783945686,135.94515955863426 L-83.31485712927275,24.748131706499123 M363.21070783945686,135.94515955863426 L364.249708710642,242.36157383348774 M364.249708710642,242.36157383348774 L392.5227397563292,249.80376523132009 M392.5227397563292,249.80376523132009 L391.62306547485764,143.02061048729473 M498.49046357459383,169.63350339929093 L391.62306547485764,143.02061048729473 M498.612867308325,205.81013794446272 L498.49046357459383,169.63350339929093 M489.83635722066504,203.58286654195882 L498.612867308325,205.81013794446272 M490.38082428145066,346.91128854846676 L489.83635722066504,203.58286654195882 M499.09832423440474,349.28776944205 L490.38082428145066,346.91128854846676 M499.2186594532764,384.85305085409533 L499.09832423440474,349.28776944205 M-220.0572093550561,37.12327745687634 L-215.15451120108457,169.1947685822413 M-227.31160837359948,35.26786791056861 L-220.0572093550561,37.12327745687634 M-228.55688987711324,2.024113519584432 L-227.31160837359948,35.26786791056861 M-138.01587991362453,24.748131706499123 L-228.55688987711324,2.024113519584432 M-134.67064678659267,125.36355628592145 L-138.01587991362453,24.748131706499123 M-109.85850502819198,131.9457109266416 L-134.67064678659267,125.36355628592145 M-113.09749019843139,31.00215892913593 L-109.85850502819198,131.9457109266416 M333.226027728606,143.02061048729473 L-113.09749019843139,31.00215892913593 M334.42014085562096,249.80376523132009 L333.226027728606,143.02061048729473 M362.68726349503544,257.30245576245227 L334.42014085562096,249.80376523132009 M361.6323866771617,150.15004959595154 L362.68726349503544,257.30245576245227 M468.4845709558387,176.96785270903132 L361.6323866771617,150.15004959595154 M468.65896528504726,213.27164782599436 L468.4845709558387,176.96785270903132 M459.8832642530118,211.02714494866976 L468.65896528504726,213.27164782599436 M460.6338884589826,354.85412869931565 L459.8832642530118,211.02714494866976 M469.35059575998474,357.2488698648136 L460.6338884589826,354.85412869931565 M469.52203172898174,392.9368209718618 L469.35059575998474,357.2488698648136 M-190.40461303638017,30.95374121397839 L-220.0572093550561,37.12327745687634 M499.09832423440474,349.28776944205 L469.35059575998474,357.2488698648136 M-197.6647506407852,29.11128940762012 L-227.31160837359948,35.26786791056861 M-198.85953322342777,-4.025639772200805 L-228.55688987711324,2.024113519584432 M-108.25050273339718,18.538476770063596 L-138.01587991362453,24.748131706499123 M-105.0572082586196,118.8278821409337 L-134.67064678659267,125.36355628592145 M-80.22805403133748,125.36355628592145 L-109.85850502819198,131.9457109266416 M-113.09749019843139,31.00215892913593 L-83.31485712927275,24.748131706499123 M363.21070783945686,135.94515955863426 L333.226027728606,143.02061048729473 M364.249708710642,242.36157383348774 L334.42014085562096,249.80376523132009 M392.5227397563292,249.80376523132009 L362.68726349503544,257.30245576245227 M361.6323866771617,150.15004959595154 L391.62306547485764,143.02061048729473 M498.49046357459383,169.63350339929093 L468.4845709558387,176.96785270903132 M498.612867308325,205.81013794446272 L468.65896528504726,213.27164782599436 M489.83635722066504,203.58286654195882 L459.8832642530118,211.02714494866976 M490.38082428145066,346.91128854846676 L460.6338884589826,354.85412869931565" stroke="black"  stroke-width="4"  fill="red"/>
<path d="M490.38082428145066,346.91128854846676 L460.6338884589826,354.85412869931565 M522.4430011017549,355.6517704562779 L492.6935272340804,363.66187388044546 M490.38082428145066,346.91128854846676 L522.4430011017549,355.6517704562779 M460.6338884589826,354.85412869931565 L492.6935272340804,363.66187388044546 M522.1162452902324,211.77474131396642 L492.1605616778119,219.28249533922644 M522.4430011017549,355.6517704562779 L522.1162452902324,211.77474131396642 M492.6935272340804,363.66187388044546 L492.1605616778119,219.28249533922644 M489.83635722066504,203.58286654195882 L459.8832642530118,211.02714494866976 M522.1162452902324,211.77474131396642 L489.83635722066504,203.58286654195882 M492.1605616778119,219.28249533922644 L459.8832642530118,211.02714494866976 M489.83635722066504,203.58286654195882 L490.38082428145066,346.91128854846676 M459.8832642530118,211.02714494866976 L460.6338884589826,354.85412869931565" stroke="black"  stroke-width="4"  fill="red"/>
<path d="M-212.10295955737035,155.4069238390319 L-241.53429703256495,161.94744951023324 M-185.70232294499374,162.60401117213678 L-215.15451120108457,169.1947685822413 M-212.10295955737035,155.4069238390319 L-185.70232294499374,162.60401117213678 M-241.53429703256495,161.94744951023324 L-215.15451120108457,169.1947685822413 M-190.40461303638017,30.95374121397839 L-220.0572093550561,37.12327745687634 M-185.70232294499374,162.60401117213678 L-190.40461303638017,30.95374121397839 M-215.15451120108457,169.1947685822413 L-220.0572093550561,37.12327745687634 M-216.95084902937083,24.21693219983092 L-246.58220301055553,30.3391556683776 M-190.40461303638017,30.95374121397839 L-216.95084902937083,24.21693219983092 M-220.0572093550561,37.12327745687634 L-246.58220301055553,30.3391556683776 M-216.95084902937083,24.21693219983092 L-212.10295955737035,155.4069238390319 M-246.58220301055553,30.3391556683776 L-241.53429703256495,161.94744951023324" stroke="black"  stroke-width="4"  fill="red"/>
<path d="M652.1345470172051,-28.111009245642833 L628.2943769195986,-22.786216249744882 M652.0206413929495,1.5183439906287504 L628.2133036542548,6.928533313677747 M652.1345470172051,-28.111009245642833 L652.0206413929495,1.5183439906287504 M628.2943769195986,-22.786216249744882 L628.2133036542548,6.928533313677747 M659.4250719034727,-26.517068445027576 L635.5853365289946,-21.182255588065175 M659.4250719034727,-26.517068445027576 L652.1345470172051,-28.111009245642833 M635.5853365289946,-21.182255588065175 L628.2943769195986,-22.786216249744882 M1342.8755336745544,155.1997618411196 L1319.2998577662352,161.61733713563393 M652.0206413929495,1.5183439906287504 L1342.8755336745544,155.1997618411196 M628.2133036542548,6.928533313677747 L1319.2998577662352,161.61733713563393 M659.9251036877336,-145.96634866153045 L659.4250719034727,-26.517068445027576 M652.5933530174327,-147.4565212560401 L659.9251036877336,-145.96634866153045 M652.7088569929837,-177.50164074997406 L652.5933530174327,-147.4565212560401 M744.1034626402898,-159.2796633000437 L652.7088569929837,-177.50164074997406 M744.1034626402898,-159.2796633000437 L743.3672835864402,-68.41906691188558 M743.3672835864402,-68.41906691188558 L768.3679455964223,-63.14488381981073 M768.3679455964223,-63.14488381981073 L769.2130144073074,-154.27339752718058 M1215.788238902791,-65.2365926433456 L769.2130144073074,-154.27339752718058 M1215.788238902791,-65.2365926433456 L1212.8936713704802,30.633035578232523 M1212.8936713704802,30.633035578232523 L1240.97748304703,36.55764528042073 M1240.97748304703,36.55764528042073 L1244.0087436695699,-59.61007455900324 M1349.947351291009,-38.488358397719594 L1244.0087436695699,-59.61007455900324 M1348.759742049342,-5.96124668862484 L1349.947351291009,-38.488358397719594 M1340.071552504653,-7.727114424395722 L1348.759742049342,-5.96124668862484 M1335.4144201226763,121.2757201012991 L1340.071552504653,-7.727114424395722 M1344.0452507313535,123.1626943953284 L1335.4144201226763,121.2757201012991 M1342.8755336745544,155.1997618411196 L1344.0452507313535,123.1626943953284 M635.9531357523415,-140.9787272269166 L635.5853365289946,-21.182255588065175 M628.6209430132158,-142.47832001036568 L635.9531357523415,-140.9787272269166 M628.703157522139,-172.611355022226 L628.6209430132158,-142.47832001036568 M720.106414411508,-154.27339752718058 L628.703157522139,-172.611355022226 M719.4697187266297,-63.14488381981073 L720.106414411508,-154.27339752718058 M744.473902508289,-57.837023787075566 L719.4697187266297,-63.14488381981073 M745.2195331652913,-149.23502887438394 L744.473902508289,-57.837023787075566 M1191.9439148310148,-59.61007455900324 L745.2195331652913,-149.23502887438394 M1189.14682885076,36.55764528042073 L1191.9439148310148,-59.61007455900324 M1217.2453200016926,42.52236140403198 L1189.14682885076,36.55764528042073 M1220.1792989427986,-53.9452953014669 L1217.2453200016926,42.52236140403198 M1326.1795491796279,-32.678787416961825 L1220.1792989427986,-53.9452953014669 M1325.024174733005,-0.04872250606649686 L1326.1795491796279,-32.678787416961825 M1316.3306015460062,-1.8267471812835652 L1325.024174733005,-0.04872250606649686 M1311.8016495083716,127.58065394818061 L1316.3306015460062,-1.8267471812835652 M1320.4377664527824,129.4805399152686 L1311.8016495083716,127.58065394818061 M1319.2998577662352,161.61733713563393 L1320.4377664527824,129.4805399152686 M659.9251036877336,-145.96634866153045 L635.9531357523415,-140.9787272269166 M1344.0452507313535,123.1626943953284 L1320.4377664527824,129.4805399152686 M652.5933530174327,-147.4565212560401 L628.6209430132158,-142.47832001036568 M652.7088569929837,-177.50164074997406 L628.703157522139,-172.611355022226 M744.1034626402898,-159.2796633000437 L720.106414411508,-154.27339752718058 M743.3672835864402,-68.41906691188558 L719.4697187266297,-63.14488381981073 M768.3679455964223,-63.14488381981073 L744.473902508289,-57.837023787075566 M745.2195331652913,-149.23502887438394 L769.2130144073074,-154.27339752718058 M1215.788238902791,-65.2365926433456 L1191.9439148310148,-59.61007455900324 M1212.8936713704802,30.633035578232523 L1189.14682885076,36.55764528042073 M1240.97748304703,36.55764528042073 L1217.2453200016926,42.52236140403198 M1220.1792989427986,-53.9452953014669 L1244.0087436695699,-59.61007455900324 M1349.947351291009,-38.488358397719594 L1326.1795491796279,-32.678787416961825 M1348.759742049342,-5.96124668862484 L1325.024174733005,-0.04872250606649686 M1340.071552504653,-7.727114424395722 L1316.3306015460062,-1.8267471812835652 M1335.4144201226763,121.2757201012991 L1311.8016495083716,127.58065394818061" stroke="black"  stroke-width="4"  fill="red"/>
<path d="M1335.4144201226763,121.2757201012991 L1311.8016495083716,127.58065394818061 M1367.1472286551311,128.21352211515165 L1343.5541906298336,134.56599327190372 M1335.4144201226763,121.2757201012991 L1367.1472286551311,128.21352211515165 M1311.8016495083716,127.58065394818061 L1343.5541906298336,134.56599327190372 M1372.0157830951089,-1.2344745189745367 L1348.2949284547235,4.710652429659831 M1367.1472286551311,128.21352211515165 L1372.0157830951089,-1.2344745189745367 M1343.5541906298336,134.56599327190372 L1348.2949284547235,4.710652429659831 M1340.071552504653,-7.727114424395722 L1316.3306015460062,-1.8267471812835652 M1372.0157830951089,-1.2344745189745367 L1340.071552504653,-7.727114424395722 M1348.2949284547235,4.710652429659831 L1316.3306015460062,-1.8267471812835652 M1340.071552504653,-7.727114424395722 L1335.4144201226763,121.2757201012991 M1316.3306015460062,-1.8267471812835652 L1311.8016495083716,127.58065394818061" stroke="black"  stroke-width="4"  fill="red"/>
<path d="M632.7598714964364,-32.34693001856323 L608.9187548341928,-27.048719032027805 M659.4250719034727,-26.517068445027576 L635.5853365289946,-21.182255588065175 M632.7598714964364,-32.34693001856323 L659.4250719034727,-26.517068445027576 M608.9187548341928,-27.048719032027805 L635.5853365289946,-21.182255588065175 M659.9251036877336,-145.96634866153045 L635.9531357523415,-140.9787272269166 M659.4250719034727,-26.517068445027576 L659.9251036877336,-145.96634866153045 M635.5853365289946,-21.182255588065175 L635.9531357523415,-140.9787272269166 M633.1094934194,-151.41660049412303 L609.1361208831988,-146.46338964677102 M659.9251036877336,-145.96634866153045 L633.1094934194,-151.41660049412303 M635.9531357523415,-140.9787272269166 L609.1361208831988,-146.46338964677102 M633.1094934194,-151.41660049412303 L632.7598714964364,-32.34693001856323 M609.1361208831988,-146.46338964677102 L608.9187548341928,-27.048719032027805" stroke="black"  stroke-width="4"  fill="red"/></svg>