<svg viewBox="0 0 800 800" xmlns="http://www.w3.org/2000/svg"><path d="M-608.2110778066815,-134.46957435087972 L-610.9444423558429,-196.77420745677057 M224.11682873034056,8.2885876257846 L310.19376525413634,-15.655859795299193 M310.19376525413634,-15.655859795299193 L373.6407759253479,-42.35177367682604 M373.6407759253479,-42.35177367682604 L412.6310849692892,-70.59509719840821 M412.6310849692892,-70.59509719840821 L426.53583644193253,-99.19881088086822 M426.53583644193253,-99.19881088086822 L415.7984658990746,-127.0496515109927 M415.7984658990746,-127.0496515109927 L381.76417154422313,-153.1474912893193 M381.76417154422313,-153.1474912893193 L326.49558338850875,-176.628400372207 M326.49558338850875,-176.628400372207 L252.59777249180718,-196.77420745677057 M252.59777249180718,-196.77420745677057 L163.06666607495626,-213.01239602713815 M163.06666607495626,-213.01239602713815 L61.16837493011326,-224.91028740436968 M61.16837493011326,-224.91028740436968 L-49.65079638823431,-232.16688212444706 M-49.65079638823431,-232.16688212444706 L-165.82742163804232,-234.60520227671532 M-165.82742163804232,-234.60520227671532 L-283.7243944207935,-232.16688657531995 M-283.7243944207935,-232.16688657531995 L-399.6635004686956,-224.91028292086628 M-399.6635004686956,-224.91028292086628 L-509.9563929501529,-213.0124039673451 M-509.9563929501529,-213.0124039673451 L-610.9444423558429,-196.77420745677057 M224.92959660596674,76.36602488823917 L224.11682873034056,8.2885876257846 M-608.2110778066815,-134.46957435087972 L-507.4843365498084,-151.1692722441694 M-507.4843365498084,-151.1692722441694 L-397.4659764711163,-163.4057051193579 M-397.4659764711163,-163.4057051193579 L-281.807051954851,-170.86896451218206 M-281.807051954851,-170.86896451218206 L-164.18887701234382,-173.37674808027066 M-164.18887701234382,-173.37674808027066 L-48.282986290551264,-170.86895993451617 M-48.282986290551264,-170.86895993451617 L62.28005909487115,-163.40570973050376 M62.28005909487115,-163.40570973050376 L163.94344866939554,-151.16926407813924 M163.94344866939554,-151.16926407813924 L253.26771478326705,-134.46957435087995 M253.26771478326705,-134.46957435087995 L326.9938596443735,-113.75210100933225 M326.9938596443735,-113.75210100933225 L382.1332617360142,-89.60613426595512 M382.1332617360142,-89.60613426595512 L416.0880888171938,-62.77069144977111 M416.0880888171938,-62.77069144977111 L426.80241824601677,-34.13453130594132 M426.80241824601677,-34.13453130594132 L412.93655753224425,-4.726234138943198 M412.93655753224425,-4.726234138943198 L374.05053606902084,24.30958200444877 M374.05053606902084,24.30958200444877 L310.77371876018344,51.75278461903366 M310.77371876018344,51.75278461903366 L224.92959660596674,76.36602488823917 M1534.3933284610914,-233.9018147615102 L1536.6770792182017,-293.44940099211476 M224.92959660596674,76.36602488823917 L1534.3933284610914,-233.9018147615102 M224.11682873034056,8.2885876257846 L1536.6770792182017,-293.44940099211476 M699.8392378717357,-448.578969933787 L634.2494925035991,-433.16478551310684 M634.2494925035991,-433.16478551310684 L584.947582186742,-415.2471146583066 M584.947582186742,-415.2471146583066 L554.1920818855897,-395.3932772117762 M554.1920818855897,-395.3932772117762 L543.737168014288,-374.2760578847174 M543.737168014288,-374.2760578847174 L554.6903750143356,-352.6630633217467 M554.6903750143356,-352.6630633217467 L587.3686640806955,-331.39663479751334 M587.3686640806955,-331.39663479751334 L641.1711169887776,-311.362843942562 M641.1711169887776,-311.362843942562 L714.4903638273373,-293.44940099211476 M714.4903638273373,-293.44940099211476 L804.6876550922796,-278.4944469148219 M804.6876550922796,-278.4944469148219 L908.1508034024246,-267.2303163881263 M908.1508034024246,-267.2303163881263 L1020.4460118283605,-260.2284929565378 M1020.4460118283605,-260.2284929565378 L1136.5593153615614,-257.85288043387186 M1136.5593153615614,-257.85288043387186 L1251.2076801463973,-260.22848863072556 M1251.2076801463973,-260.22848863072556 L1359.1850939715118,-267.23032068301166 M1359.1850939715118,-267.23032068301166 L1455.7020183046698,-278.4944394854332 M1455.7020183046698,-278.4944394854332 L1536.6770792182017,-293.44940099211476 M699.4901361637787,-393.50304165493264 L699.8392378717357,-448.578969933787 M1534.3933284610914,-233.9018147615102 L1453.5862124263238,-218.51886978944628 M1453.5862124263238,-218.51886978944628 L1357.2796073029003,-206.93275226514322 M1357.2796073029003,-206.93275226514322 L1249.5452801481865,-199.7309199400114 M1249.5452801481865,-199.7309199400114 L1135.160581215881,-197.28748201472092 M1135.160581215881,-197.28748201472092 L1019.317721182952,-199.73092438934918 M1019.317721182952,-199.73092438934918 L907.285528173304,-206.93274784754237 M907.285528173304,-206.93274784754237 L804.0646097702274,-218.51887743131488 M804.0646097702274,-218.51887743131488 L714.0773450733933,-233.90181476150985 M714.0773450733933,-233.90181476150985 L640.9272118780513,-252.32862445436092 M640.9272118780513,-252.32862445436092 L587.2473253280571,-272.93747318376177 M587.2473253280571,-272.93747318376177 L554.642470540845,-294.8154113900566 M554.642470540845,-294.8154113900566 L543.7136943433431,-317.051009807893 M543.7136943433431,-317.051009807893 L554.1463476879281,-338.77765035584287 M554.1463476879281,-338.77765035584287 L584.8367925381701,-359.20544002024803 M584.8367925381701,-359.20544002024803 L634.0357632489893,-377.64191517038216 M634.0357632489893,-377.64191517038216 L699.4901361637787,-393.50304165493264 M699.4901361637787,-393.50304165493264 L-608.2110778066815,-134.46957435087972 M699.8392378717357,-448.578969933787 L-610.9444423558429,-196.77420745677057" stroke="black"  stroke-width="4"  fill="red"/>
<path d="M1453.73464390205,-393.50304165493264 L1455.664970993106,-448.57896993378733 M1453.73464390205,-393.50304165493264 L1364.0486238249828,-406.6750806369514 M1364.0486238249828,-406.6750806369514 L1265.2121882000665,-416.20540046569397 M1265.2121882000665,-416.20540046569397 L1160.7906433823673,-421.82057385624375 M1160.7906433823673,-421.82057385624375 L1054.4128464552496,-423.3643146726107 M1054.4128464552496,-423.3643146726107 L949.7163222013255,-420.7943329877262 M949.7163222013255,-420.7943329877262 L850.2988409166182,-414.18122613414334 M850.2988409166182,-414.18122613414334 L759.6685895993699,-403.71015784000815 M759.6685895993699,-403.71015784000815 L681.1832315109691,-389.68458984658434 M681.1832315109691,-389.68458984658434 L617.9696032340195,-372.5309297717745 M617.9696032340195,-372.5309297717745 L572.8186589880327,-352.8021713383547 M572.8186589880327,-352.8021713383547 L548.0534271849153,-331.1779474735148 M548.0534271849153,-331.1779474735148 L545.374002392783,-308.4579400222717 M545.374002392783,-308.4579400222717 L565.6890222695783,-285.545344714895 M565.6890222695783,-285.545344714895 L608.9523852122545,-263.4178728538046 M608.9523852122545,-263.4178728538046 L674.0299701930616,-243.0848672143767 M674.0299701930616,-243.0848672143767 L758.6259371074601,-225.5313904918786 M758.6259371074601,-225.5313904918786 L859.2970075737416,-211.65302490998283 M859.2970075737416,-211.65302490998283 L971.5747283924321,-202.18794241515127 M971.5747283924321,-202.18794241515127 L1090.200169744231,-197.6550012546826 M1090.200169744231,-197.6550012546826 L1209.455544846264,-198.30715469403242 M1209.455544846264,-198.30715469403242 L1323.5568882967555,-204.10783719987398 M1323.5568882967555,-204.10783719987398 L1427.0584138734848,-214.73439230187523 M1427.0584138734848,-214.73439230187523 L1515.2165395892882,-229.60803107633308 M1515.2165395892882,-229.60803107633308 L1584.2690992912082,-247.94501683762928 M1584.2690992912082,-247.94501683762928 L1631.6042329814982,-268.82099410369915 M1631.6042329814982,-268.82099410369915 L1655.8140013273367,-291.2389886474251 M1655.8140013273367,-291.2389886474251 L1656.6465392568123,-314.1928140449577 M1656.6465392568123,-314.1928140449577 L1634.8831279718265,-336.7199128087092 M1634.8831279718265,-336.7199128087092 L1592.1708456315737,-357.9407372987889 M1592.1708456315737,-357.9407372987889 L1530.841167607866,-377.08455363546716 M1530.841167607866,-377.08455363546716 L1453.73464390205,-393.50304165493264 M1455.664970993106,-448.57896993378733 L1532.9520353896364,-432.62311933278374 M1532.9520353896364,-432.62311933278374 L1594.4348307165642,-414.0179729363341 M1594.4348307165642,-414.0179729363341 L1637.265373939051,-393.39330342447613 M1637.265373939051,-393.39330342447613 L1659.1050284186058,-371.4979544655714 M1659.1050284186058,-371.4979544655714 L1658.3003940296553,-349.1866782969902 M1658.3003940296553,-349.1866782969902 L1634.0654230400412,-327.39509561456555 M1634.0654230400412,-327.39509561456555 L1586.649562314005,-307.1014315133157 M1586.649562314005,-307.1014315133157 L1517.4614226115295,-289.27513199887403 M1517.4614226115295,-289.27513199887403 L1429.1171555380274,-274.81517236454795 M1429.1171555380274,-274.81517236454795 L1325.3869974674742,-264.48386945817094 M1325.3869974674742,-264.48386945817094 L1211.0260509843326,-258.84424866932125 M1211.0260509843326,-258.84424866932125 L1091.4942363856912,-258.2101982097397 M1091.4942363856912,-258.2101982097397 L972.5910159742318,-262.61729079798727 M972.5910159742318,-262.61729079798727 L860.0495750905122,-271.81944485528754 M860.0495750905122,-271.81944485528754 L759.1427278017218,-285.3119238898621 M759.1427278017218,-285.3119238898621 L674.350166646749,-302.3767106546936 M674.350166646749,-302.3767106546936 L609.1230794091405,-322.14278220857636 M609.1230794091405,-322.14278220857636 L565.7616921404424,-343.6522347808983 M565.7616921404424,-343.6522347808983 L545.4012261111009,-365.92372792570643 M545.4012261111009,-365.92372792570643 L548.0861356685538,-388.0068622104135 M548.0861356685538,-388.0068622104135 L572.9040723361343,-409.0238567345574 M572.9040723361343,-409.0238567345574 L618.1498579323325,-428.19769992997556 M618.1498579323325,-428.19769992997556 L681.4946065487592,-444.86816762554486 M681.4946065487592,-444.86816762554486 L760.1411834620196,-458.4981677999758 M760.1411834620196,-458.4981677999758 L850.9565373627114,-468.6736302073433 M850.9565373627114,-468.6736302073433 L950.5768929501805,-475.0999179093485 M950.5768929501805,-475.0999179093485 L1055.488067063392,-477.597271657782 M1055.488067063392,-477.597271657782 L1162.0863330185737,-476.0971588808411 M1162.0863330185737,-476.0971588808411 L1266.7281222304762,-470.64063234197863 M1266.7281222304762,-470.64063234197863 L1365.7783073909573,-461.37941355103237 M1365.7783073909573,-461.37941355103237 L1455.664970993106,-448.57896993378733" stroke="black"  stroke-width="4"  fill="red"/>
<path d="M253.26771478326776,-134.46957435087972 L252.59777249180652,-196.7742074567709 M253.26771478326776,-134.46957435087972 L160.83850963723717,-151.6356676599837 M160.83850963723717,-151.6356676599837 L55.37792894151272,-164.0338436764839 M55.37792894151272,-164.0338436764839 L-59.32373763005836,-171.33010148481776 M-59.32373763005836,-171.33010148481776 L-179.34653600585898,-173.3349140397919 M-179.34653600585898,-173.3349140397919 L-300.6906631265879,-169.99711524204406 M-300.6906631265879,-169.99711524204406 L-419.3141139513233,-161.4020983451578 M-419.3141139513233,-161.4020983451578 L-531.1703821855239,-147.7747969706195 M-531.1703821855239,-147.7747969706195 L-632.2582307291887,-129.4866903351167 M-632.2582307291887,-129.4866903351167 L-718.6954441776561,-107.06529654879398 M-718.6954441776561,-107.06529654879398 L-786.825815482701,-81.20356106813927 M-786.825815482701,-81.20356106813927 L-833.367195277691,-52.76523274891042 M-833.367195277691,-52.76523274891042 L-855.6001597319141,-22.78171236864955 M-855.6001597319141,-22.78171236864955 L-851.5890863562336,7.564544006044457 M-851.5890863562336,7.564544006044457 L-820.418599914146,36.975002909040654 M-820.418599914146,36.975002909040654 L-762.4134439965519,64.09098794808887 M-762.4134439965519,64.09098794808887 L-679.3022242526001,87.57033596712705 M-679.3022242526001,87.57033596712705 L-574.2824494009247,106.18008110222894 M-574.2824494009247,106.18008110222894 L-451.949823164357,118.89545895483684 M-451.949823164357,118.89545895483684 L-318.07367833073044,124.99175479016975 M-318.07367833073044,124.99175479016975 L-179.22842312612306,124.11440008649708 M-179.22842312612306,124.11440008649708 L-42.32023947221859,116.3147421179799 M-42.32023947221859,116.3147421179799 L85.92805265584826,102.0446966067592 M85.92805265584826,102.0446966067592 L199.45978322461414,82.11164925615577 M199.45978322461414,82.11164925615577 L293.2722814450683,57.60160891473697 M293.2722814450683,57.60160891473697 L363.6676877960375,29.78404869013201 M363.6676877960375,29.78404869013201 L408.35414728207206,0.01344932677034194 M408.35414728207206,0.01344932677034194 L426.4134428540581,-30.360113870054533 M426.4134428540581,-30.360113870054533 L418.1681059188838,-60.062727123513355 M418.1681059188838,-60.062727123513355 L384.98833442369835,-87.94722431901096 M384.98833442369835,-87.94722431901096 L329.07779922030625,-113.02314460692901 M329.07779922030625,-113.02314460692901 L253.26771478326776,-134.46957435087972 M252.59777249180652,-196.7742074567709 L328.5843927611882,-175.9195408828765 M328.5843927611882,-175.9195408828765 L384.6259472584926,-151.5342251454873 M384.6259472584926,-151.5342251454873 L417.8832784213748,-124.41602914173745 M417.8832784213748,-124.41602914173745 L426.1454202054438,-95.52776630240908 M426.1454202054438,-95.52776630240908 L408.03633117358896,-65.9849058140361 M408.03633117358896,-65.9849058140361 L363.23008640026194,-37.026513462741605 M363.23008640026194,-37.026513462741605 L292.64502902377797,-9.966083118063011 M292.64502902377797,-9.966083118063011 L198.57760073205708,13.878286812346914 M198.57760073205708,13.878286812346914 L84.73527477848256,33.27096295550814 M84.73527477848256,33.27096295550814 L-43.86468191369124,47.154704055014406 M-43.86468191369124,47.154704055014406 L-181.14682728087973,54.7434103005337 M-181.14682728087973,54.7434103005337 L-320.36694393926246,55.5970443523309 M-320.36694393926246,55.5970443523309 L-454.5969071525153,49.66560701758061 M-454.5969071525153,49.66560701758061 L-577.2420635197029,37.29435150798787 M-577.2420635197029,37.29435150798787 L-682.5165070152607,19.18890378085507 M-682.5165070152607,19.18890378085507 L-765.8129841920645,-3.653080695061192 M-765.8129841920645,-3.653080695061192 L-823.9280068951416,-30.03144655383028 M-823.9280068951416,-30.03144655383028 L-855.1323214732374,-58.64000937924436 M-855.1323214732374,-58.64000937924436 L-859.1050284186058,-88.15682395152783 M-859.1050284186058,-88.15682395152783 L-836.7686687474027,-117.31879171165644 M-836.7686687474027,-117.31879171165644 L-790.0681143209276,-144.97604587075477 M-790.0681143209276,-144.97604587075477 L-721.7330182713899,-170.12590271232568 M-721.7330182713899,-170.12590271232568 L-635.0558922412256,-191.92890608118626 M-635.0558922412256,-191.92890608118626 L-533.7028827308554,-209.7117866281934 M-533.7028827308554,-209.7117866281934 L-421.5654406671058,-222.96213427743487 M-421.5654406671058,-222.96213427743487 L-302.6532813054798,-231.31918501893074 M-302.6532813054798,-231.31918501893074 L-181.02074038924172,-234.56452719233323 M-181.02074038924172,-234.56452719233323 L-60.71721389045376,-232.61525069406161 M-60.71721389045376,-232.61525069406161 L54.250289245390036,-225.52103328717828 M54.250289245390036,-225.52103328717828 L159.95455012829723,-213.46590143942728 M159.95455012829723,-213.46590143942728 L252.59777249180652,-196.7742074567709" stroke="black"  stroke-width="4"  fill="red"/>
<path d="M62.4268800768308,38.309219807253726 L97.08572461621554,47.09197877772465 M-145.49056025321147,85.95518757826335 L-110.92352753116239,95.11397402598584 M62.4268800768308,38.309219807253726 L-145.49056025321147,85.95518757826335 M97.08572461621554,47.09197877772465 L-110.92352753116239,95.11397402598584 M67.24779866133451,303.04592510342763 L101.5687713339783,312.7594079353079 M-145.49056025321147,85.95518757826335 L-138.5914922993502,145.22995221060063 M-138.5914922993502,145.22995221060063 L-121.51354352989802,198.67297174817492 M-121.51354352989802,198.67297174817492 L-95.26181653310823,243.55590012939388 M-95.26181653310823,243.55590012939388 L-61.31134447238912,277.675572323516 M-61.31134447238912,277.675572323516 L-21.500135551936012,299.45283437514655 M-21.500135551936012,299.45283437514655 L22.08872575964932,307.9836627809092 M22.08872575964932,307.9836627809092 L67.24779866133451,303.04592510342763 M-110.92352753116239,95.11397402598584 L-104.0968187071636,154.59752568014926 M-104.0968187071636,154.59752568014926 L-87.08200472090294,208.21633426999767 M-87.08200472090294,208.21633426999767 L-60.881576705613895,253.233041666501 M-60.881576705613895,253.233041666501 L-26.96869734360405,287.43832010656246 M-26.96869734360405,287.43832010656246 L12.819808588731291,309.24987604923564 M12.819808588731291,309.24987604923564 L56.40143159833826,317.76347628998974 M56.40143159833826,317.76347628998974 L101.5687713339783,312.7594079353079 M67.24779866133451,303.04592510342763 L62.4268800768308,38.309219807253726 M101.5687713339783,312.7594079353079 L97.08572461621554,47.09197877772465" stroke="black"  stroke-width="4"  fill="red"/>
<path d="M1451.7191553275125,-51.658000617029415 L1485.7755424267264,-44.491826978918425 M1607.1238206502203,-315.6706124266792 L1641.3922408324615,-309.43389407648624 M1451.7191553275125,-51.658000617029415 L1484.8848944606525,-65.80481960692828 M1484.8848944606525,-65.80481960692828 L1516.5931916755296,-90.52630010549615 M1516.5931916755296,-90.52630010549615 L1545.3395004585707,-124.54426839007658 M1545.3395004585707,-124.54426839007658 L1569.777239039215,-166.17975658624914 M1569.777239039215,-166.17975658624914 L1588.7675171006051,-213.43135657892185 M1588.7675171006051,-213.43135657892185 L1601.4194418839522,-264.0587041501568 M1601.4194418839522,-264.0587041501568 L1607.1238206502203,-315.6706124266792 M1485.7755424267264,-44.491826978918425 L1518.9248670604059,-58.7118065063454 M1518.9248670604059,-58.7118065063454 L1550.6333274987094,-83.53630961066449 M1550.6333274987094,-83.53630961066449 L1579.3965005249422,-117.68183713259396 M1579.3965005249422,-117.68183713259396 L1603.8672022945884,-159.46328277251405 M1603.8672022945884,-159.46328277251405 L1622.9051999110513,-206.8725400241808 M1622.9051999110513,-206.8725400241808 L1635.6175289511118,-257.66220298099563 M1635.6175289511118,-257.66220298099563 L1641.3922408324615,-309.43389407648624 M1459.8782719961741,-281.9281007140546 L1494.26537576135,-275.4674933399914 M1607.1238206502203,-315.6706124266792 L1459.8782719961741,-281.9281007140546 M1641.3922408324615,-309.43389407648624 L1494.26537576135,-275.4674933399914 M1459.8782719961741,-281.9281007140546 L1451.7191553275125,-51.658000617029415 M1494.26537576135,-275.4674933399914 L1485.7755424267264,-44.491826978918425" stroke="black"  stroke-width="4"  fill="red"/>
<path d="M1459.8782719961741,-281.9281007140546 L1494.26537576135,-275.4674933399914 M62.4268800768308,38.309219807253726 L97.08572461621554,47.09197877772465 M1459.8782719961741,-281.9281007140546 L62.4268800768308,38.309219807253726 M1494.26537576135,-275.4674933399914 L97.08572461621554,47.09197877772465 M1451.7191553275125,-51.658000617029415 L1485.7755424267264,-44.491826978918425 M1451.7191553275125,-51.658000617029415 L1459.8782719961741,-281.9281007140546 M1485.7755424267264,-44.491826978918425 L1494.26537576135,-275.4674933399914 M67.24779866133451,303.04592510342763 L101.5687713339783,312.7594079353079 M62.4268800768308,38.309219807253726 L67.24779866133451,303.04592510342763 M97.08572461621554,47.09197877772465 L101.5687713339783,312.7594079353079 M1314.78842182251,-16.576112868218956 L1451.7191553275125,-51.658000617029415 M67.24779866133451,303.04592510342763 L246.46391849714632,257.1304491695489 M245.7416377339323,192.5407409065491 L246.46391849714632,257.1304491695489 M282.1018386492094,183.46921912687367 L245.7416377339323,192.5407409065491 M282.1018386492094,183.46921912687367 L282.7303149313455,247.8389364741032 M282.7303149313455,247.8389364741032 L1285.9016982084283,-9.17528495091949 M1287.594951003485,-67.39167928480947 L1285.9016982084283,-9.17528495091949 M1316.5407261926193,-74.61337287967353 L1287.594951003485,-67.39167928480947 M1316.5407261926193,-74.61337287967353 L1314.78842182251,-16.576112868218956 M1348.937956355192,-9.17528495091949 L1485.7755424267264,-44.491826978918425 M101.5687713339783,312.7594079353079 L280.8353677230783,266.49232249956935 M280.19732490517254,201.6811312614687 L280.8353677230783,266.49232249956935 M316.5647277631733,192.5407409065491 L280.19732490517254,201.6811312614687 M316.5647277631733,192.5407409065491 L317.1089119044948,257.1304491695489 M317.1089119044948,257.1304491695489 L1320.0690058361324,-1.7244702034451507 M1321.845087935726,-60.121098708142426 L1320.0690058361324,-1.7244702034451507 M1350.7729698506273,-67.39167928480947 L1321.845087935726,-60.121098708142426 M1350.7729698506273,-67.39167928480947 L1348.937956355192,-9.17528495091949 M1314.78842182251,-16.576112868218956 L1348.937956355192,-9.17528495091949 M246.46391849714632,257.1304491695489 L280.8353677230783,266.49232249956935 M1316.5407261926193,-74.61337287967353 L1350.7729698506273,-67.39167928480947 M1321.845087935726,-60.121098708142426 L1287.594951003485,-67.39167928480947 M1285.9016982084283,-9.17528495091949 L1320.0690058361324,-1.7244702034451507 M282.7303149313455,247.8389364741032 L317.1089119044948,257.1304491695489 M282.1018386492094,183.46921912687367 L316.5647277631733,192.5407409065491 M280.19732490517254,201.6811312614687 L245.7416377339323,192.5407409065491" stroke="black"  stroke-width="4"  fill="red"/>
<path d="M-516.7488749259236,-108.45738840870297 L-486.46477140809577,-100.78321503770053 M-722.290398485999,-66.87211998768885 L-692.1698264347401,-58.89145559803899 M-516.7488749259236,-108.45738840870297 L-722.290398485999,-66.87211998768885 M-486.46477140809577,-100.78321503770053 L-692.1698264347401,-58.89145559803899 M-506.6876848569731,140.61135429635937 L-476.65859848315074,149.1101523266865 M-722.290398485999,-66.87211998768885 L-714.3003696982198,-11.11288697274199 M-714.3003696982198,-11.11288697274199 L-696.3209310969228,39.35406038018101 M-696.3209310969228,39.35406038018101 L-669.3924271566516,81.95309550478294 M-669.3924271566516,81.95309550478294 L-635.0116208312375,114.58706373673999 M-635.0116208312375,114.58706373673999 L-595.0262057443465,135.73290558326187 M-595.0262057443465,135.73290558326187 L-551.5187498634006,144.49395825627482 M-551.5187498634006,144.49395825627482 L-506.6876848569731,140.61135429635937 M-692.1698264347401,-58.89145559803899 L-684.2313289544522,-2.947164007620472 M-684.2313289544522,-2.947164007620472 L-666.2918639919335,47.67719328355827 M-666.2918639919335,47.67719328355827 L-639.3903228965128,90.39790597711249 M-639.3903228965128,90.39790597711249 L-605.0227753165931,123.11213560922329 M-605.0227753165931,123.11213560922329 L-565.0368786416386,144.29372043187828 M-565.0368786416386,144.29372043187828 L-521.5157008768078,153.0454326043527 M-521.5157008768078,153.0454326043527 L-476.65859848315074,149.1101523266865 M-506.6876848569731,140.61135429635937 L-516.7488749259236,-108.45738840870297 M-476.65859848315074,149.1101523266865 L-486.46477140809577,-100.78321503770053" stroke="black"  stroke-width="4"  fill="red"/>
<path d="M876.6753293052805,-172.65920649345128 L907.0236577633409,-166.27328567562267 M1028.2005986665665,-421.0323729833908 L1058.7677929674364,-415.4692632574006 M876.6753293052805,-172.65920649345128 L909.9928085602351,-185.5968401428853 M909.9928085602351,-185.5968401428853 L941.5948543008766,-208.59965133037724 M941.5948543008766,-208.59965133037724 L969.9794691405467,-240.47839809992502 M969.9794691405467,-240.47839809992502 L993.8136680674861,-279.65726939897274 M993.8136680674861,-279.65726939897274 L1011.9833681024882,-324.247941464507 M1011.9833681024882,-324.247941464507 L1023.633438474324,-372.1293350914964 M1023.633438474324,-372.1293350914964 L1028.2005986665665,-421.0323729833908 M907.0236577633409,-166.27328567562267 L940.3390492717183,-179.2735012421499 M940.3390492717183,-179.2735012421499 L971.9515898667107,-202.3660306961491 M971.9515898667107,-202.3660306961491 L1000.3589277797472,-234.35698558136016 M1000.3589277797472,-234.35698558136016 L1024.227197357941,-273.66513407361697 M1024.227197357941,-273.66513407361697 L1042.44090472292,-318.3961853124581 M1042.44090472292,-318.3961853124581 L1054.142994583335,-366.42274656393863 M1054.142994583335,-366.42274656393863 L1058.7677929674364,-415.4692632574006 M879.5555531158883,-390.958429715805 L910.1680783857851,-385.2069855741879 M1028.2005986665665,-421.0323729833908 L879.5555531158883,-390.958429715805 M1058.7677929674364,-415.4692632574006 L910.1680783857851,-385.2069855741879 M879.5555531158883,-390.958429715805 L876.6753293052805,-172.65920649345128 M910.1680783857851,-385.2069855741879 L907.0236577633409,-166.27328567562267" stroke="black"  stroke-width="4"  fill="red"/>
<path d="M879.5555531158883,-390.958429715805 L910.1680783857851,-385.2069855741879 M-516.7488749259236,-108.45738840870297 L-486.46477140809577,-100.78321503770053 M879.5555531158883,-390.958429715805 L-516.7488749259236,-108.45738840870297 M910.1680783857851,-385.2069855741879 L-486.46477140809577,-100.78321503770053 M876.6753293052805,-172.65920649345128 L907.0236577633409,-166.27328567562267 M876.6753293052805,-172.65920649345128 L879.5555531158883,-390.958429715805 M907.0236577633409,-166.27328567562267 L910.1680783857851,-385.2069855741879 M-506.6876848569731,140.61135429635937 L-476.65859848315074,149.1101523266865 M-516.7488749259236,-108.45738840870297 L-506.6876848569731,140.61135429635937 M-486.46477140809577,-100.78321503770053 L-476.65859848315074,149.1101523266865 M738.7250515938435,-141.4195677165368 L876.6753293052805,-172.65920649345128 M740.035370272336,-307.11722134731565 L738.7250515938435,-141.4195677165368 M710.7839500349285,-301.0214116222793 L740.035370272336,-307.11722134731565 M710.7839500349285,-301.0214116222793 L709.6551629016709,-134.8365231798075 M-293.03142036649615,92.22765666387573 L709.6551629016709,-134.8365231798075 M-298.88842283417307,-90.61211799881676 L-293.03142036649615,92.22765666387573 M-335.16681408551017,-83.05193225727908 L-298.88842283417307,-90.61211799881676 M-335.16681408551017,-83.05193225727908 L-329.03278548819173,100.38037415408729 M-506.6876848569731,140.61135429635937 L-329.03278548819173,100.38037415408729 M769.1010999561805,-134.8365231798075 L907.0236577633409,-166.27328567562267 M769.6018226534351,-189.99655418473435 L769.1010999561805,-134.8365231798075 M769.6018226534351,-189.99655418473435 L740.4758597223143,-183.53350511348674 M740.4758597223143,-183.53350511348674 L740.0353702723359,-128.21155584041003 M-262.86636565271374,100.38037415408729 L740.0353702723359,-128.21155584041003 M-264.7451812837621,39.52497129935591 L-262.86636565271374,100.38037415408729 M-264.7451812837621,39.52497129935591 L-300.8592588734916,47.53868250874103 M-300.8592588734916,47.53868250874103 L-298.88842283417307,108.5909009470106 M-476.65859848315074,149.1101523266865 L-298.88842283417307,108.5909009470106 M738.7250515938435,-141.4195677165368 L769.1010999561805,-134.8365231798075 M-329.03278548819173,100.38037415408729 L-298.88842283417307,108.5909009470106 M745.1175577649458,-306.1039503207519 L740.035370272336,-307.11722134731565 M745.1175577649458,-306.1039503207519 L744.2202059012619,-195.35110415106658 M744.2202059012619,-195.35110415106658 L769.6018226534351,-189.99655418473435 M715.8667989469554,-300.0016551007443 L710.7839500349285,-301.0214116222793 M745.1175577649458,-306.1039503207519 L715.8667989469554,-300.0016551007443 M715.0907104988564,-188.92223606206664 L715.8667989469554,-300.0016551007443 M740.4758597223143,-183.53350511348674 L715.0907104988564,-188.92223606206664 M709.6551629016709,-134.8365231798075 L740.0353702723359,-128.21155584041003 M-293.03142036649615,92.22765666387573 L-262.86636565271374,100.38037415408729 M-293.84356907899314,-89.35581200530885 L-298.88842283417307,-90.61211799881676 M-293.84356907899314,-89.35581200530885 L-289.95116174513987,32.89010676500635 M-289.95116174513987,32.89010676500635 L-264.7451812837621,39.52497129935591 M-330.1255259565514,-81.78666778569732 L-335.16681408551017,-83.05193225727908 M-293.84356907899314,-89.35581200530885 L-330.1255259565514,-81.78666778569732 M-326.04791580817505,40.856646078734116 L-330.1255259565514,-81.78666778569732 M-300.8592588734916,47.53868250874103 L-326.04791580817505,40.856646078734116 M744.2202059012619,-195.35110415106658 L715.0907104988564,-188.92223606206664 M-289.95116174513987,32.89010676500635 L-326.04791580817505,40.856646078734116" stroke="black"  stroke-width="4"  fill="red"/>
<path d="M550.1352325697192,1209.2945946422897 L515.8647194485618,1196.7841328533218 M363.7151441740516,1277.5972716577821 L329.45820702960765,1264.5837668142722 M550.1352325697192,1209.2945946422897 L363.7151441740516,1277.5972716577821 M515.8647194485618,1196.7841328533218 L329.45820702960765,1264.5837668142722 M550.959757598605,24.45212813333967 L515.0463509308702,15.878361824359843 M550.959757598605,24.45212813333967 L550.1352325697192,1209.2945946422897 M515.0463509308702,15.878361824359843 L515.8647194485618,1196.7841328533218 M355.4156928520053,71.31495019484419 L319.51793931036116,62.37938808367858 M363.7151441740516,1277.5972716577821 L355.4156928520053,71.31495019484419 M329.45820702960765,1264.5837668142722 L319.51793931036116,62.37938808367858 M355.4156928520053,71.31495019484419 L550.959757598605,24.45212813333967 M436.8825707103683,330.8360020892744 L436.220763995809,154.8781418558093 M472.73457534181273,145.7302421163634 L436.220763995809,154.8781418558093 M473.14502885701467,321.075983810651 L472.73457534181273,145.7302421163634 M436.8825707103683,330.8360020892744 L473.14502885701467,321.075983810651 M319.51793931036116,62.37938808367858 L515.0463509308702,15.878361824359843 M400.2260313729944,101.51725248524758 L401.5805475984568,364.5396759023228 M401.5805475984568,364.5396759023228 L437.77790882978576,354.7049211526788 M437.77790882978576,354.7049211526788 L436.8003405356802,92.59442229562165 M436.8003405356802,92.59442229562165 L400.2260313729944,101.51725248524758 M401.5805475984568,364.5396759023228 L410.42159287322113,367.01013616021305 M410.42159287322113,367.01013616021305 L410.2126241644846,323.5089671585831 M410.2126241644846,323.5089671585831 L436.8825707103683,330.8360020892744 M436.220763995809,154.8781418558093 L409.3695739684482,148.0105909836917 M409.3695739684482,148.0105909836917 L409.1569992211596,103.75875029812039 M409.1569992211596,103.75875029812039 L400.2260313729944,101.51725248524758 M472.73457534181273,145.7302421163634 L445.8813297222137,138.91552129503884 M445.8813297222137,138.91552129503884 L409.3695739684482,148.0105909836917 M437.77790882978576,354.7049211526788 L446.619748870972,357.1565738470257 M446.619748870972,357.1565738470257 L446.47306847799337,313.80493080494693 M446.47306847799337,313.80493080494693 L473.14502885701467,321.075983810651 M445.8813297222137,138.91552129503884 L445.73212795124346,94.81868064035325 M445.73212795124346,94.81868064035325 L436.8003405356802,92.59442229562165 M446.47306847799337,313.80493080494693 L410.2126241644846,323.5089671585831 M445.73212795124346,94.81868064035325 L409.1569992211596,103.75875029812039 M446.619748870972,357.1565738470257 L410.42159287322113,367.01013616021305" stroke="black"  stroke-width="4"  fill="red"/>
<path d="M1531.6316454683201,849.6829612662181 L1497.7377799578853,839.658015129329 M1382.6179262264088,904.2802743768907 L1348.6183623077177,893.8956155326259 M1531.6316454683201,849.6829612662181 L1382.6179262264088,904.2802743768907 M1497.7377799578853,839.658015129329 L1348.6183623077177,893.8956155326259 M1574.3460605239234,-220.8059945119004 L1538.8617850085916,-227.60783023423892 M1574.3460605239234,-220.8059945119004 L1531.6316454683201,849.6829612662181 M1538.8617850085916,-227.60783023423892 L1497.7377799578853,839.658015129329 M1419.6343060445076,-183.72877904955726 L1384.0300731979955,-190.7853887434669 M1382.6179262264088,904.2802743768907 L1419.6343060445076,-183.72877904955726 M1348.6183623077177,893.8956155326259 L1384.0300731979955,-190.7853887434669 M1419.6343060445076,-183.72877904955726 L1574.3460605239234,-220.8059945119004 M1474.0413278749493,51.68536131295588 L1479.8081471470512,-106.57450848393648 M1508.723384391911,-113.81871777098524 L1479.8081471470512,-106.57450848393648 M1502.800744756411,43.94478197025137 L1508.723384391911,-113.81871777098524 M1474.0413278749493,51.68536131295588 L1502.800744756411,43.94478197025137 M1384.0300731979955,-190.7853887434669 L1538.8617850085916,-227.60783023423892 M1445.7815116567458,-153.56108577965767 L1437.483212655033,83.08687633978116 M1437.483212655033,83.08687633978116 L1466.2256988315746,75.27759707672107 M1466.2256988315746,75.27759707672107 L1474.7583349674671,-160.63039972585625 M1474.7583349674671,-160.63039972585625 L1445.7815116567458,-153.56108577965767 M1437.483212655033,83.08687633978116 L1446.242582243036,85.04752279678502 M1446.242582243036,85.04752279678502 L1447.6296150243084,45.87496725105302 M1447.6296150243084,45.87496725105302 L1474.0413278749493,51.68536131295588 M1479.8081471470512,-106.57450848393648 L1453.2201327065923,-112.01233533870447 M1453.2201327065923,-112.01233533870447 L1454.6284550535927,-151.78615042731212 M1454.6284550535927,-151.78615042731212 L1445.7815116567458,-153.56108577965767 M1508.723384391911,-113.81871777098524 L1482.1521641947666,-119.21929751258187 M1482.1521641947666,-119.21929751258187 L1453.2201327065923,-112.01233533870447 M1466.2256988315746,75.27759707672107 L1474.979717051902,77.22493789607302 M1474.979717051902,77.22493789607302 L1476.405522058731,38.17394611748489 M1476.405522058731,38.17394611748489 L1502.800744756411,43.94478197025137 M1482.1521641947666,-119.21929751258187 L1483.59977854995,-158.86761969695 M1483.59977854995,-158.86761969695 L1474.7583349674671,-160.63039972585625 M1476.405522058731,38.17394611748489 L1447.6296150243084,45.87496725105302 M1483.59977854995,-158.86761969695 L1454.6284550535927,-151.78615042731212 M1474.979717051902,77.22493789607302 L1446.242582243036,85.04752279678502" stroke="black"  stroke-width="4"  fill="red"/>
<path d="M-285.40524875880385,904.2802743768908 L-313.8524470464764,893.895615532626 M-470.07417889955843,960.857881077296 L-498.409711987774,950.0937956737437 M-285.40524875880385,904.2802743768908 L-470.07417889955843,960.857881077296 M-313.8524470464764,893.895615532626 L-498.409711987774,950.0937956737437 M-321.05906244862877,-183.72877904955726 L-350.61747172873925,-190.7853887434669 M-321.05906244862877,-183.72877904955726 L-285.40524875880385,904.2802743768908 M-350.61747172873925,-190.7853887434669 L-313.8524470464764,893.895615532626 M-514.601086284933,-145.24704048002843 L-544.0324633939706,-152.57301138987566 M-470.07417889955843,960.857881077296 L-514.601086284933,-145.24704048002843 M-498.409711987774,950.0937956737437 L-544.0324633939706,-152.57301138987566 M-514.601086284933,-145.24704048002843 L-321.05906244862877,-183.72877904955726 M-424.1347459088695,133.80939983817996 L-388.29623992556196,125.6522688662152 M-396.9061919012055,-115.0212122411906 L-388.29623992556196,125.6522688662152 M-396.9061919012055,-115.0212122411906 L-433.1110963649277,-107.63402663328986 M-424.1347459088695,133.80939983817996 L-433.1110963649277,-107.63402663328986 M-544.0324633939706,-152.57301138987566 L-350.61747172873925,-190.7853887434669 M-454.85111462972327,85.84998945815965 L-460.99618371414283,-74.59708905371531 M-424.87640045696844,-82.06226732096945 L-460.99618371414283,-74.59708905371531 M-418.9751597218876,77.87476851048007 L-424.87640045696844,-82.06226732096945 M-454.85111462972327,85.84998945815965 L-418.9751597218876,77.87476851048007 M-395.61898189817373,123.62182950025351 L-388.29623992556196,125.6522688662152 M-431.45178941490815,131.76479259716524 L-424.1347459088695,133.80939983817996 M-395.61898189817373,123.62182950025351 L-431.45178941490815,131.76479259716524 M-433.1110963649277,-107.63402663328986 L-440.4888181552486,-109.48569014144903 M-440.4888181552486,-109.48569014144903 L-438.9709052614413,-68.96382959324615 M-438.9709052614413,-68.96382959324615 L-460.99618371414283,-74.59708905371531 M-454.85111462972327,85.84998945815965 L-432.9462914917583,91.86790194277478 M-432.9462914917583,91.86790194277478 L-431.45178941490815,131.76479259716524 M-396.9061919012055,-115.0212122411906 L-404.28977364247714,-116.85992520399748 M-404.28977364247714,-116.85992520399748 L-440.4888181552486,-109.48569014144903 M-404.28977364247714,-116.85992520399748 L-402.83341547577163,-76.468277274348 M-402.83341547577163,-76.468277274348 L-424.87640045696844,-82.06226732096945 M-418.9751597218876,77.87476851048007 L-397.05295629730176,83.8509885121926 M-397.05295629730176,83.8509885121926 L-395.61898189817373,123.62182950025351 M-402.83341547577163,-76.468277274348 L-438.9709052614413,-68.96382959324615 M-397.05295629730176,83.8509885121926 L-432.9462914917583,91.86790194277478" stroke="black"  stroke-width="4"  fill="red"/>
<path d="M697.7931235822412,603.0546660604763 L669.126658228731,594.5758523643677 M547.3275067570697,649.1532950186872 L518.6536359562417,640.3952895712284 M697.7931235822412,603.0546660604763 L547.3275067570697,649.1532950186872 M669.126658228731,594.5758523643677 L518.6536359562417,640.3952895712284 M704.2534515982038,-387.5904899872695 L674.446716971649,-393.3040211050619 M704.2534515982038,-387.5904899872695 L697.7931235822412,603.0546660604763 M674.446716971649,-393.3040211050619 L669.126658228731,594.5758523643677 M547.8998779484896,-356.50288830605155 L518.0848285849011,-362.41210610244343 M547.3275067570697,649.1532950186872 L547.8998779484896,-356.50288830605155 M518.6536359562417,640.3952895712284 L518.0848285849011,-362.41210610244343 M547.8998779484896,-356.50288830605155 L704.2534515982038,-387.5904899872695 M611.2498031261255,-101.85241532679288 L640.268881795368,-108.45739002917037 M641.1705646552591,-326.8285844610008 L640.268881795368,-108.45739002917037 M641.1705646552591,-326.8285844610008 L611.9097077133356,-320.85825020717584 M611.2498031261255,-101.85241532679288 L611.9097077133356,-320.85825020717584 M518.0848285849011,-362.41210610244343 L674.446716971649,-393.3040211050619 M581.8093013815246,-144.59951039884243 L582.0825359874023,-290.17890841041105 M611.3043735904484,-296.2184304487986 L582.0825359874023,-290.17890841041105 M610.8699291591846,-151.05968485274911 L611.3043735904484,-296.2184304487986 M581.8093013815246,-144.59951039884243 L610.8699291591846,-151.05968485274911 M632.8749031723058,-110.10218856941913 L640.268881795368,-108.45739002917037 M603.8553884530845,-103.50753819661338 L611.2498031261255,-101.85241532679288 M632.8749031723058,-110.10218856941913 L603.8553884530845,-103.50753819661338 M611.9097077133356,-320.85825020717584 L604.4524867798843,-322.35436976749213 M604.4524867798843,-322.35436976749213 L604.3522729223747,-285.62426316509584 M604.3522729223747,-285.62426316509584 L582.0825359874023,-290.17890841041105 M581.8093013815246,-144.59951039884243 L603.9542112128067,-139.72778347553822 M603.9542112128067,-139.72778347553822 L603.8553884530845,-103.50753819661338 M641.1705646552591,-326.8285844610008 L633.7137908696367,-328.3152932531499 M633.7137908696367,-328.3152932531499 L604.4524867798843,-322.35436976749213 M633.7137908696367,-328.3152932531499 L633.5729994314918,-291.69234964791553 M633.5729994314918,-291.69234964791553 L611.3043735904484,-296.2184304487986 M610.8699291591846,-151.05968485274911 L633.0137463296539,-146.21834157225953 M633.0137463296539,-146.21834157225953 L632.8749031723058,-110.10218856941913 M633.5729994314918,-291.69234964791553 L604.3522729223747,-285.62426316509584 M633.0137463296539,-146.21834157225953 L603.9542112128067,-139.72778347553822" stroke="black"  stroke-width="4"  fill="red"/>
<path d="M-397.05295629730176,83.8509885121926 L-432.9462914917583,91.86790194277478 M-395.61898189817373,123.62182950025351 L-431.45178941490815,131.76479259716524 M-397.05295629730176,83.8509885121926 L-395.61898189817373,123.62182950025351 M-432.9462914917583,91.86790194277478 L-431.45178941490815,131.76479259716524 M-388.25203512968517,86.25021089402782 L-424.1522361513963,94.28389293662286 M-388.25203512968517,86.25021089402782 L-397.05295629730176,83.8509885121926 M-424.1522361513963,94.28389293662286 L-432.9462914917583,91.86790194277478 M446.619748870972,357.1565738470257 L410.42159287322113,367.01013616021305 M-395.61898189817373,123.62182950025351 L446.619748870972,357.1565738470257 M-431.45178941490815,131.76479259716524 L410.42159287322113,367.01013616021305 M-393.9838048058574,-74.22245466701088 L-388.25203512968517,86.25021089402782 M-402.83341547577163,-76.468277274348 L-393.9838048058574,-74.22245466701088 M-404.28977364247714,-116.85992520399748 L-402.83341547577163,-76.468277274348 M-293.84356907899314,-89.35581200530885 L-404.28977364247714,-116.85992520399748 M-293.84356907899314,-89.35581200530885 L-289.95116174513987,32.89010676500635 M-289.95116174513987,32.89010676500635 L-259.6861226856345,40.856646078734116 M-259.6861226856345,40.856646078734116 L-263.4487243221156,-81.78666778569732 M280.8353677230783,53.75489599209419 L-263.4487243221156,-81.78666778569732 M280.8353677230783,53.75489599209419 L282.1018386492094,183.46921912687367 M282.1018386492094,183.46921912687367 L316.5647277631733,192.5407409065491 M316.5647277631733,192.5407409065491 L315.4680864108211,62.37938624896418 M445.73212795124346,94.81868064035325 L315.4680864108211,62.37938624896418 M445.8813297222137,138.91552129503884 L445.73212795124346,94.81868064035325 M435.1833648146009,136.20062994691438 L445.8813297222137,138.91552129503884 M435.84703288442114,310.90816330291756 L435.1833648146009,136.20062994691438 M446.47306847799337,313.80493080494693 L435.84703288442114,310.90816330291756 M446.619748870972,357.1565738470257 L446.47306847799337,313.80493080494693 M-430.1282895347965,-66.70221238807062 L-424.1522361513963,94.28389293662286 M-438.9709052614413,-68.96382959324615 L-430.1282895347965,-66.70221238807062 M-440.4888181552486,-109.48569014144903 L-438.9709052614413,-68.96382959324615 M-330.1255259565514,-81.78666778569732 L-440.4888181552486,-109.48569014144903 M-326.04791580817505,40.856646078734116 L-330.1255259565514,-81.78666778569732 M-295.8036137834665,48.87984193444339 L-326.04791580817505,40.856646078734116 M-299.7517149468458,-74.16343678718306 L-295.8036137834665,48.87984193444339 M244.28609558780215,62.37938624896418 L-299.7517149468458,-74.16343678718306 M245.7416377339323,192.5407409065491 L244.28609558780215,62.37938624896418 M280.19732490517254,201.6811312614687 L245.7416377339323,192.5407409065491 M278.91150228698467,71.06968440091566 L280.19732490517254,201.6811312614687 M409.1569992211596,103.75875029812039 L278.91150228698467,71.06968440091566 M409.3695739684482,148.0105909836917 L409.1569992211596,103.75875029812039 M398.6725952442491,145.27469564752437 L409.3695739684482,148.0105909836917 M399.58755475937244,320.5899416352908 L398.6725952442491,145.27469564752437 M410.2126241644846,323.5089671585831 L399.58755475937244,320.5899416352908 M410.42159287322113,367.01013616021305 L410.2126241644846,323.5089671585831 M-393.9838048058574,-74.22245466701088 L-430.1282895347965,-66.70221238807062 M446.47306847799337,313.80493080494693 L410.2126241644846,323.5089671585831 M-402.83341547577163,-76.468277274348 L-438.9709052614413,-68.96382959324615 M-404.28977364247714,-116.85992520399748 L-440.4888181552486,-109.48569014144903 M-293.84356907899314,-89.35581200530885 L-330.1255259565514,-81.78666778569732 M-289.95116174513987,32.89010676500635 L-326.04791580817505,40.856646078734116 M-259.6861226856345,40.856646078734116 L-295.8036137834665,48.87984193444339 M-299.7517149468458,-74.16343678718306 L-263.4487243221156,-81.78666778569732 M280.8353677230783,53.75489599209419 L244.28609558780215,62.37938624896418 M282.1018386492094,183.46921912687367 L245.7416377339323,192.5407409065491 M316.5647277631733,192.5407409065491 L280.19732490517254,201.6811312614687 M278.91150228698467,71.06968440091566 L315.4680864108211,62.37938624896418 M445.73212795124346,94.81868064035325 L409.1569992211596,103.75875029812039 M445.8813297222137,138.91552129503884 L409.3695739684482,148.0105909836917 M435.1833648146009,136.20062994691438 L398.6725952442491,145.27469564752437 M435.84703288442114,310.90816330291756 L399.58755475937244,320.5899416352908" stroke="black"  stroke-width="4"  fill="red"/>
<path d="M435.84703288442114,310.90816330291756 L399.58755475937244,320.5899416352908 M474.92863127141123,321.5622123259866 L438.6660594430247,331.325979983313 M435.84703288442114,310.90816330291756 L474.92863127141123,321.5622123259866 M399.58755475937244,320.5899416352908 L438.6660594430247,331.325979983313 M474.53033830870595,146.185964432169 L438.0164109197531,155.33740256589272 M474.92863127141123,321.5622123259866 L474.53033830870595,146.185964432169 M438.6660594430247,331.325979983313 L438.0164109197531,155.33740256589272 M435.1833648146009,136.20062994691438 L398.6725952442491,145.27469564752437 M474.53033830870595,146.185964432169 L435.1833648146009,136.20062994691438 M438.0164109197531,155.33740256589272 L398.6725952442491,145.27469564752437 M435.1833648146009,136.20062994691438 L435.84703288442114,310.90816330291756 M398.6725952442491,145.27469564752437 L399.58755475937244,320.5899416352908" stroke="black"  stroke-width="4"  fill="red"/>
<path d="M-420.43260362409796,77.47745418805215 L-456.3073889714582,85.4499071800717 M-388.25203512968517,86.25021089402782 L-424.1522361513963,94.28389293662286 M-420.43260362409796,77.47745418805215 L-388.25203512968517,86.25021089402782 M-456.3073889714582,85.4499071800717 L-424.1522361513963,94.28389293662286 M-393.9838048058574,-74.22245466701088 L-430.1282895347965,-66.70221238807062 M-388.25203512968517,86.25021089402782 L-393.9838048058574,-74.22245466701088 M-424.1522361513963,94.28389293662286 L-430.1282895347965,-66.70221238807062 M-426.34184897668615,-82.43416361541995 L-462.4604407505932,-74.97159236911523 M-393.9838048058574,-74.22245466701088 L-426.34184897668615,-82.43416361541995 M-430.1282895347965,-66.70221238807062 L-462.4604407505932,-74.97159236911523 M-426.34184897668615,-82.43416361541995 L-420.43260362409796,77.47745418805215 M-462.4604407505932,-74.97159236911523 L-456.3073889714582,85.4499071800717" stroke="black"  stroke-width="4"  fill="red"/>
<path d="M633.0137463296539,-146.21834157225953 L603.9542112128067,-139.72778347553822 M632.8749031723058,-110.10218856941913 L603.8553884530845,-103.50753819661338 M633.0137463296539,-146.21834157225953 L632.8749031723058,-110.10218856941913 M603.9542112128067,-139.72778347553822 L603.8553884530845,-103.50753819661338 M641.9003970156743,-144.27543686646197 L612.8413917965573,-137.77266524511913 M641.9003970156743,-144.27543686646197 L633.0137463296539,-146.21834157225953 M612.8413917965573,-137.77266524511913 L603.9542112128067,-139.72778347553822 M1474.979717051902,77.22493789607302 L1446.242582243036,85.04752279678502 M632.8749031723058,-110.10218856941913 L1474.979717051902,77.22493789607302 M603.8553884530845,-103.50753819661338 L1446.242582243036,85.04752279678502 M642.5099015257,-289.87593128080584 L641.9003970156743,-144.27543686646197 M633.5729994314918,-291.69234964791553 L642.5099015257,-289.87593128080584 M633.7137908696367,-328.3152932531499 L633.5729994314918,-291.69234964791553 M745.1175577649458,-306.1039503207519 L633.7137908696367,-328.3152932531499 M745.1175577649458,-306.1039503207519 L744.2202059012619,-195.35110415106658 M744.2202059012619,-195.35110415106658 L774.694301205491,-188.92223606206664 M774.694301205491,-188.92223606206664 L775.724382227796,-300.0016551007443 M1320.0690058361324,-191.47188590780502 L775.724382227796,-300.0016551007443 M1320.0690058361324,-191.47188590780502 L1316.5407261926193,-74.61337287967353 M1316.5407261926193,-74.61337287967353 L1350.7729698506273,-67.39167928480947 M1350.7729698506273,-67.39167928480947 L1354.4678690123517,-184.61354558606638 M1483.59977854995,-158.86761969695 L1354.4678690123517,-184.61354558606638 M1482.1521641947666,-119.21929751258187 L1483.59977854995,-158.86761969695 M1471.561855982114,-121.37176938124924 L1482.1521641947666,-119.21929751258187 M1465.8851304619616,35.87385364593683 L1471.561855982114,-121.37176938124924 M1476.405522058731,38.17394611748489 L1465.8851304619616,35.87385364593683 M1474.979717051902,77.22493789607302 L1476.405522058731,38.17394611748489 M613.2897138682135,-283.7963622326283 L612.8413917965573,-137.77266524511913 M604.3522729223747,-285.62426316509584 L613.2897138682135,-283.7963622326283 M604.4524867798843,-322.35436976749213 L604.3522729223747,-285.62426316509584 M715.8667989469554,-300.0016551007443 L604.4524867798843,-322.35436976749213 M715.0907104988564,-188.92223606206664 L715.8667989469554,-300.0016551007443 M745.56909860164,-182.4523180881148 L715.0907104988564,-188.92223606206664 M746.4779713224569,-293.8602286680417 L745.56909860164,-182.4523180881148 M1291.0044073091774,-184.61354558606638 L746.4779713224569,-293.8602286680417 M1287.594951003485,-67.39167928480947 L1291.0044073091774,-184.61354558606638 M1321.845087935726,-60.121098708142426 L1287.594951003485,-67.39167928480947 M1325.4214073882335,-177.70856751377926 L1321.845087935726,-60.121098708142426 M1454.6284550535927,-151.78615042731212 L1325.4214073882335,-177.70856751377926 M1453.2201327065923,-112.01233533870447 L1454.6284550535927,-151.78615042731212 M1442.6232622025584,-114.17962568422388 L1453.2201327065923,-112.01233533870447 M1437.1027797462116,43.55913633405157 L1442.6232622025584,-114.17962568422388 M1447.6296150243084,45.87496725105302 L1437.1027797462116,43.55913633405157 M1446.242582243036,85.04752279678502 L1447.6296150243084,45.87496725105302 M642.5099015257,-289.87593128080584 L613.2897138682135,-283.7963622326283 M1476.405522058731,38.17394611748489 L1447.6296150243084,45.87496725105302 M633.5729994314918,-291.69234964791553 L604.3522729223747,-285.62426316509584 M633.7137908696367,-328.3152932531499 L604.4524867798843,-322.35436976749213 M745.1175577649458,-306.1039503207519 L715.8667989469554,-300.0016551007443 M744.2202059012619,-195.35110415106658 L715.0907104988564,-188.92223606206664 M774.694301205491,-188.92223606206664 L745.56909860164,-182.4523180881148 M746.4779713224569,-293.8602286680417 L775.724382227796,-300.0016551007443 M1320.0690058361324,-191.47188590780502 L1291.0044073091774,-184.61354558606638 M1316.5407261926193,-74.61337287967353 L1287.594951003485,-67.39167928480947 M1350.7729698506273,-67.39167928480947 L1321.845087935726,-60.121098708142426 M1325.4214073882335,-177.70856751377926 L1354.4678690123517,-184.61354558606638 M1483.59977854995,-158.86761969695 L1454.6284550535927,-151.78615042731212 M1482.1521641947666,-119.21929751258187 L1453.2201327065923,-112.01233533870447 M1471.561855982114,-121.37176938124924 L1442.6232622025584,-114.17962568422388 M1465.8851304619616,35.87385364593683 L1437.1027797462116,43.55913633405157" stroke="black"  stroke-width="4"  fill="red"/>
<path d="M1465.8851304619616,35.87385364593683 L1437.1027797462116,43.55913633405157 M1504.5652514564688,44.33055929987512 L1475.8069534157148,52.073786714050584 M1465.8851304619616,35.87385364593683 L1504.5652514564688,44.33055929987512 M1437.1027797462116,43.55913633405157 L1475.8069534157148,52.073786714050584 M1510.4996859901817,-113.457685859187 L1481.58558824668,-106.2109831456313 M1504.5652514564688,44.33055929987512 L1510.4996859901817,-113.457685859187 M1475.8069534157148,52.073786714050584 L1481.58558824668,-106.2109831456313 M1471.561855982114,-121.37176938124924 L1442.6232622025584,-114.17962568422388 M1510.4996859901817,-113.457685859187 L1471.561855982114,-121.37176938124924 M1481.58558824668,-106.2109831456313 L1442.6232622025584,-114.17962568422388 M1471.561855982114,-121.37176938124924 L1465.8851304619616,35.87385364593683 M1442.6232622025584,-114.17962568422388 L1437.1027797462116,43.55913633405157" stroke="black"  stroke-width="4"  fill="red"/>
<path d="M609.3973433690969,-151.38163897948823 L580.3366544547646,-144.92348253222588 M641.9003970156743,-144.27543686646197 L612.8413917965573,-137.77266524511913 M609.3973433690969,-151.38163897948823 L641.9003970156743,-144.27543686646197 M580.3366544547646,-144.92348253222588 L612.8413917965573,-137.77266524511913 M642.5099015257,-289.87593128080584 L613.2897138682135,-283.7963622326283 M641.9003970156743,-144.27543686646197 L642.5099015257,-289.87593128080584 M612.8413917965573,-137.77266524511913 L613.2897138682135,-283.7963622326283 M609.8235085561062,-296.51941510984034 L580.6016087864006,-290.4817902115925 M642.5099015257,-289.87593128080584 L609.8235085561062,-296.51941510984034 M613.2897138682135,-283.7963622326283 L580.6016087864006,-290.4817902115925 M609.8235085561062,-296.51941510984034 L609.3973433690969,-151.38163897948823 M580.6016087864006,-290.4817902115925 L580.3366544547646,-144.92348253222588" stroke="black"  stroke-width="4"  fill="red"/></svg>