<svg version="1.1" xmlns="http://www.w3.org/2000/svg" viewBox="-15.45775895327555 -17.270253197807016 30.91551790655109 31.819644103625556" fill="none" stroke="black" stroke-width="0.6%" vector-effect="non-scaling-stroke">
    <path d="M -10.85366 7.2393 L -11.55225 7.3304 L -11.55225 -9.63699 L -13.18958 -11.03627 L -13.18958 5.93112 L -11.55225 7.3304" />
    <path d="M -12.84029 -11.08182 L -13.18958 -11.03627" />
    <path d="M -10.85366 7.2393 L -10.85366 -8.67706" />
    <path d="M -11.20296 -8.97557 L -11.20296 -9.68254 L -12.84029 -11.08182" />
    <path d="M -11.20296 -9.68254 L -11.55225 -9.63699" />
    <path d="M -13.84087 -11.22995 L -13.18958 -10.67335" />
    <path d="M -11.20296 -8.97557 L -5.91257 -4.45436" />
    <path d="M -3.92595 -3.46355 L -5.56327 -4.86282 L -5.91257 -4.81727 L -5.91257 12.15012 L -4.27524 13.54939 L -4.27524 -3.418 L -5.91257 -4.81727" />
    <path d="M -3.92595 -2.75658 L -3.92595 -3.46355 L -4.27524 -3.418" />
    <path d="M -3.92595 -2.75658 L -2.92536 -1.90146 L -2.92536 -2.8441 A 9 3.00448 180 0 0 14.45776 -3.93728 L 14.45776 -2.99465 A 9 3.00448 360 0 1 -2.92536 -1.90146" />
    <path d="M -13.84087 -12.17259 L -2.92536 -2.8441" />
    <path d="M -13.84087 -11.22995 L -13.84087 -12.17259 A 9 3.00448 360 0 1 -14.45776 -13.26577 L -14.45776 -12.32314" />
    <path d="M -13.84087 -11.22995 A 9 3.00448 360 0 1 -14.45776 -12.32314" />
    <path d="M -3.57665 13.45829 L -3.57665 -2.45806" />
    <path d="M -3.57665 13.45829 L -4.27524 13.54939" />
    <path d="M 14.45776 -3.93728 A 9 3.00448 180 0 0 13.84087 -5.03046 L 2.92536 -14.35895" />
    <path d="M -14.45776 -13.26577 A 9 3.00448 360 0 1 2.92536 -14.35895" />
    <path d="M 3.57665 -0.05652 L 3.57665 3.74476 L 5.21398 5.14403 L 5.21398 0.00873" />
    <path d="M 4.27524 -13.31373 L 4.16519 -13.29938" />
    <path d="M 5.91257 5.05293 L 5.91257 0.006" />
    <path d="M 5.91257 -11.80606 L 5.91257 -11.91446 L 4.27524 -13.31373" />
    <path d="M 5.91257 -11.91446 L 5.80252 -11.90011" />
    <path d="M 5.91257 5.05293 L 5.21398 5.14403" />
    <path d="M 10.85366 -0.59004 L 10.85366 9.96375 L 12.49099 11.36302 L 12.49099 -1.12002" />
    <path d="M 11.55225 -7.09474 L 11.4422 -7.08039" />
    <path d="M 13.18958 11.27193 L 13.18958 -1.45689" />
    <path d="M 13.18958 -5.58706 L 13.18958 -5.69546 L 11.55225 -7.09474" />
    <path d="M 13.18958 -5.69546 L 13.07953 -5.68111" />
    <path d="M 13.18958 11.27193 L 12.49099 11.36302" />
</svg>