<svg version="1.1" xmlns="http://www.w3.org/2000/svg" viewBox="-17.47421057630418 -17.3626753713444 34.948421152608354 34.7253507426888" fill="none" stroke="black" stroke-width="0.6%" vector-effect="non-scaling-stroke">
    <path d="M -13.66643 5.22937 L -14.3254 5.37861 L -14.3254 -10.98406 L -16.47421 -12.63167 L -16.47421 3.731 L -14.3254 5.37861" />
    <path d="M -13.66643 -11.1333 L -14.3254 -10.98406" />
    <path d="M -13.66643 5.22937 L -13.66643 -11.1333 L -15.81524 -12.78091 L -16.47421 -12.63167" />
    <path d="M 16.47421 12.63167 L 15.81524 12.78091 L 15.81524 -3.58176 L 13.66643 -5.22937 L 13.66643 11.1333 L 15.81524 12.78091" />
    <path d="M 16.47421 -3.731 L 15.81524 -3.58176" />
    <path d="M 16.47421 12.63167 L 16.47421 -3.731 L 14.3254 -5.37861 L 13.66643 -5.22937" />
    <path d="M 2.14881 1.64761 L 1.48984 1.79685 L 1.48984 -14.56582 L -0.65897 -16.21343 L -0.65897 -1.15977" />
    <path d="M 0.65897 1.15977 L 1.48984 1.79685" />
    <path d="M 2.14881 -14.71506 L 1.48984 -14.56582" />
    <path d="M 2.14881 1.64761 L 2.14881 -14.71506 L 0 -16.36267 L -0.65897 -16.21343" />
    <path d="M 0.65897 16.21343 L 0 16.36267 L 0 0 L -2.14881 -1.64761 L -2.14881 14.71506 L 0 16.36267" />
    <path d="M 0.65897 -0.14924 L 0 0" />
    <path d="M 0.65897 16.21343 L 0.65897 -0.14924 L -1.48984 -1.79685 L -2.14881 -1.64761" />
</svg>