<svg version="1.1" xmlns="http://www.w3.org/2000/svg" viewBox="-16.572136355402 -17.139104654112533 33.14427271080399 32.49584846526051" fill="none" stroke="black" stroke-width="0.6%" vector-effect="non-scaling-stroke">
    <path d="M -12.61089 7.00736 L -12.61089 -8.97" />
    <path d="M -15.28897 -11.12334 A 10 3.29337 360 0 1 -15.57214 -11.90152" />
    <path d="M 3.05865 1.0549 L 3.05865 2.97344 L 5.0487 4.48408 L 5.0487 0.77055" />
    <path d="M -12.61089 -5.32211 L -10.17298 -5.67045" />
    <path d="M -15.28897 -11.40079 L -15.28897 5.59503 L -13.29892 7.10567 L -13.29892 -9.89015 L -15.28897 -11.40079 Z" />
    <path d="M -14.93348 -11.45158 L -15.28897 -11.40079" />
    <path d="M -10.74274 -6.58089 L -10.74274 -7.5519" />
    <path d="M -12.9549 -9.23115 L -5.73674 -3.75186" />
    <path d="M -12.9549 -9.23115 L -12.9549 -9.93931 L -14.74595 -11.29888 A 10 3.29337 360 0 1 -14.93348 -11.45158" />
    <path d="M -12.9549 -9.93931 L -13.29892 -9.89015" />
    <path d="M -12.61089 7.00736 L -13.29892 7.10567" />
    <path d="M -14.74595 -11.29888 L -14.74595 -11.53493 L -3.60168 -3.07535" />
    <path d="M 3.60168 -14.15652 A 10 3.29337 180 0 0 -15.57214 -12.84573 A 10 3.29337 180 0 0 -14.74595 -11.53493" />
    <path d="M 3.74669 -14.12069 L 3.66438 -14.10893" />
    <path d="M 5.73674 4.38577 L 5.73674 0.67224" />
    <path d="M 5.73674 -12.5358 L 5.73674 -12.61005 L 3.74669 -14.12069" />
    <path d="M 5.73674 -12.61005 L 5.65443 -12.59829" />
    <path d="M 5.73674 4.38577 L 5.0487 4.48408" />
    <path d="M -14.14469 -5.8898 L -14.14469 -9.03717 L -14.17909 -9.03225 L -14.17909 -5.88488 L -14.14469 -5.8898 Z" />
    <path d="M -14.4432 -9.26377 L -14.14469 -9.03717" />
    <path d="M -10.09597 -5.58912 A 4 1.50322 261.86837 0 1 -10.74274 -6.58089" />
    <path d="M -10.09597 -5.57019 L -10.09597 -5.58912" />
    <path d="M -5.73674 -2.2611 L -10.09597 -5.57019" />
    <path d="M 14.74595 -5.69694 L 3.60168 -14.15652" />
    <path d="M 12.61089 -0.30997 L 12.61089 10.22451 L 14.60093 11.73515 L 14.60093 -2.02613" />
    <path d="M 13.29892 -6.86962 L 13.21661 -6.85786" />
    <path d="M 13.75516 -1.54894 L 13.75516 -0.47347" />
    <path d="M -3.05865 14.25843 L -3.05865 -1.77855" />
    <path d="M -5.73674 -4.14972 L -5.73674 12.8461 L -3.74669 14.35674 L -3.74669 -2.63908 L -5.73674 -4.14972 Z" />
    <path d="M -5.39272 -4.19887 L -5.73674 -4.14972" />
    <path d="M -3.60168 -2.8393 L -5.39272 -4.19887" />
    <path d="M -3.60168 -2.8393 L -3.60168 -3.07535" />
    <path d="M 14.74595 -5.69694 A 10 3.29337 360 0 1 15.57214 -4.38615 L 15.57214 -3.44193" />
    <path d="M 15.57214 -4.38615 A 10 3.29337 360 0 1 -3.60168 -3.07535" />
    <path d="M -14.4432 -9.26377 L -14.4776 -9.25885 L -14.4776 -6.11148 L -14.17909 -5.88488" />
    <path d="M -14.4776 -9.25885 L -14.17909 -9.03225" />
    <path d="M -3.3912 -1.98171 A 10 3.29337 180 0 0 15.57214 -3.44193" />
    <path d="M -3.3912 -2.68987 L -3.3912 -1.98171" />
    <path d="M -3.3912 -2.68987 A 10 3.29337 360 0 1 -3.60168 -2.8393" />
    <path d="M 15.28897 -5.35898 L 13.29892 -6.86962" />
    <path d="M 15.28897 -5.35898 L 15.14499 -5.33841" />
    <path d="M 15.28897 11.63684 L 15.28897 -2.66375" />
    <path d="M 15.28897 -5.16432 L 15.28897 -5.35898" />
    <path d="M 15.28897 11.63684 L 14.60093 11.73515" />
    <path d="M -3.05865 1.92896 L 13.75516 -0.47347" />
    <path d="M -1.19051 0.13323 L -1.19051 -1.01584" />
    <path d="M -0.50247 0.03492 L -1.19051 0.13323" />
    <path d="M -3.3912 -2.68987 L -3.74669 -2.63908" />
    <path d="M -3.05865 14.25843 L -3.74669 14.35674" />
    <path d="M -4.59246 1.36128 L -4.59246 -1.7861 L -4.62686 -1.78118 L -4.62686 1.36619 L -4.59246 1.36128 Z" />
    <path d="M -4.89097 -2.01269 L -4.59246 -1.7861" />
    <path d="M -0.81539 -0.90797 A 4 1.50322 261.86837 0 1 -1.19051 0.13323" />
    <path d="M -0.18418 -0.74891 A 4 1.50322 261.86837 0 1 -0.50247 0.03492" />
    <path d="M -4.89097 -2.01269 L -4.92537 -2.00778 L -4.92537 1.1396 L -4.62686 1.36619" />
    <path d="M -4.92537 -2.00778 L -4.62686 -1.78118" />
    <path d="M -15.57214 -12.84573 L -15.57214 -11.90152" />
</svg>