<svg version="1.1" xmlns="http://www.w3.org/2000/svg" viewBox="-16.58159197460266 -17.150440041533894 33.16318394920532 32.51728921039509" fill="none" stroke="black" stroke-width="0.6%" vector-effect="non-scaling-stroke">
    <path d="M -12.95839 -9.22922 L -5.72728 -3.74042" />
    <path d="M -3.58929 -2.82556 L -5.38337 -4.18737 L -5.72728 -4.13803 L -5.72728 12.85373 L -3.73385 14.36685 L -3.73385 -2.62492 L -5.72728 -4.13803" />
    <path d="M -3.58929 -2.82556 L -3.58929 -3.06156" />
    <path d="M -14.75247 -11.53502 L -3.58929 -3.06156" />
    <path d="M -14.75247 -11.29902 L -14.75247 -11.53502" />
    <path d="M -12.95839 -9.93721 L -14.75247 -11.29902 A 10 3.29983 360 0 1 -14.94034 -11.45198 L -15.29572 -11.401 L -15.29572 5.59077 L -13.3023 7.10389 L -13.3023 -9.88788 L -15.29572 -11.401" />
    <path d="M -12.95839 -9.22922 L -12.95839 -9.93721 L -13.3023 -9.88788" />
    <path d="M -3.37847 -2.6759 A 10 3.29983 360 0 1 -3.58929 -2.82556" />
    <path d="M -3.37847 -2.6759 L -3.73385 -2.62492" />
    <path d="M -3.37847 -1.96791 A 10 3.29983 180 0 0 15.58159 -3.43316" />
    <path d="M -3.37847 -2.6759 L -3.37847 -1.96791" />
    <path d="M 14.75247 -5.69274 A 10 3.29983 360 0 1 15.58159 -4.37715 A 10 3.29983 360 0 1 -3.58929 -3.06156" />
    <path d="M 14.75247 -5.69274 L 3.58929 -14.1662 A 10 3.29983 180 0 0 -15.58159 -12.85061 A 10 3.29983 180 0 0 -14.75247 -11.53502" />
    <path d="M -15.29572 -11.12325 A 10 3.29983 360 0 1 -15.58159 -11.90662" />
    <path d="M -12.61448 7.00522 L -12.61448 -8.96818" />
    <path d="M -12.61448 7.00522 L -13.3023 7.10389" />
    <path d="M -12.61448 -5.32323 L -9.51721 -5.76755" />
    <path d="M 3.04604 1.0658 L 3.04604 2.95958 L 5.03946 4.4727 L 5.03946 0.77984" />
    <path d="M 5.72728 4.37403 L 5.72728 0.68117" />
    <path d="M 5.72728 -12.54335 L 5.72728 -12.61773 L 3.73385 -14.13085 L 3.65144 -14.11903" />
    <path d="M 5.72728 -12.61773 L 5.64486 -12.60591" />
    <path d="M 5.72728 4.37403 L 5.03946 4.4727" />
    <path d="M -3.04604 14.26818 L -3.04604 -1.76474" />
    <path d="M 12.61448 -0.30682 L 12.61448 10.22254 L 14.6079 11.73566 L 14.6079 -2.01287" />
    <path d="M 13.3023 -6.86789 L 13.21988 -6.85607" />
    <path d="M 13.7607 -1.53462 L 13.7607 -0.47125" />
    <path d="M -5.72728 -2.25141 L -6.83155 -3.08961 A 5 1.88177 261.83642 0 1 -7.15869 -2.86594 L -6.63571 -2.94096" />
    <path d="M -7.15869 -2.86594 L -8.89652 -4.18504 A 5 1.88177 261.83642 0 1 -9.77141 -6.81013" />
    <path d="M -3.04604 14.26818 L -3.73385 14.36685" />
    <path d="M -4.58106 1.37328 L -4.58106 -1.77334 L -4.61545 -1.76841 L -4.61545 1.37821 L -4.58106 1.37328 Z" />
    <path d="M -4.88007 -2.00031 L -4.58106 -1.77334" />
    <path d="M 15.29572 -5.35477 L 13.3023 -6.86789" />
    <path d="M 15.29572 -5.35477 L 15.15183 -5.33413" />
    <path d="M 15.29572 11.63699 L 15.29572 -2.6498" />
    <path d="M 15.29572 -5.16052 L 15.29572 -5.35477" />
    <path d="M 15.29572 11.63699 L 14.6079 11.73566" />
    <path d="M -14.1495 -5.88968 L -14.1495 -9.03631 L -14.18389 -9.03137 L -14.18389 -5.88475 L -14.1495 -5.88968 Z" />
    <path d="M -14.44851 -9.26327 L -14.1495 -9.03631" />
    <path d="M -3.04604 1.93973 L 13.7607 -0.47125" />
    <path d="M -4.88007 -2.00031 L -4.91446 -1.99538 L -4.91446 1.15124 L -4.61545 1.37821" />
    <path d="M -4.91446 -1.99538 L -4.61545 -1.76841" />
    <path d="M -14.44851 -9.26327 L -14.48291 -9.25834 L -14.48291 -6.11172 L -14.18389 -5.88475" />
    <path d="M -14.48291 -9.25834 L -14.18389 -9.03137" />
    <path d="M 15.58159 -4.37715 L 15.58159 -3.43316" />
    <path d="M -15.58159 -12.85061 L -15.58159 -11.90662" />
</svg>