<svg version="1.1" xmlns="http://www.w3.org/2000/svg" viewBox="-16.57813996087959 -17.146304171423076 33.15627992175918 32.50946524805739" fill="none" stroke="black" stroke-width="0.6%" vector-effect="non-scaling-stroke">
    <path d="M -12.95712 -9.22993 L -5.73073 -3.7446" />
    <path d="M -3.59381 -2.83058 L -5.38678 -4.19157 L -5.73073 -4.1423 L -5.73073 12.85095 L -3.73854 14.36316 L -3.73854 -2.63009 L -5.73073 -4.1423" />
    <path d="M -3.59381 -2.83058 L -3.59381 -3.06659" />
    <path d="M -14.75009 -11.53499 L -3.59381 -3.06659" />
    <path d="M -14.75009 -11.29897 L -14.75009 -11.53499" />
    <path d="M -12.95712 -9.93798 L -14.75009 -11.29897 A 10 3.29747 0 0 1 -14.93784 -11.45184 L -15.29326 -11.40092 L -15.29326 5.59232 L -13.30106 7.10454 L -13.30106 -9.88871 L -15.29326 -11.40092" />
    <path d="M -12.95712 -9.22993 L -12.95712 -9.93798 L -13.30106 -9.88871" />
    <path d="M -3.38312 -2.681 A 10 3.29747 0 0 1 -3.59381 -2.83058" />
    <path d="M -3.38312 -2.681 L -3.73854 -2.63009" />
    <path d="M -3.38312 -1.97295 A 10 3.29747 180 0 0 15.57814 -3.43636" />
    <path d="M -3.38312 -2.681 L -3.38312 -1.97295" />
    <path d="M 14.75009 -5.69427 A 10 3.29747 0 0 1 15.57814 -4.38043 A 10 3.29747 0 0 1 -3.59381 -3.06659" />
    <path d="M 14.75009 -5.69427 L 3.59381 -14.16267 A 10 3.29747 180 0 0 -15.57814 -12.84883 A 10 3.29747 180 0 0 -14.75009 -11.53499" />
    <path d="M -15.29326 -11.12329 A 10 3.29747 0 0 1 -15.57814 -11.90476" />
    <path d="M -12.61317 7.006 L -12.61317 -8.96885" />
    <path d="M -12.61317 7.006 L -13.30106 7.10454" />
    <path d="M -12.61317 -5.32282 L -9.1097 -5.82468" />
    <path d="M 3.05064 1.06182 L 3.05064 2.96464 L 5.04284 4.47685 L 5.04284 0.77645" />
    <path d="M 5.73073 4.37832 L 5.73073 0.67791" />
    <path d="M 5.73073 -12.5406 L 5.73073 -12.61493 L 3.73854 -14.12714 L 3.65616 -14.11534" />
    <path d="M 5.73073 -12.61493 L 5.64835 -12.60313" />
    <path d="M 5.73073 4.37832 L 5.04284 4.47685" />
    <path d="M 12.61317 -0.30797 L 12.61317 10.22327 L 14.60536 11.73548 L 14.60536 -2.01771" />
    <path d="M 13.30106 -6.86852 L 13.21868 -6.85672" />
    <path d="M 13.75868 -1.53985 L 13.75868 -0.47206" />
    <path d="M -3.05064 14.26462 L -3.05064 -1.76978" />
    <path d="M -3.05064 14.26462 L -3.73854 14.36316" />
    <path d="M -4.58522 1.3689 L -4.58522 -1.778 L -4.61962 -1.77307 L -4.61962 1.37382 L -4.58522 1.3689 Z" />
    <path d="M -4.88405 -2.00483 L -4.58522 -1.778" />
    <path d="M 15.29326 -5.3563 L 13.30106 -6.86852" />
    <path d="M 15.29326 -5.3563 L 15.14934 -5.33569" />
    <path d="M 15.29326 11.63694 L 15.29326 -2.65489" />
    <path d="M 15.29326 -5.16191 L 15.29326 -5.3563" />
    <path d="M 15.29326 11.63694 L 14.60536 11.73548" />
    <path d="M -14.14775 -5.88973 L -14.14775 -9.03662 L -14.18214 -9.0317 L -14.18214 -5.8848 L -14.14775 -5.88973 Z" />
    <path d="M -14.44658 -9.26346 L -14.14775 -9.03662" />
    <path d="M -3.05064 1.9358 L 13.75868 -0.47206" />
    <path d="M -4.88405 -2.00483 L -4.91845 -1.99991 L -4.91845 1.14699 L -4.61962 1.37382" />
    <path d="M -4.91845 -1.99991 L -4.61962 -1.77307" />
    <path d="M -14.44658 -9.26346 L -14.48097 -9.25853 L -14.48097 -6.11163 L -14.18214 -5.8848" />
    <path d="M -14.48097 -9.25853 L -14.18214 -9.0317" />
    <path d="M -5.73073 -2.25495 L -8.10683 -4.05857 L -8.10683 -4.06329 A 4 1.50461 261.84809 0 1 -9.29549 -6.4505" />
    <path d="M 15.57814 -4.38043 L 15.57814 -3.43636" />
    <path d="M -15.57814 -12.84883 L -15.57814 -11.90476" />
</svg>