<svg viewBox="0 0 1000 1000" xmlns="http://www.w3.org/2000/svg"><path d="M269.2947377195527,415.42363693337865 L269.24061688079263,402.7291166653784 M451.3309312163269,462.20989167073793 L467.5689944462962,455.7869675334689 M467.5689944462962,455.7869675334689 L479.62704969547366,448.4736877686232 M479.62704969547366,448.4736877686232 L487.0516353087488,440.55583844647055 M487.0516353087488,440.55583844647055 L489.57214847354226,432.34083171672484 M489.57214847354226,432.34083171672484 L487.1090556885151,424.1454126152035 M487.1090556885151,424.1454126152035 L479.7742567297051,416.28334864192914 M479.7742567297051,416.28334864192914 L467.86416786647055,409.05355727461387 M467.86416786647055,409.05355727461387 L451.84618394506373,402.7291166653784 M451.84618394506373,402.7291166653784 L432.33923599238545,397.5475006102997 M432.33923599238545,397.5475006102997 L410.08955546822034,393.7022892126864 M410.08955546822034,393.7022892126864 L385.94251708364794,391.3365722294497 M385.94251708364794,391.3365722294497 L360.81163125457095,390.53813650928544 M360.81163125457095,390.53813650928544 L335.6456143793595,391.3365707736189 M335.6456143793595,391.3365707736189 L311.39447125045007,393.7022906695255 M311.39447125045007,393.7022906695255 L288.9755836197492,397.54749805796206 M288.9755836197492,397.54749805796206 L269.24061688079263,402.7291166653784 M451.3444276673544,475.00128809656104 L451.3309312163269,462.20989167073793 M269.2947377195527,415.42363693337865 L289.0252513603602,410.2335680684724 M289.0252513603602,410.2335680684724 L311.43910171360704,406.3820887244744 M311.43910171360704,406.3820887244744 L335.68481251001737,404.0125095984803 M335.68481251001737,404.0125095984803 L360.8452042217235,403.2127727550711 M360.8452042217235,403.2127727550711 L385.9704805798199,404.0125110566861 M385.9704805798199,404.0125110566861 L410.11213314173574,406.38208726525886 M410.11213314173574,406.38208726525886 L432.3568520185224,410.23357062497297 M432.3568520185224,410.23357062497297 L451.85944885652424,415.42363693337853 M451.85944885652424,415.42363693337853 L467.8738578793942,421.7583891477696 M467.8738578793942,421.7583891477696 L479.78128694329945,428.9999650293674 M479.78128694329945,428.9999650293674 L487.11444774794194,436.87484023213125 M487.11444774794194,436.87484023213125 L489.57699349511415,445.0836094561615 M489.57699349511415,445.0836094561615 L487.05705317179616,453.3119938019121 M487.05705317179616,453.3119938019121 L479.6341460577252,461.2427326555338 M479.6341460577252,461.2427326555338 L467.5788171023926,468.5679141208375 M467.5788171023926,468.5679141208375 L451.3444276673544,475.00128809656104 M451.3444276673544,475.00128809656104 L732.9626455564078,383.357326564532 M451.3309312163269,462.20989167073793 L733.0120561677982,370.71504343101424 M732.9626455564078,383.357326564532 L733.0120561677982,370.71504343101424 M550.9194561415245,312.7938218200999 L535.0943561245342,318.95306722564123 M535.0943561245342,318.95306722564123 L523.3209797264765,325.9938316208351 M523.3209797264765,325.9938316208351 L516.0611617089335,333.6501168171661 M516.0611617089335,333.6501168171661 L513.6080778194419,341.63078599223195 M513.6080778194419,341.63078599223195 L516.0727884400249,349.6302774963053 M516.0727884400249,349.6302774963053 L523.3774260829819,357.3401685240125 M523.3774260829819,357.3401685240125 L535.2556573361353,364.4611615657609 M535.2556573361353,364.4611615657609 L551.2606414386087,370.71504343101424 M551.2606414386087,370.71504343101424 L570.780745059335,375.8560641915493 M570.780745059335,375.8560641915493 L593.0624633015934,379.6812168111831 M593.0624633015934,379.6812168111831 L617.2398864064703,382.0388683812643 M617.2398864064703,382.0388683812643 L642.369431046707,382.8353200931936 M642.369431046707,382.8353200931936 L667.4683474716617,382.0388698331358 M667.4683474716617,382.0388698331358 L691.5550915967981,379.6812153603147 M691.5550915967981,379.6812153603147 L713.6896853165197,375.856066727722 M713.6896853165197,375.856066727722 L733.0120561677982,370.71504343101424 M550.9106714759423,325.3414247418646 L550.9194561415245,312.7938218200999 M732.9626455564078,383.357326564532 L713.6445436147828,388.50674295593586 M713.6445436147828,388.50674295593586 L691.514860262977,392.33813529905086 M691.514860262977,392.33813529905086 L667.4334750834873,394.69963764490717 M667.4334750834873,394.69963764490717 L642.3401538681778,395.49738769065664 M642.3401538681778,395.49738769065664 L617.2162181018748,394.69963619066624 M617.2162181018748,394.69963619066624 L593.0441943852979,392.3381367522873 M593.0441943852979,392.3381367522873 L570.7674520977364,388.506740415623 M570.7674520977364,388.506740415623 L551.2517054769746,383.357326564532 M551.2517054769746,383.357326564532 L535.25029049249,377.0932324485667 M535.25029049249,377.0932324485667 L523.3747048522675,369.960608091862 M523.3747048522675,369.960608091862 L516.0716919477004,362.23812010865504 M516.0716919477004,362.23812010865504 L513.6075291477638,354.22555436486897 M513.6075291477638,354.22555436486897 L516.0600703713147,346.2318375370817 M516.0600703713147,346.2318375370817 L523.3182835271455,338.5630311055543 M523.3182835271455,338.5630311055543 L535.0890608064592,331.5107487213473 M535.0890608064592,331.5107487213473 L550.9106714759423,325.3414247418646 M550.9106714759423,325.3414247418646 L269.2947377195527,415.42363693337865 M550.9194561415245,312.7938218200999 L269.24061688079263,402.7291166653784" stroke="black"  stroke-width="4"  fill="red"/>
<path d="M731.076928138935,325.3414247418646 L711.6217818906553,320.2867834047713 M711.6217818906553,320.2867834047713 L689.5139976009809,316.5357326070024 M689.5139976009809,316.5357326070024 L665.5935851805546,314.2279136122911 M665.5935851805546,314.2279136122911 L640.7655696787403,313.44901666437926 M640.7655696787403,313.44901666437926 L615.967467376199,314.227910771881 M615.967467376199,314.227910771881 L592.1356196955899,316.5357283434755 M592.1356196955899,316.5357283434755 L570.171806172222,320.2867794921986 M570.171806172222,320.2867794921986 L550.9106714759423,325.3414247418646 M550.9106714759423,325.3414247418646 L535.0890608064592,331.5107487213473 M535.0890608064592,331.5107487213473 L523.3182835271455,338.5630311055543 M523.3182835271455,338.5630311055543 L516.0600703713147,346.2318375370817 M516.0600703713147,346.2318375370817 L513.6075291477638,354.22555436486897 M513.6075291477638,354.22555436486897 L516.0716919477004,362.23812010865504 M516.0716919477004,362.23812010865504 L523.3747048522675,369.960608091862 M523.3747048522675,369.960608091862 L535.25029049249,377.0932324485667 M535.25029049249,377.0932324485667 L551.2517054769744,383.357326564532 M551.2517054769744,383.357326564532 L570.7674520977364,388.506740415623 M570.7674520977364,388.506740415623 L593.0441943852979,392.3381367522873 M593.0441943852979,392.3381367522873 L617.2162181018748,394.69963619066624 M617.2162181018748,394.69963619066624 L642.3401538681778,395.49738769065664 M642.3401538681778,395.49738769065664 L667.4334750834873,394.69963764490717 M667.4334750834873,394.69963764490717 L691.514860262977,392.33813529905086 M691.514860262977,392.33813529905086 L713.6445436147828,388.50674295593586 M713.6445436147828,388.50674295593586 L732.9626455564078,383.357326564532 M732.9626455564078,383.357326564532 L748.723641574373,377.0932328102566 M748.723641574373,377.0932328102566 L760.3254612186195,369.9606066481273 M760.3254612186195,369.9606066481273 L767.3320805439762,362.2381186681923 M767.3320805439762,362.2381186681923 L769.4886892722607,354.2255558019409 M769.4886892722607,354.2255558019409 L766.7293396931716,346.2318375370817 M766.7293396931716,346.2318375370817 L759.1767800671964,338.5630353969199 M759.1767800671964,338.5630353969199 L747.1353159924033,331.51075050569864 M747.1353159924033,331.51075050569864 L731.076928138935,325.3414247418646 M731.076928138935,325.3414247418646 L731.1255021721549,312.7938218200999 M731.1255021721549,312.7938218200999 L747.6416834834681,319.1677731323771 M747.6416834834681,319.1677731323771 L759.858699794027,326.4722218477639 M759.858699794027,326.4722218477639 L767.2659719956007,334.41306924244446 M767.2659719956007,334.41306924244446 L769.5444392125994,342.66846726267937 M769.5444392125994,342.66846726267937 L766.5823144692013,350.90140860663405 M766.5823144692013,350.90140860663405 L758.4824918984391,358.77339102303904 M758.4824918984391,358.77339102303904 L745.561414481296,365.9584885459916 M745.561414481296,365.9584885459916 L728.3386114420505,372.1572682348708 M728.3386114420505,372.1572682348708 L707.516994810235,377.1099086254043 M707.516994810235,377.1099086254043 L683.9544574101558,380.60782220958504 M683.9544574101558,380.60782220958504 L658.6278820519703,382.5031649107199 M658.6278820519703,382.5031649107199 L632.5911946427882,382.7156368183456 M632.5911946427882,382.7156368183456 L606.9293692736787,381.2362303313612 M606.9293692736787,381.2362303313612 L582.7109057203072,378.12764286823995 M582.7109057203072,378.12764286823995 L560.9411476294074,373.521359461703 M560.9411476294074,373.521359461703 L542.5188467473436,367.61157448869693 M542.5188467473436,367.61157448869693 L528.1981730653486,360.64631616298414 M528.1981730653486,360.64631616298414 L518.5578747141486,352.91629601641114 M518.5578747141486,352.91629601641114 L513.9788448836646,344.7421086576471 M513.9788448836646,344.7421086576471 L514.6308060976326,336.46043876187144 M514.6308060976326,336.46043876187144 L520.4682654759453,328.40996069542837 M520.4682654759453,328.40996069542837 L531.235398598049,320.91755626574025 M531.235398598049,320.91755626574025 L546.4792654866374,314.2853656610131 M546.4792654866374,314.2853656610131 L565.5702246068524,308.77917999088936 M565.5702246068524,308.77917999088936 L587.7286081613295,304.6184841082991 M587.7286081613295,304.6184841082991 L612.0562985892725,301.9684173024517 M612.0562985892725,301.9684173024517 L637.5720441533751,300.93383798212756 M637.5720441533751,300.93383798212756 L663.2492377516025,301.5556082919078 M663.2492377516025,301.5556082919078 L688.0550417226657,303.80918576070474 M688.0550417226657,303.80918576070474 L710.9898502661817,307.6054326867666 M710.9898502661817,307.6054326867666 L731.1255021721549,312.7938218200999 M733.0058786376467,372.295636810502 L732.9626455564078,383.357326564532 M550.9183578461368,314.3625752675167 L550.9106714759423,325.3414247418646" stroke="black"  stroke-width="4"  fill="red"/>
<path d="M451.85944885652435,415.42363693337865 L431.6777728008663,410.0875259739251 M431.6777728008663,410.0875259739251 L408.60235402140455,406.18325667862763 M408.60235402140455,406.18325667862763 L383.5669971421138,403.86558538830593 M383.5669971421138,403.86558538830593 L357.5804646303756,403.22612828382984 M357.5804646303756,403.22612828382984 L331.68776842401763,404.2901282546809 M331.68776842401763,404.2901282546809 L306.93041956827096,407.0155782049427 M306.93041956827096,407.0155782049427 L284.30673512672234,411.29468010916435 M284.30673512672234,411.29468010916435 L264.7334210308404,416.957665208564 M264.7334210308404,416.957665208564 L249.00956001148424,423.77888734419486 M249.00956001148424,423.77888734419486 L237.78436229340468,431.48505178965564 M237.78436229340468,431.48505178965564 L231.52966606190506,439.76545367739743 M231.52966606190506,439.76545367739743 L230.5186602947519,448.2839273985794 M230.5186602947519,448.2839273985794 L234.8120502334383,456.6921104893213 M234.8120502334383,456.6921104893213 L244.25236515007367,464.64365367305413 M244.25236515007367,464.64365367305413 L258.4674244108636,471.8087256022528 M258.4674244108636,471.8087256022528 L276.8832522362476,477.88819732401595 M276.8832522362476,477.88819732401595 L298.74620609013357,482.6268368162477 M298.74620609013357,482.6268368162477 L323.1537509626867,485.8247966526615 M323.1537509626867,485.8247966526615 L349.0926327577832,487.3467484195529 M349.0926327577832,487.3467484195529 L375.48262337964417,487.1281626474419 M375.48262337964417,487.1281626474419 L401.223732787225,485.17832068825004 M401.223732787225,485.17832068825004 L425.24454067643757,481.5798533978147 M425.24454067643757,481.5798533978147 L446.54885755048093,476.48492530333937 M446.54885755048093,476.48492530333937 L464.2586192097635,470.1082012685791 M464.2586192097635,470.1082012685791 L477.65080760539325,462.71703408110227 M477.65080760539325,462.71703408110227 L486.1866348237869,454.6195153772558 M486.1866348237869,454.6195153772558 L489.5320382358313,446.15096351130785 M489.5320382358313,446.15096351130785 L487.56884865355295,437.6595895307783 M487.56884865355295,437.6595895307783 L480.3965212721544,429.492005175199 M480.3965212721544,429.492005175199 L468.32500731102004,421.9792183484608 M468.32500731102004,421.9792183484608 L451.85944885652435,415.42363693337865 M451.85944885652435,415.42363693337865 L451.84618394506356,402.7291166653784 M451.84618394506356,402.7291166653784 L468.3154180449536,409.2740270603458 M468.3154180449536,409.2740270603458 L480.38962852003067,416.7745881945844 M480.38962852003067,416.7745881945844 L487.5635579984544,424.92888546700385 M487.5635579984544,424.92888546700385 L489.5271823575758,433.40645023043396 M489.5271823575758,433.40645023043396 L486.18102002950286,441.8612346740129 M486.18102002950286,441.8612346740129 L477.643262816281,449.94559351936374 M477.643262816281,449.94559351936374 L464.24804541364097,457.3247525210939 M464.24804541364097,457.3247525210939 L446.53427544995105,463.6911193631745 M446.53427544995105,463.6911193631745 L425.2251341579069,468.7777740860199 M425.2251341579069,468.7777740860199 L401.1988858946036,472.37039904399984 M401.1988858946036,472.37039904399984 L375.45194866650104,474.3170756676329 M375.45194866650104,474.3170756676329 L349.0559893326492,474.53530660729234 M349.0559893326492,474.53530660729234 L323.11125114530114,473.01582550443374 M323.11125114530114,473.01582550443374 L298.6982102175269,469.82305757558345 M298.6982102175269,469.82305757558345 L276.8303519537422,465.0921125193151 M276.8303519537422,465.0921125193151 L258.4104154658565,459.02251457269955 M258.4104154658565,459.02251457269955 L244.1922112935296,451.8690826529072 M244.1922112935296,451.8690826529072 L234.74984029861105,443.93046105620357 M234.74984029861105,443.93046105620357 L230.45556078740066,435.5359460934016 M230.45556078740066,435.5359460934016 L231.46687164376436,427.0313244840934 M231.46687164376436,427.0313244840934 L237.7230464652498,418.76439210593094 M237.7230464652498,418.76439210593094 L248.9508280829711,411.07076708748355 M248.9508280829711,411.07076708748355 L264.67826708158975,404.2606476346788 M264.67826708158975,404.2606476346788 L284.2560043775572,398.6068822967425 M284.2560043775572,398.6068822967425 L306.88477722065267,394.33474847531795 M306.88477722065267,394.33474847531795 L331.64767566255904,391.6137372655087 M331.64767566255904,391.6137372655087 L357.54616228569034,390.55147028475596 M357.54616228569034,390.55147028475596 L383.5384972805791,391.1898858645398 M383.5384972805791,391.1898858645398 L408.57943958744346,393.50378243868875 M408.57943958744346,393.50378243868875 L431.6600052983105,397.40169376856244 M431.6600052983105,397.40169376856244 L451.84618394506356,402.7291166653784" stroke="black"  stroke-width="4"  fill="red"/>
<path d="M418.3953229209445,464.99988619054216 L425.53072462654836,467.3352847569304 M379.9490113327415,477.47362312228245 L387.08428063889403,479.8174666971793 M418.3953229209445,464.99988619054216 L379.9490113327415,477.47362312228245 M425.53072462654836,467.3352847569304 L387.08428063889403,479.8174666971793 M418.47884436444036,516.0429580910952 L425.6078458767999,518.3934972600279 M379.9490113327415,477.47362312228245 L380.94079909556876,488.54400075335064 M380.94079909556876,488.54400075335064 L383.81245945873167,498.42601551153336 M383.81245945873167,498.42601551153336 L388.4177013722245,506.62346275997055 M388.4177013722245,506.62346275997055 L394.523002526586,512.7261797613231 M394.523002526586,512.7261797613231 L401.819984152451,516.4304100409533 M401.819984152451,516.4304100409533 L409.94118033321627,517.5536188346091 M409.94118033321627,517.5536188346091 L418.47884436444036,516.0429580910952 M387.08428063889403,479.8174666971793 L388.0746472092527,490.8910164227493 M388.0746472092527,490.8910164227493 L390.94496578333485,500.77561558834424 M390.94496578333485,500.77561558834424 L395.5490119777716,508.9749298214386 M395.5490119777716,508.9749298214386 L401.65332256365076,515.078703656066 M401.65332256365076,515.078703656066 L408.9495674759074,518.7831293409618 M408.9495674759074,518.7831293409618 L417.0703168761581,519.9056645424632 M417.0703168761581,519.9056645424632 L425.6078458767999,518.3934972600279 M418.47884436444036,516.0429580910952 L418.3953229209445,464.99988619054216 M425.6078458767999,518.3934972600279 L425.53072462654836,467.3352847569304" stroke="black"  stroke-width="4"  fill="red"/>
<path d="M720.8598719115266,417.21130374381715 L727.9882773747875,419.49552685709943 M758.2735628753585,354.727884043134 L765.4080924346556,356.98928907223166 M720.8598719115266,417.21130374381715 L729.1527319682114,413.24018023816996 M729.1527319682114,413.24018023816996 L737.0340853679745,406.9470170954565 M737.0340853679745,406.9470170954565 L744.1109309746098,398.64805002193964 M744.1109309746098,398.64805002193964 L750.0308190545168,388.75857442173265 M750.0308190545168,388.75857442173265 L754.4991180253949,377.77229393012294 M754.4991180253949,377.77229393012294 L757.2932201928893,366.237050568315 M757.2932201928893,366.237050568315 L758.2735628753585,354.727884043134 M727.9882773747875,419.49552685709943 L736.2812405114735,415.5222296322007 M736.2812405114735,415.5222296322007 L744.1630104392666,409.22626565116343 M744.1630104392666,409.22626565116343 L751.2405656781957,400.92401121100534 M751.2405656781957,400.92401121100534 L757.1614217104939,391.0309257338555 M757.1614217104939,391.0309257338555 L761.6308993122591,380.0408922323389 M761.6308993122591,380.0408922323389 L764.4263325029297,368.501938823857 M764.4263325029297,368.501938823857 L765.4080924346556,356.98928907223166 M721.0462365000176,366.8061265765614 L728.181040563712,369.0755781111196 M758.2735628753585,354.727884043134 L721.0462365000176,366.8061265765614 M765.4080924346556,356.98928907223166 L728.181040563712,369.0755781111196 M721.0462365000176,366.8061265765614 L720.8598719115266,417.21130374381715 M728.181040563712,369.0755781111196 L727.9882773747875,419.49552685709943" stroke="black"  stroke-width="4"  fill="red"/>
<path d="M721.0462365000176,366.8061265765614 L728.181040563712,369.0755781111196 M425.53072462654836,467.3352847569304 L728.181040563712,369.0755781111196 M418.3953229209445,464.99988619054216 L425.53072462654836,467.3352847569304 M721.0462365000176,366.8061265765614 L418.3953229209445,464.99988619054216 M720.8598719115266,417.21130374381715 L727.9882773747875,419.49552685709943 M720.8598719115266,417.21130374381715 L721.0462365000176,366.8061265765614 M727.9882773747875,419.49552685709943 L728.181040563712,369.0755781111196 M467.462353967686,504.7043643955253 L687.1553250441273,432.85054487548166 M687.2336758520855,407.60864262141956 L687.1553250441273,432.85054487548166 M694.2479902176194,405.32292327435357 L687.2336758520855,407.60864262141956 M694.2479902176194,405.32292327435357 L694.1665457619551,430.5574219521328 M694.1665457619551,430.5574219521328 L727.9882773747875,419.49552685709943 M425.53072462654836,467.3352847569304 L425.6078458767999,518.3934972600279 M425.6078458767999,518.3934972600279 L460.2989925875416,507.0472471616136 M460.2761206833184,481.5661597468422 L460.2989925875416,507.0472471616136 M467.4427116805428,479.23081877961164 L460.2761206833184,481.5661597468422 M467.4427116805428,479.23081877961164 L467.462353967686,504.7043643955253 M418.47884436444036,516.0429580910952 L425.6078458767999,518.3934972600279 M418.3953229209445,464.99988619054216 L418.47884436444036,516.0429580910952 M687.0379294700924,428.26582840047683 L720.8598719115266,417.21130374381715 M418.47884436444036,516.0429580910952 L453.1699120719373,504.7043643955253 M453.1438414001338,479.23081877961164 L453.1699120719373,504.7043643955253 M460.310420826845,476.89705284844104 L453.1438414001338,479.23081877961164 M460.310420826845,476.89705284844104 L460.33326189716684,502.36306104181045 M460.33326189716684,502.36306104181045 L680.0266695913986,430.5574219521328 M680.101822200651,405.32292327435357 L680.0266695913986,430.5574219521328 M687.1161757793507,403.03872903935485 L680.101822200651,405.32292327435357 M687.1161757793507,403.03872903935485 L687.0379294700924,428.26582840047683 M687.0379294700924,428.26582840047683 L694.1665457619551,430.5574219521328 M680.0266695913986,430.5574219521328 L687.1553250441273,432.85054487548166 M460.33326189716684,502.36306104181045 L467.462353967686,504.7043643955253 M460.310420826845,476.89705284844104 L467.4427116805428,479.23081877961164 M460.2761206833184,481.5661597468422 L453.1438414001338,479.23081877961164 M453.1699120719373,504.7043643955253 L460.2989925875416,507.0472471616136 M687.2336758520855,407.60864262141956 L680.101822200651,405.32292327435357 M687.1161757793507,403.03872903935485 L694.2479902176194,405.32292327435357" stroke="black"  stroke-width="4"  fill="red"/>
<path d="M291.1695202157706,423.3592092526332 L298.2191244245397,425.66652651969537 M252.72703242310192,435.68285040457704 L259.7763522445719,437.9984606866864 M291.1695202157706,423.3592092526332 L252.72703242310192,435.68285040457704 M298.2191244245397,425.66652651969537 L259.7763522445719,437.9984606866864 M291.3664295948255,474.132080494058 L298.40978708456856,476.4543815388444 M252.72703242310192,435.68285040457704 L253.74396033768912,446.69660382180115 M253.74396033768912,446.69660382180115 L256.63928187654403,456.5324518444837 M256.63928187654403,456.5324518444837 L261.26553063368783,464.69650741837415 M261.26553063368783,464.69650741837415 L267.3881466755946,470.7802664377385 M267.3881466755946,470.7802664377385 L274.69790027304,474.48089256825915 M274.69790027304,474.48089256825915 L282.82670045132375,475.61599216531476 M282.82670045132375,475.61599216531476 L291.3664295948255,474.132080494058 M259.7763522445719,437.9984606866864 L260.7918970520942,449.01535488602826 M260.7918970520942,449.01535488602826 L263.6859205662031,458.8537652864881 M263.6859205662031,458.8537652864881 L268.31102084725313,467.0196761997489 M268.31102084725313,467.0196761997489 L274.43269467387023,473.10449135435636 M274.43269467387023,473.10449135435636 L281.74175860393007,476.8053231401112 M281.74175860393007,476.8053231401112 L289.870155394103,477.93976978786975 M289.870155394103,477.93976978786975 L298.40978708456856,476.4543815388444 M291.3664295948255,474.132080494058 L291.1695202157706,423.3592092526332 M298.40978708456856,476.4543815388444 L298.2191244245397,425.66652651969537" stroke="black"  stroke-width="4"  fill="red"/>
<path d="M593.7465978522216,376.47918207822 L600.7905723086103,378.7363501567727 M631.0503765384899,314.4024286632323 L638.100476858425,316.6370724735404 M593.7465978522216,376.47918207822 L602.0373226433742,372.54672506992233 M602.0373226433742,372.54672506992233 L609.9110019074556,366.303427567326 M609.9110019074556,366.303427567326 L616.975009520211,358.0630221774152 M616.975009520211,358.0630221774152 L622.8775251458612,348.2378823857116 M622.8775251458612,348.2378823857116 L627.3247723157463,337.31851483096045 M627.3247723157463,337.31851483096045 L630.0951844401061,325.849443478628 M630.0951844401061,325.849443478628 L631.0503765384899,314.4024286632323 M600.7905723086103,378.7363501567727 L609.0814301534974,374.801755161758 M609.0814301534974,374.801755161758 L616.9555469037491,368.5556982600104 M616.9555469037491,368.5556982600104 L624.0202750469805,360.3120505739929 M624.0202750469805,360.3120505739929 L629.9237589168754,350.4833473663841 M629.9237589168754,350.4833473663841 L634.3721743825254,339.56027235557434 M634.3721743825254,339.56027235557434 L637.1438970747438,328.0875333570688 M637.1438970747438,328.0875333570688 L638.100476858425,316.6370724735404 M593.8195720668455,326.3376363059131 L600.8697948997628,328.5801840877871 M631.0503765384899,314.4024286632323 L593.8195720668455,326.3376363059131 M638.100476858425,316.6370724735404 L600.8697948997628,328.5801840877871 M593.8195720668455,326.3376363059131 L593.7465978522216,376.47918207822 M600.8697948997628,328.5801840877871 L600.7905723086103,378.7363501567727" stroke="black"  stroke-width="4"  fill="red"/>
<path d="M593.8195720668455,326.3376363059131 L559.965346209319,337.1904024743028 M561.1400707213445,337.5652566383521 L559.965346209319,337.1904024743028 M561.1400707213445,337.5652566383521 L554.1221893124841,339.81525254064167 M554.1221893124841,339.81525254064167 L552.9474631152555,339.4401495084692 M552.9474631152555,339.4401495084692 L333.05854315739793,409.93070041828565 M334.23319167191573,410.31364298439826 L333.05854315739793,409.93070041828565 M334.23319167191573,410.31364298439826 L327.0638523922679,412.61219764235597 M327.0638523922679,412.61219764235597 L325.8892106677496,412.2289981085368 M325.8892106677496,412.2289981085368 L291.1695202157706,423.3592092526332 M291.1695202157706,423.3592092526332 L298.2191244245397,425.66652651969537 M600.8697948997628,328.5801840877871 L298.2191244245397,425.66652651969537 M593.8195720668455,326.3376363059131 L600.8697948997628,328.5801840877871 M559.9221809132159,387.4026906216374 L593.7465978522216,376.47918207822 M559.965346209319,337.1904024743028 L559.9221809132159,387.4026906216374 M593.7465978522216,376.47918207822 L593.8195720668455,326.3376363059131 M561.1400707213445,337.5652566383521 L561.1179578724641,362.683724649634 M561.1179578724641,362.683724649634 L566.990924809965,364.5647322581597 M566.990924809965,364.5647322581597 L566.9662288046175,389.6670984764856 M559.9221809132159,387.4026906216374 L566.9662288046175,389.6670984764856 M561.1179578724641,362.683724649634 L554.1031734689589,364.9410585886858 M554.1031734689589,364.9410585886858 L554.1221893124841,339.81525254064167 M559.9761494704301,366.8233146650872 L554.1031734689589,364.9410585886858 M559.9761494704301,366.8233146650872 L559.9545477262097,391.93300856450014 M552.9104891021179,389.6670984764856 L559.9545477262097,391.93300856450014 M552.9474631152555,339.4401495084692 L552.9104891021179,389.6670984764856 M333.21764241851616,460.61633884339335 L552.9104891021179,389.6670984764856 M333.05854315739793,409.93070041828565 L333.21764241851616,460.61633884339335 M334.23319167191573,410.31364298439826 L334.3122562988559,435.6690337172546 M334.3122562988559,435.6690337172546 L340.1848645274992,437.5906172999002 M340.1848645274992,437.5906172999002 L340.2612562862809,462.9295698421997 M333.21764241851616,460.61633884339335 L340.2612562862809,462.9295698421997 M334.3122562988559,435.6690337172546 L327.1461488989773,437.9750628856711 M327.1461488989773,437.9750628856711 L327.0638523922679,412.61219764235597 M333.01872387199984,439.8979355569595 L327.1461488989773,437.9750628856711 M333.01872387199984,439.8979355569595 L333.0983446428213,465.24435192811825 M326.0547707579259,462.9295698421997 L333.0983446428213,465.24435192811825 M325.8892106677496,412.2289981085368 L326.0547707579259,462.9295698421997 M291.3664295948255,474.132080494058 L326.0547707579259,462.9295698421997 M291.1695202157706,423.3592092526332 L291.3664295948255,474.132080494058 M291.3664295948255,474.132080494058 L298.40978708456856,476.4543815388444 M298.2191244245397,425.66652651969537 L298.40978708456856,476.4543815388444 M566.9662288046175,389.6670984764856 L600.7905723086103,378.7363501567727 M566.990924809965,364.5647322581597 L559.9761494704301,366.8233146650872 M340.2612562862809,462.9295698421997 L559.9545477262097,391.93300856450014 M340.1848645274992,437.5906172999002 L333.01872387199984,439.8979355569595 M298.40978708456856,476.4543815388444 L333.0983446428213,465.24435192811825 M600.7905723086103,378.7363501567727 L600.8697948997628,328.5801840877871 M593.7465978522216,376.47918207822 L600.7905723086103,378.7363501567727" stroke="black"  stroke-width="4"  fill="red"/>
<path d="M514.6984358989455,686.2555975076491 L507.57017427171047,683.858732272022 M476.61271410298514,699.0661620178726 L469.4844754935601,696.6606747292653 M514.6984358989455,686.2555975076491 L476.61271410298514,699.0661620178726 M507.57017427171047,683.858732272022 L469.4844754935601,696.6606747292653 M514.7134883868255,447.86934695032807 L507.555131927061,445.5428659899605 M514.7134883868255,447.86934695032807 L514.6984358989455,686.2555975076491 M507.555131927061,445.5428659899605 L507.57017427171047,683.858732272022 M476.46668210145015,460.30383950818003 L469.3083489526156,457.96895425438515 M476.61271410298514,699.0661620178726 L476.46668210145015,460.30383950818003 M469.4844754935601,696.6606747292653 L469.3083489526156,457.96895425438515 M476.46668210145015,460.30383950818003 L514.7134883868255,447.86934695032807 M492.0392022149969,508.97687403090424 L492.02772672040464,474.94199150699575 M499.19650425842764,472.6046800206289 L492.02772672040464,474.94199150699575 M499.2036715972956,506.62947109472884 L499.19650425842764,472.6046800206289 M492.0392022149969,508.97687403090424 L499.2036715972956,506.62947109472884 M469.3083489526156,457.96895425438515 L507.555131927061,445.5428659899605 M484.8679175125627,464.0921024734776 L484.8915697306686,515.1292887427428 M484.8915697306686,515.1292887427428 L492.0549585299706,512.7809535275921 M492.0549585299706,512.7809535275921 L492.0377685336294,461.7588956373208 M492.0377685336294,461.7588956373208 L484.8679175125627,464.0921024734776 M484.8915697306686,515.1292887427428 L486.6787417522673,515.7166203797292 M486.6787417522673,515.7166203797292 L486.67507062638344,507.21617316557297 M486.67507062638344,507.21617316557297 L492.0392022149969,508.97687403090424 M492.02772672040464,474.94199150699575 L486.66037509945613,473.1888597791841 M486.66037509945613,473.1888597791841 L486.6566984620236,464.67565064108516 M486.6566984620236,464.67565064108516 L484.8679175125627,464.0921024734776 M499.19650425842764,472.6046800206289 L493.82914951857185,470.85273284682546 M493.82914951857185,470.85273284682546 L486.66037509945613,473.1888597791841 M492.0549585299706,512.7809535275921 L493.8421317923102,513.3678886816615 M493.8421317923102,513.3678886816615 L493.8395368953897,504.8699591836218 M493.8395368953897,504.8699591836218 L499.2036715972956,506.62947109472884 M493.82914951857185,470.85273284682546 L493.82655072718876,462.3420495211867 M493.82655072718876,462.3420495211867 L492.0377685336294,461.7588956373208 M493.8395368953897,504.8699591836218 L486.67507062638344,507.21617316557297 M493.82655072718876,462.3420495211867 L486.6566984620236,464.67565064108516 M493.8421317923102,513.3678886816615 L486.6787417522673,515.7166203797292" stroke="black"  stroke-width="4"  fill="red"/>
<path d="M740.3735282414616,610.3472204971586 L733.2460748250655,608.0011273033017 M703.0954113431085,622.88613793988 L695.9677129714041,620.5316954341574 M740.3735282414616,610.3472204971586 L703.0954113431085,622.88613793988 M733.2460748250655,608.0011273033017 L695.9677129714041,620.5316954341574 M741.3311680715321,374.19323840176514 L734.1736300288819,371.91624328430424 M741.3311680715321,374.19323840176514 L740.3735282414616,610.3472204971586 M734.1736300288819,371.91624328430424 L733.2460748250655,608.0011273033017 M703.8987552552694,386.3629619366748 L696.7409691724315,384.07782947798006 M703.0954113431085,622.88613793988 L703.8987552552694,386.3629619366748 M695.9677129714041,620.5316954341574 L696.7409691724315,384.07782947798006 M703.8987552552694,386.3629619366748 L741.3311680715321,374.19323840176514 M718.926748662032,434.63829230323563 L719.0502925319695,400.9234509787875 M726.0664767927326,398.6358910738847 L719.0502925319695,400.9234509787875 M725.9388065838164,432.3408262278141 L726.0664767927326,398.6358910738847 M718.926748662032,434.63829230323563 L725.9388065838164,432.3408262278141 M696.7409691724315,384.07782947798006 L734.1736300288819,371.91624328430424 M711.9249205122974,390.20340519934314 L711.7460419245085,440.7608074704283 M711.7460419245085,440.7608074704283 L718.7571153791243,438.4624049753569 M718.7571153791243,438.4624049753569 L718.942183599434,387.9198533991856 M718.942183599434,387.9198533991856 L711.9249205122974,390.20340519934314 M711.7460419245085,440.7608074704283 L713.5330549506534,441.3356480643874 M713.5330549506534,441.3356480643874 L713.5631138092613,432.9150488018418 M713.5631138092613,432.9150488018418 L718.926748662032,434.63829230323563 M719.0502925319695,400.9234509787875 L713.6834385361051,399.2076376407489 M713.6834385361051,399.2076376407489 L713.7135420392813,390.77453178165916 M713.7135420392813,390.77453178165916 L711.9249205122974,390.20340519934314 M726.0664767927326,398.6358910738847 L720.6996577970895,396.921224675206 M720.6996577970895,396.921224675206 L713.6834385361051,399.2076376407489 M718.7571153791243,438.4624049753569 L720.5441169678245,439.03686166509897 M720.5441169678245,439.03686166509897 L720.5752066689306,430.6187339484567 M720.5752066689306,430.6187339484567 L725.9388065838164,432.3408262278141 M720.6996577970895,396.921224675206 L720.7307936583545,388.49059821772244 M720.7307936583545,388.49059821772244 L718.942183599434,387.9198533991856 M720.5752066689306,430.6187339484567 L713.5631138092613,432.9150488018418 M720.7307936583545,388.49059821772244 L713.7135420392813,390.77453178165916 M720.5441169678245,439.03686166509897 L713.5330549506534,441.3356480643874" stroke="black"  stroke-width="4"  fill="red"/>
<path d="M326.2380751488883,622.88613793988 L319.2359784445728,620.5316954341574 M288.1558593755477,635.4697263011537 L281.15400897490224,633.1068898336412 M326.2380751488883,622.88613793988 L288.1558593755477,635.4697263011537 M319.2359784445728,620.5316954341574 L281.15400897490224,633.1068898336412 M325.4643021782792,386.3629619366748 L318.43317105114954,384.07782947798006 M325.4643021782792,386.3629619366748 L326.2380751488883,622.88613793988 M318.43317105114954,384.07782947798006 L319.2359784445728,620.5316954341574 M287.2210463021934,398.5762228709659 L280.19016458632285,396.2829093721055 M288.1558593755477,635.4697263011537 L287.2210463021934,398.5762228709659 M281.15400897490224,633.1068898336412 L280.19016458632285,396.2829093721055 M287.2210463021934,398.5762228709659 L325.4643021782792,386.3629619366748 M303.00056332711165,455.35309414421096 L310.1632930547563,453.04493634933726 M309.983775044337,402.408185551532 L310.1632930547563,453.04493634933726 M309.983775044337,402.408185551532 L302.8145848685908,404.70143828776224 M303.00056332711165,455.35309414421096 L302.8145848685908,404.70143828776224 M280.19016458632285,396.2829093721055 L318.43317105114954,384.07782947798006 M295.94513844416116,444.6117513518612 L295.81701186306077,410.8539171929379 M302.98507777676724,408.5597135979848 L295.81701186306077,410.8539171929379 M303.1088974757793,442.3076167889358 L302.98507777676724,408.5597135979848 M295.94513844416116,444.6117513518612 L303.1088974757793,442.3076167889358 M308.4069864479508,452.46813827912166 L310.1632930547563,453.04493634933726 M301.24426822782146,454.7759098199091 L303.00056332711165,455.35309414421096 M308.4069864479508,452.46813827912166 L301.24426822782146,454.7759098199091 M302.8145848685908,404.70143828776224 L301.0567361323384,404.1279810350558 M301.0567361323384,404.1279810350558 L301.08801471999675,412.5755786376277 M301.08801471999675,412.5755786376277 L295.81701186306077,410.8539171929379 M295.94513844416116,444.6117513518612 L301.2130361180662,446.34086478610465 M301.2130361180662,446.34086478610465 L301.24426822782146,454.7759098199091 M309.983775044337,402.408185551532 L308.22591476970035,401.83511240146447 M308.22591476970035,401.83511240146447 L301.0567361323384,404.1279810350558 M308.22591476970035,401.83511240146447 L308.2561158130739,410.280222235535 M308.2561158130739,410.280222235535 L302.98507777676724,408.5597135979848 M303.1088974757793,442.3076167889358 L308.3768302662934,444.035573114963 M308.3768302662934,444.035573114963 L308.4069864479508,452.46813827912166 M308.2561158130739,410.280222235535 L301.08801471999675,412.5755786376277 M308.3768302662934,444.035573114963 L301.2130361180662,446.34086478610465" stroke="black"  stroke-width="4"  fill="red"/>
<path d="M551.9173665451588,548.3144449087549 L544.9147381867087,546.0094394922235 M514.6356091615497,560.6335360848686 L507.6329591341022,558.3203999197955 M551.9173665451588,548.3144449087549 L514.6356091615497,560.6335360848686 M544.9147381867087,546.0094394922235 L507.6329591341022,558.3203999197955 M552.0862336642658,313.98960566074777 L545.0545641992956,311.7526525430793 M552.0862336642658,313.98960566074777 L551.9173665451588,548.3144449087549 M545.0545641992956,311.7526525430793 L544.9147381867087,546.0094394922235 M514.6501346576742,325.9450951988488 L507.6184432533071,323.7002186292385 M514.6356091615497,560.6335360848686 L514.6501346576742,325.9450951988488 M507.6329591341022,558.3203999197955 L507.6184432533071,323.7002186292385 M514.6501346576742,325.9450951988488 L552.0862336642658,313.98960566074777 M529.8543445919258,382.25047217844696 L536.8660606995211,379.9909778509249 M536.888802506839,329.8266857814229 L536.8660606995211,379.9909778509249 M536.888802506839,329.8266857814229 L529.8708950517537,332.0715467879604 M529.8543445919258,382.25047217844696 L529.8708950517537,332.0715467879604 M507.6184432533071,323.7002186292385 L545.0545641992956,311.7526525430793 M522.831952307324,371.6364115355981 L522.838843764163,338.193549786937 M529.855722682734,335.94773494174217 L522.838843764163,338.193549786937 M529.8447036535949,369.38084672851437 L529.855722682734,335.94773494174217 M522.831952307324,371.6364115355981 L529.8447036535949,369.38084672851437 M535.1095971916334,379.42633805498167 L536.8660606995211,379.9909778509249 M528.0978799133895,381.6854582785449 L529.8543445919258,382.25047217844696 M535.1095971916334,379.42633805498167 L528.0978799133895,381.6854582785449 M529.8708950517537,332.0715467879604 L528.1128762827427,331.5101920038179 M528.1128762827427,331.5101920038179 L528.110375049281,339.878887919456 M528.110375049281,339.878887919456 L522.838843764163,338.193549786937 M522.831952307324,371.6364115355981 L528.1003774696026,373.3290658032142 M528.1003774696026,373.3290658032142 L528.0978799133895,381.6854582785449 M536.888802506839,329.8266857814229 L535.1307849115838,329.2657030069024 M535.1307849115838,329.2657030069024 L528.1128762827427,331.5101920038179 M535.1307849115838,329.2657030069024 L535.1272510281522,337.6319565506522 M535.1272510281522,337.6319565506522 L529.855722682734,335.94773494174217 M529.8447036535949,369.38084672851437 L535.1131258813625,371.07238028560437 M535.1131258813625,371.07238028560437 L535.1095971916334,379.42633805498167 M535.1272510281522,337.6319565506522 L528.110375049281,339.878887919456 M535.1131258813625,371.07238028560437 L528.1003774696026,373.3290658032142" stroke="black"  stroke-width="4"  fill="red"/>
<path d="M308.3768302662934,444.035573114963 L301.2130361180662,446.34086478610465 M308.4069864479508,452.46813827912166 L301.24426822782146,454.7759098199091 M308.3768302662934,444.035573114963 L308.4069864479508,452.46813827912166 M301.2130361180662,446.34086478610465 L301.24426822782146,454.7759098199091 M310.48474755169104,444.7269997433748 L303.3209395998389,447.0327545026564 M310.48474755169104,444.7269997433748 L308.3768302662934,444.035573114963 M303.3209395998389,447.0327545026564 L301.2130361180662,446.34086478610465 M493.8421317923102,513.3678886816615 L486.6787417522673,515.7166203797292 M308.4069864479508,452.46813827912166 L493.8421317923102,513.3678886816615 M301.24426822782146,454.7759098199091 L486.6787417522673,515.7166203797292 M310.36527607667784,410.96866888048675 L310.48474755169104,444.7269997433748 M308.2561158130739,410.280222235535 L310.36527607667784,410.96866888048675 M308.22591476970035,401.83511240146447 L308.2561158130739,410.280222235535 M334.23319167191573,410.31364298439826 L308.22591476970035,401.83511240146447 M334.23319167191573,410.31364298439826 L334.3122562988559,435.6690337172546 M334.3122562988559,435.6690337172546 L341.35978001431613,437.9750628856711 M341.35978001431613,437.9750628856711 L341.2838411777051,412.61219764235597 M460.2875592075226,451.40813412552956 L341.2838411777051,412.61219764235597 M460.2875592075226,451.40813412552956 L460.310420826845,476.89705284844104 M460.310420826845,476.89705284844104 L467.4427116805428,479.23081877961164 M467.4427116805428,479.23081877961164 L467.423051716225,453.7343481188975 M493.82655072718876,462.3420495211867 L467.423051716225,453.7343481188975 M493.82914951857185,470.85273284682546 L493.82655072718876,462.3420495211867 M491.6829655269873,470.15220136329987 L493.82914951857185,470.85273284682546 M491.69464000748496,504.1664027235234 L491.6829655269873,470.15220136329987 M493.8395368953897,504.8699591836218 L491.69464000748496,504.1664027235234 M493.8421317923102,513.3678886816615 L493.8395368953897,504.8699591836218 M303.19716115530105,413.26448664952335 L303.3209395998389,447.0327545026564 M301.08801471999675,412.5755786376277 L303.19716115530105,413.26448664952335 M301.0567361323384,404.1279810350558 L301.08801471999675,412.5755786376277 M327.0638523922679,412.61219764235597 L301.0567361323384,404.1279810350558 M327.1461488989773,437.9750628856711 L327.0638523922679,412.61219764235597 M334.1936328375689,440.28263909016647 L327.1461488989773,437.9750628856711 M334.11446206778896,414.9122950119677 L334.1936328375689,440.28263909016647 M453.11774726589886,453.7343481188975 L334.11446206778896,414.9122950119677 M453.1438414001338,479.23081877961164 L453.11774726589886,453.7343481188975 M460.2761206833184,481.5661597468422 L453.1438414001338,479.23081877961164 M460.25322818846166,456.0621327582716 L460.2761206833184,481.5661597468422 M486.6566984620236,464.67565064108516 L460.25322818846166,456.0621327582716 M486.66037509945613,473.1888597791841 L486.6566984620236,464.67565064108516 M484.5141926123454,472.4878547253801 L486.66037509945613,473.1888597791841 M484.5301752402446,506.51214137589125 L484.5141926123454,472.4878547253801 M486.67507062638344,507.21617316557297 L484.5301752402446,506.51214137589125 M486.6787417522673,515.7166203797292 L486.67507062638344,507.21617316557297 M310.36527607667784,410.96866888048675 L303.19716115530105,413.26448664952335 M493.8395368953897,504.8699591836218 L486.67507062638344,507.21617316557297 M308.2561158130739,410.280222235535 L301.08801471999675,412.5755786376277 M308.22591476970035,401.83511240146447 L301.0567361323384,404.1279810350558 M334.23319167191573,410.31364298439826 L327.0638523922679,412.61219764235597 M334.3122562988559,435.6690337172546 L327.1461488989773,437.9750628856711 M341.35978001431613,437.9750628856711 L334.1936328375689,440.28263909016647 M334.11446206778896,414.9122950119677 L341.2838411777051,412.61219764235597 M460.2875592075226,451.40813412552956 L453.11774726589886,453.7343481188975 M460.310420826845,476.89705284844104 L453.1438414001338,479.23081877961164 M467.4427116805428,479.23081877961164 L460.2761206833184,481.5661597468422 M460.25322818846166,456.0621327582716 L467.423051716225,453.7343481188975 M493.82655072718876,462.3420495211867 L486.6566984620236,464.67565064108516 M493.82914951857185,470.85273284682546 L486.66037509945613,473.1888597791841 M491.6829655269873,470.15220136329987 L484.5141926123454,472.4878547253801 M491.69464000748496,504.1664027235234 L484.5301752402446,506.51214137589125" stroke="black"  stroke-width="4"  fill="red"/>
<path d="M491.69464000748496,504.1664027235234 L484.5301752402446,506.51214137589125 M499.56138083994546,506.7468047763256 L492.396911282681,509.0942870090543 M491.69464000748496,504.1664027235234 L499.56138083994546,506.7468047763256 M484.5301752402446,506.51214137589125 L492.396911282681,509.0942870090543 M499.5544282885469,472.72150926397046 L492.38565057524255,475.05889975344036 M499.56138083994546,506.7468047763256 L499.5544282885469,472.72150926397046 M492.396911282681,509.0942870090543 L492.38565057524255,475.05889975344036 M491.6829655269873,470.15220136329987 L484.5141926123454,472.4878547253801 M499.5544282885469,472.72150926397046 L491.6829655269873,470.15220136329987 M492.38565057524255,475.05889975344036 L484.5141926123454,472.4878547253801 M491.6829655269873,470.15220136329987 L491.69464000748496,504.1664027235234 M484.5141926123454,472.4878547253801 L484.5301752402446,506.51214137589125" stroke="black"  stroke-width="4"  fill="red"/>
<path d="M302.75779239408155,442.1924493653664 L295.5940357344343,444.49650681793736 M310.48474755169104,444.7269997433748 L303.3209395998389,447.0327545026564 M302.75779239408155,442.1924493653664 L310.48474755169104,444.7269997433748 M295.5940357344343,444.49650681793736 L303.3209395998389,447.0327545026564 M310.36527607667784,410.96866888048675 L303.19716115530105,413.26448664952335 M310.48474755169104,444.7269997433748 L310.36527607667784,410.96866888048675 M303.3209395998389,447.0327545026564 L303.19716115530105,413.26448664952335 M302.6337657879813,408.44504257739686 L295.4657022504845,410.7391693486399 M310.36527607667784,410.96866888048675 L302.6337657879813,408.44504257739686 M303.19716115530105,413.26448664952335 L295.4657022504845,410.7391693486399 M302.6337657879813,408.44504257739686 L302.75779239408155,442.1924493653664 M295.4657022504845,410.7391693486399 L295.5940357344343,444.49650681793736" stroke="black"  stroke-width="4"  fill="red"/>
<path d="M535.1131258813625,371.07238028560437 L528.1003774696026,373.3290658032142 M535.1095971916334,379.42633805498167 L528.0978799133895,381.6854582785449 M535.1131258813625,371.07238028560437 L535.1095971916334,379.42633805498167 M528.1003774696026,373.3290658032142 L528.0978799133895,381.6854582785449 M537.2212311614055,371.7492301410082 L530.2084841666347,374.0063641774741 M537.2212311614055,371.7492301410082 L535.1131258813625,371.07238028560437 M530.2084841666347,374.0063641774741 L528.1003774696026,373.3290658032142 M720.5441169678245,439.03686166509897 L713.5330549506534,441.3356480643874 M535.1095971916334,379.42633805498167 L720.5441169678245,439.03686166509897 M528.0978799133895,381.6854582785449 L713.5330549506534,441.3356480643874 M537.2365996213748,338.3058807427734 L537.2212311614055,371.7492301410082 M535.1272510281522,337.6319565506522 L537.2365996213748,338.3058807427734 M535.1307849115838,329.2657030069024 L535.1272510281522,337.6319565506522 M561.1400707213445,337.5652566383521 L535.1307849115838,329.2657030069024 M561.1400707213445,337.5652566383521 L561.1179578724641,362.683724649634 M561.1179578724641,362.683724649634 L568.1659078812047,364.9410585886858 M568.1659078812047,364.9410585886858 L568.1911470914861,339.81525254064167 M687.1944917311614,377.7891764839209 L568.1911470914861,339.81525254064167 M687.1944917311614,377.7891764839209 L687.1161757793507,403.03872903935485 M687.1161757793507,403.03872903935485 L694.2479902176194,405.32292327435357 M694.2479902176194,405.32292327435357 L694.3295071865252,380.06595731774115 M720.7307936583545,388.49059821772244 L694.3295071865252,380.06595731774115 M720.6996577970895,396.921224675206 L720.7307936583545,388.49059821772244 M718.5536798839316,396.23559763561605 L720.6996577970895,396.921224675206 M718.4305154913559,429.93013745037393 L718.5536798839316,396.23559763561605 M720.5752066689306,430.6187339484567 L718.4305154913559,429.93013745037393 M720.5441169678245,439.03686166509897 L720.5752066689306,430.6187339484567 M530.219725061999,340.5532589549271 L530.2084841666347,374.0063641774741 M528.110375049281,339.878887919456 L530.219725061999,340.5532589549271 M528.1128762827427,331.5101920038179 L528.110375049281,339.878887919456 M554.1221893124841,339.81525254064167 L528.1128762827427,331.5101920038179 M554.1031734689589,364.9410585886858 L554.1221893124841,339.81525254064167 M561.1511344843902,367.1998908134748 L554.1031734689589,364.9410585886858 M561.1732767039357,342.0667425192303 L561.1511344843902,367.1998908134748 M680.1770417212638,380.06595731774115 L561.1732767039357,342.0667425192303 M680.101822200651,405.32292327435357 L680.1770417212638,380.06595731774115 M687.2336758520855,407.60864262141956 L680.101822200651,405.32292327435357 M687.3120964421862,382.34425899080156 L687.2336758520855,407.60864262141956 M713.7135420392813,390.77453178165916 L687.3120964421862,382.34425899080156 M713.6834385361051,399.2076376407489 L713.7135420392813,390.77453178165916 M711.5374468796001,398.52155206614833 L713.6834385361051,399.2076376407489 M711.4184089128121,432.2259920564326 L711.5374468796001,398.52155206614833 M713.5631138092613,432.9150488018418 L711.4184089128121,432.2259920564326 M713.5330549506534,441.3356480643874 L713.5631138092613,432.9150488018418 M537.2365996213748,338.3058807427734 L530.219725061999,340.5532589549271 M720.5752066689306,430.6187339484567 L713.5631138092613,432.9150488018418 M535.1272510281522,337.6319565506522 L528.110375049281,339.878887919456 M535.1307849115838,329.2657030069024 L528.1128762827427,331.5101920038179 M561.1400707213445,337.5652566383521 L554.1221893124841,339.81525254064167 M561.1179578724641,362.683724649634 L554.1031734689589,364.9410585886858 M568.1659078812047,364.9410585886858 L561.1511344843902,367.1998908134748 M561.1732767039357,342.0667425192303 L568.1911470914861,339.81525254064167 M687.1944917311614,377.7891764839209 L680.1770417212638,380.06595731774115 M687.1161757793507,403.03872903935485 L680.101822200651,405.32292327435357 M694.2479902176194,405.32292327435357 L687.2336758520855,407.60864262141956 M687.3120964421862,382.34425899080156 L694.3295071865252,380.06595731774115 M720.7307936583545,388.49059821772244 L713.7135420392813,390.77453178165916 M720.6996577970895,396.921224675206 L713.6834385361051,399.2076376407489 M718.5536798839316,396.23559763561605 L711.5374468796001,398.52155206614833 M718.4305154913559,429.93013745037393 L711.4184089128121,432.2259920564326" stroke="black"  stroke-width="4"  fill="red"/>
<path d="M718.4305154913559,429.93013745037393 L711.4184089128121,432.2259920564326 M726.2964791309753,432.45566423619925 L719.2844235709774,434.753207091317 M718.4305154913559,429.93013745037393 L726.2964791309753,432.45566423619925 M711.4184089128121,432.2259920564326 L719.2844235709774,434.753207091317 M726.4243640616687,398.7502339043507 L719.4081821669067,401.03787030333854 M726.2964791309753,432.45566423619925 L726.4243640616687,398.7502339043507 M719.2844235709774,434.753207091317 L719.4081821669067,401.03787030333854 M718.5536798839316,396.23559763561605 L711.5374468796001,398.52155206614833 M726.4243640616687,398.7502339043507 L718.5536798839316,396.23559763561605 M719.4081821669067,401.03787030333854 L711.5374468796001,398.52155206614833 M718.5536798839316,396.23559763561605 L718.4305154913559,429.93013745037393 M711.5374468796001,398.52155206614833 L711.4184089128121,432.2259920564326" stroke="black"  stroke-width="4"  fill="red"/>
<path d="M529.4935649551219,369.26810654445535 L522.480813444073,371.5235966664294 M537.2212311614055,371.7492301410082 L530.2084841666347,374.0063641774741 M529.4935649551219,369.26810654445535 L537.2212311614055,371.7492301410082 M522.480813444073,371.5235966664294 L530.2084841666347,374.0063641774741 M537.2365996213748,338.3058807427734 L530.219725061999,340.5532589549271 M537.2212311614055,371.7492301410082 L537.2365996213748,338.3058807427734 M530.2084841666347,374.0063641774741 L530.219725061999,340.5532589549271 M529.5043770173013,335.8354821142615 L522.4874979336612,338.0812225533838 M537.2365996213748,338.3058807427734 L529.5043770173013,335.8354821142615 M530.219725061999,340.5532589549271 L522.4874979336612,338.0812225533838 M529.5043770173013,335.8354821142615 L529.4935649551219,369.26810654445535 M522.4874979336612,338.0812225533838 L522.480813444073,371.5235966664294" stroke="black"  stroke-width="4"  fill="red"/></svg>