<svg viewBox="0 0 800 800" xmlns="http://www.w3.org/2000/svg"><path d="M145.09445975070014,273.41595041437836 L144.40517709494983,257.70436046712894 M355.5077934903041,311.1262470651369 L377.25912474260815,304.88970193131564 M377.25912474260815,304.88970193131564 L393.2923134960963,297.9360960732282 M393.2923134960963,297.9360960732282 L403.1453204662332,290.578951061234 M403.1453204662332,290.578951061234 L406.6586760916977,283.12742616711927 M406.6586760916977,283.12742616711927 L403.9438608812402,275.87154667937176 M403.9438608812402,275.87154667937176 L395.3403284212002,269.07193604384724 M395.3403284212002,269.07193604384724 L381.3690119250672,262.9537894793242 M381.3690119250672,262.9537894793242 L362.68815459218706,257.70436046712894 M362.68815459218706,257.70436046712894 L340.0550184804169,253.47296437438575 M340.0550184804169,253.47296437438575 L314.29537405310305,250.37247273842672 M314.29537405310305,250.37247273842672 L286.2807195363788,248.4814215711183 M286.2807195363788,248.4814215711183 L256.91228568305144,247.84599389942616 M256.91228568305144,247.84599389942616 L227.10999031016715,248.48142041122142 M227.10999031016715,248.48142041122142 L197.8041331785738,250.3724739068068 M197.8041331785738,250.3724739068068 L169.92749196127698,253.47296230526302 M169.92749196127698,253.47296230526302 L144.40517709494983,257.70436046712894 M355.71265295931164,328.28527618921333 L355.5077934903041,311.1262470651369 M145.09445975070014,273.41595041437836 L170.55090348203592,269.0687718469349 M170.55090348203592,269.0687718469349 L198.35832776538246,265.8833416466307 M198.35832776538246,265.8833416466307 L227.5935340753937,263.9404365032674 M227.5935340753937,263.9404365032674 L257.32552046761816,263.2875794884904 M257.32552046761816,263.2875794884904 L286.6256741057839,263.94043769497813 M286.6256741057839,263.94043769497813 L314.5757301934841,265.88334044622457 M314.5757301934841,265.88334044622457 L340.2761284722796,269.0687739727142 M340.2761284722796,269.0687739727142 L362.8570964195765,273.41595041437824 M362.8570964195765,273.41595041437824 L381.4946581147007,278.8087842542494 M381.4946581147007,278.8087842542494 L395.4333936720422,285.0937444303791 M395.4333936720422,285.0937444303791 L404.0168841396752,292.0783411656874 M404.0168841396752,292.0783411656874 L406.7258855236892,299.5311461741523 M406.7258855236892,299.5311461741523 L403.22232966417664,307.18439760145384 M403.22232966417664,307.18439760145384 L393.3956065566164,314.74020831561853 M393.3956065566164,314.74020831561853 L377.40531123288537,321.88112113738566 M377.40531123288537,321.88112113738566 L355.71265295931164,328.28527618921333 M355.71265295931164,328.28527618921333 L686.725931659337,247.52981302478528 M355.5077934903041,311.1262470651369 L687.3019650620154,232.5100484506932 M686.725931659337,247.52981302478528 L687.3019650620154,232.5100484506932 M475.7527588549723,192.07001519837047 L459.1678173184538,196.08893469504102 M459.1678173184538,196.08893469504102 L446.7016975382207,200.76040046406627 M446.7016975382207,200.76040046406627 L438.9252998598924,205.93642892813085 M438.9252998598924,205.93642892813085 L436.28185621990883,211.44156246201706 M436.28185621990883,211.44156246201706 L439.0510083212853,217.0756566159615 M439.0510083212853,217.0756566159615 L447.31248248064435,222.61912621062592 M447.31248248064435,222.61912621062592 L460.9139844196757,227.8410317318511 M460.9139844196757,227.8410317318511 L479.44889092642086,232.5100484506932 M479.44889092642086,232.5100484506932 L502.2500187589511,236.40780355734358 M502.2500187589511,236.40780355734358 L528.4043125185045,239.34351698983718 M528.4043125185045,239.34351698983718 L556.7912221859735,241.16832739885214 M556.7912221859735,241.16832739885214 L586.1436852149959,241.78745102843482 M586.1436852149959,241.78745102843482 L615.126676877512,241.1683285262331 M615.126676877512,241.1683285262331 L642.4245859058842,239.3435158704979 M642.4245859058842,239.3435158704979 L666.8269190797405,236.40780549365334 M666.8269190797405,236.40780549365334 L687.3019650620154,232.5100484506932 M475.66467220012305,205.96698039281688 L475.7527588549723,192.07001519837047 M686.725931659337,247.52981302478528 L666.2932654835467,251.53498647920605 M666.2932654835467,251.53498647920605 L641.9439923092007,254.551507484701 M641.9439923092007,254.551507484701 L614.7074004827871,256.42651098386517 M614.7074004827871,256.42651098386517 L585.7909103596191,257.0626552079738 M585.7909103596191,257.0626552079738 L556.5066543115013,256.4265098254856 M556.5066543115013,256.4265098254856 L528.1860765469125,254.55150863483692 M528.1860765469125,254.55150863483692 L502.09287278440155,251.53498448956958 M502.09287278440155,251.53498448956958 L479.3447146727454,247.52981302478528 M479.3447146727454,247.52981302478528 L460.8524613151711,242.73193928234065 M460.8524613151711,242.73193928234065 L447.28187430659,237.3656779497386 M447.28187430659,237.3656779497386 L439.03892362367316,231.66868583077675 M439.03892362367316,231.66868583077675 L436.2759342948677,225.87826671623404 M436.2759342948677,225.87826671623404 L438.9137614854814,220.22010140032407 M438.9137614854814,220.22010140032407 L446.6737448795326,214.89993266460752 M446.6737448795326,214.89993266460752 L459.113890314098,210.09816369032927 M459.113890314098,210.09816369032927 L475.66467220012305,205.96698039281688 M475.66467220012305,205.96698039281688 L145.09445975070014,273.41595041437836 M475.7527588549723,192.07001519837047 L144.40517709494983,257.70436046712894" stroke="black"  stroke-width="4"  fill="red"/>
<path d="M666.3774615166026,205.96698039281688 L644.451499508006,202.62939673365733 M644.451499508006,202.62939673365733 L620.3265716513713,200.17953024975685 M620.3265716513713,200.17953024975685 L594.8215161721375,198.6835143487137 M594.8215161721375,198.6835143487137 L568.7702892656057,198.18052263365553 M568.7702892656057,198.18052263365553 L543.0098726121829,198.68351251268865 M543.0098726121829,198.68351251268865 L518.36968728439,200.17952747809397 M518.36968728439,200.17952747809397 L495.6610874544551,202.6293941663968 M495.6610874544551,202.6293941663968 L475.66467220012305,205.96698039281688 M475.66467220012305,205.96698039281688 L459.113890314098,210.09816369032927 M459.113890314098,210.09816369032927 L446.6737448795326,214.89993266460752 M446.6737448795326,214.89993266460752 L438.9137614854814,220.22010140032407 M438.9137614854814,220.22010140032407 L436.2759342948677,225.87826671623404 M436.2759342948677,225.87826671623404 L439.03892362367316,231.66868583077675 M439.03892362367316,231.66868583077675 L447.28187430659,237.3656779497386 M447.28187430659,237.3656779497386 L460.8524613151711,242.73193928234065 M460.8524613151711,242.73193928234065 L479.34471467274506,247.52981302478528 M479.34471467274506,247.52981302478528 L502.09287278440155,251.53498448956958 M502.09287278440155,251.53498448956958 L528.1860765469125,254.55150863483692 M528.1860765469125,254.55150863483692 L556.5066543115013,256.4265098254856 M556.5066543115013,256.4265098254856 L585.7909103596191,257.0626552079738 M585.7909103596191,257.0626552079738 L614.7074004827871,256.42651098386517 M614.7074004827871,256.42651098386517 L641.9439923092007,254.551507484701 M641.9439923092007,254.551507484701 L666.2932654835467,251.53498647920605 M666.2932654835467,251.53498647920605 L686.725931659337,247.52981302478528 M686.725931659337,247.52981302478528 L702.4444233100669,242.73193955705253 M702.4444233100669,242.73193955705253 L712.9126358783428,237.36567687379065 M712.9126358783428,237.36567687379065 L717.8620228910158,231.6686847788758 M717.8620228910158,231.6686847788758 L717.2774074942074,225.87826774397212 M717.2774074942074,225.87826774397212 L711.3684578137093,220.2201014003239 M711.3684578137093,220.2201014003239 L700.5327486810424,214.89993561269927 M700.5327486810424,214.89993561269927 L685.3165712743596,210.0981648944721 M685.3165712743596,210.0981648944721 L666.3774615166026,205.96698039281688 M666.3774615166026,205.96698039281688 L666.8645289022393,192.07001519837047 M666.8645289022393,192.07001519837047 L686.4019124382473,196.23015991895858 M686.4019124382473,196.23015991895858 L701.9417316922006,201.08085301387203 M701.9417316922006,201.08085301387203 L712.7642432213622,206.45782200542982 M712.7642432213622,206.45782200542982 L718.2786937878141,212.1657770181617 M718.2786937878141,212.1657770181617 L718.0677438959669,217.98185675897776 M718.0677438959669,217.98185675897776 L711.9334311717262,223.66216675687065 M711.9334311717262,223.66216675687065 L699.9395736200124,228.9517577659569 M699.9395736200124,228.9517577659569 L682.4429173294666,233.59801474259896 M682.4429173294666,233.59801474259896 L660.1052598765559,237.3667229056244 M660.1052598765559,237.3667229056244 L633.8798653889303,240.05929770625255 M633.8798653889303,240.05929770625255 L604.9686708255335,241.5290846119575 M604.9686708255335,241.5290846119575 L574.7515388615989,241.69432837158433 M574.7515388615989,241.69432837158433 L544.6940205942633,240.54576394743623 M544.6940205942633,240.54576394743623 L516.2448986684344,238.1474850727847 M516.2448986684344,238.1474850727847 L490.736689762735,234.63096094233708 M490.736689762735,234.63096094233708 L469.3016182308904,230.18323083293308 M469.3016182308904,230.18323083293308 L452.812147868848,225.03121890806727 M452.812147868848,225.03121890806727 L441.85000258924157,219.4245220469593 M441.85000258924157,219.4245220469593 L436.7025479278322,213.61888925726856 M436.7025479278322,213.61888925726856 L437.38146518805655,207.8620547096567 M437.38146518805655,207.8620547096567 L443.65652219804014,202.38287169100892 M443.65652219804014,202.38287169100892 L455.0969460733576,197.38396496200667 M455.0969460733576,197.38396496200667 L471.11412388131316,193.03754108214787 M471.11412388131316,193.03754108214787 L491.0008788436347,189.48371855160093 M491.0008788436347,189.48371855160093 L513.9649277314502,186.83054126565855 M513.9649277314502,186.83054126565855 L539.1555000551862,185.15490088202512 M539.1555000551862,185.15490088202512 L565.6836853620484,184.5037145044668 M565.6836853620484,184.5037145044668 L592.6378744292429,184.89487020647485 M592.6378744292429,184.89487020647485 L619.0963849738173,186.31765249362508 M619.0963849738173,186.31765249362508 L644.1397309493575,188.7324613160973 M644.1397309493575,188.7324613160973 L666.8645289022393,192.07001519837047 M687.2298175744181,234.39125581347048 L686.725931659337,247.52981302478528 M475.7417278725741,193.81031489200183 L475.66467220012305,205.96698039281688" stroke="black"  stroke-width="4"  fill="red"/>
<path d="M362.8570964195767,273.41595041437836 L339.4912038196606,268.94735982869133 M339.4912038196606,268.94735982869133 L312.8308808322845,265.7198200519354 M312.8308808322845,265.7198200519354 L283.8346227949009,263.8203879451134 M283.8346227949009,263.8203879451134 L253.49383998925273,263.2984702704076 M253.49383998925273,263.2984702704076 L222.82018952004674,264.1674061331046 M222.82018952004674,264.1674061331046 L192.83597504970018,266.4049335524203 M192.83597504970018,266.4049335524203 L164.56453054820543,269.9524174770469 M164.56453054820543,269.9524174770469 L139.01755673194856,274.71303666805284 M139.01755673194856,274.71303666805284 L117.17640649873147,280.5493291939461 M117.17640649873147,280.5493291939461 L99.96499028147787,287.2807709262843 M99.96499028147787,287.2807709262843 L88.21233419142249,294.6824027306115 M88.21233419142249,294.6824027306115 L82.60491525295538,302.4856788375504 M82.60491525295538,302.4856788375504 L83.63085819273408,310.38281206271694 M83.63085819273408,310.38281206271694 L91.520302099084,318.03589499369025 M91.520302099084,318.03589499369025 L106.1900002567105,325.09146147145236 M106.1900002567105,325.09146147145236 L127.20212455860565,331.2004227249479 M127.20212455860565,331.2004227249479 L153.7479957823473,336.04215564483366 M153.7479957823473,336.04215564483366 L184.6660591116878,339.35022110125936 M184.6660591116878,339.35022110125936 L218.49864696423595,340.93621496230327 M218.49864696423595,340.93621496230327 L253.58502351062396,340.70796638394717 M253.58502351062396,340.70796638394717 L288.18081410112507,338.6788229535558 M288.18081410112507,338.6788229535558 L320.5879671976543,334.9662626001668 M320.5879671976543,334.9662626001668 L349.2765609912261,329.780186635888 M349.2765609912261,329.780186635888 L372.98268727693716,323.40296800537396 M372.98268727693716,323.40296800537396 L390.77179949643653,316.1647385900485 M390.77179949643653,316.1647385900485 L402.0643415951815,308.417810414496 M402.0643415951815,308.417810414496 L406.6276889438252,300.51343404988495 M406.6276889438252,300.51343404988495 L404.54271292234216,292.7831329173717 M404.54271292234216,292.7831329173717 L396.15512639701785,285.52552978329527 M396.15512639701785,285.52552978329527 L382.02146212257406,278.99852960181136 M382.02146212257406,278.99852960181136 L362.8570964195767,273.41595041437836 M362.8570964195767,273.41595041437836 L362.6881545921869,257.70436046712894 M362.6881545921869,257.70436046712894 L381.89704411746897,263.13849370576713 M381.89704411746897,263.13849370576713 L396.06375164716854,269.4922734981566 M396.06375164716854,269.4922734981566 L404.47089919037495,276.5576953358173 M404.47089919037495,276.5576953358173 L406.56011683816735,284.0837945458996 M406.56011683816735,284.0837945458996 L401.98422147909014,291.7799002061108 M401.98422147909014,291.7799002061108 L390.66148955077887,299.3232258536001 M390.66148955077887,299.3232258536001 L372.8245804677116,306.37168708649983 M372.8245804677116,306.37168708649983 L349.0542083887299,312.58208324520007 M349.0542083887299,312.58208324520007 L320.2873433165676,317.6327530512462 M320.2873433165676,317.6327530512462 L287.7915705761993,321.2485217155515 M287.7915705761993,321.2485217155515 L253.1015396331654,323.22481246057316 M253.1015396331654,323.22481246057316 L217.92069017045392,323.447118103714 M217.92069017045392,323.447118103714 L183.99892243630032,321.9024281843722 M183.99892243630032,321.9024281843722 L153.00207128957106,318.6805838841482 M153.00207128957106,318.6805838841482 L126.39198019052691,313.9652146684509 M126.39198019052691,313.9652146684509 L105.33311644926687,308.01597710233364 M105.33311644926687,308.01597710233364 L90.63567032198813,301.14528219607917 M90.63567032198813,301.14528219607917 L82.73763887984359,293.6932095575808 M82.73763887984359,293.6932095575808 L81.721306212186,286.0040229469063 M81.721306212186,286.0040229469063 L87.35473296790184,278.406747006107 M87.35473296790184,278.406747006107 L99.14746779302453,271.200994486184 M99.14746779302453,271.200994486184 L116.41045840216913,264.64810348930683 M116.41045840216913,264.64810348930683 L138.31206814623675,258.966932185481 M138.31206814623675,258.966932185481 L163.9258809976971,254.3330602857642 M163.9258809976971,254.3330602857642 L192.2682145431181,250.88015123579967 M192.2682145431181,250.88015123579967 L222.32522844728422,248.70233107814838 M222.32522844728422,248.70233107814838 L253.07161198864148,247.8565938805226 M253.07161198864148,247.8565938805226 L283.48319498101654,248.36457673232093 M283.48319498101654,248.36457673232093 L312.5465004488916,250.21331507932354 M312.5465004488916,250.21331507932354 L339.26828369052225,253.35478623298974 M339.26828369052225,253.35478623298974 L362.6881545921869,257.70436046712894" stroke="black"  stroke-width="4"  fill="red"/>
<path d="M314.64032373092607,318.3830678502211 L323.4006815200567,320.6683785778204 M262.1031853687616,330.78019675203006 L270.8404617592871,333.1630903130824 M314.64032373092607,318.3830678502211 L262.1031853687616,330.78019675203006 M323.4006815200567,320.6683785778204 L270.8404617592871,333.1630903130824 M315.855590606171,385.11843020254184 L324.53075447142925,387.6370261634233 M262.1031853687616,330.78019675203006 L263.8453902435104,345.71049680351007 M263.8453902435104,345.71049680351007 L268.1596181236837,359.1520524735147 M268.1596181236837,359.1520524735147 L274.79205121990594,370.41892669190986 M274.79205121990594,370.41892669190986 L283.3701236996574,378.9583713842897 M283.3701236996574,378.9583713842897 L293.42951865513993,384.37555769048464 M293.42951865513993,384.37555769048464 L304.4439370928744,386.4462718467481 M304.4439370928744,386.4462718467481 L315.855590606171,385.11843020254184 M270.8404617592871,333.1630903130824 L272.56441872457947,348.14562292510846 M272.56441872457947,348.14562292510846 L276.86272057706196,361.6309767353356 M276.86272057706196,361.6309767353356 L283.48220884350224,372.93097241886056 M283.48220884350224,372.93097241886056 L292.0507904147215,381.49134122858237 M292.0507904147215,381.49134122858237 L302.104447926752,386.91649687799986 M302.104447926752,386.91649687799986 L313.1170284070907,388.9822060576936 M313.1170284070907,388.9822060576936 L324.53075447142925,387.6370261634233 M315.855590606171,385.11843020254184 L314.64032373092607,318.3830678502211 M324.53075447142925,387.6370261634233 L323.4006815200567,320.6683785778204" stroke="black"  stroke-width="4"  fill="red"/>
<path d="M665.8426725844879,293.11371264839204 L674.4512386210965,294.9731629122994 M705.1381142225825,226.23774750131184 L713.8002028760291,227.86188912383298 M665.8426725844879,293.11371264839204 L674.2297584615453,289.48399072196736 M674.2297584615453,289.48399072196736 L682.2481435562988,283.1899233983512 M682.2481435562988,283.1899233983512 L689.5173128406,274.55666082253924 M689.5173128406,274.55666082253924 L695.6967011692525,264.0101812783073 M695.6967011692525,264.0101812783073 L700.4982796620493,252.05743251420873 M700.4982796620493,252.05743251420873 L703.6967581423824,239.2651896001994 M703.6967581423824,239.2651896001994 L705.1381142225825,226.23774750131184 M674.4512386210965,294.9731629122994 L682.8341964732106,291.3246343618854 M682.8341964732106,291.3246343618854 L690.8526336837451,285.00428882981896 M690.8526336837451,285.00428882981896 L698.1260657707442,276.3386324873106 M698.1260657707442,276.3386324873106 L704.3137752055836,265.75520147085615 M704.3137752055836,265.75520147085615 L709.1273940137953,253.76263916691053 M709.1273940137953,253.76263916691053 L712.3411091348758,240.92949925349856 M712.3411091348758,240.92949925349856 L713.8002028760291,227.86188912383298 M667.9009343935074,235.02456255580924 L676.5928973336167,236.70687796357237 M705.1381142225825,226.23774750131184 L667.9009343935074,235.02456255580924 M713.8002028760291,227.86188912383298 L676.5928973336167,236.70687796357237 M667.9009343935074,235.02456255580924 L665.8426725844879,293.11371264839204 M676.5928973336167,236.70687796357237 L674.4512386210965,294.9731629122994" stroke="black"  stroke-width="4"  fill="red"/>
<path d="M667.9009343935074,235.02456255580924 L676.5928973336167,236.70687796357237 M323.4006815200567,320.6683785778204 L676.5928973336167,236.70687796357237 M314.64032373092607,318.3830678502211 L323.4006815200567,320.6683785778204 M667.9009343935074,235.02456255580924 L314.64032373092607,318.3830678502211 M665.8426725844879,293.11371264839204 L674.4512386210965,294.9731629122994 M665.8426725844879,293.11371264839204 L667.9009343935074,235.02456255580924 M674.4512386210965,294.9731629122994 L676.5928973336167,236.70687796357237 M379.0015414487222,373.21239604235245 L632.5480948338266,306.06970444553235 M633.4461264705722,276.54290504335313 L632.5480948338266,306.06970444553235 M640.7759229221938,274.70067283745374 L633.4461264705722,276.54290504335313 M640.7759229221938,274.70067283745374 L639.8480870792423,304.1365638784482 M639.8480870792423,304.1365638784482 L674.4512386210965,294.9731629122994 M323.4006815200567,320.6683785778204 L324.53075447142925,387.6370261634233 M324.53075447142925,387.6370261634233 L369.83414816520633,375.6400506555349 M369.51162550152486,342.87880415629184 L369.83414816520633,375.6400506555349 M378.72646055953015,340.562796334253 L369.51162550152486,342.87880415629184 M378.72646055953015,340.562796334253 L379.0015414487222,373.21239604235245 M315.855590606171,385.11843020254184 L324.53075447142925,387.6370261634233 M314.64032373092607,318.3830678502211 L315.855590606171,385.11843020254184 M631.216075799543,302.21636363497225 L665.8426725844879,293.11371264839204 M315.855590606171,385.11843020254184 L361.1462916096968,373.21239604235245 M360.7811842508003,340.562796334253 L361.1462916096968,373.21239604235245 M369.9941944681769,338.2642385502065 L360.7811842508003,340.562796334253 M369.9941944681769,338.2642385502065 L370.31188737944814,370.80294125549335 M370.31188737944814,370.80294125549335 L623.9116103558808,304.1365638784482 M624.7677678927816,274.70067283745374 L623.9116103558808,304.1365638784482 M632.10209817299,272.8708276990489 L624.7677678927816,274.70067283745374 M632.10209817299,272.8708276990489 L631.216075799543,302.21636363497225 M631.216075799543,302.21636363497225 L639.8480870792423,304.1365638784482 M623.9116103558808,304.1365638784482 L632.5480948338266,306.06970444553235 M370.31188737944814,370.80294125549335 L379.0015414487222,373.21239604235245 M369.9941944681769,338.2642385502065 L378.72646055953015,340.562796334253 M369.51162550152486,342.87880415629184 L360.7811842508003,340.562796334253 M361.1462916096968,373.21239604235245 L369.83414816520633,375.6400506555349 M633.4461264705722,276.54290504335313 L624.7677678927816,274.70067283745374 M632.10209817299,272.8708276990489 L640.7759229221938,274.70067283745374" stroke="black"  stroke-width="4"  fill="red"/>
<path d="M168.2219723301702,280.1869761804588 L175.87915574940274,282.18450228982385 M116.28231829080289,291.01086936713216 L123.89836869961567,293.08797402408106 M168.2219723301702,280.1869761804588 L116.28231829080289,291.01086936713216 M175.87915574940274,282.18450228982385 L123.89836869961567,293.08797402408106 M170.75906185100192,342.9936315316863 L178.35189557151526,345.19800261183536 M116.28231829080289,291.01086936713216 L118.29978101952418,305.06125294855565 M118.29978101952418,305.06125294855565 L122.84157325512103,317.7607866536765 M122.84157325512103,317.7607866536765 L129.64496940327297,328.46156268889143 M129.64496940327297,328.46156268889143 L138.33189888412187,336.63703112479527 M138.33189888412187,336.63703112479527 L148.435576418354,341.9059561241192 M148.435576418354,341.9059561241192 L159.42980942755378,344.04543988339617 M159.42980942755378,344.04543988339617 L170.75906185100192,342.9936315316863 M123.89836869961567,293.08797402408106 L125.90282325867821,307.18469672447384 M125.90282325867821,307.18469672447384 L130.43451680448322,319.9235018559828 M130.43451680448322,319.9235018559828 L137.23109159035937,330.654467196452 M137.23109159035937,330.654467196452 L145.91465349940097,338.84963637824217 M145.91465349940097,338.84963637824217 L156.01842804731038,344.1270191730342 M156.01842804731038,344.1270191730342 L167.01609807628785,346.263602730004 M167.01609807628785,346.263602730004 L178.35189557151526,345.19800261183536 M170.75906185100192,342.9936315316863 L168.2219723301702,280.1869761804588 M178.35189557151526,345.19800261183536 L175.87915574940274,282.18450228982385" stroke="black"  stroke-width="4"  fill="red"/>
<path d="M520.4676900065995,261.7127164115682 L528.1408459125121,263.37011808724526 M558.7839630036215,198.7963441477566 L566.5123580691545,200.2454182225441 M520.4676900065995,261.7127164115682 L528.89291508972,258.39383282490934 M528.89291508972,258.39383282490934 L536.8843668427949,252.53813490767607 M536.8843668427949,252.53813490767607 L544.0621805072512,244.44812751732837 M544.0621805072512,244.44812751732837 L550.0892281669867,234.52360851547905 M550.0892281669867,234.52360851547905 L554.6837456123587,223.2428979760457 M554.6837456123587,223.2428979760457 L557.6294695343042,211.14263896883682 M557.6294695343042,211.14263896883682 L558.7839630036215,198.7963441477566 M528.1408459125121,263.37011808724526 L536.5655484607701,260.0351467371834 M536.5655484607701,260.0351467371834 L544.5596522570897,254.15656578807483 M544.5596522570897,254.15656578807483 L551.743202856085,246.03806328307314 M551.743202856085,246.03806328307314 L557.7788498538132,236.08081285885578 M557.7788498538132,236.08081285885578 L562.3844727759663,224.76464524404534 M562.3844727759663,224.76464524404534 L565.3433225052152,212.62779846487837 M565.3433225052152,212.62779846487837 L566.5123580691545,200.2454182225441 M521.1944504711194,206.62975921599224 L528.934260199489,208.12778690535401 M558.7839630036215,198.7963441477566 L521.1944504711194,206.62975921599224 M566.5123580691545,200.2454182225441 L528.934260199489,208.12778690535401 M521.1944504711194,206.62975921599224 L520.4676900065995,261.7127164115682 M528.934260199489,208.12778690535401 L528.1408459125121,263.37011808724526" stroke="black"  stroke-width="4"  fill="red"/>
<path d="M521.1944504711194,206.62975921599224 L486.02617997765685,213.95860286005578 M487.31391338169215,214.21534721475436 L486.02617997765685,213.95860286005578 M487.31391338169215,214.21534721475436 L479.90230582528466,215.76155726849908 M479.90230582528466,215.76155726849908 L478.61440482966026,215.50316960793506 M478.61440482966026,215.50316960793506 L222.78188319093854,268.81703815615504 M224.06015690840067,269.13536312859696 L222.78188319093854,268.81703815615504 M224.06015690840067,269.13536312859696 L214.86697229981635,271.05324590362795 M214.86697229981635,271.05324590362795 L213.589602046856,270.7326510166105 M213.589602046856,270.7326510166105 L168.2219723301702,280.1869761804588 M168.2219723301702,280.1869761804588 L175.87915574940274,282.18450228982385 M528.934260199489,208.12778690535401 L175.87915574940274,282.18450228982385 M521.1944504711194,206.62975921599224 L528.934260199489,208.12778690535401 M485.5844307084291,269.8204467043024 L520.4676900065995,261.7127164115682 M486.02617997765685,213.95860286005578 L485.5844307084291,269.8204467043024 M520.4676900065995,261.7127164115682 L521.1944504711194,206.62975921599224 M487.31391338169215,214.21534721475436 L487.08654082376916,242.27809378049557 M487.08654082376916,242.27809378049557 L493.5177785118166,243.63483885636074 M493.5177785118166,243.63483885636074 L493.2645663603338,271.5289011850556 M485.5844307084291,269.8204467043024 L493.2645663603338,271.5289011850556 M487.08654082376916,242.27809378049557 L479.7056592000752,243.9070514292206 M479.7056592000752,243.9070514292206 L479.90230582528466,215.76155726849908 M486.13779195176977,245.27245734113075 L479.7056592000752,243.9070514292206 M486.13779195176977,245.27245734113075 L485.91504085215473,273.24821256984217 M478.2338580451223,271.5289011850556 L485.91504085215473,273.24821256984217 M478.61440482966026,215.50316960793506 L478.2338580451223,271.5289011850556 M224.7559931755456,330.4434121822676 L478.2338580451223,271.5289011850556 M222.78188319093854,268.81703815615504 L224.7559931755456,330.4434121822676 M224.06015690840067,269.13536312859696 L225.04642177037275,300.110244188462 M225.04642177037275,300.110244188462 L231.43315643310933,301.7913975706532 M231.43315643310933,301.7913975706532 L232.38303430223053,332.55822718016736 M224.7559931755456,330.4434121822676 L232.38303430223053,332.55822718016736 M225.04642177037275,300.110244188462 L215.9001641693279,302.12881961563096 M215.9001641693279,302.12881961563096 L214.86697229981635,271.05324590362795 M222.2825093670885,303.8219254938405 L215.9001641693279,302.12881961563096 M222.2825093670885,303.8219254938405 L223.27890194075007,334.6880025514177 M215.65706693159916,332.55822718016736 L223.27890194075007,334.6880025514177 M213.589602046856,270.7326510166105 L215.65706693159916,332.55822718016736 M170.75906185100192,342.9936315316863 L215.65706693159916,332.55822718016736 M168.2219723301702,280.1869761804588 L170.75906185100192,342.9936315316863 M170.75906185100192,342.9936315316863 L178.35189557151526,345.19800261183536 M175.87915574940274,282.18450228982385 L178.35189557151526,345.19800261183536 M493.2645663603338,271.5289011850556 L528.1408459125121,263.37011808724526 M493.5177785118166,243.63483885636074 L486.13779195176977,245.27245734113075 M232.38303430223053,332.55822718016736 L485.91504085215473,273.24821256984217 M231.43315643310933,301.7913975706532 L222.2825093670885,303.8219254938405 M178.35189557151526,345.19800261183536 L223.27890194075007,334.6880025514177 M528.1408459125121,263.37011808724526 L528.934260199489,208.12778690535401 M520.4676900065995,261.7127164115682 L528.1408459125121,263.37011808724526" stroke="black"  stroke-width="4"  fill="red"/>
<path d="M437.908956615441,598.189635769252 L429.22543508387264,595.0197134535194 M390.6735141294257,615.4962854955331 L381.99343250217646,612.1989012658228 M437.908956615441,598.189635769252 L390.6735141294257,615.4962854955331 M429.22543508387264,595.0197134535194 L381.99343250217646,612.1989012658228 M438.11787618476103,297.97221465642804 L429.0180754619432,295.79977900927395 M438.11787618476103,297.97221465642804 L437.908956615441,598.189635769252 M429.0180754619432,295.79977900927395 L429.22543508387264,595.0197134535194 M388.57058488525576,309.846397075655 L379.4747503784372,307.5822889861537 M390.6735141294257,615.4962854955331 L388.57058488525576,309.846397075655 M381.99343250217646,612.1989012658228 L379.4747503784372,307.5822889861537 M388.57058488525576,309.846397075655 L438.11787618476103,297.97221465642804 M409.21280245263773,375.6042873661653 L409.04511272954267,331.0197822382656 M418.2970450219396,328.7018716754656 L409.04511272954267,331.0197822382656 M418.40104643926196,373.13127715557096 L418.2970450219396,328.7018716754656 M409.21280245263773,375.6042873661653 L418.40104643926196,373.13127715557096 M379.4747503784372,307.5822889861537 L429.0180754619432,295.79977900927395 M399.9247054964133,317.49910835297 L400.26791514626825,384.14418217935037 M400.26791514626825,384.14418217935037 L409.4396647645765,381.65223511324405 M409.4396647645765,381.65223511324405 L409.1919668296074,315.2382262996368 M409.1919668296074,315.2382262996368 L399.9247054964133,317.49910835297 M400.26791514626825,384.14418217935037 L402.50807439727146,384.7701516466424 M402.50807439727146,384.7701516466424 L402.4551255465985,373.7477506589886 M402.4551255465985,373.7477506589886 L409.21280245263773,375.6042873661653 M409.04511272954267,331.0197822382656 L402.241512038578,329.2796703917827 M402.241512038578,329.2796703917827 L402.18764948365725,318.0670629223175 M402.18764948365725,318.0670629223175 L399.9247054964133,317.49910835297 M418.2970450219396,328.7018716754656 L411.49292348147964,326.9751459980765 M411.49292348147964,326.9751459980765 L402.241512038578,329.2796703917827 M409.4396647645765,381.65223511324405 L411.680025394862,382.2734390877519 M411.680025394862,382.2734390877519 L411.6428592647202,371.2889252447901 M411.6428592647202,371.2889252447901 L418.40104643926196,373.13127715557096 M411.49292348147964,326.9751459980765 L411.4551184802476,315.80181270290905 M411.4551184802476,315.80181270290905 L409.1919668296074,315.2382262996368 M411.6428592647202,371.2889252447901 L402.4551255465985,373.7477506589886 M411.4551184802476,315.80181270290905 L402.18764948365725,318.0670629223175 M411.680025394862,382.2734390877519 L402.50807439727146,384.7701516466424" stroke="black"  stroke-width="4"  fill="red"/>
<path d="M686.602205077497,507.0706218699313 L678.014119165056,504.53048378315293 M648.8448527156679,520.9045829281222 L640.229984758829,518.2733002171406 M686.602205077497,507.0706218699313 L648.8448527156679,520.9045829281222 M678.014119165056,504.53048378315293 L640.229984758829,518.2733002171406 M697.4252569977407,235.82828989951554 L688.4341902640692,234.10482907065943 M697.4252569977407,235.82828989951554 L686.602205077497,507.0706218699313 M688.4341902640692,234.10482907065943 L678.014119165056,504.53048378315293 M658.2241266715264,245.2229784954996 L649.2026649430532,243.43496259972628 M648.8448527156679,520.9045829281222 L658.2241266715264,245.2229784954996 M640.229984758829,518.2733002171406 L649.2026649430532,243.43496259972628 M658.2241266715264,245.2229784954996 L697.4252569977407,235.82828989951554 M672.0098713979887,304.87261809810934 L673.471077979312,264.7724602129299 M680.7976705027002,262.93691000973087 L673.471077979312,264.7724602129299 M679.2969818898171,302.9112967968624 L680.7976705027002,262.93691000973087 M672.0098713979887,304.87261809810934 L679.2969818898171,302.9112967968624 M649.2026649430532,243.43496259972628 L688.4341902640692,234.10482907065943 M664.8493505811166,252.86692047970058 L662.7467133138539,312.82918796023284 M662.7467133138539,312.82918796023284 L670.0295338745627,310.8504593550591 M670.0295338745627,310.8504593550591 L672.19154788775,251.07568555864137 M672.19154788775,251.07568555864137 L664.8493505811166,252.86692047970058 M662.7467133138539,312.82918796023284 L664.9661774389308,313.32597993019823 M664.9661774389308,313.32597993019823 L665.3176261895985,303.40037046163377 M665.3176261895985,303.40037046163377 L672.0098713979887,304.87261809810934 M673.471077979312,264.7724602129299 L666.7341611710008,263.3946142959055 M666.7341611710008,263.3946142959055 L667.091004308433,253.3166566506982 M667.091004308433,253.3166566506982 L664.8493505811166,252.86692047970058 M680.7976705027002,262.93691000973087 L674.0650090486322,261.568501830276 M674.0650090486322,261.568501830276 L666.7341611710008,263.3946142959055 M670.0295338745627,310.8504593550591 L672.2476420608982,311.3438799196816 M672.2476420608982,311.3438799196816 L672.6089149847335,301.44907248742527 M672.6089149847335,301.44907248742527 L679.2969818898171,302.9112967968624 M674.0650090486322,261.568501830276 L674.4318080626476,251.52234179288894 M674.4318080626476,251.52234179288894 L672.19154788775,251.07568555864137 M672.6089149847335,301.44907248742527 L665.3176261895985,303.40037046163377 M674.4318080626476,251.52234179288894 L667.091004308433,253.3166566506982 M672.2476420608982,311.3438799196816 L664.9661774389308,313.32597993019823" stroke="black"  stroke-width="4"  fill="red"/>
<path d="M226.19827301805995,520.9045829281222 L218.9902730102837,518.2733002171406 M179.40654202121794,535.240314180546 L172.22683593365178,532.5128917156724 M226.19827301805995,520.9045829281222 L179.40654202121794,535.240314180546 M218.9902730102837,518.2733002171406 L172.22683593365178,532.5128917156724 M217.16424841027003,245.2229784954996 L209.67468785086626,243.43496259972628 M217.16424841027003,245.2229784954996 L226.19827301805995,520.9045829281222 M209.67468785086626,243.43496259972628 L218.9902730102837,518.2733002171406 M168.1242376784695,254.973547571 L160.66686474896235,253.11728046725398 M179.40654202121794,535.240314180546 L168.1242376784695,254.973547571 M172.22683593365178,532.5128917156724 L160.66686474896235,253.11728046725398 M168.1242376784695,254.973547571 L217.16424841027003,245.2229784954996 M191.0467545302163,325.6813481650332 L200.12757678884685,323.61448029584017 M197.9459723552641,262.6322198935746 L200.12757678884685,323.61448029584017 M197.9459723552641,262.6322198935746 L188.77231141976395,264.50399768275213 M191.0467545302163,325.6813481650332 L188.77231141976395,264.50399768275213 M160.66686474896235,253.11728046725398 L209.67468785086626,243.43496259972628 M183.26378821698478,313.529310312436 L181.70674004793972,272.87495372286486 M190.85883282578683,270.98341401957765 L181.70674004793972,272.87495372286486 M192.35409934849338,311.5085351179311 L190.85883282578683,270.98341401957765 M183.26378821698478,313.529310312436 L192.35409934849338,311.5085351179311 M198.27212783876854,323.10000407861685 L200.12757678884685,323.61448029584017 M189.19274946739506,325.16328206727206 L191.0467545302163,325.6813481650332 M198.27212783876854,323.10000407861685 L189.19274946739506,325.16328206727206 M188.77231141976395,264.50399768275213 L186.90293158895477,264.0348199997254 M186.90293158895477,264.0348199997254 L187.287542967542,274.3023186895042 M187.287542967542,274.3023186895042 L181.70674004793972,272.87495372286486 M183.26378821698478,313.529310312436 L188.81406996185567,315.05413932361853 M188.81406996185567,315.05413932361853 L189.19274946739506,325.16328206727206 M197.9459723552641,262.6322198935746 L196.07510772000876,262.1663236419935 M196.07510772000876,262.1663236419935 L186.90293158895477,264.0348199997254 M196.07510772000876,262.1663236419935 L196.44412225601977,272.40082883462526 M196.44412225601977,272.40082883462526 L190.85883282578683,270.98341401957765 M192.35409934849338,311.5085351179311 L197.9087849402679,313.02280001611916 M197.9087849402679,313.02280001611916 L198.27212783876854,323.10000407861685 M196.44412225601977,272.40082883462526 L187.287542967542,274.3023186895042 M197.9087849402679,313.02280001611916 L188.81406996185567,315.05413932361853" stroke="black"  stroke-width="4"  fill="red"/>
<path d="M475.32276688960457,444.5795204340758 L468.05920861572844,442.43114404321096 M437.19753022206646,456.2600702910102 L429.93209554321766,454.04095181420956 M475.32276688960457,444.5795204340758 L437.19753022206646,456.2600702910102 M468.05920861572844,442.43114404321096 L429.93209554321766,454.04095181420956 M476.95969590870857,193.56814770462012 L469.4072142461086,192.12044336744754 M476.95969590870857,193.56814770462012 L475.32276688960457,444.5795204340758 M469.4072142461086,192.12044336744754 L468.05920861572844,442.43114404321096 M437.34255861855337,201.44517766356245 L429.78797015358924,199.94788989934696 M437.19753022206646,456.2600702910102 L437.34255861855337,201.44517766356245 M429.93209554321766,454.04095181420956 L429.78797015358924,199.94788989934696 M437.34255861855337,201.44517766356245 L476.95969590870857,193.56814770462012 M453.3942715695227,265.9689522951804 L460.74717561154233,264.29537245000006 M460.9756455647301,208.9641037870735 L460.74717561154233,264.29537245000006 M460.9756455647301,208.9641037870735 L453.56147932831993,210.47687734434328 M453.3942715695227,265.9689522951804 L453.56147932831993,210.47687734434328 M429.78797015358924,199.94788989934696 L469.4072142461086,192.12044336744754 M445.9345866241698,255.13761985618692 L446.00381927834457,218.25046171189342 M453.40809872758894,216.72015723482554 L446.00381927834457,218.25046171189342 M453.2980184507103,253.50072974690067 L453.40809872758894,216.72015723482554 M445.9345866241698,255.13761985618692 L453.2980184507103,253.50072974690067 M458.8736765965049,263.87861056817906 L460.74717561154233,264.29537245000006 M451.520662067392,265.5495744169832 L453.3942715695227,265.9689522951804 M458.8736765965049,263.87861056817906 L451.520662067392,265.5495744169832 M453.56147932831993,210.47687734434328 L451.6719558679516,210.09778799806244 M451.6719558679516,210.09778799806244 L451.6465635084509,219.404525554373 M451.6465635084509,219.404525554373 L446.00381927834457,218.25046171189342 M445.9345866241698,255.13761985618692 L451.5457019481438,256.3720263993536 M451.5457019481438,256.3720263993536 L451.520662067392,265.5495744169832 M460.9756455647301,208.9641037870735 L459.08623540344735,208.58739895740968 M459.08623540344735,208.58739895740968 L451.6719558679516,210.09778799806244 M459.08623540344735,208.58739895740968 L459.0505614268055,217.8669833692676 M459.0505614268055,217.8669833692676 L453.40809872758894,216.72015723482554 M453.2980184507103,253.50072974690067 L458.90885691440906,254.72743763041618 M458.90885691440906,254.72743763041618 L458.8736765965049,263.87861056817906 M459.0505614268055,217.8669833692676 L451.6465635084509,219.404525554373 M458.90885691440906,254.72743763041618 L451.5457019481438,256.3720263993536" stroke="black"  stroke-width="4"  fill="red"/>
<path d="M197.9087849402679,313.02280001611916 L188.81406996185567,315.05413932361853 M198.27212783876854,323.10000407861685 L189.19274946739506,325.16328206727206 M197.9087849402679,313.02280001611916 L198.27212783876854,323.10000407861685 M188.81406996185567,315.05413932361853 L189.19274946739506,325.16328206727206 M200.13877747602174,313.6307191079061 L191.04232282249612,315.6663072751454 M200.13877747602174,313.6307191079061 L197.9087849402679,313.02280001611916 M191.04232282249612,315.6663072751454 L188.81406996185567,315.05413932361853 M411.680025394862,382.2734390877519 L402.50807439727146,384.7701516466424 M198.27212783876854,323.10000407861685 L411.680025394862,382.2734390877519 M189.19274946739506,325.16328206727206 L402.50807439727146,384.7701516466424 M198.6864518215715,272.96987922782927 L200.13877747602174,313.6307191079061 M196.44412225601977,272.40082883462526 L198.6864518215715,272.96987922782927 M196.07510772000876,262.1663236419935 L196.44412225601977,272.40082883462526 M224.06015690840067,269.13536312859696 L196.07510772000876,262.1663236419935 M224.06015690840067,269.13536312859696 L225.04642177037275,300.110244188462 M225.04642177037275,300.110244188462 L232.71502939809827,302.12881961563096 M232.71502939809827,302.12881961563096 L231.76165492688477,271.05324590362795 M369.6732938876316,305.39700035299694 L231.76165492688477,271.05324590362795 M369.6732938876316,305.39700035299694 L369.9941944681769,338.2642385502065 M369.9941944681769,338.2642385502065 L378.72646055953015,340.562796334253 M378.72646055953015,340.562796334253 L378.44859168835535,307.5822885212706 M411.4551184802476,315.80181270290905 L378.44859168835535,307.5822885212706 M411.49292348147964,326.9751459980765 L411.4551184802476,315.80181270290905 M408.7822547415398,326.2872421609217 L411.49292348147964,326.9751459980765 M408.95041609803087,370.55493731508244 L408.7822547415398,326.2872421609217 M411.6428592647202,371.2889252447901 L408.95041609803087,370.55493731508244 M411.680025394862,382.2734390877519 L411.6428592647202,371.2889252447901 M189.52810014234254,274.87537114506216 L191.04232282249612,315.6663072751454 M187.287542967542,274.3023186895042 L189.52810014234254,274.87537114506216 M186.90293158895477,264.0348199997254 L187.287542967542,274.3023186895042 M214.86697229981635,271.05324590362795 L186.90293158895477,264.0348199997254 M215.9001641693279,302.12881961563096 L214.86697229981635,271.05324590362795 M223.56351741152594,304.16175077480966 L215.9001641693279,302.12881961563096 M222.5631407512813,272.9848332796819 L223.56351741152594,304.16175077480966 M360.4123764794856,307.5822885212706 L222.5631407512813,272.9848332796819 M360.7811842508003,340.562796334253 L360.4123764794856,307.5822885212706 M369.51162550152486,342.87880415629184 L360.7811842508003,340.562796334253 M369.18582155597727,309.7842512071351 L369.51162550152486,342.87880415629184 M402.18764948365725,318.0670629223175 L369.18582155597727,309.7842512071351 M402.241512038578,329.2796703917827 L402.18764948365725,318.0670629223175 M399.5310931794869,328.5864445280281 L402.241512038578,329.2796703917827 M399.7629271944022,373.0081229535879 L399.5310931794869,328.5864445280281 M402.4551255465985,373.7477506589886 L399.7629271944022,373.0081229535879 M402.50807439727146,384.7701516466424 L402.4551255465985,373.7477506589886 M198.6864518215715,272.96987922782927 L189.52810014234254,274.87537114506216 M411.6428592647202,371.2889252447901 L402.4551255465985,373.7477506589886 M196.44412225601977,272.40082883462526 L187.287542967542,274.3023186895042 M196.07510772000876,262.1663236419935 L186.90293158895477,264.0348199997254 M224.06015690840067,269.13536312859696 L214.86697229981635,271.05324590362795 M225.04642177037275,300.110244188462 L215.9001641693279,302.12881961563096 M232.71502939809827,302.12881961563096 L223.56351741152594,304.16175077480966 M222.5631407512813,272.9848332796819 L231.76165492688477,271.05324590362795 M369.6732938876316,305.39700035299694 L360.4123764794856,307.5822885212706 M369.9941944681769,338.2642385502065 L360.7811842508003,340.562796334253 M378.72646055953015,340.562796334253 L369.51162550152486,342.87880415629184 M369.18582155597727,309.7842512071351 L378.44859168835535,307.5822885212706 M411.4551184802476,315.80181270290905 L402.18764948365725,318.0670629223175 M411.49292348147964,326.9751459980765 L402.241512038578,329.2796703917827 M408.7822547415398,326.2872421609217 L399.5310931794869,328.5864445280281 M408.95041609803087,370.55493731508244 L399.7629271944022,373.0081229535879" stroke="black"  stroke-width="4"  fill="red"/>
<path d="M408.95041609803087,370.55493731508244 L399.7629271944022,373.0081229535879 M418.8529786853423,373.25447857269756 L409.6647058938433,375.7284388073134 M408.95041609803087,370.55493731508244 L418.8529786853423,373.25447857269756 M399.7629271944022,373.0081229535879 L409.6647058938433,375.7284388073134 M418.7520585297176,328.8173433793097 L409.5000968341587,331.136150506535 M418.8529786853423,373.25447857269756 L418.7520585297176,328.8173433793097 M409.6647058938433,375.7284388073134 L409.5000968341587,331.136150506535 M408.7822547415398,326.2872421609217 L399.5310931794869,328.5864445280281 M418.7520585297176,328.8173433793097 L408.7822547415398,326.2872421609217 M409.5000968341587,331.136150506535 L399.5310931794869,328.5864445280281 M408.7822547415398,326.2872421609217 L408.95041609803087,370.55493731508244 M399.5310931794869,328.5864445280281 L399.7629271944022,373.0081229535879" stroke="black"  stroke-width="4"  fill="red"/>
<path d="M191.9848097069536,311.4078629318625 L182.89479492068892,313.42793677700365 M200.13877747602174,313.6307191079061 L191.04232282249612,315.6663072751454 M191.9848097069536,311.4078629318625 L200.13877747602174,313.6307191079061 M182.89479492068892,313.42793677700365 L191.04232282249612,315.6663072751454 M198.6864518215715,272.96987922782927 L189.52810014234254,274.87537114506216 M200.13877747602174,313.6307191079061 L198.6864518215715,272.96987922782927 M191.04232282249612,315.6663072751454 L189.52810014234254,274.87537114506216 M190.48751496050173,270.8891822971357 L181.33572408273326,272.780061428973 M198.6864518215715,272.96987922782927 L190.48751496050173,270.8891822971357 M189.52810014234254,274.87537114506216 L181.33572408273326,272.780061428973 M190.48751496050173,270.8891822971357 L191.9848097069536,311.4078629318625 M181.33572408273326,272.780061428973 L182.89479492068892,313.42793677700365" stroke="black"  stroke-width="4"  fill="red"/>
<path d="M458.90885691440906,254.72743763041618 L451.5457019481438,256.3720263993536 M458.8736765965049,263.87861056817906 L451.520662067392,265.5495744169832 M458.90885691440906,254.72743763041618 L458.8736765965049,263.87861056817906 M451.5457019481438,256.3720263993536 L451.520662067392,265.5495744169832 M461.1605717429199,255.21973416495996 L453.7975510430525,256.867417617763 M461.1605717429199,255.21973416495996 L458.90885691440906,254.72743763041618 M453.7975510430525,256.867417617763 L451.5457019481438,256.3720263993536 M672.2476420608982,311.3438799196816 L664.9661774389308,313.32597993019823 M458.8736765965049,263.87861056817906 L672.2476420608982,311.3438799196816 M451.520662067392,265.5495744169832 L664.9661774389308,313.32597993019823 M461.3150090435137,218.32723057786268 L461.1605717429199,255.21973416495996 M459.0505614268055,217.8669833692676 L461.3150090435137,218.32723057786268 M459.08623540344735,208.58739895740968 L459.0505614268055,217.8669833692676 M487.31391338169215,214.21534721475436 L459.08623540344735,208.58739895740968 M487.31391338169215,214.21534721475436 L487.08654082376916,242.27809378049557 M487.08654082376916,242.27809378049557 L494.8081194821865,243.9070514292206 M494.8081194821865,243.9070514292206 L495.0691231825053,215.76155726849908 M632.9960997347853,243.2610167680191 L495.0691231825053,215.76155726849908 M632.9960997347853,243.2610167680191 L632.10209817299,272.8708276990489 M632.10209817299,272.8708276990489 L640.7759229221938,274.70067283745374 M640.7759229221938,274.70067283745374 L641.7121428239611,244.9987948294125 M674.4318080626476,251.52234179288894 L641.7121428239611,244.9987948294125 M674.0650090486322,261.568501830276 L674.4318080626476,251.52234179288894 M671.3816185471419,261.02310480772223 L674.0650090486322,261.568501830276 M669.9432400755743,300.8662711027282 L671.3816185471419,261.02310480772223 M672.6089149847335,301.44907248742527 L669.9432400755743,300.8662711027282 M672.2476420608982,311.3438799196816 L672.6089149847335,301.44907248742527 M453.91114766031177,219.86768223511893 L453.7975510430525,256.867417617763 M451.6465635084509,219.404525554373 L453.91114766031177,219.86768223511893 M451.6719558679516,210.09778799806244 L451.6465635084509,219.404525554373 M479.90230582528466,215.76155726849908 L451.6719558679516,210.09778799806244 M479.7056592000752,243.9070514292206 L479.90230582528466,215.76155726849908 M487.4283255751704,245.5464103683667 L479.7056592000752,243.9070514292206 M487.6586173076802,217.31768245618974 L487.4283255751704,245.5464103683667 M625.6316617929622,244.9987948294125 L487.6586173076802,217.31768245618974 M624.7677678927816,274.70067283745374 L625.6316617929622,244.9987948294125 M633.4461264705722,276.54290504335313 L624.7677678927816,274.70067283745374 M634.3523004417591,246.74839004421816 L633.4461264705722,276.54290504335313 M667.091004308433,253.3166566506982 L634.3523004417591,246.74839004421816 M666.7341611710008,263.3946142959055 L667.091004308433,253.3166566506982 M664.0491079048386,262.8454625422114 L666.7341611710008,263.3946142959055 M662.6503185693866,302.81358124257065 L664.0491079048386,262.8454625422114 M665.3176261895985,303.40037046163377 L662.6503185693866,302.81358124257065 M664.9661774389308,313.32597993019823 L665.3176261895985,303.40037046163377 M461.3150090435137,218.32723057786268 L453.91114766031177,219.86768223511893 M672.6089149847335,301.44907248742527 L665.3176261895985,303.40037046163377 M459.0505614268055,217.8669833692676 L451.6465635084509,219.404525554373 M459.08623540344735,208.58739895740968 L451.6719558679516,210.09778799806244 M487.31391338169215,214.21534721475436 L479.90230582528466,215.76155726849908 M487.08654082376916,242.27809378049557 L479.7056592000752,243.9070514292206 M494.8081194821865,243.9070514292206 L487.4283255751704,245.5464103683667 M487.6586173076802,217.31768245618974 L495.0691231825053,215.76155726849908 M632.9960997347853,243.2610167680191 L625.6316617929622,244.9987948294125 M632.10209817299,272.8708276990489 L624.7677678927816,274.70067283745374 M640.7759229221938,274.70067283745374 L633.4461264705722,276.54290504335313 M634.3523004417591,246.74839004421816 L641.7121428239611,244.9987948294125 M674.4318080626476,251.52234179288894 L667.091004308433,253.3166566506982 M674.0650090486322,261.568501830276 L666.7341611710008,263.3946142959055 M671.3816185471419,261.02310480772223 L664.0491079048386,262.8454625422114 M669.9432400755743,300.8662711027282 L662.6503185693866,302.81358124257065" stroke="black"  stroke-width="4"  fill="red"/>
<path d="M669.9432400755743,300.8662711027282 L662.6503185693866,302.81358124257065 M679.7440756309693,303.00904571986035 L672.457248632923,304.97103799400907 M669.9432400755743,300.8662711027282 L679.7440756309693,303.00904571986035 M662.6503185693866,302.81358124257065 L672.457248632923,304.97103799400907 M681.2477528554391,263.02838889621853 L673.921449060864,264.86457088811255 M679.7440756309693,303.00904571986035 L681.2477528554391,263.02838889621853 M672.457248632923,304.97103799400907 L673.921449060864,264.86457088811255 M671.3816185471419,261.02310480772223 L664.0491079048386,262.8454625422114 M681.2477528554391,263.02838889621853 L671.3816185471419,261.02310480772223 M673.921449060864,264.86457088811255 L664.0491079048386,262.8454625422114 M671.3816185471419,261.02310480772223 L669.9432400755743,300.8662711027282 M664.0491079048386,262.8454625422114 L662.6503185693866,302.81358124257065" stroke="black"  stroke-width="4"  fill="red"/>
<path d="M452.9248921315886,253.41915245677285 L445.5614448141329,255.05553124006627 M461.1605717429199,255.21973416495996 L453.7975510430525,256.867417617763 M452.9248921315886,253.41915245677285 L461.1605717429199,255.21973416495996 M445.5614448141329,255.05553124006627 L453.7975510430525,256.867417617763 M461.3150090435137,218.32723057786268 L453.91114766031177,219.86768223511893 M461.1605717429199,255.21973416495996 L461.3150090435137,218.32723057786268 M453.7975510430525,256.867417617763 L453.91114766031177,219.86768223511893 M453.0328745993246,216.64389322396616 L445.62857939818514,218.1737170004039 M461.3150090435137,218.32723057786268 L453.0328745993246,216.64389322396616 M453.91114766031177,219.86768223511893 L445.62857939818514,218.1737170004039 M453.0328745993246,216.64389322396616 L452.9248921315886,253.41915245677285 M445.62857939818514,218.1737170004039 L445.5614448141329,255.05553124006627" stroke="black"  stroke-width="4"  fill="red"/></svg>