<svg viewBox="0 0 800 800" xmlns="http://www.w3.org/2000/svg"><path d="M-607.4557958384411,-134.06918673268547 L-610.1871127400395,-196.32714551912227 M224.2485882306089,8.582030708322009 L310.26104187034514,-15.344479189782021 M310.26104187034514,-15.344479189782021 L373.66052243188665,-42.02039434006673 M373.66052243188665,-42.02039434006673 L412.6216226345394,-70.24255991818956 M412.6216226345394,-70.24255991818956 L426.51595762963024,-98.82484567782234 M426.51595762963024,-98.82484567782234 L415.78663078172445,-126.65482238550885 M415.78663078172445,-126.65482238550885 L381.77783256492773,-152.73311146832293 M381.77783256492773,-152.73311146832293 L326.5506478107063,-176.19643027907568 M326.5506478107063,-176.19643027907568 L252.7081960399768,-196.32714551912227 M252.7081960399768,-196.32714551912227 L163.24416013223032,-212.5531695623447 M163.24416013223032,-212.5531695623447 L61.422204135443394,-224.44214786272596 M61.422204135443394,-224.44214786272596 L-49.31394912877386,-231.69330644421757 M-49.31394912877386,-231.69330644421757 L-165.4035428907182,-234.1297999757669 M-165.4035428907182,-234.1297999757669 L-283.21219542028734,-231.69331089175625 M-283.21219542028734,-231.69331089175625 L-399.06444791327465,-224.44214338258166 M-399.06444791327465,-224.44214338258166 L-509.27471659228615,-212.55317749660298 M-509.27471659228615,-212.55317749660298 L-610.1871127400395,-196.32714551912227 M225.06074723678864,76.6084690659439 L224.2485882306089,8.582030708322009 M-607.4557958384411,-134.06918673268547 L-506.804512085523,-150.75637436798297 M-506.804512085523,-150.75637436798297 L-396.8685701485989,-162.9836405544595 M-396.8685701485989,-162.9836405544595 L-281.2962892946342,-170.44130898982667 M-281.2962892946342,-170.44130898982667 L-163.7662257492609,-172.94721390001246 M-163.7662257492609,-172.94721390001246 L-47.947163699759415,-170.4413044155899 M-47.947163699759415,-170.4413044155899 L62.53305550335699,-162.9836451621511 M62.53305550335699,-162.9836451621511 L164.12028590182587,-150.75636620807018 M164.12028590182587,-150.75636620807018 L253.37763645703393,-134.0691867326857 M253.37763645703393,-134.0691867326857 L327.0485507924824,-113.36723348845385 M327.0485507924824,-113.36723348845385 L382.14664625988917,-89.23935523238691 M382.14664625988917,-89.23935523238691 L416.0760367343962,-62.424015672866915 M416.0760367343962,-62.424015672866915 L426.7823397290751,-33.80930775850817 M426.7823397290751,-33.80930775850817 L412.92686635858985,-4.423041252604719 M412.92686635858985,-4.423041252604719 L374.0699756116166,24.5910232666987 M374.0699756116166,24.5910232666987 L310.84056091536,52.01366733303763 M310.84056091536,52.01366733303763 L225.06074723678864,76.6084690659439 M1533.5435194828538,-233.42693938981165 L1535.8255594119391,-292.9299166896851 M225.06074723678864,76.6084690659439 L1533.5435194828538,-233.42693938981165 M224.2485882306089,8.582030708322009 L1535.8255594119391,-292.9299166896851 M699.6146190645032,-447.9432732937412 L634.0740089945879,-432.54063611332094 M634.0740089945879,-432.54063611332094 L584.8090322570991,-414.6363879375681 M584.8090322570991,-414.6363879375681 L554.0765718483988,-394.7974236121074 M554.0765718483988,-394.7974236121074 L543.6294900750579,-373.6960238443926 M543.6294900750579,-373.6960238443926 L554.574491690416,-352.099220241264 M554.574491690416,-352.099220241264 L587.2283004440438,-330.84872305358 M587.2283004440438,-330.84872305358 L640.9904482776994,-310.82994012833797 M640.9904482776994,-310.82994012833797 L714.2547694104411,-292.9299166896851 M714.2547694104411,-292.9299166896851 L804.3844911066925,-277.986165829059 M804.3844911066925,-277.986165829059 L907.7701319860862,-266.73047360944224 M907.7701319860862,-266.73047360944224 L1019.981216613037,-259.7338954594211 M1019.981216613037,-259.7338954594211 L1136.0075360946225,-257.3600625812576 M1136.0075360946225,-257.3600625812576 L1250.5700142585742,-259.7338911368497 M1250.5700142585742,-259.7338911368497 L1358.4665388776148,-266.73047790111013 M1358.4665388776148,-266.73047790111013 L1454.9111594103247,-277.98615840523576 M1454.9111594103247,-277.98615840523576 L1535.8255594119391,-292.9299166896851 M699.265778879387,-392.90860408893286 L699.6146190645032,-447.9432732937412 M1533.5435194828538,-233.42693938981165 L1452.796938547323,-218.0555182555745 M1452.796938547323,-218.0555182555745 L1356.5624796677498,-206.47808024872666 M1356.5624796677498,-206.47808024872666 L1248.9088596153997,-199.2816430379837 M1248.9088596153997,-199.2816430379837 L1134.609849783767,-196.84003556729385 M1134.609849783767,-196.84003556729385 L1018.8537712048992,-199.28164748398876 M1018.8537712048992,-199.28164748398876 L906.9055049612875,-206.478075834435 M906.9055049612875,-206.478075834435 L803.7619125270792,-218.05552589171862 M803.7619125270792,-218.05552589171862 L713.8420600615653,-233.4269393898112 M713.8420600615653,-233.4269393898112 L640.746725883803,-251.8399449920314 M640.746725883803,-251.8399449920314 L587.1070525900018,-272.43335499815885 M587.1070525900018,-272.43335499815885 L554.5266231036419,-294.2949037671692 M554.5266231036419,-294.2949037671692 L543.6060339889627,-316.5138448134412 M543.6060339889627,-316.5138448134412 L554.0308719116333,-338.2242092658421 M554.0308719116333,-338.2242092658421 L584.698325604465,-358.6366958438948 M584.698325604465,-358.6366958438948 L633.860439851145,-377.05935966270704 M633.860439851145,-377.05935966270704 L699.265778879387,-392.90860408893286 M699.265778879387,-392.90860408893286 L-607.4557958384411,-134.06918673268547 M699.6146190645032,-447.9432732937412 L-610.1871127400395,-196.32714551912227" stroke="black"  stroke-width="4"  fill="red"/>
<path d="M1452.9452588284594,-392.90860408893286 L1454.8741398520433,-447.9432732937412 M1452.9452588284594,-392.90860408893286 L1363.3264253110901,-406.0707754908908 M1363.3264253110901,-406.0707754908908 L1264.5640311039642,-415.59395586354435 M1264.5640311039642,-415.59395586354435 L1160.220711681356,-421.20492275477704 M1160.220711681356,-421.20492275477704 L1053.9226056380312,-422.7475071073561 M1053.9226056380312,-422.7475071073561 L949.3045127747624,-420.1794506748993 M949.3045127747624,-420.1794506748993 L849.9615081870437,-413.5712979033242 M849.9615081870437,-413.5712979033242 L759.3991507821949,-403.1080738089256 M759.3991507821949,-403.1080738089256 L680.9725884926502,-389.0930128004304 M680.9725884926502,-389.0930128004304 L617.8063154914315,-371.9522030606638 M617.8063154914315,-371.9522030606638 L572.6891952082922,-352.2382240477723 M572.6891952082922,-352.2382240477723 L547.9425158030127,-330.63019955499067 M547.9425158030127,-330.63019955499067 L545.2650982505104,-307.92721236103716 M545.2650982505104,-307.92721236103716 L565.5648995202748,-285.0317815844437 M565.5648995202748,-285.0317815844437 L608.7958525453897,-262.92088609398365 M608.7958525453897,-262.92088609398365 L673.8246859030946,-242.6031125352756 M673.8246859030946,-242.6031125352756 L758.3572793733773,-225.06278566278434 M758.3572793733773,-225.06278566278434 L858.9529340404077,-211.19481679195746 M858.9529340404077,-211.19481679195746 L971.1465441606184,-201.7368248819189 M971.1465441606184,-201.7368248819189 L1089.6831195409954,-197.20727948727426 M1089.6831195409954,-197.20727948727426 L1208.8491567688343,-197.85894437839852 M1208.8491567688343,-197.85894437839852 L1322.8650233889703,-203.65528141433128 M1322.8650233889703,-203.65528141433128 L1426.2890127853557,-214.27387583663972 M1426.2890127853557,-214.27387583663972 L1514.3810965341818,-229.13637231022858 M1514.3810965341818,-229.13637231022858 L1583.3819268370185,-247.45962127076723 M1583.3819268370185,-247.45962127076723 L1630.681600320882,-268.31995969934997 M1630.681600320882,-268.31995969934997 L1654.8732323836653,-290.7211602329569 M1654.8732323836653,-290.7211602329569 L1655.7051466333378,-313.65779021297567 M1655.7051466333378,-313.65779021297567 L1633.9580389899934,-336.16801323327695 M1633.9580389899934,-336.16801323327695 L1591.2777537358506,-357.37294055019333 M1591.2777537358506,-357.37294055019333 L1529.9940196627194,-376.50241566448244 M1529.9940196627194,-376.50241566448244 L1452.9452588284594,-392.90860408893286 M1454.8741398520433,-447.9432732937412 L1532.103306128426,-431.9993757118152 M1532.103306128426,-431.9993757118152 L1593.5400427998902,-413.408167003513 M1593.5400427998902,-413.408167003513 L1636.3385003433978,-392.7989480667645 M1636.3385003433978,-392.7989480667645 L1658.1617940651863,-370.92000158807514 M1658.1617940651863,-370.92000158807514 L1657.357762452637,-348.6254394835919 M1657.357762452637,-348.6254394835919 L1633.1409466261553,-326.8501815468694 M1633.1409466261553,-326.8501815468694 L1585.760606581654,-306.57172005438133 M1585.760606581654,-306.57172005438133 L1516.6242978454156,-288.7587747699022 M1516.6242978454156,-288.7587747699022 L1428.3462121831144,-274.30964753666103 M1428.3462121831144,-274.30964753666103 L1324.6937615685474,-263.986084127464 M1324.6937615685474,-263.986084127464 L1210.4184863923879,-258.35068815223076 M1210.4184863923879,-258.35068815223076 L1090.9762167572812,-257.7171126793751 M1090.9762167572812,-257.7171126793751 L972.1620704100919,-262.1209037788399 M972.1620704100919,-262.1209037788399 L859.7049377856748,-271.31616421913736 M859.7049377856748,-271.31616421913736 L758.8736829238144,-284.7985356221395 M758.8736829238144,-284.7985356221395 L674.1446424877576,-301.8505386296615 M674.1446424877576,-301.8505386296615 L608.966418869996,-321.6018028106082 M608.966418869996,-321.6018028106082 L565.6375149519006,-343.09514198958163 M565.6375149519006,-343.09514198958163 L545.2923015747026,-365.34995087298057 M545.2923015747026,-365.34995087298057 L547.9751997837188,-387.4165420017009 M547.9751997837188,-387.4165420017009 L572.7745445706241,-408.4177920479872 M572.7745445706241,-408.4177920479872 L617.9864351553988,-427.5772715269711 M617.9864351553988,-427.5772715269711 L681.2837302698099,-444.2352508617896 M681.2837302698099,-444.2352508617896 L759.8713906102278,-457.8550403833267 M759.8713906102278,-457.8550403833267 L850.6187119324738,-468.0228800384318 M850.6187119324738,-468.0228800384318 L950.1644388435666,-474.44435361040905 M950.1644388435666,-474.44435361040905 L1054.9970207653028,-476.9398365142383 M1054.9970207653028,-476.9398365142383 L1161.5154306765526,-475.4408475179778 M1161.5154306765526,-475.4408475179778 L1266.0788295015054,-469.98840863119017 M1266.0788295015054,-469.98840863119017 L1365.0548131178366,-460.7341277044577 M1365.0548131178366,-460.7341277044577 L1454.8741398520433,-447.9432732937412" stroke="black"  stroke-width="4"  fill="red"/>
<path d="M253.37763645703458,-134.06918673268547 L252.7081960399761,-196.3271455191225 M253.37763645703458,-134.06918673268547 L161.0176728751192,-151.22242039262778 M161.0176728751192,-151.22242039262778 L55.63609594826124,-163.61130855364763 M55.63609594826124,-163.61130855364763 L-58.97964407241625,-170.90210051055465 M-58.97964407241625,-170.90210051055465 L-178.91252967361402,-172.9054111987018 M-178.91252967361402,-172.9054111987018 L-300.1657541716843,-169.57011284882742 M-300.1657541716843,-169.57011284882742 L-418.7003405161631,-160.98153474379887 M-418.7003405161631,-160.98153474379887 L-530.472813774994,-147.36444200040023 M-530.472813774994,-147.36444200040023 L-631.4849342981147,-129.09003554879632 M-631.4849342981147,-129.09003554879632 L-717.8573949679826,-106.6854383190701 M-717.8573949679826,-106.6854383190701 L-785.9367277136735,-80.84307666092724 M-785.9367277136735,-80.84307666092724 L-832.443241927725,-52.42605236925698 M-832.443241927725,-52.42605236925698 L-854.659550983567,-22.464993567514796 M-854.659550983567,-22.464993567514796 L-850.6514824264814,7.858529491955835 M-850.6514824264814,7.858529491955835 L-819.5043467557443,37.246956114434454 M-819.5043467557443,37.246956114434454 L-761.5426442868318,64.3426277339995 M-761.5426442868318,64.3426277339995 L-678.4936857171647,87.8043866503437 M-678.4936857171647,87.8043866503437 L-573.5525844131225,106.40019065224095 M-573.5525844131225,106.40019065224095 L-451.3116013143439,119.10604302370433 M-451.3116013143439,119.10604302370433 L-317.5357472237931,125.19777193607939 M-317.5357472237931,125.19777193607939 L-178.7945052758738,124.32107448583514 M-178.7945052758738,124.32107448583514 L-41.98888375870297,116.52725948130814 M-41.98888375870297,116.52725948130814 L86.16333362407079,102.2679041006541 M86.16333362407079,102.2679041006541 L199.61001407703333,82.34978920969854 M199.61001407703333,82.34978920969854 L293.3522344659291,57.85811009433485 M293.3522344659291,57.85811009433485 L363.69490545003487,30.06138886079117 M363.69490545003487,30.06138886079117 L408.34788893306046,0.3130915702569155 M408.34788893306046,0.3130915702569155 L426.3936557305617,-30.03771785496309 M426.3936557305617,-30.03771785496309 L418.15449563121706,-59.71807996608305 M418.15449563121706,-59.71807996608305 L384.9995801246955,-87.58168802597316 M384.9995801246955,-87.58168802597316 L329.13092922509975,-112.63882316974104 M329.13092922509975,-112.63882316974104 L253.37763645703458,-134.06918673268547 M252.7081960399761,-196.3271455191225 L328.6378923919557,-175.4881018182191 M328.6378923919557,-175.4881018182191 L384.6374644348755,-151.12105387184306 M384.6374644348755,-151.12105387184306 L417.86988150675836,-124.02317294387808 M417.86988150675836,-124.02317294387808 L426.12583386596793,-95.15655119191393 M426.12583386596793,-95.15655119191393 L408.0303109104121,-65.63582217016364 M408.0303109104121,-65.63582217016364 L363.2576318749416,-36.69912344241067 M363.2576318749416,-36.69912344241067 L292.72545193874504,-9.658964899482442 M292.72545193874504,-9.658964899482442 L198.72849245455,14.167542479077667 M198.72849245455,14.167542479077667 L84.971449293347,33.545690971304396 M84.971449293347,33.545690971304396 L-43.532169210778534,47.41903133277577 M-43.532169210778534,47.41903133277577 L-180.7114722949973,55.002052644737375 M-180.7114722949973,55.002052644737375 L-319.82729487643223,55.85504721297713 M-319.82729487643223,55.85504721297713 L-453.95670229036443,49.928053300604404 M-453.95670229036443,49.928053300604404 L-576.5099813938172,37.56606547951128 M-576.5099813938172,37.56606547951128 L-681.7055605616176,19.474181100864087 M-681.7055605616176,19.474181100864087 L-764.9396377820885,-3.3506917410171013 M-764.9396377820885,-3.3506917410171013 L-823.0111247318914,-29.709296753547562 M-823.0111247318914,-29.709296753547562 L-854.1920631969383,-58.296428023491615 M-854.1920631969383,-58.296428023491615 L-858.1617940651863,-87.7911306409506 M-858.1617940651863,-87.7911306409506 L-835.8421672489053,-116.93125227292944 M-835.8421672489053,-116.93125227292944 L-789.1765976459874,-144.56778753117715 M-789.1765976459874,-144.56778753117715 L-720.8926935214149,-169.6988038404486 M-720.8926935214149,-169.6988038404486 L-634.2804999957534,-191.48547390801878 M-634.2804999957534,-191.48547390801878 L-533.0034171461738,-209.25503275154938 M-533.0034171461738,-209.25503275154938 L-420.9499806937688,-222.49545415729608 M-420.9499806937688,-222.49545415729608 L-302.12690209285574,-230.8462443747096 M-302.12690209285574,-230.8462443747096 L-180.58547985893267,-234.08915536234326 M-180.58547985893267,-234.08915536234326 L-60.37207643683024,-232.14133912712805 M-60.37207643683024,-232.14133912712805 L54.509301001762765,-225.05243621698492 M54.509301001762765,-225.05243621698492 L160.13437556747067,-213.00633523976262 M160.13437556747067,-213.00633523976262 L252.7081960399761,-196.3271455191225" stroke="black"  stroke-width="4"  fill="red"/>
<path d="M62.67976649719736,38.580173509679355 L97.31264702874995,47.35635304492308 M-145.08191647506465,86.19044821887991 L-110.5407789817877,95.34237353761137 M62.67976649719736,38.580173509679355 L-145.08191647506465,86.19044821887991 M97.31264702874995,47.35635304492308 L-110.5407789817877,95.34237353761137 M67.49707358311974,303.11855638682516 L101.79233535815217,312.8247625495702 M-145.08191647506465,86.19044821887991 L-138.18801682547792,145.4208082995474 M-138.18801682547792,145.4208082995474 L-121.12286167339835,198.82379202530245 M-121.12286167339835,198.82379202530245 L-94.89080065377561,243.6730972226125 M-94.89080065377561,243.6730972226125 L-60.965761937249226,277.7672093195114 M-60.965761937249226,277.7672093195114 L-21.184376819463296,299.52815735346485 M-21.184376819463296,299.52815735346485 L22.371830733708293,308.0525950529451 M22.371830733708293,308.0525950529451 L67.49707358311974,303.11855638682516 M-110.5407789817877,95.34237353761137 L-103.71918425561114,154.78136423131684 M-103.71918425561114,154.78136423131684 L-86.71711659051238,208.36000532035337 M-86.71711659051238,208.36000532035337 L-60.536316122743585,253.34298931496758 M-60.536316122743585,253.34298931496758 L-26.648841943078025,287.52264352753025 M-26.648841943078025,287.52264352753025 L13.109857194097629,309.31785976191674 M13.109857194097629,309.31785976191674 L56.65883186772578,317.82508220253715 M56.65883186772578,317.82508220253715 L101.79233535815217,312.8247625495702 M67.49707358311974,303.11855638682516 L62.67976649719736,38.580173509679355 M101.79233535815217,312.8247625495702 L97.31264702874995,47.35635304492308" stroke="black"  stroke-width="4"  fill="red"/>
<path d="M1450.9312801184838,-51.31964969906545 L1484.962154529288,-44.15884446232309 M1606.2195270204043,-315.1344815304176 L1640.462275673723,-308.90243529801296 M1450.9312801184838,-51.31964969906545 L1484.0721737750346,-65.45587087117957 M1484.0721737750346,-65.45587087117957 L1515.7567173279485,-90.15883174735922 M1515.7567173279485,-90.15883174735922 L1544.4814913657806,-124.15131612424693 M1544.4814913657806,-124.15131612424693 L1568.9009228838454,-165.75561389396444 M1568.9009228838454,-165.75561389396444 L1587.8769747430965,-212.9718162578763 M1587.8769747430965,-212.9718162578763 L1600.519421579948,-263.5612373238762 M1600.519421579948,-263.5612373238762 L1606.2195270204043,-315.1344815304176 M1484.962154529288,-44.15884446232309 L1518.0866459829854,-58.368171365153614 M1518.0866459829854,-58.368171365153614 L1549.7713526370494,-83.17407766967784 M1549.7713526370494,-83.17407766967784 L1578.5129782845502,-117.29402572536128 M1578.5129782845502,-117.29402572536128 L1602.9653482978765,-159.04417159761033 M1602.9653482978765,-159.04417159761033 L1621.989083964012,-206.41791311460815 M1621.989083964012,-206.41791311460815 L1634.6918898068875,-257.1695279707335 M1634.6918898068875,-257.1695279707335 L1640.462275673723,-308.90243529801296 M1459.0842845415727,-281.41724737248455 L1493.4456278682997,-274.9614798383725 M1606.2195270204043,-315.1344815304176 L1459.0842845415727,-281.41724737248455 M1640.462275673723,-308.90243529801296 L1493.4456278682997,-274.9614798383725 M1459.0842845415727,-281.41724737248455 L1450.9312801184838,-51.31964969906545 M1493.4456278682997,-274.9614798383725 L1484.962154529288,-44.15884446232309" stroke="black"  stroke-width="4"  fill="red"/>
<path d="M1459.0842845415727,-281.41724737248455 L1493.4456278682997,-274.9614798383725 M62.67976649719736,38.580173509679355 L97.31264702874995,47.35635304492308 M1459.0842845415727,-281.41724737248455 L62.67976649719736,38.580173509679355 M1493.4456278682997,-274.9614798383725 L97.31264702874995,47.35635304492308 M1450.9312801184838,-51.31964969906545 L1484.962154529288,-44.15884446232309 M1450.9312801184838,-51.31964969906545 L1459.0842845415727,-281.41724737248455 M1484.962154529288,-44.15884446232309 L1493.4456278682997,-274.9614798383725 M67.49707358311974,303.11855638682516 L101.79233535815217,312.8247625495702 M62.67976649719736,38.580173509679355 L67.49707358311974,303.11855638682516 M97.31264702874995,47.35635304492308 L101.79233535815217,312.8247625495702 M1314.1031256430028,-16.26404287278382 L1450.9312801184838,-51.31964969906545 M67.49707358311974,303.11855638682516 L246.57893710424753,257.23747715002634 M245.8571974237973,192.69615502665448 L246.57893710424753,257.23747715002634 M282.19015979278436,183.63142900331945 L245.8571974237973,192.69615502665448 M282.19015979278436,183.63142900331945 L282.81816526398234,247.9529250128915 M282.81816526398234,247.9529250128915 L1285.2380419632045,-8.868759143600357 M1286.9300262904453,-67.04154178360585 L1285.2380419632045,-8.868759143600357 M1315.854117307943,-74.25782538539153 L1286.9300262904453,-67.04154178360585 M1315.854117307943,-74.25782538539153 L1314.1031256430028,-16.26404287278382 M1348.2270777076637,-8.868759143600357 L1484.962154529288,-44.15884446232309 M101.79233535815217,312.8247625495702 L280.92463761902746,266.5923372124179 M280.28707277864646,201.82969803366262 L280.92463761902746,266.5923372124179 M316.62723169516016,192.69615502665448 L280.28707277864646,201.82969803366262 M316.62723169516016,192.69615502665448 L317.17100817138214,257.23747715002634 M317.17100817138214,257.23747715002634 L1319.3797538085146,-1.423526030915923 M1321.1545053903096,-59.77640782276052 L1319.3797538085146,-1.423526030915923 M1350.060716537977,-67.04154178360585 L1321.1545053903096,-59.77640782276052 M1350.060716537977,-67.04154178360585 L1348.2270777076637,-8.868759143600357 M1314.1031256430028,-16.26404287278382 L1348.2270777076637,-8.868759143600357 M246.57893710424753,257.23747715002634 L280.92463761902746,266.5923372124179 M1315.854117307943,-74.25782538539153 L1350.060716537977,-67.04154178360585 M1321.1545053903096,-59.77640782276052 L1286.9300262904453,-67.04154178360585 M1285.2380419632045,-8.868759143600357 L1319.3797538085146,-1.423526030915923 M282.81816526398234,247.9529250128915 L317.17100817138214,257.23747715002634 M282.19015979278436,183.63142900331945 L316.62723169516016,192.69615502665448 M280.28707277864646,201.82969803366262 L245.8571974237973,192.69615502665448" stroke="black"  stroke-width="4"  fill="red"/>
<path d="M-516.0621101106209,-108.07648732009471 L-485.800693347397,-100.40806290870574 M-721.4496561853393,-66.52237170435541 L-691.3516483822268,-58.547685876180196 M-516.0621101106209,-108.07648732009471 L-721.4496561853393,-66.52237170435541 M-485.800693347397,-100.40806290870574 L-691.3516483822268,-58.547685876180196 M-506.0084571890052,140.80567031924278 L-476.00186652859077,149.298101638228 M-721.4496561853393,-66.52237170435541 L-713.4656129741938,-10.804909648075807 M-713.4656129741938,-10.804909648075807 L-695.4996433240656,39.624231360355566 M-695.4996433240656,39.624231360355566 L-668.5913123554128,82.19135423582395 M-668.5913123554128,82.19135423582395 L-634.2362617508418,114.80087535715091 M-634.2362617508418,114.80087535715091 L-594.2808009698224,135.93087620231745 M-594.2808009698224,135.93087620231745 L-550.8059378639753,144.68536570095932 M-550.8059378639753,144.68536570095932 L-506.0084571890052,140.80567031924278 M-691.3516483822268,-58.547685876180196 L-683.4190978748832,-2.6453038775071605 M-683.4190978748832,-2.6453038775071605 L-665.493071918049,47.94112914854753 M-665.493071918049,47.94112914854753 L-638.611683595549,90.6298384405539 M-638.611683595549,90.6298384405539 L-604.2698818039383,123.31956083574795 M-604.2698818039383,123.31956083574795 L-564.3139397956276,144.4852778808836 M-564.3139397956276,144.4852778808836 L-520.8253650853817,153.23043387624324 M-520.8253650853817,153.23043387624324 L-476.00186652859077,149.298101638228 M-506.0084571890052,140.80567031924278 L-516.0621101106209,-108.07648732009471 M-476.00186652859077,149.298101638228 L-485.800693347397,-100.40806290870574" stroke="black"  stroke-width="4"  fill="red"/>
<path d="M876.3182371359377,-172.2302098456937 L906.6438307265136,-165.84907291781678 M1027.7299942514246,-420.41731234747226 L1058.2742897256667,-414.8583701183054 M876.3182371359377,-172.2302098456937 L909.6107572411048,-185.15815151532092 M909.6107572411048,-185.15815151532092 L941.1891289160342,-208.14373058853516 M941.1891289160342,-208.14373058853516 L969.5524799665678,-239.99859600710897 M969.5524799665678,-239.99859600710897 L993.3688239610697,-279.14811720707553 M993.3688239610697,-279.14811720707553 L1011.5249125142035,-323.7053850269076 M1011.5249125142035,-323.7053850269076 L1023.1662554595372,-371.5509092273285 M1023.1662554595372,-371.5509092273285 L1027.7299942514246,-420.41731234747226 M906.6438307265136,-165.84907291781678 L939.9342646490984,-178.83954962249572 M939.9342646490984,-178.83954962249572 L971.5231233163603,-201.91477975150065 M971.5231233163603,-201.91477975150065 L999.909180417706,-233.88176922718253 M999.909180417706,-233.88176922718253 L1023.7595695400881,-273.16047077483177 M1023.7595695400881,-273.16047077483177 L1041.959632455953,-317.85801260560834 M1041.959632455953,-317.85801260560834 L1053.6529559204646,-365.8485956809825 M1053.6529559204646,-365.8485956809825 L1058.2742897256667,-414.8583701183054 M879.1963032821868,-390.36589839697535 L909.7858957666307,-384.61876283929155 M1027.7299942514246,-420.41731234747226 L879.1963032821868,-390.36589839697535 M1058.2742897256667,-414.8583701183054 L909.7858957666307,-384.61876283929155 M879.1963032821868,-390.36589839697535 L876.3182371359377,-172.2302098456937 M909.7858957666307,-384.61876283929155 L906.6438307265136,-165.84907291781678" stroke="black"  stroke-width="4"  fill="red"/>
<path d="M879.1963032821868,-390.36589839697535 L909.7858957666307,-384.61876283929155 M-516.0621101106209,-108.07648732009471 L-485.800693347397,-100.40806290870574 M879.1963032821868,-390.36589839697535 L-516.0621101106209,-108.07648732009471 M909.7858957666307,-384.61876283929155 L-485.800693347397,-100.40806290870574 M876.3182371359377,-172.2302098456937 L906.6438307265136,-165.84907291781678 M876.3182371359377,-172.2302098456937 L879.1963032821868,-390.36589839697535 M906.6438307265136,-165.84907291781678 L909.7858957666307,-384.61876283929155 M-506.0084571890052,140.80567031924278 L-476.00186652859077,149.298101638228 M-516.0621101106209,-108.07648732009471 L-506.0084571890052,140.80567031924278 M-485.800693347397,-100.40806290870574 L-476.00186652859077,149.298101638228 M738.4713022259863,-141.01397364427362 L876.3182371359377,-172.2302098456937 M739.7806393044028,-306.5874980597305 L738.4713022259863,-141.01397364427362 M710.5511322067506,-300.4962548934918 L739.7806393044028,-306.5874980597305 M710.5511322067506,-300.4962548934918 L709.4231906826976,-134.43586066894454 M-292.51224918622563,92.458218404727 L709.4231906826976,-134.43586066894454 M-298.3648639929761,-90.244585351853 L-292.51224918622563,92.458218404727 M-334.61607798416185,-82.69006317828513 L-298.3648639929761,-90.244585351853 M-334.61607798416185,-82.69006317828513 L-328.48664457657526,100.60482844318744 M-506.0084571890052,140.80567031924278 L-328.48664457657526,100.60482844318744 M768.8245949550044,-134.43586066894454 L906.6438307265136,-165.84907291781678 M769.3249425454659,-189.55456959588332 L768.8245949550044,-134.43586066894454 M769.3249425454659,-189.55456959588332 L740.2207987701685,-183.09636219373715 M740.2207987701685,-183.09636219373715 L739.7806393044026,-127.81585629661004 M-262.36979204392185,100.60482844318744 L739.7806393044026,-127.81585629661004 M-264.24720019631934,39.79501424489723 L-262.36979204392185,100.60482844318744 M-264.24720019631934,39.79501424489723 L-300.33422361832174,47.80272213641729 M-300.33422361832174,47.80272213641729 L-298.3648639929761,108.80920447763094 M-476.00186652859077,149.298101638228 L-298.3648639929761,108.80920447763094 M738.4713022259863,-141.01397364427362 L768.8245949550044,-134.43586066894454 M-328.48664457657526,100.60482844318744 L-298.3648639929761,108.80920447763094 M744.8590195738457,-305.57498610569814 L739.7806393044028,-306.5874980597305 M744.8590195738457,-305.57498610569814 L743.9623399440786,-194.90510830393168 M743.9623399440786,-194.90510830393168 L769.3249425454659,-189.55456959588332 M715.6301734001211,-299.47726230297235 L710.5511322067506,-300.4962548934918 M744.8590195738457,-305.57498610569814 L715.6301734001211,-299.47726230297235 M714.8546663437797,-188.48105627800715 L715.6301734001211,-299.47726230297235 M740.2207987701685,-183.09636219373715 L714.8546663437797,-188.48105627800715 M709.4231906826976,-134.43586066894454 L739.7806393044026,-127.81585629661004 M-292.51224918622563,92.458218404727 L-262.36979204392185,100.60482844318744 M-293.3237894931103,-88.98922049585525 L-298.3648639929761,-90.244585351853 M-293.3237894931103,-88.98922049585525 L-289.4342980814654,33.16512009190393 M-289.4342980814654,33.16512009190393 L-264.24720019631934,39.79501424489723 M-329.57856643939704,-81.42574655528534 L-334.61607798416185,-82.69006317828513 M-293.3237894931103,-88.98922049585525 L-329.57856643939704,-81.42574655528534 M-325.50401095436075,41.125691425686625 L-329.57856643939704,-81.42574655528534 M-300.33422361832174,47.80272213641729 L-325.50401095436075,41.125691425686625 M743.9623399440786,-194.90510830393168 L714.8546663437797,-188.48105627800715 M-289.4342980814654,33.16512009190393 L-325.50401095436075,41.125691425686625" stroke="black"  stroke-width="4"  fill="red"/>
<path d="M550.0227616432895,1208.6883271376144 L515.7779216189394,1196.187237320857 M363.7423262770146,1276.9398365142383 L329.5110520591958,1263.9360804879834 M550.0227616432895,1208.6883271376144 L363.7423262770146,1276.9398365142383 M515.7779216189394,1196.187237320857 L329.5110520591958,1263.9360804879834 M550.8466689950834,24.733462609894616 L514.9601661663078,16.16611917330289 M550.8466689950834,24.733462609894616 L550.0227616432895,1208.6883271376144 M514.9601661663078,16.16611917330289 L515.7779216189394,1196.187237320857 M355.4490923295518,71.56117828815974 L319.578230900628,62.63231008175978 M363.7423262770146,1276.9398365142383 L355.4490923295518,71.56117828815974 M329.5110520591958,1263.9360804879834 L319.578230900628,62.63231008175978 M355.4490923295518,71.56117828815974 L550.8466689950834,24.733462609894616 M436.8549408407774,330.88781497015157 L436.1936299060095,155.06177018875775 M472.68008763141887,145.9207234227345 L436.1936299060095,155.06177018875775 M473.0902336632519,321.1351082217997 L472.68008763141887,145.9207234227345 M436.8549408407774,330.88781497015157 L473.0902336632519,321.1351082217997 M319.578230900628,62.63231008175978 L514.9601661663078,16.16611917330289 M400.22586204593176,101.74085510377756 L401.57936356157467,364.56624032317524 M401.57936356157467,364.56624032317524 L437.7496082348359,354.73885309119476 M437.7496082348359,354.73885309119476 L436.77277226724556,92.82470928104294 M436.77277226724556,92.82470928104294 L400.22586204593176,101.74085510377756 M401.57936356157467,364.56624032317524 L410.41378573704617,367.0348498832033 M410.41378573704617,367.0348498832033 L410.20497357320494,323.56626894697723 M410.20497357320494,323.56626894697723 L436.8549408407774,330.88781497015157 M436.1936299060095,155.06177018875775 L409.36255493203385,148.19936401049824 M409.36255493203385,148.19936401049824 L409.1501394310351,103.9806737416074 M409.1501394310351,103.9806737416074 L400.22586204593176,101.74085510377756 M472.68008763141887,145.9207234227345 L445.8469586051124,139.11110771865003 M445.8469586051124,139.11110771865003 L409.36255493203385,148.19936401049824 M437.7496082348359,354.73885309119476 L446.58482458134523,357.18866917700495 M446.58482458134523,357.18866917700495 L446.4382540711663,313.86950218582854 M446.4382540711663,313.86950218582854 L473.0902336632519,321.1351082217997 M445.8469586051124,139.11110771865003 L445.69786860578375,95.04730136534795 M445.69786860578375,95.04730136534795 L436.77277226724556,92.82470928104294 M446.4382540711663,313.86950218582854 L410.20497357320494,323.56626894697723 M445.69786860578375,95.04730136534795 L409.1501394310351,103.9806737416074 M446.58482458134523,357.18866917700495 L410.41378573704617,367.0348498832033" stroke="black"  stroke-width="4"  fill="red"/>
<path d="M1530.7839053518637,849.3460899110567 L1496.9154307799117,839.3286537700567 M1381.8818168762086,903.9025024930459 L1347.907723077933,893.5256231165374 M1530.7839053518637,849.3460899110567 L1381.8818168762086,903.9025024930459 M1496.9154307799117,839.3286537700567 L1347.907723077933,893.5256231165374 M1573.466321723674,-220.34092962246268 L1538.008628571939,-227.1376698801855 M1573.466321723674,-220.34092962246268 L1530.7839053518637,849.3460899110567 M1538.008628571939,-227.1376698801855 L1496.9154307799117,839.3286537700567 M1418.8704665841933,-183.29148984408835 L1383.2929059650096,-190.342813214354 M1381.8818168762086,903.9025024930459 L1418.8704665841933,-183.29148984408835 M1347.907723077933,893.5256231165374 L1383.2929059650096,-190.342813214354 M1418.8704665841933,-183.29148984408835 L1573.466321723674,-220.34092962246268 M1473.23673043901,51.946294535834795 L1478.9992296091946,-106.19501791866679 M1507.8928055593324,-113.43380034543884 L1478.9992296091946,-106.19501791866679 M1501.9746027555825,44.211513899502165 L1507.8928055593324,-113.43380034543884 M1473.23673043901,51.946294535834795 L1501.9746027555825,44.211513899502165 M1383.2929059650096,-190.342813214354 L1538.008628571939,-227.1376698801855 M1444.9980845194527,-153.14639612229098 L1436.7060020290846,83.32428572068187 M1436.7060020290846,83.32428572068187 L1465.4269563240496,75.52085662921974 M1465.4269563240496,75.52085662921974 L1473.9532003994332,-160.21041422769918 M1473.9532003994332,-160.21041422769918 L1444.9980845194527,-153.14639612229098 M1436.7060020290846,83.32428572068187 L1445.458809703567,85.28346339704268 M1445.458809703567,85.28346339704268 L1446.8448034158664,46.14025321906615 M1446.8448034158664,46.14025321906615 L1473.23673043901,51.946294535834795 M1478.9992296091946,-106.19501791866679 L1452.4311330691835,-111.62877112986922 M1452.4311330691835,-111.62877112986922 L1453.8384003985416,-151.37279042868067 M1453.8384003985416,-151.37279042868067 L1444.9980845194527,-153.14639612229098 M1507.8928055593324,-113.43380034543884 L1481.3414906815506,-118.83033434642948 M1481.3414906815506,-118.83033434642948 L1452.4311330691835,-111.62877112986922 M1465.4269563240496,75.52085662921974 L1474.1744166397307,77.46673863559158 M1474.1744166397307,77.46673863559158 L1475.5991535321186,38.445001157597744 M1475.5991535321186,38.445001157597744 L1501.9746027555825,44.211513899502165 M1481.3414906815506,-118.83033434642948 L1482.788020584239,-158.44895475160092 M1482.788020584239,-158.44895475160092 L1473.9532003994332,-160.21041422769918 M1475.5991535321186,38.445001157597744 L1446.8448034158664,46.14025321906615 M1482.788020584239,-158.44895475160092 L1453.8384003985416,-151.37279042868067 M1474.1744166397307,77.46673863559158 L1445.458809703567,85.28346339704268" stroke="black"  stroke-width="4"  fill="red"/>
<path d="M-284.89179057854756,903.902502493046 L-313.31767819389506,893.5256231165375 M-469.4223795364886,960.4377251658525 L-497.736685604219,949.6817034701771 M-284.89179057854756,903.902502493046 L-469.4223795364886,960.4377251658525 M-313.31767819389506,893.5256231165375 L-497.736685604219,949.6817034701771 M-320.51889489850794,-183.29148984408835 L-350.055161063917,-190.342813214354 M-320.51889489850794,-183.29148984408835 L-284.89179057854756,903.902502493046 M-350.055161063917,-190.342813214354 L-313.31767819389506,893.5256231165375 M-513.9159304442466,-144.8385791300434 L-543.3252596022943,-152.15906192946431 M-469.4223795364886,960.4377251658525 L-513.9159304442466,-144.8385791300434 M-497.736685604219,949.6817034701771 L-543.3252596022943,-152.15906192946431 M-513.9159304442466,-144.8385791300434 L-320.51889489850794,-183.29148984408835 M-423.51736118984877,134.00881141462713 L-387.70570293509104,125.85779120068872 M-396.3092049305493,-114.63539399000342 L-387.70570293509104,125.85779120068872 M-396.3092049305493,-114.63539399000342 L-432.4869871853358,-107.25374235034457 M-423.51736118984877,134.00881141462713 L-432.4869871853358,-107.25374235034457 M-543.3252596022943,-152.15906192946431 L-350.055161063917,-190.342813214354 M-454.2107193329226,86.08532890592755 L-460.3511849568414,-74.24155375814888 M-424.25846014168496,-81.70113963045782 L-460.3511849568414,-74.24155375814888 M-418.36164020777926,78.11608244187278 L-424.25846014168496,-81.70113963045782 M-454.2107193329226,86.08532890592755 L-418.36164020777926,78.11608244187278 M-395.02295921617304,123.82887289938748 L-387.70570293509104,125.85779120068872 M-430.8289232732543,131.96573585186462 L-423.51736118984877,134.00881141462713 M-395.02295921617304,123.82887289938748 L-430.8289232732543,131.96573585186462 M-432.4869871853358,-107.25374235034457 L-439.8591820970522,-109.10401872034407 M-439.8591820970522,-109.10401872034407 L-438.3424063185407,-68.61251434582863 M-438.3424063185407,-68.61251434582863 L-460.3511849568414,-74.24155375814888 M-454.2107193329226,86.08532890592755 L-432.32230577257235,92.09873318696685 M-432.32230577257235,92.09873318696685 L-430.8289232732543,131.96573585186462 M-396.3092049305493,-114.63539399000342 L-403.6872554033465,-116.47272951630293 M-403.6872554033465,-116.47272951630293 L-439.8591820970522,-109.10401872034407 M-403.6872554033465,-116.47272951630293 L-402.23198823939504,-76.11134021405854 M-402.23198823939504,-76.11134021405854 L-424.25846014168496,-81.70113963045782 M-418.36164020777926,78.11608244187278 L-396.45585938091665,84.08782547313245 M-396.45585938091665,84.08782547313245 L-395.02295921617304,123.82887289938748 M-402.23198823939504,-76.11134021405854 L-438.3424063185407,-68.61251434582863 M-396.45585938091665,84.08782547313245 L-432.32230577257235,92.09873318696685" stroke="black"  stroke-width="4"  fill="red"/>
<path d="M697.5700375822371,602.90255155666 L668.9250471607637,594.430089601013 M547.2171391845159,648.9666466122198 L518.5647488633733,640.2152020563618 M697.5700375822371,602.90255155666 L547.2171391845159,648.9666466122198 M668.9250471607637,594.430089601013 L518.5647488633733,640.2152020563618 M704.0255259675243,-387.00048169581237 L674.2411204838357,-392.7097326314847 M704.0255259675243,-387.00048169581237 L697.5700375822371,602.90255155666 M674.2411204838357,-392.7097326314847 L668.9250471607637,594.430089601013 M547.7890815950489,-355.93616869441803 L517.9963676031521,-361.84095971377246 M547.2171391845159,648.9666466122198 L547.7890815950489,-355.93616869441803 M518.5647488633733,640.2152020563618 L517.9963676031521,-361.84095971377246 M547.7890815950489,-355.93616869441803 L704.0255259675243,-387.00048169581237 M611.0915493927478,-101.4764622269335 L640.0888889764592,-108.07648893934828 M640.989896357951,-326.2840947842567 L640.0888889764592,-108.07648893934828 M640.989896357951,-326.2840947842567 L611.7509596251086,-320.3182330916893 M611.0915493927478,-101.4764622269335 L611.7509596251086,-320.3182330916893 M517.9963676031521,-361.84095971377246 L674.2411204838357,-392.7097326314847 M581.6731024346825,-144.19153413358345 L581.946132352102,-289.66187413469584 M611.1460789766554,-295.69687178112554 L581.946132352102,-289.66187413469584 M610.7119600010947,-150.64686907185273 L611.1460789766554,-295.69687178112554 M581.6731024346825,-144.19153413358345 L610.7119600010947,-150.64686907185273 M632.7004494104959,-109.72005531035558 L640.0888889764592,-108.07648893934828 M603.702674103464,-103.13034519323963 L611.0915493927478,-101.4764622269335 M632.7004494104959,-109.72005531035558 L603.702674103464,-103.13034519323963 M611.7509596251086,-320.3182330916893 L604.2993251255185,-321.8132318627672 M604.2993251255185,-321.8132318627672 L604.1991863412958,-285.1106409144031 M604.1991863412958,-285.1106409144031 L581.946132352102,-289.66187413469584 M581.6731024346825,-144.19153413358345 L603.8014228320137,-139.32345677095145 M603.8014228320137,-139.32345677095145 L603.702674103464,-103.13034519323963 M640.989896357951,-326.2840947842567 L633.5387086712176,-327.7696898370632 M633.5387086712176,-327.7696898370632 L604.2993251255185,-321.8132318627672 M633.5387086712176,-327.7696898370632 L633.3980227042749,-291.1741816067597 M633.3980227042749,-291.1741816067597 L611.1460789766554,-295.69687178112554 M610.7119600010947,-150.64686907185273 L632.8391885561589,-145.8091525907132 M632.8391885561589,-145.8091525907132 L632.7004494104959,-109.72005531035558 M633.3980227042749,-291.1741816067597 L604.1991863412958,-285.1106409144031 M632.8391885561589,-145.8091525907132 L603.8014228320137,-139.32345677095145" stroke="black"  stroke-width="4"  fill="red"/>
<path d="M-396.45585938091665,84.08782547313245 L-432.32230577257235,92.09873318696685 M-395.02295921617304,123.82887289938748 L-430.8289232732543,131.96573585186462 M-396.45585938091665,84.08782547313245 L-395.02295921617304,123.82887289938748 M-432.32230577257235,92.09873318696685 L-430.8289232732543,131.96573585186462 M-387.66153125438836,86.48525052359258 L-423.5348383298963,94.51291428755644 M-387.66153125438836,86.48525052359258 L-396.45585938091665,84.08782547313245 M-423.5348383298963,94.51291428755644 L-432.32230577257235,92.09873318696685 M446.58482458134523,357.18866917700495 L410.41378573704617,367.0348498832033 M-395.02295921617304,123.82887289938748 L446.58482458134523,357.18866917700495 M-430.8289232732543,131.96573585186462 L410.41378573704617,367.0348498832033 M-393.3890070853748,-73.86720002160092 L-387.66153125438836,86.48525052359258 M-402.23198823939504,-76.11134021405854 L-393.3890070853748,-73.86720002160092 M-403.6872554033465,-116.47272951630293 L-402.23198823939504,-76.11134021405854 M-293.3237894931103,-88.98922049585525 L-403.6872554033465,-116.47272951630293 M-293.3237894931103,-88.98922049585525 L-289.4342980814654,33.16512009190393 M-289.4342980814654,33.16512009190393 L-259.191931494791,41.125691425686625 M-259.191931494791,41.125691425686625 L-262.95171445050937,-81.42574655528534 M280.92463761902746,54.01427886280965 L-262.95171445050937,-81.42574655528534 M280.92463761902746,54.01427886280965 L282.19015979278436,183.63142900331945 M282.19015979278436,183.63142900331945 L316.62723169516016,192.69615502665448 M316.62723169516016,192.69615502665448 L315.5314118706183,62.63230824841992 M445.69786860578375,95.04730136534795 L315.5314118706183,62.63230824841992 M445.8469586051124,139.11110771865003 L445.69786860578375,95.04730136534795 M435.1570078724768,136.39825017924449 L445.8469586051124,139.11110771865003 M435.82017876810704,310.97490474154665 L435.1570078724768,136.39825017924449 M446.4382540711663,313.86950218582854 L435.82017876810704,310.97490474154665 M446.58482458134523,357.18866917700495 L446.4382540711663,313.86950218582854 M-429.50641486766256,-66.35259138775262 L-423.5348383298963,94.51291428755644 M-438.3424063185407,-68.61251434582863 L-429.50641486766256,-66.35259138775262 M-439.8591820970522,-109.10401872034407 L-438.3424063185407,-68.61251434582863 M-329.57856643939704,-81.42574655528534 L-439.8591820970522,-109.10401872034407 M-325.50401095436075,41.125691425686625 L-329.57856643939704,-81.42574655528534 M-295.2823658677323,49.14287685829021 L-325.50401095436075,41.125691425686625 M-299.2275093869405,-73.80822635388455 L-295.2823658677323,49.14287685829021 M244.40274566911506,62.63230824841992 L-299.2275093869405,-73.80822635388455 M245.8571974237973,192.69615502665448 L244.40274566911506,62.63230824841992 M280.28707277864646,201.82969803366262 L245.8571974237973,192.69615502665448 M279.00221340978135,71.31609623039088 L280.28707277864646,201.82969803366262 M409.1501394310351,103.9806737416074 L279.00221340978135,71.31609623039088 M409.36255493203385,148.19936401049824 L409.1501394310351,103.9806737416074 M398.67358964403167,145.4655182177844 L409.36255493203385,148.19936401049824 M399.58786373480416,320.6494301556016 L398.67358964403167,145.4655182177844 M410.20497357320494,323.56626894697723 L399.58786373480416,320.6494301556016 M410.41378573704617,367.0348498832033 L410.20497357320494,323.56626894697723 M-393.3890070853748,-73.86720002160092 L-429.50641486766256,-66.35259138775262 M446.4382540711663,313.86950218582854 L410.20497357320494,323.56626894697723 M-402.23198823939504,-76.11134021405854 L-438.3424063185407,-68.61251434582863 M-403.6872554033465,-116.47272951630293 L-439.8591820970522,-109.10401872034407 M-293.3237894931103,-88.98922049585525 L-329.57856643939704,-81.42574655528534 M-289.4342980814654,33.16512009190393 L-325.50401095436075,41.125691425686625 M-259.191931494791,41.125691425686625 L-295.2823658677323,49.14287685829021 M-299.2275093869405,-73.80822635388455 L-262.95171445050937,-81.42574655528534 M280.92463761902746,54.01427886280965 L244.40274566911506,62.63230824841992 M282.19015979278436,183.63142900331945 L245.8571974237973,192.69615502665448 M316.62723169516016,192.69615502665448 L280.28707277864646,201.82969803366262 M279.00221340978135,71.31609623039088 L315.5314118706183,62.63230824841992 M445.69786860578375,95.04730136534795 L409.1501394310351,103.9806737416074 M445.8469586051124,139.11110771865003 L409.36255493203385,148.19936401049824 M435.1570078724768,136.39825017924449 L398.67358964403167,145.4655182177844 M435.82017876810704,310.97490474154665 L399.58786373480416,320.6494301556016" stroke="black"  stroke-width="4"  fill="red"/>
<path d="M435.82017876810704,310.97490474154665 L399.58786373480416,320.6494301556016 M474.8724999261503,321.62097248837995 L438.63709350709803,331.3774258066597 M435.82017876810704,310.97490474154665 L474.8724999261503,321.62097248837995 M399.58786373480416,320.6494301556016 L438.63709350709803,331.3774258066597 M474.47450533696957,146.3761043429181 L437.9879316555424,155.5206868524993 M474.8724999261503,321.62097248837995 L474.47450533696957,146.3761043429181 M438.63709350709803,331.3774258066597 L437.9879316555424,155.5206868524993 M435.1570078724768,136.39825017924449 L398.67358964403167,145.4655182177844 M474.47450533696957,146.3761043429181 L435.1570078724768,136.39825017924449 M437.9879316555424,155.5206868524993 L398.67358964403167,145.4655182177844 M435.1570078724768,136.39825017924449 L435.82017876810704,310.97490474154665 M398.67358964403167,145.4655182177844 L399.58786373480416,320.6494301556016" stroke="black"  stroke-width="4"  fill="red"/>
<path d="M-419.81799229387764,77.71906575984008 L-455.6659027346992,85.68554634179566 M-387.66153125438836,86.48525052359258 L-423.5348383298963,94.51291428755644 M-419.81799229387764,77.71906575984008 L-387.66153125438836,86.48525052359258 M-455.6659027346992,85.68554634179566 L-423.5348383298963,94.51291428755644 M-393.3890070853748,-73.86720002160092 L-429.50641486766256,-66.35259138775262 M-387.66153125438836,86.48525052359258 L-393.3890070853748,-73.86720002160092 M-423.5348383298963,94.51291428755644 L-429.50641486766256,-66.35259138775262 M-425.7228108487851,-82.07275732594104 L-461.81434507325116,-74.6157765215815 M-393.3890070853748,-73.86720002160092 L-425.7228108487851,-82.07275732594104 M-429.50641486766256,-66.35259138775262 L-461.81434507325116,-74.6157765215815 M-425.7228108487851,-82.07275732594104 L-419.81799229387764,77.71906575984008 M-461.81434507325116,-74.6157765215815 L-455.6659027346992,85.68554634179566" stroke="black"  stroke-width="4"  fill="red"/>
<path d="M632.8391885561589,-145.8091525907132 L603.8014228320137,-139.32345677095145 M632.7004494104959,-109.72005531035558 L603.702674103464,-103.13034519323963 M632.8391885561589,-145.8091525907132 L632.7004494104959,-109.72005531035558 M603.8014228320137,-139.32345677095145 L603.702674103464,-103.13034519323963 M641.7191819784684,-143.86770337466623 L612.6819457550906,-137.36980317981056 M641.7191819784684,-143.86770337466623 L632.8391885561589,-145.8091525907132 M612.6819457550906,-137.36980317981056 L603.8014228320137,-139.32345677095145 M1474.1744166397307,77.46673863559158 L1445.458809703567,85.28346339704268 M632.7004494104959,-109.72005531035558 L1474.1744166397307,77.46673863559158 M603.702674103464,-103.13034519323963 L1445.458809703567,85.28346339704268 M642.3282298898946,-289.359123974589 L641.7191819784684,-143.86770337466623 M633.3980227042749,-291.1741816067597 L642.3282298898946,-289.359123974589 M633.5387086712176,-327.7696898370632 L633.3980227042749,-291.1741816067597 M744.8590195738457,-305.57498610569814 L633.5387086712176,-327.7696898370632 M744.8590195738457,-305.57498610569814 L743.9623399440786,-194.90510830393168 M743.9623399440786,-194.90510830393168 L774.4136061650055,-188.48105627800715 M774.4136061650055,-188.48105627800715 L775.4429155218933,-299.47726230297235 M1319.3797538085146,-191.0287961025242 L775.4429155218933,-299.47726230297235 M1319.3797538085146,-191.0287961025242 L1315.854117307943,-74.25782538539153 M1315.854117307943,-74.25782538539153 L1350.060716537977,-67.04154178360585 M1350.060716537977,-67.04154178360585 L1353.7528477369474,-184.17559357473692 M1482.788020584239,-158.44895475160092 L1353.7528477369474,-184.17559357473692 M1481.3414906815506,-118.83033434642948 L1482.788020584239,-158.44895475160092 M1470.7591159949302,-120.98119373213058 L1481.3414906815506,-118.83033434642948 M1465.0866430846909,36.14663175615584 L1470.7591159949302,-120.98119373213058 M1475.5991535321186,38.445001157597744 L1465.0866430846909,36.14663175615584 M1474.1744166397307,77.46673863559158 L1475.5991535321186,38.445001157597744 M613.129931974876,-283.28410931881785 L612.6819457550906,-137.36980317981056 M604.1991863412958,-285.1106409144031 L613.129931974876,-283.28410931881785 M604.2993251255185,-321.8132318627672 L604.1991863412958,-285.1106409144031 M715.6301734001211,-299.47726230297235 L604.2993251255185,-321.8132318627672 M714.8546663437797,-188.48105627800715 L715.6301734001211,-299.47726230297235 M745.3102221473931,-182.01598511886345 L714.8546663437797,-188.48105627800715 M746.2184140036645,-293.3404366019479 L745.3102221473931,-182.01598511886345 M1290.3369284674181,-184.17559357473692 L746.2184140036645,-293.3404366019479 M1286.9300262904453,-67.04154178360585 L1290.3369284674181,-184.17559357473692 M1321.1545053903096,-59.77640782276052 L1286.9300262904453,-67.04154178360585 M1324.7281457117751,-177.27578823417616 L1321.1545053903096,-59.77640782276052 M1453.8384003985416,-151.37279042868067 L1324.7281457117751,-177.27578823417616 M1452.4311330691835,-111.62877112986922 L1453.8384003985416,-151.37279042868067 M1441.8422010071959,-113.79443789144489 L1452.4311330691835,-111.62877112986922 M1436.3258541142714,43.82615716232533 L1441.8422010071959,-113.79443789144489 M1446.8448034158664,46.14025321906615 L1436.3258541142714,43.82615716232533 M1445.458809703567,85.28346339704268 L1446.8448034158664,46.14025321906615 M642.3282298898946,-289.359123974589 L613.129931974876,-283.28410931881785 M1475.5991535321186,38.445001157597744 L1446.8448034158664,46.14025321906615 M633.3980227042749,-291.1741816067597 L604.1991863412958,-285.1106409144031 M633.5387086712176,-327.7696898370632 L604.2993251255185,-321.8132318627672 M744.8590195738457,-305.57498610569814 L715.6301734001211,-299.47726230297235 M743.9623399440786,-194.90510830393168 L714.8546663437797,-188.48105627800715 M774.4136061650055,-188.48105627800715 L745.3102221473931,-182.01598511886345 M746.2184140036645,-293.3404366019479 L775.4429155218933,-299.47726230297235 M1319.3797538085146,-191.0287961025242 L1290.3369284674181,-184.17559357473692 M1315.854117307943,-74.25782538539153 L1286.9300262904453,-67.04154178360585 M1350.060716537977,-67.04154178360585 L1321.1545053903096,-59.77640782276052 M1324.7281457117751,-177.27578823417616 L1353.7528477369474,-184.17559357473692 M1482.788020584239,-158.44895475160092 L1453.8384003985416,-151.37279042868067 M1481.3414906815506,-118.83033434642948 L1452.4311330691835,-111.62877112986922 M1470.7591159949302,-120.98119373213058 L1441.8422010071959,-113.79443789144489 M1465.0866430846909,36.14663175615584 L1436.3258541142714,43.82615716232533" stroke="black"  stroke-width="4"  fill="red"/>
<path d="M1465.0866430846909,36.14663175615584 L1436.3258541142714,43.82615716232533 M1503.73778760933,44.5970022314479 L1475.001033295307,52.33442895549922 M1465.0866430846909,36.14663175615584 L1503.73778760933,44.5970022314479 M1436.3258541142714,43.82615716232533 L1475.001033295307,52.33442895549922 M1509.6677764753708,-113.07303889376453 L1480.7753391729557,-105.83176490838815 M1503.73778760933,44.5970022314479 L1509.6677764753708,-113.07303889376453 M1475.001033295307,52.33442895549922 L1480.7753391729557,-105.83176490838815 M1470.7591159949302,-120.98119373213058 L1441.8422010071959,-113.79443789144489 M1509.6677764753708,-113.07303889376453 L1470.7591159949302,-120.98119373213058 M1480.7753391729557,-105.83176490838815 L1441.8422010071959,-113.79443789144489 M1470.7591159949302,-120.98119373213058 L1465.0866430846909,36.14663175615584 M1441.8422010071959,-113.79443789144489 L1436.3258541142714,43.82615716232533" stroke="black"  stroke-width="4"  fill="red"/>
<path d="M609.2404773703736,-150.96858201284022 L580.2015587130882,-144.51526356946397 M641.7191819784684,-143.86770337466623 L612.6819457550906,-137.36980317981056 M609.2404773703736,-150.96858201284022 L641.7191819784684,-143.86770337466623 M580.2015587130882,-144.51526356946397 L612.6819457550906,-137.36980317981056 M642.3282298898946,-289.359123974589 L613.129931974876,-283.28410931881785 M641.7191819784684,-143.86770337466623 L642.3282298898946,-289.359123974589 M612.6819457550906,-137.36980317981056 L613.129931974876,-283.28410931881785 M609.6663233039164,-295.9976309652882 L580.4663145592747,-289.96452903779186 M642.3282298898946,-289.359123974589 L609.6663233039164,-295.9976309652882 M613.129931974876,-283.28410931881785 L580.4663145592747,-289.96452903779186 M609.6663233039164,-295.9976309652882 L609.2404773703736,-150.96858201284022 M580.4663145592747,-289.96452903779186 L580.2015587130882,-144.51526356946397" stroke="black"  stroke-width="4"  fill="red"/></svg>