<svg version="1.1" xmlns="http://www.w3.org/2000/svg" viewBox="-16.358493123110442 -17.728898550448744 32.7169862462209 33.46314662654829" fill="none" stroke="black" stroke-width="0.6%" vector-effect="non-scaling-stroke">
    <path d="M 14.55977 -5.73065 L 3.09278 -14.74955" />
    <path d="M -3.09278 -2.16446 L -3.09278 -3.10413" />
    <path d="M 14.55977 -5.73065 A 9.625 3.29261 360 0 1 15.35849 -4.41739 A 9.625 3.29261 360 0 1 -3.09278 -3.10413" />
    <path d="M -3.09278 -2.16446 A 9.625 3.29261 180 0 0 15.35849 -3.47772" />
    <path d="M -14.55977 -12.12303 A 9.625 3.29261 360 0 1 -15.35849 -13.43629 A 9.625 3.29261 360 0 1 3.09278 -14.74955" />
    <path d="M -14.55977 -12.12303 L -3.09278 -3.10413" />
    <path d="M -14.55977 -11.18336 L -14.55977 -12.12303" />
    <path d="M -15.35849 -12.49662 A 9.625 3.29261 180 0 0 -14.55977 -11.18336 L -14.4102 -11.06572 L -15.09796 -10.96339 L -15.09796 5.95062 L -13.50255 7.20543 L -13.50255 -9.70859 L -15.09796 -10.96339" />
    <path d="M -3.24235 -2.2821 L -3.89049 -2.79187" />
    <path d="M -3.24235 -2.2821 L -3.09278 -2.16446" />
    <path d="M -13.76206 -10.55596 L -14.4102 -11.06572" />
    <path d="M -13.76206 -10.55596 L -13.46292 -10.32069" />
    <path d="M -12.81479 -9.81092 L -13.46292 -10.32069" />
    <path d="M -12.81479 -9.81092 L -4.83776 -3.5369 L -5.52552 -3.43457 L -5.52552 13.47944 L -3.93011 14.73425 L -3.93011 -2.17977 L -5.52552 -3.43457" />
    <path d="M -4.18962 -3.02714 L -4.83776 -3.5369" />
    <path d="M -4.18962 -3.02714 L -3.89049 -2.79187" />
    <path d="M -1.17765 0.56316 L -1.17765 -1.18607" />
    <path d="M -3.24235 0.87037 L -1.17765 0.56316" />
    <path d="M 0.26819 1.70033 L -1.17765 0.56316" />
    <path d="M 1.85687 -0.46399 A 4 1.49915 261.53705 0 1 0.85687 1.8981 A 4 1.49915 261.53705 0 1 0.26819 1.70033" />
    <path d="M 2.53438 -0.37231 A 4 1.49915 261.53705 0 1 1.54463 1.79577 L 0.85687 1.8981" />
    <path d="M 2.49798 0.01627 L 4.15216 -0.22986" />
    <path d="M 12.49506 -0.11891 L 11.55751 -0.8563" />
    <path d="M 14.05076 -1.82067 A 4 1.49915 261.53705 0 1 13.08374 0.07887 A 4 1.49915 261.53705 0 1 12.49506 -0.11891" />
    <path d="M 14.76971 -2.34379 A 4 1.49915 261.53705 0 1 13.7715 -0.02347 L 13.08374 0.07887" />
    <path d="M 15.09796 11.90306 L 15.09796 -2.71683" />
    <path d="M 12.81479 0.05631 L 12.81479 10.75059 L 14.4102 12.00539 L 14.4102 -0.61328" />
    <path d="M 15.09796 11.90306 L 14.4102 12.00539" />
    <path d="M 5.52552 4.37424 L 5.52552 -0.18589" />
    <path d="M 3.24235 -0.09449 L 3.24235 3.22177 L 4.83776 4.47657 L 4.83776 -0.19941" />
    <path d="M 5.52552 4.37424 L 4.83776 4.47657" />
    <path d="M -12.81479 -9.81092 L -13.50255 -9.70859" />
    <path d="M -3.24235 -2.2821 L -3.93011 -2.17977" />
    <path d="M -12.81479 -6.65845 L -10.75009 -6.96566 L -10.75009 -8.18701" />
    <path d="M -5.52552 -2.85648 L -10.75009 -6.96566" />
    <path d="M -3.24235 14.63192 L -3.24235 -2.2821" />
    <path d="M -12.81479 7.10309 L -12.81479 -9.81092" />
    <path d="M -14.15069 -7.08613 L -14.15069 -9.59191 L -14.18507 -9.58679 L -14.18507 -7.08101 L -14.15069 -7.08613 Z" />
    <path d="M -14.44982 -9.82718 L -14.15069 -9.59191" />
    <path d="M -12.81479 7.10309 L -13.50255 7.20543" />
    <path d="M -4.57825 0.44269 L -4.57825 -2.06309 L -4.61263 -2.05797 L -4.61263 0.44781 L -4.57825 0.44269 Z" />
    <path d="M -4.87739 -2.29836 L -4.57825 -2.06309" />
    <path d="M -3.24235 14.63192 L -3.93011 14.73425" />
    <path d="M -14.44982 -9.82718 L -14.48421 -9.82207 L -14.48421 -7.31629 L -14.18507 -7.08101" />
    <path d="M -14.48421 -9.82207 L -14.18507 -9.58679" />
    <path d="M -4.87739 -2.29836 L -4.91177 -2.29325 L -4.91177 0.21253 L -4.61263 0.44781" />
    <path d="M -4.91177 -2.29325 L -4.61263 -2.05797" />
    <path d="M 15.35849 -4.41739 L 15.35849 -3.47772" />
    <path d="M -15.35849 -13.43629 L -15.35849 -12.49662" />
</svg>