<svg version="1.1" xmlns="http://www.w3.org/2000/svg" viewBox="-16.346389980993123 -17.618592222578332 32.69277996198625 33.25557204043214" fill="none" stroke="black" stroke-width="0.6%" vector-effect="non-scaling-stroke">
    <path d="M -14.55118 -12.05253 A 9.625 3.26611 360 0 1 -15.34639 -13.35248 A 9.625 3.26611 360 0 1 3.10841 -14.65242" />
    <path d="M -15.34639 -12.41181 A 9.625 3.26611 180 0 0 -15.08997 -11.66293" />
    <path d="M -14.55118 -11.79624 L -14.55118 -12.05253 L -3.10841 -3.10263" />
    <path d="M 14.55118 -5.70252 L 3.10841 -14.65242" />
    <path d="M 14.55118 -5.70252 A 9.625 3.26611 360 0 1 15.34639 -4.40258 A 9.625 3.26611 360 0 1 -3.10841 -3.10263" />
    <path d="M -12.80989 -10.57301 L -14.40193 -11.81821 L -15.08997 -11.71692 L -15.08997 5.92055 L -13.49793 7.16576 L -13.49793 -10.47171 L -15.08997 -11.71692" />
    <path d="M -12.80989 -9.74993 L -12.80989 -10.57301 L -13.49793 -10.47171" />
    <path d="M -12.80989 -9.74993 L -5.53773 -4.06205" />
    <path d="M -3.25766 -3.10179 L -4.8497 -4.34699 L -5.53773 -4.24569 L -5.53773 13.39178 L -3.94569 14.63698 L -3.94569 -3.00049 L -5.53773 -4.24569" />
    <path d="M -3.25766 -2.2787 L -3.25766 -3.10179 L -3.94569 -3.00049" />
    <path d="M -3.25766 -2.2787 L -3.10841 -2.16197 A 9.625 3.26611 180 0 0 15.34639 -3.46191" />
    <path d="M -3.10841 -2.16197 L -3.10841 -3.10263" />
    <path d="M 5.53773 4.36328 L 4.8497 4.46457 L 4.8497 -0.20922" />
    <path d="M 5.53773 -13.27419 L 4.97622 -13.19152" />
    <path d="M 5.53773 4.36328 L 5.53773 -0.19639" />
    <path d="M 5.53773 -12.75234 L 5.53773 -13.27419 L 3.94569 -14.5194 L 3.38418 -14.43673" />
    <path d="M 3.25766 -0.07633 L 3.25766 3.21937 L 4.8497 4.46457" />
    <path d="M 15.08997 11.8345 L 14.40193 11.93579 L 14.40193 -0.6065" />
    <path d="M 15.08997 -5.80297 L 14.52845 -5.7203" />
    <path d="M 15.08997 11.8345 L 15.08997 -2.71303" />
    <path d="M 15.08997 -5.15146 L 15.08997 -5.80297 L 13.49793 -7.04817 L 12.93641 -6.96551" />
    <path d="M 12.80989 0.08143 L 12.80989 10.69059 L 14.40193 11.93579" />
    <path d="M -12.80989 7.06446 L -12.80989 -9.74993" />
    <path d="M -12.80989 7.06446 L -13.49793 7.16576" />
    <path d="M -3.25766 14.53568 L -3.94569 14.63698" />
    <path d="M -3.25766 14.53568 L -3.25766 -2.2787" />
    <path d="M 14.75581 -2.33544 A 4 1.49758 261.62493 0 1 13.75468 -0.00039 L 13.06664 0.1009 A 4 1.49758 261.62493 0 1 12.48403 -0.09378 L 11.51301 -0.85326" />
    <path d="M 14.03742 -1.81747 A 4 1.49758 261.62493 0 1 13.06664 0.1009" />
    <path d="M 2.4757 0.03879 L 4.30922 -0.23114" />
    <path d="M 2.51572 -0.38227 A 4 1.49758 261.62493 0 1 1.52293 1.8004 L 0.83489 1.90169 A 4 1.49758 261.62493 0 1 0.25228 1.70701 L -1.19051 0.57854 L -1.19051 -1.18895" />
    <path d="M 1.83772 -0.47348 A 4 1.49758 261.62493 0 1 0.83489 1.90169" />
    <path d="M -3.25766 0.88287 L -1.19051 0.57854" />
    <path d="M -12.80989 -6.58835 L -10.74274 -6.89268 L -10.74274 -8.13311" />
    <path d="M -5.53773 -2.82162 L -10.74274 -6.89268" />
    <path d="M -14.14469 -7.01895 L -14.14469 -9.52739 L -14.17909 -9.52232 L -14.17909 -7.01388 L -14.14469 -7.01895 Z" />
    <path d="M -14.4432 -9.76086 L -14.14469 -9.52739" />
    <path d="M -4.59246 0.45228 L -4.59246 -2.05616 L -4.62686 -2.0511 L -4.62686 0.45734 L -4.59246 0.45228 Z" />
    <path d="M -4.89097 -2.28964 L -4.59246 -2.05616" />
    <path d="M -14.4432 -9.76086 L -14.4776 -9.7558 L -14.4776 -7.24736 L -14.17909 -7.01388" />
    <path d="M -14.4776 -9.7558 L -14.17909 -9.52232" />
    <path d="M -4.89097 -2.28964 L -4.92537 -2.28457 L -4.92537 0.22387 L -4.62686 0.45734" />
    <path d="M -4.92537 -2.28457 L -4.62686 -2.0511" />
    <path d="M -15.34639 -13.35248 L -15.34639 -12.41181" />
    <path d="M 15.34639 -4.40258 L 15.34639 -3.46191" />
</svg>