<svg viewBox="0 0 800 800" xmlns="http://www.w3.org/2000/svg"><path d="M-611.3456859064897,-102.22616710404446 L-614.0804363539752,-164.56239053936883 M223.47578218176787,47.39061170232907 L309.7748677301887,22.646924256843704 M309.7748677301887,22.646924256843704 L373.3870444655637,-4.941723989847901 M373.3870444655637,-4.941723989847901 L412.4791571074029,-34.13142642311715 M412.4791571074029,-34.13142642311715 L426.4185051945167,-63.69558398406076 M426.4185051945167,-63.69558398406076 L415.6473911244016,-92.48351228963594 M415.6473911244016,-92.48351228963594 L381.51260759436104,-119.46117968500198 M381.51260759436104,-119.46117968500198 L326.08097338594325,-143.7351171118719 M326.08097338594325,-143.7351171118719 L251.96408893468504,-164.5623905393686 M251.96408893468504,-164.5623905393686 L162.16641508739792,-181.35058658866683 M162.16641508739792,-181.35058658866683 L59.964221927649305,-193.65188391296033 M59.964221927649305,-193.65188391296033 L-51.184794135086634,-201.1546884342563 M-51.184794135086634,-201.1546884342563 L-167.70497196387873,-203.67576755181085 M-167.70497196387873,-203.67576755181085 L-285.94650891125093,-201.1546930361833 M-285.94650891125093,-201.1546930361833 L-402.2184116436997,-193.6518792773761 M-402.2184116436997,-193.6518792773761 L-512.819855633906,-181.35059479797565 M-512.819855633906,-181.35059479797565 L-614.0804363539752,-164.56239053936883 M224.2885685182096,115.46959524268829 L223.47578218176787,47.39061170232907 M-611.3456859064897,-102.22616710404446 L-510.346450970173,-119.47373373499818 M-510.346450970173,-119.47373373499818 L-400.0196273255027,-132.11202746405252 M-400.0196273255027,-132.11202746405252 L-284.02803393251736,-139.82056425357928 M-284.02803393251736,-139.82056425357928 L-166.06545006008105,-142.41079483375006 M-166.06545006008105,-142.41079483375006 L-49.81617611579827,-139.82055952543033 M-49.81617611579827,-139.82055952543033 L61.07654366382843,-132.11203222670156 M61.07654366382843,-132.11203222670156 L163.04367588040543,-119.47372530090274 M163.04367588040543,-119.47372530090274 L252.6343709071065,-102.22616710404492 M252.6343709071065,-102.22616710404492 L326.5794785644193,-80.82993054743582 M326.5794785644193,-80.82993054743582 L381.88184688141166,-55.89415491067899 M381.88184688141166,-55.89415491067899 L415.9371131811166,-28.182549391465386 M415.9371131811166,-28.182549391465386 L426.68516071338206,1.3866870631114807 M426.68516071338206,1.3866870631114807 L412.7846935035087,31.751200939856687 M412.7846935035087,31.751200939856687 L373.79686290669645,61.72911574634935 M373.79686290669645,61.72911574634935 L310.35486719248,90.0609102168242 M310.35486719248,90.0609102168242 L224.2885685182096,115.46959524268829 M224.2885685182096,115.46959524268829 L1537.5940818610202,-204.93022503916632 M223.47578218176787,47.39061170232907 L1539.8795123627153,-264.5216097163411 M1537.5940818610202,-204.93022503916632 L1539.8795123627153,-264.5216097163411 M700.5514348121404,-424.9687036777052 L634.7501616912621,-409.0235151541913 M634.7501616912621,-409.0235151541913 L585.2904424266197,-390.48932893076517 M585.2904424266197,-390.48932893076517 L554.4373419558378,-369.9532744686253 M554.4373419558378,-369.9532744686253 L543.9493968189075,-348.1114853714173 M543.9493968189075,-348.1114853714173 L554.9360941994624,-325.75804098958884 M554.9360941994624,-325.75804098958884 L587.7137507467631,-303.76415237487026 M587.7137507467631,-303.76415237487026 L641.6781341588885,-283.0460792567369 M641.6781341588885,-283.0460792567369 L715.2159541526945,-264.52160971634135 M715.2159541526945,-264.52160971634135 L805.6801403947009,-249.05714469147165 M805.6801403947009,-249.05714469147165 L909.4481170961332,-237.4096100317447 M909.4481170961332,-237.4096100317447 L1022.0740670866056,-230.16961778618725 M1022.0740670866056,-230.16961778618725 L1138.5308801715582,-227.71322546451051 M1138.5308801715582,-227.71322546451051 L1253.5218040796144,-230.1696133132682 M1253.5218040796144,-230.1696133132682 L1361.8271100494712,-237.40961447275845 M1361.8271100494712,-237.40961447275845 L1458.6441284528219,-249.05713700910223 M1458.6441284528219,-249.05713700910223 L1539.8795123627153,-264.5216097163411 M700.2019482600609,-369.83206057904795 L700.5514348121404,-424.9687036777052 M1537.5940818610202,-204.93022503916632 L1456.5268411559225,-189.03957436725818 M1456.5268411559225,-189.03957436725818 L1359.9203399564992,-177.07143313984534 M1359.9203399564992,-177.07143313984534 L1251.858311898971,-169.63229824271957 M1251.858311898971,-169.63229824271957 L1137.131234923625,-167.10837618109076 M1137.131234923625,-167.10837618109076 L1020.9450351639819,-169.6323028386264 M1020.9450351639819,-169.6323028386264 L908.5822590682403,-177.07142857664508 M908.5822590682403,-177.07142857664508 L805.0566588365402,-189.03958226120335 M805.0566588365402,-189.03958226120335 L714.8026316151553,-204.93022503916632 M714.8026316151553,-204.93022503916632 L641.4340393217838,-223.96593884201206 M641.4340393217838,-223.96593884201206 L587.5923118609978,-245.25674814676904 M587.5923118609978,-245.25674814676904 L554.888147784553,-267.8597421676932 M554.888147784553,-267.8597421676932 L543.9259013964978,-290.833410709208 M543.9259013964978,-290.833410709208 L554.3915630952783,-313.28235817733616 M554.3915630952783,-313.28235817733616 L585.1795393809417,-334.39029366551426 M585.1795393809417,-334.39029366551426 L634.5362046185527,-353.44146192222047 M634.5362046185527,-353.44146192222047 L700.2019482600609,-369.83206057904795 M700.2019482600609,-369.83206057904795 L-611.3456859064897,-102.22616710404446 M700.5514348121404,-424.9687036777052 L-614.0804363539752,-164.56239053936883" stroke="black"  stroke-width="4"  fill="red"/>
<path d="M1456.8608915446205,-369.83206057904795 L1369.8689530208178,-383.07402790444144 M1369.8689530208178,-383.07402790444144 L1274.1525488706736,-392.7939496335516 M1274.1525488706736,-392.7939496335516 L1172.9604453075203,-398.7294394078724 M1172.9604453075203,-398.7294394078724 L1069.6013895619108,-400.7250747344856 M1069.6013895619108,-400.7250747344856 L967.3961325709759,-398.7294466923588 M967.3961325709759,-398.7294466923588 L869.6354283241083,-392.79396063021045 M869.6354283241083,-392.79396063021045 L779.5383498199683,-383.0740380901277 M779.5383498199683,-383.0740380901277 L700.2019482600609,-369.83206057904795 M700.2019482600609,-369.83206057904795 L634.5362046185527,-353.44146192222047 M634.5362046185527,-353.44146192222047 L585.1795393809417,-334.39029366551426 M585.1795393809417,-334.39029366551426 L554.3915630952783,-313.28235817733616 M554.3915630952783,-313.28235817733616 L543.9259013964978,-290.833410709208 M543.9259013964978,-290.833410709208 L554.888147784553,-267.8597421676932 M554.888147784553,-267.8597421676932 L587.5923118609978,-245.25674814676904 M587.5923118609978,-245.25674814676904 L641.4340393217838,-223.96593884201206 M641.4340393217838,-223.96593884201206 L714.802631615154,-204.93022503916654 M714.802631615154,-204.93022503916654 L805.0566588365402,-189.03958226120335 M805.0566588365402,-189.03958226120335 L908.5822590682403,-177.07142857664508 M908.5822590682403,-177.07142857664508 L1020.9450351639819,-169.6323028386264 M1020.9450351639819,-169.6323028386264 L1137.131234923625,-167.10837618109076 M1137.131234923625,-167.10837618109076 L1251.858311898971,-169.63229824271957 M1251.858311898971,-169.63229824271957 L1359.9203399564992,-177.07143313984534 M1359.9203399564992,-177.07143313984534 L1456.5268411559225,-189.03957436725818 M1456.5268411559225,-189.03957436725818 L1537.5940818610202,-204.93022503916632 M1537.5940818610202,-204.93022503916632 L1599.9576880202887,-223.96593775208385 M1599.9576880202887,-223.96593775208385 L1641.4906480717796,-245.25675241562635 M1641.4906480717796,-245.25675241562635 L1661.1274955026079,-267.8597463411427 M1661.1274955026079,-267.8597463411427 L1658.8080156713797,-290.83340663162517 M1658.8080156713797,-290.83340663162517 L1635.3640734103922,-313.2823581773364 M1635.3640734103922,-313.2823581773364 L1592.3730592710276,-334.3902819688685 M1592.3730592710276,-334.3902819688685 L1532.0024005509931,-353.4414571447462 M1532.0024005509931,-353.4414571447462 L1456.8608915446205,-369.83206057904795 M1456.8608915446205,-369.83206057904795 L1458.7933465972949,-424.9687036777052 M1458.7933465972949,-424.9687036777052 L1536.3085254895134,-408.4631996710109 M1536.3085254895134,-408.4631996710109 L1597.96324333865,-389.217923438885 M1597.96324333865,-389.217923438885 L1640.9018955742445,-367.88463116306116 M1640.9018955742445,-367.88463116306116 L1662.7806502889164,-345.23814151898 M1662.7806502889164,-345.23814151898 L1661.9437000097926,-322.162663641921 M1661.9437000097926,-322.162663641921 L1637.6056228397372,-299.6258564569457 M1637.6056228397372,-299.6258564569457 L1590.0196187048741,-278.63923905342745 M1590.0196187048741,-278.63923905342745 L1520.6010888450437,-260.2050695004855 M1520.6010888450437,-260.2050695004855 L1431.9757357979352,-245.25260225168176 M1431.9757357979352,-245.25260225168176 L1327.925664738999,-234.56972770163225 M1327.925664738999,-234.56972770163225 L1213.2195980623067,-228.73830228485713 M1213.2195980623067,-228.73830228485713 L1093.3321839939244,-228.08269251169122 M1093.3321839939244,-228.08269251169122 L974.0780422479459,-232.63965770833556 M974.0780422479459,-232.63965770833556 L861.2052631809408,-242.15490398782936 M861.2052631809408,-242.15490398782936 L760.0006482998743,-256.106823217345 M760.0006482998743,-256.106823217345 L674.9563330620554,-273.75333122899065 M674.9563330620554,-273.75333122899065 L609.533844805328,-294.1940993223634 M609.533844805328,-294.1940993223634 L566.0411913072226,-316.43884408986196 M566.0411913072226,-316.43884408986196 L545.6185042988342,-339.4728733623076 M545.6185042988342,-339.4728733623076 L548.312129716092,-362.31329408643387 M548.312129716092,-362.31329408643387 L573.2086142321111,-384.0521237045821 M573.2086142321111,-384.0521237045821 L618.5988529845846,-403.885442155334 M618.5988529845846,-403.885442155334 L682.1475057938973,-421.1300145397438 M682.1475057938973,-421.1300145397438 L761.0488267230278,-435.229916335644 M761.0488267230278,-435.229916335644 L852.1594073362389,-445.756480016679 M852.1594073362389,-445.756480016679 L952.1037891657179,-452.40463553130985 M952.1037891657179,-452.40463553130985 L1057.3551922493234,-454.98823780617863 M1057.3551922493234,-454.98823780617863 L1164.296778546562,-453.4363153514655 M1164.296778546562,-453.4363153514655 L1269.2717448364144,-447.7913822257037 M1269.2717448364144,-447.7913822257037 L1368.6320015348592,-438.21055286237265 M1368.6320015348592,-438.21055286237265 L1458.7933465972949,-424.9687036777052 M1539.5932649541294,-257.05786079672384 L1537.5940818610202,-204.93022503916632 M700.5076690452265,-418.0640103328017 L700.2019482600609,-369.83206057904795" stroke="black"  stroke-width="4"  fill="red"/>
<path d="M252.6343709071072,-102.22616710404458 L159.9294628255953,-119.9554397063464 M159.9294628255953,-119.9554397063464 L54.15379937086357,-132.76080449410802 M54.15379937086357,-132.76080449410802 L-60.88975929349067,-140.29686065447254 M-60.88975929349067,-140.29686065447254 L-181.26776193520584,-142.36758531661872 M-181.26776193520584,-142.36758531661872 L-302.96642742005815,-138.92005516404333 M-302.96642742005815,-138.92005516404333 L-421.9297340638542,-130.04259530024706 M-421.9297340638542,-130.04259530024706 L-534.0975724049435,-115.96784212114858 M-534.0975724049435,-115.96784212114858 L-635.4559882784029,-97.07993691375799 M-635.4559882784029,-97.07993691375799 L-722.111433436623,-73.92426418111432 M-722.111433436623,-73.92426418111432 L-790.3982644040339,-47.21705903652213 M-790.3982644040339,-47.21705903652213 L-837.0272942124698,-17.85085386634978 M-837.0272942124698,-17.85085386634978 L-859.2749038444251,13.108887608753378 M-859.2749038444251,13.108887608753378 L-855.2044432137277,44.441010129472204 M-855.2044432137277,44.441010129472204 L-823.9028283053785,74.80485549177644 M-823.9028283053785,74.80485549177644 L-765.7003430602322,102.79803567896448 M-765.7003430602322,102.79803567896448 L-682.3340841563681,127.03553009768194 M-682.3340841563681,127.03553009768194 L-577.0125116456109,146.24525655576127 M-577.0125116456109,146.24525655576127 L-454.34413051065803,159.37010949061863 M-454.34413051065803,159.37010949061863 L-320.1122823748233,165.66258962923052 M-320.1122823748233,165.66258962923052 L-180.90598846855494,164.75700627153287 M-180.90598846855494,164.75700627153287 L-43.646109652234486,156.70631638693982 M-43.646109652234486,156.70631638693982 L84.9302816048247,141.9766173251017 M84.9302816048247,141.9766173251017 L198.75317278042084,121.40069909230414 M198.75317278042084,121.40069909230414 L292.8079686281706,96.0988851586207 M292.8079686281706,96.0988851586207 L363.38682651294573,67.38098406619429 M363.38682651294573,67.38098406619429 L408.1903397018454,36.644804767344965 M408.1903397018454,36.644804767344965 L426.2955627183008,5.283944864840521 M426.2955627183008,5.283944864840521 L418.0233552861553,-25.386266121862036 M418.0233552861553,-25.386266121862036 L384.74534399123434,-54.181033048038046 M384.74534399123434,-54.181033048038046 L328.6695899058983,-80.07710995950407 M328.6695899058983,-80.07710995950407 L252.6343709071072,-102.22616710404458 M252.6343709071072,-102.22616710404458 L251.96408893468436,-164.56239053936883 M251.96408893468436,-164.56239053936883 L328.17595758786774,-143.00229732930052 M328.17595758786774,-143.00229732930052 L384.38281181962856,-117.7934777173441 M384.38281181962856,-117.7934777173441 L417.73843206344753,-89.76119608219716 M417.73843206344753,-89.76119608219716 L426.027468280346,-59.90116259537314 M426.027468280346,-59.90116259537314 L407.8724606409035,-29.366623212185175 M407.8724606409035,-29.366623212185175 L362.94916836104994,0.5617567026455959 M362.94916836104994,0.5617567026455959 L292.1806749284483,28.526746609104634 M292.1806749284483,28.526746609104634 L197.8709818909457,53.1666871797525 M197.8709818909457,53.1666871797525 L83.73754697489039,73.20537725407297 M83.73754697489039,73.20537725407297 L-45.190445484698785,87.55105226884393 M-45.190445484698785,87.55105226884393 L-182.82422584070002,95.39204747483217 M-182.82422584070002,95.39204747483217 L-322.40534399074636,96.27405205159903 M-322.40534399074636,96.27405205159903 L-456.99101608993294,90.14544659068298 M-456.99101608993294,90.14544659068298 L-579.971990349147,77.36267878380409 M-579.971990349147,77.36267878380409 L-685.5483572193093,58.654304265589246 M-685.5483572193093,58.654304265589246 L-769.1000563074754,35.05051856112357 M-769.1000563074754,35.05051856112357 L-827.4126324881622,7.790822103273854 M-827.4126324881622,7.790822103273854 L-858.7483187127723,-21.77550865060556 M-858.7483187127723,-21.77550865060556 L-862.7806502889164,-52.28259648883062 M-862.7806502889164,-52.28259648883062 L-840.4298538303874,-82.42502587602263 M-840.4298538303874,-82.42502587602263 L-793.641810389814,-111.01407387241653 M-793.641810389814,-111.01407387241653 L-725.1503564130676,-137.01287340194267 M-725.1503564130676,-137.01287340194267 L-638.2550362587572,-159.55309784508654 M-638.2550362587572,-159.55309784508654 L-536.6314344272479,-177.93812921882045 M-536.6314344272479,-177.93812921882045 L-424.1823415921107,-191.63765363125117 M-424.1823415921107,-191.63765363125117 L-304.9302009227465,-200.2782230710784 M-304.9302009227465,-200.2782230710784 L-182.94296470431595,-203.63371179601154 M-182.94296470431595,-203.63371179601154 L-62.284060112264115,-201.61827397862135 M-62.284060112264115,-201.61827397862135 L53.02551132494847,-194.2833468923668 M53.02551132494847,-194.2833468923668 L159.04502025645658,-181.81946205270106 M159.04502025645658,-181.81946205270106 L251.96408893468436,-164.56239053936883" stroke="black"  stroke-width="4"  fill="red"/>
<path d="M61.33282053943299,76.18227463446334 L96.08981345676875,85.24931626507265 M-147.10991546576588,125.36827043592393 L-112.44449871770894,134.82247500357568 M61.33282053943299,76.18227463446334 L-147.10991546576588,125.36827043592393 M96.08981345676875,85.24931626507265 L-112.44449871770894,134.82247500357568 M66.15442979242113,340.95690741183523 L100.573413158103,350.94951548574284 M-147.10991546576588,125.36827043592393 L-140.1976632553226,184.6047018276709 M-140.1976632553226,184.6047018276709 L-123.08082950442201,237.9344934259074 M-123.08082950442201,237.9344934259074 L-96.76644421343292,282.63616849848876 M-96.76644421343292,282.63616849848876 L-62.732673949729815,316.5166818103178 M-62.732673949729815,316.5166818103178 L-22.821710535176578,338.0095375370465 M-22.821710535176578,338.0095375370465 L20.878338349117257,346.22516057385644 M20.878338349117257,346.22516057385644 L66.15442979242113,340.95690741183523 M-112.44449871770894,134.82247500357568 L-105.60464565750613,194.26614070933704 M-105.60464565750613,194.26614070933704 L-88.5509989184801,247.76970279573766 M-88.5509989184801,247.76970279573766 L-62.28797264362714,292.6027883148594 M-62.28797264362714,292.6027883148594 L-28.291857855713033,326.5663187152326 M-28.291857855713033,326.5663187152326 L11.596342072893037,348.09079305990014 M11.596342072893037,348.09079305990014 L55.28909880386067,356.2865586959764 M55.28909880386067,356.2865586959764 L100.573413158103,350.94951548574284 M66.15442979242113,340.95690741183523 L61.33282053943299,76.18227463446334 M100.573413158103,350.94951548574284 L96.08981345676875,85.24931626507265" stroke="black"  stroke-width="4"  fill="red"/>
<path d="M1454.7390997670238,-24.07468072246826 L1488.8938541691857,-16.697253771601254 M1610.6449907790827,-289.40715947591184 L1645.0120978338566,-282.9633269031415 M1454.7390997670238,-24.07468072246826 L1488.0151247243216,-38.47571574014427 M1488.0151247243216,-38.47571574014427 L1519.8283178215956,-63.447624268765196 M1519.8283178215956,-63.447624268765196 L1548.6689738097398,-97.70036296093377 M1548.6689738097398,-97.70036296093377 L1573.185889846996,-139.54384968204818 M1573.185889846996,-139.54384968204818 L1592.2363023624796,-186.96675341914488 M1592.2363023624796,-186.96675341914488 L1604.926365549753,-237.7203763945356 M1604.926365549753,-237.7203763945356 L1610.6449907790827,-289.40715947591184 M1488.8938541691857,-16.697253771601254 L1522.1535010586958,-31.172904656863068 M1522.1535010586958,-31.172904656863068 L1553.9669009269571,-56.24907279758787 M1553.9669009269571,-56.24907279758787 L1582.8244697178366,-90.63033477005393 M1582.8244697178366,-90.63033477005393 L1607.374400003571,-132.62042761037424 M1607.374400003571,-132.62042761037424 L1626.4725828462115,-180.20129280929564 M1626.4725828462115,-180.20129280929564 L1639.2230978811467,-231.11717590610965 M1639.2230978811467,-231.11717590610965 L1645.0120978338566,-282.9633269031415 M1462.905317727536,-254.5451965325674 L1497.3909519469478,-247.8705576513912 M1610.6449907790827,-289.40715947591184 L1462.905317727536,-254.5451965325674 M1645.0120978338566,-282.9633269031415 L1497.3909519469478,-247.8705576513912 M1462.905317727536,-254.5451965325674 L1454.7390997670238,-24.07468072246826 M1497.3909519469478,-247.8705576513912 L1488.8938541691857,-16.697253771601254" stroke="black"  stroke-width="4"  fill="red"/>
<path d="M1462.905317727536,-254.5451965325674 L1497.3909519469478,-247.8705576513912 M96.08981345676875,85.24931626507265 L1497.3909519469478,-247.8705576513912 M61.33282053943299,76.18227463446334 L96.08981345676875,85.24931626507265 M1462.905317727536,-254.5451965325674 L61.33282053943299,76.18227463446334 M1454.7390997670238,-24.07468072246826 L1488.8938541691857,-16.697253771601254 M1454.7390997670238,-24.07468072246826 L1462.905317727536,-254.5451965325674 M1488.8938541691857,-16.697253771601254 L1497.3909519469478,-247.8705576513912 M316.68796038818414,293.71934532359444 L1322.6418235003814,27.328621056939767 M1326.2047920445016,-89.81987702911675 L1322.6418235003814,27.328621056939767 M1355.2859882110122,-97.12899079750406 L1326.2047920445016,-89.81987702911675 M1355.2859882110122,-97.12899079750406 L1351.6047705486549,19.658825528528155 M1351.6047705486549,19.658825528528155 L1488.8938541691857,-16.697253771601254 M96.08981345676875,85.24931626507265 L100.573413158103,350.94951548574284 M100.573413158103,350.94951548574284 L280.31604144431026,303.35114076245327 M279.0364227110246,173.36987287975336 L280.31604144431026,303.35114076245327 M315.596568375725,164.1810395689755 L279.0364227110246,173.36987287975336 M315.596568375725,164.1810395689755 L316.68796038818414,293.71934532359444 M66.15442979242113,340.95690741183523 L100.573413158103,350.94951548574284 M61.33282053943299,76.18227463446334 L66.15442979242113,340.95690741183523 M1317.3569964128626,12.040371137867908 L1454.7390997670238,-24.07468072246826 M66.15442979242113,340.95690741183523 L245.84669943394923,293.71934532359444 M244.39812459343563,164.1810395689755 L245.84669943394923,293.71934532359444 M280.9510301459928,155.0614398285041 L244.39812459343563,164.1810395689755 M280.9510301459928,155.0614398285041 L282.2114866858665,284.159758263645 M282.2114866858665,284.159758263645 L1288.3763018109496,19.658825528528155 M1291.7731335571486,-97.12899079750406 L1288.3763018109496,19.658825528528155 M1320.8723178300672,-104.38895848903718 L1291.7731335571486,-97.12899079750406 M1320.8723178300672,-104.38895848903718 L1317.3569964128626,12.040371137867908 M1317.3569964128626,12.040371137867908 L1351.6047705486549,19.658825528528155 M1288.3763018109496,19.658825528528155 L1322.6418235003814,27.328621056939767 M282.2114866858665,284.159758263645 L316.68796038818414,293.71934532359444 M280.9510301459928,155.0614398285041 L315.596568375725,164.1810395689755 M279.0364227110246,173.36987287975336 L244.39812459343563,164.1810395689755 M245.84669943394923,293.71934532359444 L280.31604144431026,303.35114076245327 M1326.2047920445016,-89.81987702911675 L1291.7731335571486,-97.12899079750406 M1320.8723178300672,-104.38895848903718 L1355.2859882110122,-97.12899079750406" stroke="black"  stroke-width="4"  fill="red"/>
<path d="M-519.5865579953444,-75.36191107026099 L-489.2064438179051,-67.43666389353774 M-725.6587563038472,-32.41777706537101 L-695.4418386289071,-24.17679951766013 M-519.5865579953444,-75.36191107026099 L-725.6587563038472,-32.41777706537101 M-489.2064438179051,-67.43666389353774 L-695.4418386289071,-24.17679951766013 M-509.52057614519583,173.82545407510742 L-479.39577140561903,182.57136512853288 M-725.6587563038472,-32.41777706537101 L-717.6544099676553,23.327558271423584 M-717.6544099676553,23.327558271423584 L-699.6347075348949,73.71335456732533 M-699.6347075348949,73.71335456732533 L-672.6420210000435,116.16901743162401 M-672.6420210000435,116.16901743162401 L-638.1763571873298,148.6054435870916 M-638.1763571873298,148.6054435870916 L-598.0897012596386,169.51006795194314 M-598.0897012596386,169.51006795194314 L-554.4697386929936,177.9985365348369 M-554.4697386929936,177.9985365348369 L-509.52057614519583,173.82545407510742 M-695.4418386289071,-24.17679951766013 L-687.4891026117893,31.75238771977331 M-687.4891026117893,31.75238771977331 L-669.5094670459328,82.29399462543375 M-669.5094670459328,82.29399462543375 L-642.5438444787885,124.86943450046141 M-642.5438444787885,124.86943450046141 L-608.0915416123141,157.3840239800449 M-608.0915416123141,157.3840239800449 L-568.0045007798302,178.3222049123625 M-568.0045007798302,178.3222049123625 L-524.3709017299562,186.7991668520944 M-524.3709017299562,186.7991668520944 L-479.39577140561903,182.57136512853288 M-509.52057614519583,173.82545407510742 L-519.5865579953444,-75.36191107026099 M-479.39577140561903,182.57136512853288 L-489.2064438179051,-67.43666389353774" stroke="black"  stroke-width="4"  fill="red"/>
<path d="M877.9593195979174,-148.65911323899513 L908.4028051147206,-142.0833203673658 M1029.980328469104,-398.2817836590325 L1060.642977075579,-392.5325370453186 M877.9593195979174,-148.65911323899513 L911.3866630454999,-161.8268874431592 M911.3866630454999,-161.8268874431592 L943.0929972691415,-185.0595516715382 M943.0929972691415,-185.0595516715382 L971.5711969845692,-217.15690846173538 M971.5711969845692,-217.15690846173538 L995.483696663724,-256.53274732110617 M995.483696663724,-256.53274732110617 L1013.7125880116904,-301.2893184292036 M1013.7125880116904,-301.2893184292036 L1025.399839600721,-349.297473659268 M1025.399839600721,-349.297473659268 L1029.980328469104,-398.2817836590325 M908.4028051147206,-142.0833203673658 L941.8280753889301,-155.3149232748899 M941.8280753889301,-155.3149232748899 L973.5449316769087,-178.63837664635685 M973.5449316769087,-178.63837664635685 L1002.0458928591544,-210.84878869320573 M1002.0458928591544,-210.84878869320573 L1025.99251068016,-250.35449049228737 M1025.99251068016,-250.35449049228737 L1044.2654633538295,-295.25173865347097 M1044.2654633538295,-295.25173865347097 L1056.0047919929593,-343.4050570105926 M1056.0047919929593,-343.4050570105926 L1060.642977075579,-392.5325370453186 M880.8427644212848,-367.20246491442276 L911.5507010587863,-361.2589933071645 M1029.980328469104,-398.2817836590325 L880.8427644212848,-367.20246491442276 M1060.642977075579,-392.5325370453186 L911.5507010587863,-361.2589933071645 M880.8427644212848,-367.20246491442276 L877.9593195979174,-148.65911323899513 M911.5507010587863,-361.2589933071645 L908.4028051147206,-142.0833203673658" stroke="black"  stroke-width="4"  fill="red"/>
<path d="M880.8427644212848,-367.20246491442276 L741.3115537242919,-338.1250490416335 M746.4206761917561,-337.106407802014 L741.3115537242919,-338.1250490416335 M746.4206761917561,-337.106407802014 L717.0148919138867,-330.9717711604155 M717.0148919138867,-330.9717711604155 L711.905104521563,-331.99693226733916 M711.905104521563,-331.99693226733916 L-303.1184089762403,-120.4724950091495 M-298.04681811046817,-119.20953074685576 L-303.1184089762403,-120.4724950091495 M-298.04681811046817,-119.20953074685576 L-334.52106494143436,-111.600270984573 M-334.52106494143436,-111.600270984573 L-339.58907128360033,-112.87224120378323 M-339.58907128360033,-112.87224120378323 L-519.5865579953444,-75.36191107026099 M-519.5865579953444,-75.36191107026099 L-489.2064438179051,-67.43666389353774 M911.5507010587863,-361.2589933071645 L-489.2064438179051,-67.43666389353774 M880.8427644212848,-367.20246491442276 L911.5507010587863,-361.2589933071645 M739.5588997127359,-116.49144028049182 L877.9593195979174,-148.65911323899513 M741.3115537242919,-338.1250490416335 L739.5588997127359,-116.49144028049182 M877.9593195979174,-148.65911323899513 L880.8427644212848,-367.20246491442276 M746.4206761917561,-337.106407802014 L745.518568472465,-225.76658503397084 M745.518568472465,-225.76658503397084 L771.0347047027128,-220.38365660483896 M771.0347047027128,-220.38365660483896 L770.0300775895839,-109.71309381149166 M739.5588997127359,-116.49144028049182 L770.0300775895839,-109.71309381149166 M745.518568472465,-225.76658503397084 L716.2346902915168,-219.30364472694077 M716.2346902915168,-219.30364472694077 L717.0148919138867,-330.9717711604155 M741.754377714717,-213.8863541605176 L716.2346902915168,-219.30364472694077 M741.754377714717,-213.8863541605176 L740.8706057754868,-102.8916722369226 M710.3952732779903,-109.71309381149166 L740.8706057754868,-102.8916722369226 M711.905104521563,-331.99693226733916 L710.3952732779903,-109.71309381149166 M-295.286066005253,124.03206714518325 L710.3952732779903,-109.71309381149166 M-303.1184089762403,-120.4724950091495 L-295.286066005253,124.03206714518325 M-298.04681811046817,-119.20953074685576 L-294.1337814917225,3.684276507092477 M-294.1337814917225,3.684276507092477 L-268.7942124032247,10.354305015548789 M-268.7942124032247,10.354305015548789 L-265.0255423141625,132.42266164746246 M-295.286066005253,124.03206714518325 L-265.0255423141625,132.42266164746246 M-294.1337814917225,3.684276507092477 L-330.4218439558008,11.693037509100066 M-330.4218439558008,11.693037509100066 L-334.52106494143436,-111.600270984573 M-305.0996902065792,18.410487918516424 L-330.4218439558008,11.693037509100066 M-305.0996902065792,18.410487918516424 L-301.1464715756449,140.87261189788643 M-331.38633983294903,132.42266164746246 L-301.1464715756449,140.87261189788643 M-339.58907128360033,-112.87224120378323 L-331.38633983294903,132.42266164746246 M-509.52057614519583,173.82545407510742 L-331.38633983294903,132.42266164746246 M-519.5865579953444,-75.36191107026099 L-509.52057614519583,173.82545407510742 M-509.52057614519583,173.82545407510742 L-479.39577140561903,182.57136512853288 M-489.2064438179051,-67.43666389353774 L-479.39577140561903,182.57136512853288 M770.0300775895839,-109.71309381149166 L908.4028051147206,-142.0833203673658 M771.0347047027128,-220.38365660483896 L741.754377714717,-213.8863541605176 M-265.0255423141625,132.42266164746246 L740.8706057754868,-102.8916722369226 M-268.7942124032247,10.354305015548789 L-305.0996902065792,18.410487918516424 M-479.39577140561903,182.57136512853288 L-301.1464715756449,140.87261189788643 M908.4028051147206,-142.0833203673658 L911.5507010587863,-361.2589933071645 M877.9593195979174,-148.65911323899513 L908.4028051147206,-142.0833203673658" stroke="black"  stroke-width="4"  fill="red"/>
<path d="M550.4049684159345,1186.3235649197009 L515.9528257483453,1173.7467992066465 M362.99687625208867,1254.9882378061786 L328.55838151223634,1241.9057629716488 M550.4049684159345,1186.3235649197009 L362.99687625208867,1254.9882378061786 M515.9528257483453,1173.7467992066465 L328.55838151223634,1241.9057629716488 M551.2338633270713,-4.798422383831735 L515.1301199771624,-13.417628610224199 M551.2338633270713,-4.798422383831735 L550.4049684159345,1186.3235649197009 M515.1301199771624,-13.417628610224199 L515.9528257483453,1173.7467992066465 M354.6534388486573,42.31276692812685 L318.5654315845012,33.329847425852904 M362.99687625208867,1254.9882378061786 L354.6534388486573,42.31276692812685 M328.55838151223634,1241.9057629716488 L318.5654315845012,33.329847425852904 M354.6534388486573,42.31276692812685 L551.2338633270713,-4.798422383831735 M436.55208123947216,303.2092487957965 L435.88676702991364,126.3188333294301 M472.5940971297752,117.12245083530229 L435.88676702991364,126.3188333294301 M473.00672599862696,293.39750360877076 L472.5940971297752,117.12245083530229 M436.55208123947216,303.2092487957965 L473.00672599862696,293.39750360877076 M318.5654315845012,33.329847425852904 L515.1301199771624,-13.417628610224199 M399.70126670726603,72.67513774294395 L401.06296170378437,337.0915479759676 M401.06296170378437,337.0915479759676 L437.45216454189745,327.20467022372554 M437.45216454189745,327.20467022372554 L436.46941525487136,63.70501763984345 M436.46941525487136,63.70501763984345 L399.70126670726603,72.67513774294395 M401.06296170378437,337.0915479759676 L409.9508634419335,339.5751013723973 M409.9508634419335,339.5751013723973 L409.74078722448667,295.8433814721831 M409.74078722448667,295.8433814721831 L436.55208123947216,303.2092487957965 M435.88676702991364,126.3188333294301 L408.8932689650693,119.41488527395012 M408.8932689650693,119.41488527395012 L408.6795675975052,74.92851522127859 M408.6795675975052,74.92851522127859 L399.70126670726603,72.67513774294395 M472.5940971297752,117.12245083530229 L445.59853257830406,110.27161282345128 M445.59853257830406,110.27161282345128 L408.8932689650693,119.41488527395012 M437.45216454189745,327.20467022372554 L446.3408652586337,329.66931637881544 M446.3408652586337,329.66931637881544 L446.1934074774335,286.08791490753026 M446.1934074774335,286.08791490753026 L473.00672599862696,293.39750360877076 M445.59853257830406,110.27161282345128 L445.448540056116,65.94106428295476 M445.448540056116,65.94106428295476 L436.46941525487136,63.70501763984345 M446.1934074774335,286.08791490753026 L409.74078722448667,295.8433814721831 M445.448540056116,65.94106428295476 L408.6795675975052,74.92851522127859 M446.3408652586337,329.66931637881544 L409.9508634419335,339.5751013723973" stroke="black"  stroke-width="4"  fill="red"/>
<path d="M1537.1031927863717,824.8060336765377 L1503.0296939159775,814.7279565458578 M1387.2997189778346,879.6927058983983 L1353.119961510491,869.2530096267958 M1537.1031927863717,824.8060336765377 L1387.2997189778346,879.6927058983983 M1503.0296939159775,814.7279565458578 L1353.119961510491,869.2530096267958 M1580.043989040448,-251.35638321408305 L1544.3716511857945,-258.19426783749213 M1580.043989040448,-251.35638321408305 L1537.1031927863717,824.8060336765377 M1544.3716511857945,-258.19426783749213 L1503.0296939159775,814.7279565458578 M1424.5122811014955,-214.08266302467064 L1388.719350156414,-221.17667189067674 M1387.2997189778346,879.6927058983983 L1424.5122811014955,-214.08266302467064 M1353.119961510491,869.2530096267958 L1388.719350156414,-221.17667189067674 M1424.5122811014955,-214.08266302467064 L1580.043989040448,-251.35638321408305 M1479.2076535225117,22.579143615453802 L1485.005036234532,-136.5194842201047 M1514.0735207157898,-143.8020869342497 L1485.005036234532,-136.5194842201047 M1508.1194918114197,14.797540144800848 L1514.0735207157898,-143.8020869342497 M1479.2076535225117,22.579143615453802 L1508.1194918114197,14.797540144800848 M1388.719350156414,-221.17667189067674 L1544.3716511857945,-258.19426783749213 M1450.7980637195412,-183.75508465395183 L1442.4557847436008,54.147082848168225 M1442.4557847436008,54.147082848168225 L1471.3506025969139,46.29641535594743 M1471.3506025969139,46.29641535594743 L1479.9284606653102,-190.86186510323682 M1479.9284606653102,-190.86186510323682 L1450.7980637195412,-183.75508465395183 M1442.4557847436008,54.147082848168225 L1451.2615779237944,56.11812049264671 M1451.2615779237944,56.11812049264671 L1452.655961809909,16.737955172552688 M1452.655961809909,16.737955172552688 L1479.2076535225117,22.579143615453802 M1485.005036234532,-136.5194842201047 L1458.2761085551533,-141.98613089504033 M1458.2761085551533,-141.98613089504033 L1459.691894839102,-181.97074236037224 M1459.691894839102,-181.97074236037224 L1450.7980637195412,-183.75508465395183 M1514.0735207157898,-143.8020869342497 L1487.36147628717,-149.23128909084994 M1487.36147628717,-149.23128909084994 L1458.2761085551533,-141.98613089504033 M1471.3506025969139,46.29641535594743 L1480.151016047835,48.25407684451466 M1480.151016047835,48.25407684451466 L1481.5843776475804,8.996119564727906 M1481.5843776475804,8.996119564727906 L1508.1194918114197,14.797540144800848 M1487.36147628717,-149.23128909084994 L1488.8167628221604,-189.08974255483054 M1488.8167628221604,-189.08974255483054 L1479.9284606653102,-190.86186510323682 M1481.5843776475804,8.996119564727906 L1452.655961809909,16.737955172552688 M1488.8167628221604,-189.08974255483054 L1459.691894839102,-181.97074236037224 M1480.151016047835,48.25407684451466 L1451.2615779237944,56.11812049264671" stroke="black"  stroke-width="4"  fill="red"/>
<path d="M-289.56377572011354,879.6927058983985 L-318.1617406947039,869.2530096267959 M-475.21142870353344,936.5701670248775 L-503.697136666707,925.7490332794257 M-289.56377572011354,879.6927058983985 L-475.21142870353344,936.5701670248775 M-318.1617406947039,869.2530096267959 L-503.697136666707,925.7490332794257 M-325.40655028094034,-214.08266302467064 L-355.12161553091664,-221.17667189067674 M-325.40655028094034,-214.08266302467064 L-289.56377572011354,879.6927058983985 M-355.12161553091664,-221.17667189067674 L-318.1617406947039,869.2530096267959 M-519.9743232760222,-175.39697592663333 L-549.5616830998877,-182.7617735902213 M-475.21142870353344,936.5701670248775 L-519.9743232760222,-175.39697592663333 M-503.697136666707,925.7490332794257 L-549.5616830998877,-182.7617735902213 M-519.9743232760222,-175.39697592663333 L-325.40655028094034,-214.08266302467064 M-429.02852231202496,105.13842954464172 L-393.0000766110501,96.9380667718172 M-401.6556602837335,-145.01095447871967 L-393.0000766110501,96.9380667718172 M-401.6556602837335,-145.01095447871967 L-438.05244633245263,-137.58461768663255 M-429.02852231202496,105.13842954464172 L-438.05244633245263,-137.58461768663255 M-549.5616830998877,-182.7617735902213 L-355.12161553091664,-221.17667189067674 M-459.90768404677624,56.92484012961063 L-466.08532124906003,-104.37258836078428 M-429.7741075389175,-111.87733116382225 L-466.08532124906003,-104.37258836078428 M-423.8415909465332,48.90735148204868 L-429.7741075389175,-111.87733116382225 M-459.90768404677624,56.92484012961063 L-423.8415909465332,48.90735148204868 M-400.3616282244285,94.8968663244616 L-393.0000766110501,96.9380667718172 M-436.3843452576514,103.08298613422096 L-429.02852231202496,105.13842954464172 M-400.3616282244285,94.8968663244616 L-436.3843452576514,103.08298613422096 M-438.05244633245263,-137.58461768663255 L-445.46926914987955,-139.44609478590837 M-445.46926914987955,-139.44609478590837 L-443.9433115025706,-98.7094733111349 M-443.9433115025706,-98.7094733111349 L-466.08532124906003,-104.37258836078428 M-459.90768404677624,56.92484012961063 L-437.8867680135236,62.97464681759459 M-437.8867680135236,62.97464681759459 L-436.3843452576514,103.08298613422096 M-401.6556602837335,-145.01095447871967 L-409.07837410913703,-146.85941239632984 M-409.07837410913703,-146.85941239632984 L-445.46926914987955,-139.44609478590837 M-409.07837410913703,-146.85941239632984 L-407.61429742148835,-106.25369365113244 M-407.61429742148835,-106.25369365113244 L-429.7741075389175,-111.87733116382225 M-423.8415909465332,48.90735148204868 L-401.8032025132575,54.91524472204776 M-401.8032025132575,54.91524472204776 L-400.3616282244285,94.8968663244616 M-407.61429742148835,-106.25369365113244 L-443.9433115025706,-98.7094733111349 M-401.8032025132575,54.91524472204776 L-437.8867680135236,62.97464681759459" stroke="black"  stroke-width="4"  fill="red"/>
<path d="M698.8454282705654,576.8706385380599 L670.0270341413886,568.3468881618244 M547.582361998374,623.2135846163329 L518.7565231739103,614.4091628064623 M698.8454282705654,576.8706385380599 L547.582361998374,623.2135846163329 M670.0270341413886,568.3468881618244 L518.7565231739103,614.4091628064623 M705.3399952383404,-419.024816206173 L675.3752885478222,-424.7686283431542 M705.3399952383404,-419.024816206173 L698.8454282705654,576.8706385380599 M675.3752885478222,-424.7686283431542 L670.0270341413886,568.3468881618244 M548.157766687411,-387.77245402157246 L518.184701192765,-393.7129899527215 M547.582361998374,623.2135846163329 L548.157766687411,-387.77245402157246 M518.7565231739103,614.4091628064623 L518.184701192765,-393.7129899527215 M548.157766687411,-387.77245402157246 L705.3399952383404,-419.024816206173 M611.8434387543866,-131.77236454423632 L641.0163150069316,-138.4123448082505 M641.9227766761826,-357.94087997957445 L641.0163150069316,-138.4123448082505 M641.9227766761826,-357.94087997957445 L612.5068407555527,-351.93890368120947 M611.8434387543866,-131.77236454423632 L612.5068407555527,-351.93890368120947 M518.184701192765,-393.7129899527215 L675.3752885478222,-424.7686283431542 M582.2469059355006,-174.74601401486666 L582.5215886515177,-321.0969651087364 M611.8982984355257,-327.16849587849674 L582.5215886515177,-321.0969651087364 M611.4615515016782,-181.24042660672558 L611.8982984355257,-327.16849587849674 M582.2469059355006,-174.74601401486666 L611.4615515016782,-181.24042660672558 M633.5831491975299,-140.06586058047606 L641.0163150069316,-138.4123448082505 M604.4098345839942,-133.43625936372314 L611.8434387543866,-131.77236454423632 M633.5831491975299,-140.06586058047606 L604.4098345839942,-133.43625936372314 M612.5068407555527,-351.93890368120947 L605.0100974592177,-353.4429524930133 M605.0100974592177,-353.4429524930133 L604.9093524804663,-316.51818079823875 M604.9093524804663,-316.51818079823875 L582.5215886515177,-321.0969651087364 M582.2469059355006,-174.74601401486666 L604.5091810923095,-169.8484675320974 M604.5091810923095,-169.8484675320974 L604.4098345839942,-133.43625936372314 M641.9227766761826,-357.94087997957445 L634.4264828975054,-359.4354681472855 M634.4264828975054,-359.4354681472855 L605.0100974592177,-353.4429524930133 M634.4264828975054,-359.4354681472855 L634.2849452818825,-322.6184274005086 M634.2849452818825,-322.6184274005086 L611.8982984355257,-327.16849587849674 M611.4615515016782,-181.24042660672558 L633.7227282067049,-176.37342479637823 M633.7227282067049,-176.37342479637823 L633.5831491975299,-140.06586058047606 M634.2849452818825,-322.6184274005086 L604.9093524804663,-316.51818079823875 M633.7227282067049,-176.37342479637823 L604.5091810923095,-169.8484675320974" stroke="black"  stroke-width="4"  fill="red"/>
<path d="M-401.8032025132575,54.91524472204776 L-437.8867680135236,62.97464681759459 M-400.3616282244285,94.8968663244616 L-436.3843452576514,103.08298613422096 M-401.8032025132575,54.91524472204776 L-400.3616282244285,94.8968663244616 M-437.8867680135236,62.97464681759459 L-436.3843452576514,103.08298613422096 M-392.95563753513807,57.32718269035399 L-429.04610525070746,65.40344226951555 M-392.95563753513807,57.32718269035399 L-401.8032025132575,54.91524472204776 M-429.04610525070746,65.40344226951555 L-437.8867680135236,62.97464681759459 M446.3408652586337,329.66931637881544 L409.9508634419335,339.5751013723973 M-400.3616282244285,94.8968663244616 L446.3408652586337,329.66931637881544 M-436.3843452576514,103.08298613422096 L409.9508634419335,339.5751013723973 M-398.71778489263806,-103.99596845744935 L-392.95563753513807,57.32718269035399 M-407.61429742148835,-106.25369365113244 L-398.71778489263806,-103.99596845744935 M-409.07837410913703,-146.85941239632984 L-407.61429742148835,-106.25369365113244 M-298.04681811046817,-119.20953074685576 L-409.07837410913703,-146.85941239632984 M-298.04681811046817,-119.20953074685576 L-294.1337814917225,3.684276507092477 M-294.1337814917225,3.684276507092477 L-263.7083414105666,11.693037509100066 M-263.7083414105666,11.693037509100066 L-267.4908843775502,-111.600270984573 M279.677847078171,24.659646576385 L-267.4908843775502,-111.600270984573 M279.677847078171,24.659646576385 L280.9510301459928,155.0614398285041 M280.9510301459928,155.0614398285041 L315.596568375725,164.1810395689755 M315.596568375725,164.1810395689755 L314.494114957743,33.3298455814147 M445.448540056116,65.94106428295476 L314.494114957743,33.3298455814147 M445.59853257830406,110.27161282345128 L445.448540056116,65.94106428295476 M434.8438697593689,107.54233288177318 L445.59853257830406,110.27161282345128 M435.5110551891446,283.17579489047876 L434.8438697593689,107.54233288177318 M446.1934074774335,286.08791490753026 L435.5110551891446,283.17579489047876 M446.3408652586337,329.66931637881544 L446.1934074774335,286.08791490753026 M-435.05383098933714,-96.4358698101683 L-429.04610525070746,65.40344226951555 M-443.9433115025706,-98.7094733111349 L-435.05383098933714,-96.4358698101683 M-445.46926914987955,-139.44609478590837 L-443.9433115025706,-98.7094733111349 M-334.52106494143436,-111.600270984573 L-445.46926914987955,-139.44609478590837 M-330.4218439558008,11.693037509100066 L-334.52106494143436,-111.600270984573 M-300.01725081320114,19.75875532586258 L-330.4218439558008,11.693037509100066 M-303.9862764319872,-103.93663779004515 L-300.01725081320114,19.75875532586258 M242.9348682511719,33.3298455814147 L-303.9862764319872,-103.93663779004515 M244.39812459343563,164.1810395689755 L242.9348682511719,33.3298455814147 M279.0364227110246,173.36987287975336 L244.39812459343563,164.1810395689755 M277.74378538953454,42.06620125535659 L279.0364227110246,173.36987287975336 M408.6795675975052,74.92851522127859 L277.74378538953454,42.06620125535659 M408.8932689650693,119.41488527395012 L408.6795675975052,74.92851522127859 M398.1395975561999,116.66449002565008 L408.8932689650693,119.41488527395012 M399.05940624533895,292.9088854690664 L398.1395975561999,116.66449002565008 M409.74078722448667,295.8433814721831 L399.05940624533895,292.9088854690664 M409.9508634419335,339.5751013723973 L409.74078722448667,295.8433814721831 M-398.71778489263806,-103.99596845744935 L-435.05383098933714,-96.4358698101683 M446.1934074774335,286.08791490753026 L409.74078722448667,295.8433814721831 M-407.61429742148835,-106.25369365113244 L-443.9433115025706,-98.7094733111349 M-409.07837410913703,-146.85941239632984 L-445.46926914987955,-139.44609478590837 M-298.04681811046817,-119.20953074685576 L-334.52106494143436,-111.600270984573 M-294.1337814917225,3.684276507092477 L-330.4218439558008,11.693037509100066 M-263.7083414105666,11.693037509100066 L-300.01725081320114,19.75875532586258 M-303.9862764319872,-103.93663779004515 L-267.4908843775502,-111.600270984573 M279.677847078171,24.659646576385 L242.9348682511719,33.3298455814147 M280.9510301459928,155.0614398285041 L244.39812459343563,164.1810395689755 M315.596568375725,164.1810395689755 L279.0364227110246,173.36987287975336 M277.74378538953454,42.06620125535659 L314.494114957743,33.3298455814147 M445.448540056116,65.94106428295476 L408.6795675975052,74.92851522127859 M445.59853257830406,110.27161282345128 L408.8932689650693,119.41488527395012 M434.8438697593689,107.54233288177318 L398.1395975561999,116.66449002565008 M435.5110551891446,283.17579489047876 L399.05940624533895,292.9088854690664" stroke="black"  stroke-width="4"  fill="red"/>
<path d="M435.5110551891446,283.17579489047876 L399.05940624533895,292.9088854690664 M474.7997812886311,293.88630907602953 L438.34502224523675,303.70182351300883 M435.5110551891446,283.17579489047876 L474.7997812886311,293.88630907602953 M399.05940624533895,292.9088854690664 L438.34502224523675,303.70182351300883 M474.39937742172344,117.58058842388823 L437.69193066389926,126.78052806535288 M474.7997812886311,293.88630907602953 L474.39937742172344,117.58058842388823 M438.34502224523675,303.70182351300883 L437.69193066389926,126.78052806535288 M434.8438697593689,107.54233288177318 L398.1395975561999,116.66449002565008 M474.39937742172344,117.58058842388823 L434.8438697593689,107.54233288177318 M437.69193066389926,126.78052806535288 L398.1395975561999,116.66449002565008 M434.8438697593689,107.54233288177318 L435.5110551891446,283.17579489047876 M398.1395975561999,116.66449002565008 L399.05940624533895,292.9088854690664" stroke="black"  stroke-width="4"  fill="red"/>
<path d="M-425.30675912395293,48.5079314420928 L-461.3716764651922,56.52263746416668 M-392.95563753513807,57.32718269035399 L-429.04610525070746,65.40344226951555 M-425.30675912395293,48.5079314420928 L-392.95563753513807,57.32718269035399 M-461.3716764651922,56.52263746416668 L-429.04610525070746,65.40344226951555 M-398.71778489263806,-103.99596845744935 L-435.05383098933714,-96.4358698101683 M-392.95563753513807,57.32718269035399 L-398.71778489263806,-103.99596845744935 M-429.04610525070746,65.40344226951555 L-435.05383098933714,-96.4358698101683 M-431.24732275734266,-112.25119846334769 L-467.5573386695015,-104.74907649815242 M-398.71778489263806,-103.99596845744935 L-431.24732275734266,-112.25119846334769 M-435.05383098933714,-96.4358698101683 L-467.5573386695015,-104.74907649815242 M-431.24732275734266,-112.25119846334769 L-425.30675912395293,48.5079314420928 M-467.5573386695015,-104.74907649815242 L-461.3716764651922,56.52263746416668" stroke="black"  stroke-width="4"  fill="red"/>
<path d="M633.7227282067049,-176.37342479637823 L604.5091810923095,-169.8484675320974 M633.5831491975299,-140.06586058047606 L604.4098345839942,-133.43625936372314 M633.7227282067049,-176.37342479637823 L633.5831491975299,-140.06586058047606 M604.5091810923095,-169.8484675320974 L604.4098345839942,-133.43625936372314 M642.6564770592365,-174.4202229322268 L613.4434626509645,-167.88298741313156 M642.6564770592365,-174.4202229322268 L633.7227282067049,-176.37342479637823 M613.4434626509645,-167.88298741313156 L604.5091810923095,-169.8484675320974 M1480.151016047835,48.25407684451466 L1451.2615779237944,56.11812049264671 M633.5831491975299,-140.06586058047606 L1480.151016047835,48.25407684451466 M604.4098345839942,-133.43625936372314 L1451.2615779237944,56.11812049264671 M643.2692118689461,-320.7923822372379 L642.6564770592365,-174.4202229322268 M634.2849452818825,-322.6184274005086 L643.2692118689461,-320.7923822372379 M634.4264828975054,-359.4354681472855 L634.2849452818825,-322.6184274005086 M746.4206761917561,-337.106407802014 L634.4264828975054,-359.4354681472855 M746.4206761917561,-337.106407802014 L745.518568472465,-225.76658503397084 M745.518568472465,-225.76658503397084 L776.1541727709849,-219.30364472694077 M776.1541727709849,-219.30364472694077 L777.1897130972756,-330.9717711604155 M1324.419296926053,-221.86680740639122 L777.1897130972756,-330.9717711604155 M1324.419296926053,-221.86680740639122 L1320.8723178300672,-104.38895848903718 M1320.8723178300672,-104.38895848903718 L1355.2859882110122,-97.12899079750406 M1355.2859882110122,-97.12899079750406 L1359.0004698883668,-214.97211871608556 M1488.8167628221604,-189.08974255483054 L1359.0004698883668,-214.97211871608556 M1487.36147628717,-149.23128909084994 L1488.8167628221604,-189.08974255483054 M1476.7150407305694,-151.39516879831535 L1487.36147628717,-149.23128909084994 M1471.0082292564132,6.683836883162257 L1476.7150407305694,-151.39516879831535 M1481.5843776475804,8.996119564727906 L1471.0082292564132,6.683836883162257 M1480.151016047835,48.25407684451466 L1481.5843776475804,8.996119564727906 M613.8941607750086,-314.68059221341196 L613.4434626509645,-167.88298741313156 M604.9093524804663,-316.51818079823875 L613.8941607750086,-314.68059221341196 M605.0100974592177,-353.4429524930133 L604.9093524804663,-316.51818079823875 M717.0148919138867,-330.9717711604155 L605.0100974592177,-353.4429524930133 M716.2346902915168,-219.30364472694077 L717.0148919138867,-330.9717711604155 M746.8746101399007,-212.799436975567 L716.2346902915168,-219.30364472694077 M747.788299775465,-324.79779591545935 L746.8746101399007,-212.799436975567 M1295.2006595660928,-214.97211871608556 L747.788299775465,-324.79779591545935 M1291.7731335571486,-97.12899079750406 L1295.2006595660928,-214.97211871608556 M1326.2047920445016,-89.81987702911675 L1291.7731335571486,-97.12899079750406 M1329.80006555462,-208.03054510083234 L1326.2047920445016,-89.81987702911675 M1459.691894839102,-181.97074236037224 L1329.80006555462,-208.03054510083234 M1458.2761085551533,-141.98613089504033 L1459.691894839102,-181.97074236037224 M1447.623075927826,-144.16490761548107 L1458.2761085551533,-141.98613089504033 M1442.073335586688,14.409850633689246 L1447.623075927826,-144.16490761548107 M1452.655961809909,16.737955172552688 L1442.073335586688,14.409850633689246 M1451.2615779237944,56.11812049264671 L1452.655961809909,16.737955172552688 M643.2692118689461,-320.7923822372379 L613.8941607750086,-314.68059221341196 M1481.5843776475804,8.996119564727906 L1452.655961809909,16.737955172552688 M634.2849452818825,-322.6184274005086 L604.9093524804663,-316.51818079823875 M634.4264828975054,-359.4354681472855 L605.0100974592177,-353.4429524930133 M746.4206761917561,-337.106407802014 L717.0148919138867,-330.9717711604155 M745.518568472465,-225.76658503397084 L716.2346902915168,-219.30364472694077 M776.1541727709849,-219.30364472694077 L746.8746101399007,-212.799436975567 M747.788299775465,-324.79779591545935 L777.1897130972756,-330.9717711604155 M1324.419296926053,-221.86680740639122 L1295.2006595660928,-214.97211871608556 M1320.8723178300672,-104.38895848903718 L1291.7731335571486,-97.12899079750406 M1355.2859882110122,-97.12899079750406 L1326.2047920445016,-89.81987702911675 M1329.80006555462,-208.03054510083234 L1359.0004698883668,-214.97211871608556 M1488.8167628221604,-189.08974255483054 L1459.691894839102,-181.97074236037224 M1487.36147628717,-149.23128909084994 L1458.2761085551533,-141.98613089504033 M1476.7150407305694,-151.39516879831535 L1447.623075927826,-144.16490761548107 M1471.0082292564132,6.683836883162257 L1442.073335586688,14.409850633689246" stroke="black"  stroke-width="4"  fill="red"/>
<path d="M1471.0082292564132,6.683836883162257 L1442.073335586688,14.409850633689246 M1509.893350182124,15.185362047295826 L1480.9826366636437,22.96962762387591 M1471.0082292564132,6.683836883162257 L1509.893350182124,15.185362047295826 M1442.073335586688,14.409850633689246 L1480.9826366636437,22.96962762387591 M1515.8592364962315,-143.43914159728183 L1486.7918975555501,-136.15403224177294 M1509.893350182124,15.185362047295826 L1515.8592364962315,-143.43914159728183 M1480.9826366636437,22.96962762387591 L1486.7918975555501,-136.15403224177294 M1476.7150407305694,-151.39516879831535 L1447.623075927826,-144.16490761548107 M1515.8592364962315,-143.43914159728183 L1476.7150407305694,-151.39516879831535 M1486.7918975555501,-136.15403224177294 L1447.623075927826,-144.16490761548107 M1476.7150407305694,-151.39516879831535 L1471.0082292564132,6.683836883162257 M1447.623075927826,-144.16490761548107 L1442.073335586688,14.409850633689246" stroke="black"  stroke-width="4"  fill="red"/>
<path d="M609.9811611862194,-181.564087051132 L580.7664541593524,-175.07170316110683 M642.6564770592365,-174.4202229322268 L613.4434626509645,-167.88298741313156 M609.9811611862194,-181.564087051132 L642.6564770592365,-174.4202229322268 M580.7664541593524,-175.07170316110683 L613.4434626509645,-167.88298741313156 M643.2692118689461,-320.7923822372379 L613.8941607750086,-314.68059221341196 M642.6564770592365,-174.4202229322268 L643.2692118689461,-320.7923822372379 M613.4434626509645,-167.88298741313156 L613.8941607750086,-314.68059221341196 M610.4095849968257,-327.47107572159143 L581.0328127166829,-321.4014521465822 M643.2692118689461,-320.7923822372379 L610.4095849968257,-327.47107572159143 M613.8941607750086,-314.68059221341196 L581.0328127166829,-321.4014521465822 M610.4095849968257,-327.47107572159143 L609.9811611862194,-181.564087051132 M581.0328127166829,-321.4014521465822 L580.7664541593524,-175.07170316110683" stroke="black"  stroke-width="4"  fill="red"/></svg>