<svg version="1.1" xmlns="http://www.w3.org/2000/svg" viewBox="-18.366564172832316 -16.95830183608235 36.73312834566463 30.898985402940003" fill="none" stroke="black" stroke-width="0.6%" vector-effect="non-scaling-stroke">
    <path d="M -16.09969 -9.42019 L -16.09969 -10.36694 L -5.36656 -3.45565" />
    <path d="M -5.36656 -2.5089 L -5.36656 -3.45565" />
    <path d="M -16.09969 -9.42019 L -5.36656 -2.5089 A 12 3.86353 180 0 0 17.36656 -4.23672" />
    <path d="M -16.09969 -10.36694 A 12 3.86353 360 0 1 -17.36656 -12.09477 A 12 3.86353 360 0 1 5.36656 -13.82259" />
    <path d="M -17.36656 -11.14802 A 12 3.86353 180 0 0 -16.09969 -9.42019" />
    <path d="M 16.09969 -6.9113 A 12 3.86353 360 0 1 17.36656 -5.18347 A 12 3.86353 360 0 1 -5.36656 -3.45565" />
    <path d="M 16.09969 -6.9113 L 5.36656 -13.82259" />
    <path d="M -1.34164 -1.03325 L -1.34164 4.44555" />
    <path d="M -7.60263 7.07328 L -7.60263 -3.94875" />
    <path d="M -10.28591 -5.67657 L -10.28591 5.8854 L -8.27345 7.18127 L -8.27345 -4.3807" />
    <path d="M -7.60263 7.07328 L -8.27345 7.18127" />
    <path d="M 7.60263 -0.44085 L 7.60263 10.20496 L 9.61509 11.50083 L 9.61509 -0.62343" />
    <path d="M 1.34164 12.83269 L 1.34164 -0.59699" />
    <path d="M -1.34164 -1.03325 L -1.34164 11.64481 L 0.67082 12.94068 L 0.67082 -0.68127" />
    <path d="M -0.16771 -0.38043 L -0.16771 -0.8086" />
    <path d="M 1.34164 12.83269 L 0.67082 12.94068" />
    <path d="M 1.34164 0.08666 L 4.29422 -0.38864" />
    <path d="M 10.28591 11.39284 L 10.28591 -0.71275" />
    <path d="M 10.28591 11.39284 L 9.61509 11.50083" />
    <path d="M -0.53666 -0.873 L -0.53666 -0.59101 L -0.20125 -0.37503 L -0.16771 -0.38043" />
    <path d="M -0.20125 -0.81423 L -0.20125 -0.37503" />
    <path d="M -17.36656 -12.09477 L -17.36656 -11.14802" />
    <path d="M 17.36656 -5.18347 L 17.36656 -4.23672" />
</svg>